<?xml version="1.0" encoding="UTF-8" standalone="no"?>
<svg
   width="64"
   height="70"
   viewBox="0 0 63.999998 70.000002"
   creator="Katerina Limpitsouni"
   version="1.1"
   id="svg138"
   sodipodi:docname="clock.svg"
   inkscape:version="1.2.1 (9c6d41e4, 2022-07-14)"
   xmlns:inkscape="http://www.inkscape.org/namespaces/inkscape"
   xmlns:sodipodi="http://sodipodi.sourceforge.net/DTD/sodipodi-0.dtd"
   xmlns="http://www.w3.org/2000/svg"
   xmlns:svg="http://www.w3.org/2000/svg">
  <defs
     id="defs142" />
  <sodipodi:namedview
     id="namedview140"
     pagecolor="#ffffff"
     bordercolor="#666666"
     borderopacity="1.0"
     inkscape:showpageshadow="2"
     inkscape:pageopacity="0.0"
     inkscape:pagecheckerboard="0"
     inkscape:deskcolor="#d1d1d1"
     showgrid="false"
     inkscape:zoom="4.0770529"
     inkscape:cx="37.036556"
     inkscape:cy="42.309973"
     inkscape:window-width="1311"
     inkscape:window-height="817"
     inkscape:window-x="2074"
     inkscape:window-y="654"
     inkscape:window-maximized="0"
     inkscape:current-layer="svg138" />
  <g
     id="g10898"
     transform="translate(0.88722512,-13.368805)">
    <path
       d="m 18.58129,27.129979 c -11.11811,4.34773 -18.93227,15.30504 -18.56914,27.38151 0.18677,6.21116 2.34932,12.26756 6.17289,17.16272 3.85513,4.93558 9.4232,8.4673 15.43312,10.15966 12.25327,3.45045 25.88996,-0.91953 33.73527,-10.94716 7.28405,-9.31024 9.28783,-22.32824 3.52619,-32.92515 -3.22511,-5.93168 -8.79029,-10.00702 -15.29424,-11.68265 -6.79473,-1.75054 -13.92437,-1.18665 -20.82196,-0.49796 -1.34344,0.13414 -2.5,1.053 -2.5,2.5 0,1.24788 1.14827,2.63497 2.5,2.5 10.04139,-1.00259 22.28997,-2.09194 29.58052,6.40519 6.35541,7.40723 6.16692,18.65048 1.59953,26.86017 -5.27337,9.47867 -15.61876,14.81591 -26.4016,13.84035 -5.30664,-0.48011 -10.58965,-2.70689 -14.57034,-6.25965 -3.89431,-3.47566 -6.4612,-8.08115 -7.50874,-13.18642 -2.24364,-10.93457 4.03788,-22.41846 14.4477,-26.48921 1.25668,-0.49142 2.13051,-1.67648 1.7461,-3.0753 -0.3294,-1.19861 -1.81083,-2.24057 -3.0753,-1.7461 z"
       fill="#01010C"
       origin="undraw"
       id="path132"
       style="fill:#ff4751;fill-opacity:1" />
    <path
       d="m 27.679893,41.211349 -0.103824,13.487007 c -0.01127,1.463836 1.580964,2.649814 2.790685,2.419639 1.483193,-0.282216 2.158654,-1.542158 2.170733,-3.110677 L 32.641311,40.52031 c 0.01127,-1.463835 -1.580964,-2.649814 -2.790685,-2.419639 -1.483193,0.282216 -2.158654,1.542158 -2.170733,3.110678 z"
       fill="#01010C"
       id="path134"
       style="fill:#ff4751;fill-opacity:1;stroke-width:1.05578" />
    <path
       d="m 32.987595,55.968735 c 3.612816,-4.85809 7.225632,-9.716178 10.838448,-14.574267 0.782648,-1.052422 0.418919,-2.791472 -0.695207,-3.466506 -1.208259,-0.732067 -2.631667,-0.427388 -3.466505,0.695207 -3.612816,4.85809 -7.225632,9.716178 -10.838448,14.574267 -0.782648,1.052422 -0.418919,2.791472 0.695207,3.466506 1.208259,0.732067 2.631667,0.427388 3.466505,-0.695207 z"
       fill="#01010C"
       id="path136"
       style="fill:#ff4751;fill-opacity:1" />
    <path
       d="m 47.05327,31.445597 c 2.86169,2.96779 6.13989,5.55964 9.67896,7.67375 1.67583,1.00108 3.69842,-0.29861 3.7618,-2.15868 l 0.0042,-0.12261 -0.73223,1.76777 c 2.68831,-2.64848 3.10571,-7.02251 1.29084,-10.27008 -1.84354,-3.29887 -5.8677,-4.63178 -9.4218,-3.62809 -2.01622,0.56938 -3.77608,1.84751 -4.87716,3.63519 l 0.89688,-0.89688 -0.09551,0.0732 c -0.5403,0.41408 -0.96037,0.80947 -1.1489,1.49408 -0.16479,0.59843 -0.09039,1.39529 0.25202,1.9264 0.34415,0.53381 0.85662,1.00371 1.49408,1.1489 0.60817,0.13852 1.40645,0.14646 1.9264,-0.25202 0.39015,-0.299 0.71247,-0.56585 0.99239,-0.97008 0.05011,-0.07236 0.17176,-0.35249 0.2554,-0.38429 0.0174,-0.0066 -0.44013,0.5204 -0.17839,0.23561 0.05155,-0.05609 0.09943,-0.11549 0.15104,-0.17163 0.11587,-0.12603 0.2381,-0.24605 0.36548,-0.36039 0.05637,-0.05059 0.11888,-0.09597 0.17288,-0.14878 0.18425,-0.18016 -0.30649,0.26738 -0.28161,0.21479 0.04398,-0.09299 0.29175,-0.20423 0.37721,-0.25788 0.1293,-0.08118 0.26185,-0.15736 0.39696,-0.22846 0.11107,-0.05846 0.67064,-0.30805 0.22174,-0.11652 -0.46051,0.19649 0.09111,-0.0221 0.18751,-0.05312 0.1465,-0.04714 0.29447,-0.08898 0.44394,-0.12563 0.14991,-0.03676 0.30054,-0.0651 0.45204,-0.09411 0.51366,-0.09834 -0.65594,0.05751 -0.03471,0.012 0.30618,-0.02243 0.61417,-0.02327 0.92041,-0.0015 0.05671,0.004 0.11486,0.01381 0.17161,0.01484 0.30226,0.0055 -0.62027,-0.10436 -0.32338,-0.04586 0.1687,0.03324 0.33743,0.05973 0.50466,0.10099 0.14774,0.03645 0.29418,0.0787 0.43853,0.12687 0.24599,0.08208 0.58245,0.33705 -0.06649,-0.04389 0.27954,0.1641 0.56594,0.31358 0.84363,0.48295 0.24931,0.15207 -0.44162,-0.38538 -0.22876,-0.18033 0.04214,0.0406 0.09166,0.07574 0.13574,0.1144 0.1179,0.1034 0.23102,0.21246 0.33884,0.32633 0.05357,0.05657 0.10303,0.11772 0.15714,0.17373 0.26779,0.27722 -0.17696,-0.23804 -0.1706,-0.23319 0.11485,0.08757 0.22174,0.31418 0.29545,0.43432 0.08155,0.13291 0.15733,0.26897 0.2277,0.40812 0.03519,0.06959 0.06556,0.14182 0.1014,0.21095 0.1369,0.26407 -0.20891,-0.55583 -0.11553,-0.27317 0.10515,0.31829 0.21472,0.62839 0.28479,0.95755 0.05165,0.24261 0.0476,0.73816 0.0071,-0.08237 0.0068,0.13737 0.02816,0.27445 0.03576,0.41208 0.0186,0.33675 -2.3e-4,0.66725 -0.0207,1.00309 -0.02439,0.40033 0.03617,-0.33106 0.04504,-0.31367 0.02054,0.04029 -0.04092,0.23556 -0.05192,0.28969 -0.03509,0.1727 -0.07694,0.34397 -0.12663,0.51307 -0.04316,0.14687 -0.08723,0.44012 -0.19236,0.55282 -0.0095,0.01013 0.29634,-0.62062 0.11055,-0.27645 -0.03694,0.06842 -0.06869,0.13979 -0.10521,0.20851 -0.09134,0.17187 -0.19184,0.33907 -0.30127,0.50003 -0.03321,0.04885 -0.09298,0.16197 -0.13585,0.19056 0.07428,-0.04952 0.42179,-0.49376 0.13173,-0.18722 -0.23085,0.24397 -0.52556,0.51918 -0.67656,0.80498 -0.2308,0.43684 -0.32871,0.89154 -0.3455,1.38441 l 3.7618,-2.15868 c -0.81723,-0.48818 -1.61983,-0.99998 -2.4044,-1.53916 -0.40342,-0.27724 -0.80216,-0.56124 -1.19605,-0.85186 -0.15914,-0.11742 -0.49217,-0.27636 -0.58719,-0.44079 0.05163,0.08934 0.39012,0.30587 0.11868,0.09157 -0.10672,-0.08426 -0.21379,-0.16806 -0.32013,-0.2528 -1.51052,-1.20386 -2.93731,-2.50856 -4.27792,-3.89887 -0.90947,-0.94319 -2.63353,-0.9826 -3.53553,0 -0.92988,1.01296 -0.97033,2.52923 0,3.53553 z"
       fill="#01010c"
       id="path6330"
       style="fill:#ff4751;fill-opacity:1" />
    <path
       d="m 25.177911,25.37185 c 4.08051,0.588628 8.259381,0.624863 12.35125,0.123774 1.937593,-0.237276 2.73781,-2.504371 1.64694,-4.012309 l -0.07189,-0.09941 0.506006,1.8453 c 0.498676,-3.740692 -1.854603,-7.451277 -5.279958,-8.902969 -3.479464,-1.474623 -7.47528,-0.05901 -9.666626,2.913706 -1.243143,1.686397 -1.849083,3.775311 -1.622179,5.862579 l 0.158219,-1.258473 -0.03053,0.116397 c -0.172736,0.658444 -0.261978,1.228381 0.009,1.884718 0.236915,0.573712 0.784452,1.157428 1.380655,1.366866 0.599234,0.210503 1.292204,0.267287 1.884719,-0.009 0.565291,-0.263637 1.200634,-0.747014 1.366866,-1.380656 0.124736,-0.475456 0.21562,-0.883916 0.188752,-1.374869 -0.0048,-0.08789 -0.08056,-0.383747 -0.034,-0.460165 0.0097,-0.01588 -0.02841,0.680972 0.0036,0.295503 0.0063,-0.07592 0.0077,-0.152201 0.01402,-0.228196 0.01421,-0.17061 0.03713,-0.340373 0.0676,-0.50881 0.01349,-0.07453 0.03502,-0.148715 0.04528,-0.223546 0.03501,-0.255303 -0.07806,0.399168 -0.09067,0.342373 -0.0223,-0.100419 0.10515,-0.340252 0.139738,-0.435044 0.05233,-0.143425 0.110285,-0.284894 0.173382,-0.423922 0.05186,-0.114299 0.340713,-0.654651 0.103657,-0.228037 -0.243183,0.437653 0.0584,-0.07334 0.115511,-0.156968 0.08679,-0.127091 0.17799,-0.250897 0.27356,-0.371524 0.09585,-0.120985 0.197432,-0.235761 0.299291,-0.351599 0.345363,-0.392736 -0.482779,0.44776 -0.02005,0.03077 0.228059,-0.20552 0.470791,-0.395098 0.726009,-0.565745 0.04724,-0.03163 0.09919,-0.05955 0.144638,-0.09354 0.242096,-0.181056 -0.553894,0.298038 -0.283531,0.162134 0.153626,-0.07722 0.303136,-0.159798 0.46052,-0.229787 0.139041,-0.06183 0.280613,-0.118287 0.424165,-0.168784 0.244627,-0.08606 0.666752,-0.09106 -0.07943,0.0061 0.321433,-0.04186 0.639317,-0.09947 0.962521,-0.136037 0.290179,-0.03282 -0.58517,-0.03349 -0.291283,-0.0021 0.05818,0.0062 0.11885,0.0036 0.177377,0.0071 0.156539,0.0093 0.312775,0.0261 0.467776,0.04989 0.07701,0.01182 0.153579,0.02978 0.23067,0.04082 0.381538,0.05469 -0.285771,-0.07946 -0.277772,-0.07953 0.144421,-0.0013 0.367839,0.112125 0.499746,0.161798 0.14593,0.05495 0.289237,0.115926 0.430167,0.182663 0.07048,0.03338 0.138767,0.07179 0.209476,0.104409 0.270097,0.124588 -0.505929,-0.310847 -0.258801,-0.144883 0.278279,0.186885 0.555025,0.364591 0.812265,0.581578 0.189605,0.15993 0.490366,0.553794 -0.04492,-0.06941 0.08963,0.104323 0.190582,0.199485 0.281004,0.303522 0.221244,0.254552 0.409094,0.527127 0.598925,0.804926 0.226291,0.331137 -0.174499,-0.283654 -0.156826,-0.275359 0.04093,0.01922 0.112169,0.211142 0.136684,0.26064 0.07822,0.15792 0.150217,0.318857 0.214695,0.482889 0.056,0.14247 0.201067,0.401107 0.187164,0.554601 -0.0013,0.01383 -0.146629,-0.671927 -0.08226,-0.286146 0.01279,0.0767 0.03149,0.152538 0.0448,0.229212 0.03328,0.191767 0.05647,0.385465 0.06877,0.579711 0.0037,0.05895 0.02591,0.184954 0.0096,0.23383 0.02829,-0.08467 0.03026,-0.648683 -0.0108,-0.228665 -0.03268,0.334283 -0.09663,0.73241 -0.04058,1.050752 0.08567,0.486579 0.287241,0.905752 0.576296,1.305314 l 1.64694,-4.01231 c -0.944879,0.115713 -1.892691,0.203797 -2.843057,0.259197 -0.48867,0.02849 -0.97779,0.04877 -1.46714,0.06084 -0.19771,0.0049 -0.558224,0.08362 -0.734127,0.01204 0.09558,0.03889 0.495726,0.0023 0.149899,-4.75e-4 -0.135969,-0.0011 -0.271933,-0.0016 -0.407897,-0.0033 -1.931414,-0.02427 -3.858552,-0.179549 -5.770138,-0.455299 -1.296822,-0.187071 -2.682639,0.839305 -2.792322,2.168619 -0.113081,1.370393 0.78502,2.592737 2.168619,2.792322 z"
       fill="#01010c"
       id="path6330-6"
       style="fill:#ff4751;fill-opacity:1" />
  </g>
</svg>
