<?xml version="1.0" encoding="UTF-8" standalone="no"?>
<svg
   data-name="Layer 1"
   width="650"
   height="578"
   viewBox="0 28 650 578"
   version="1.1"
   id="svg342"
   sodipodi:docname="coder.svg"
   inkscape:version="1.2.1 (9c6d41e4, 2022-07-14)"
   xmlns:inkscape="http://www.inkscape.org/namespaces/inkscape"
   xmlns:sodipodi="http://sodipodi.sourceforge.net/DTD/sodipodi-0.dtd"
   xmlns="http://www.w3.org/2000/svg"
   xmlns:svg="http://www.w3.org/2000/svg">
  <defs
     id="defs346">
    <inkscape:path-effect
       effect="spiro"
       id="path-effect28963"
       is_visible="true"
       lpeversion="1" />
    <inkscape:path-effect
       effect="bspline"
       id="path-effect28892"
       is_visible="true"
       lpeversion="1"
       weight="33.333333"
       steps="2"
       helper_size="0"
       apply_no_weight="true"
       apply_with_weight="true"
       only_selected="false" />
    <inkscape:path-effect
       effect="bspline"
       id="path-effect28888"
       is_visible="true"
       lpeversion="1"
       weight="33.333333"
       steps="2"
       helper_size="0"
       apply_no_weight="true"
       apply_with_weight="true"
       only_selected="false" />
    <inkscape:path-effect
       effect="spiro"
       id="path-effect28884"
       is_visible="true"
       lpeversion="1" />
    <clipPath
       clipPathUnits="userSpaceOnUse"
       id="clipPath32250">
      <path
         d="M 472.78212,533.90132 C 385.41605,556.85119 293.07553,586.48725 202.68667,561.9566 130.28144,533.53022 63.75748,483.61407 24.70479,415.57369 5.9846504,366.7459 15.34122,313.30568 6.2702404,262.73042 2.7952804,195.3351 22.84446,119.22003 81.7617,79.843494 128.82502,51.663687 186.72926,60.195101 237.82706,70.19833 c 34.89898,8.882353 65.29375,36.28864 72.68794,72.27372 12.19896,38.76044 17.48289,88.14642 57.4572,109.08953 36.04762,14.12826 76.94662,-4.11175 112.16938,14.01746 75.35599,25.70718 116.17357,124.13572 75.91445,194.23176 -17.80517,33.59714 -48.67589,59.10486 -83.27391,74.09052 z"
         fill="#f4faff"
         id="path32252"
         style="fill:#d700cf;fill-opacity:1;stroke-width:1.35162"
         sodipodi:nodetypes="sccccccccccccccccccccccccccs" />
    </clipPath>
    <clipPath
       clipPathUnits="userSpaceOnUse"
       id="clipPath32278">
      <path
         d="M 472.78212,533.90132 C 385.41605,556.85119 293.07553,586.48725 202.68667,561.9566 130.28144,533.53022 63.75748,483.61407 24.70479,415.57369 5.9846504,366.7459 15.34122,313.30568 6.2702404,262.73042 2.7952804,195.3351 22.84446,119.22003 81.7617,79.8435 128.82502,51.66369 186.72926,60.1951 237.82706,70.19833 c 34.89898,8.88235 65.29375,36.28864 72.68794,72.27372 12.19896,38.76044 17.48289,88.14642 57.4572,109.08953 36.04762,14.12826 76.94662,-4.11175 112.16938,14.01746 75.35599,25.70718 116.17357,124.13572 75.91445,194.23176 -17.80517,33.59714 -48.67589,59.10486 -83.27391,74.09052 z"
         fill="#f4faff"
         id="path32280"
         style="fill:#d700cf;fill-opacity:1;stroke-width:1.35162"
         sodipodi:nodetypes="sccccccccccccccccccccccccccs" />
    </clipPath>
    <clipPath
       clipPathUnits="userSpaceOnUse"
       id="clipPath32304">
      <path
         d="M 783.78212,694.90132 C 696.41605,717.85119 604.07553,747.48725 513.68667,722.9566 441.28144,694.53022 374.75748,644.61407 335.70479,576.57369 316.98465,527.7459 326.34122,474.30568 317.27024,423.73042 313.79528,356.3351 333.84446,280.22003 392.7617,240.8435 c 47.06332,-28.17981 104.96756,-19.6484 156.06536,-9.64517 34.89898,8.88235 65.29375,36.28864 72.68794,72.27372 12.19896,38.76044 17.48289,88.14642 57.4572,109.08953 36.04762,14.12826 76.94662,-4.11175 112.16938,14.01746 75.35599,25.70718 116.17357,124.13572 75.91445,194.23176 -17.80517,33.59714 -48.67589,59.10486 -83.27391,74.09052 z"
         fill="#f4faff"
         id="path32306"
         style="fill:#d700cf;fill-opacity:1;stroke-width:1.35162"
         sodipodi:nodetypes="sccccccccccccccccccccccccccs" />
    </clipPath>
  </defs>
  <sodipodi:namedview
     id="namedview344"
     pagecolor="#ffffff"
     bordercolor="#666666"
     borderopacity="1.0"
     inkscape:showpageshadow="2"
     inkscape:pageopacity="0.0"
     inkscape:pagecheckerboard="0"
     inkscape:deskcolor="#d1d1d1"
     showgrid="false"
     inkscape:zoom="1.633218"
     inkscape:cx="357.88242"
     inkscape:cy="276.14195"
     inkscape:window-width="1920"
     inkscape:window-height="2024"
     inkscape:window-x="0"
     inkscape:window-y="25"
     inkscape:window-maximized="0"
     inkscape:current-layer="svg342" />
  <rect
     style="fill:#5c8dca;fill-rule:evenodd;stroke-width:0.0133153;stroke-linecap:round;stroke-linejoin:round;stroke-miterlimit:1;stop-color:#000000;fill-opacity:1"
     id="rect1611"
     width="638.61652"
     height="3.0614407"
     x="5.6917419"
     y="473.74579" />
  <path
     d="m 357.28001,375.07 h -64.92 a 3.17486,3.17486 0 0 0 -1.03,0.16 3.448,3.448 0 0 0 -2.43,3.3 v 102.56 h 71.85 V 378.53 a 3.46328,3.46328 0 0 0 -3.47,-3.46 z m -24.57,50.6 a 7.53127,7.53127 0 0 1 -1.56,4.6 7.665,7.665 0 0 1 -13.78,-4.6 v -11.9 a 7.67033,7.67033 0 0 1 15.34,0 z"
     fill="#2f2e41"
     id="path154" />
  <path
     d="m 288.68001,477.81 v 9.89 a 1.93971,1.93971 0 0 0 1.93,1.94 h 68.43 a 1.94622,1.94622 0 0 0 1.93,-1.94 v -9.89 z"
     fill="#3f3d56"
     id="path156" />
  <path
     d="m 464.78001,215.02 h -277.5 a 9.01147,9.01147 0 0 0 -9,8.99 v 187.26 a 9.0071,9.0071 0 0 0 9,9 h 277.5 a 9.00714,9.00714 0 0 0 9,-9 V 224.01 a 9.01151,9.01151 0 0 0 -9,-8.99 z"
     fill="#3f3d56"
     id="path158"
     style="fill:#5c8dca;fill-opacity:1" />
  <path
     d="m 462.46001,221.52 h -272.87 a 4.82046,4.82046 0 0 0 -4.81,4.82 v 182.62 a 4.81829,4.81829 0 0 0 4.81,4.81 h 272.87 a 4.81833,4.81833 0 0 0 4.81,-4.81 V 226.34 a 4.8205,4.8205 0 0 0 -4.81,-4.82 z"
     fill="#a5ceff"
     id="path160"
     style="fill:#cee8f4;fill-opacity:1" />
  <path
     d="m 412.24001,489.48 -2.52,-11.97 a 2.99238,2.99238 0 0 0 -1.86,-2.17 2.89431,2.89431 0 0 0 -1.06,-0.2 h -157.31 a 2.89455,2.89455 0 0 0 -1.06,0.2 2.99262,2.99262 0 0 0 -1.86,2.17 l -2.52,11.97 a 2.98724,2.98724 0 0 0 2.92,3.6 h 162.34 a 2.94839,2.94839 0 0 0 2.32,-1.11 2.98494,2.98494 0 0 0 0.61,-2.49 z"
     fill="#2f2e41"
     id="path162" />
  <rect
     x="250.64302"
     y="477.29578"
     width="5"
     height="3"
     rx="0.48819"
     fill="#3f3d56"
     id="rect164"
     ry="0.48819" />
  <rect
     x="260.64301"
     y="477.29578"
     width="5"
     height="3"
     rx="0.48819"
     fill="#3f3d56"
     id="rect166"
     ry="0.48819" />
  <rect
     x="270.64301"
     y="477.29578"
     width="5"
     height="3"
     rx="0.48819"
     fill="#3f3d56"
     id="rect168"
     ry="0.48819" />
  <rect
     x="280.64301"
     y="477.29578"
     width="5"
     height="3"
     rx="0.48819"
     fill="#3f3d56"
     id="rect170"
     ry="0.48819" />
  <rect
     x="290.64301"
     y="477.29578"
     width="5"
     height="3"
     rx="0.48819"
     fill="#3f3d56"
     id="rect172"
     ry="0.48819" />
  <rect
     x="300.64301"
     y="477.29578"
     width="5"
     height="3"
     rx="0.48819"
     fill="#3f3d56"
     id="rect174"
     ry="0.48819" />
  <rect
     x="310.64301"
     y="477.29578"
     width="5"
     height="3"
     rx="0.48819"
     fill="#3f3d56"
     id="rect176"
     ry="0.48819" />
  <rect
     x="320.64301"
     y="477.29578"
     width="5"
     height="3"
     rx="0.48819"
     fill="#3f3d56"
     id="rect178"
     ry="0.48819" />
  <rect
     x="330.64301"
     y="477.29578"
     width="5"
     height="3"
     rx="0.48819"
     fill="#3f3d56"
     id="rect180"
     ry="0.48819" />
  <rect
     x="340.64301"
     y="477.29578"
     width="5"
     height="3"
     rx="0.48819"
     fill="#3f3d56"
     id="rect182"
     ry="0.48819" />
  <rect
     x="350.64301"
     y="477.29578"
     width="5"
     height="3"
     rx="0.48819"
     fill="#3f3d56"
     id="rect184"
     ry="0.48819" />
  <rect
     x="360.64301"
     y="477.29578"
     width="5"
     height="3"
     rx="0.48819"
     fill="#3f3d56"
     id="rect186"
     ry="0.48819" />
  <rect
     x="370.64301"
     y="477.29578"
     width="5"
     height="3"
     rx="0.48819"
     fill="#3f3d56"
     id="rect188"
     ry="0.48819" />
  <rect
     x="380.64301"
     y="477.29578"
     width="5"
     height="3"
     rx="0.48819"
     fill="#3f3d56"
     id="rect190"
     ry="0.48819" />
  <rect
     x="390.64301"
     y="477.29578"
     width="5"
     height="3"
     rx="0.48819"
     fill="#3f3d56"
     id="rect192"
     ry="0.48819" />
  <rect
     x="400.64301"
     y="477.29578"
     width="5"
     height="3"
     rx="0.48819"
     fill="#3f3d56"
     id="rect194"
     ry="0.48819" />
  <rect
     x="250.52486"
     y="482.29578"
     width="5"
     height="3"
     rx="0.48819"
     fill="#3f3d56"
     id="rect196"
     ry="0.48819" />
  <rect
     x="260.52484"
     y="482.29578"
     width="5"
     height="3"
     rx="0.48819"
     fill="#3f3d56"
     id="rect198"
     ry="0.48819" />
  <rect
     x="270.52484"
     y="482.29578"
     width="5"
     height="3"
     rx="0.48819"
     fill="#3f3d56"
     id="rect200"
     ry="0.48819" />
  <rect
     x="280.52484"
     y="482.29578"
     width="5"
     height="3"
     rx="0.48819"
     fill="#3f3d56"
     id="rect202"
     ry="0.48819" />
  <rect
     x="290.52484"
     y="482.29578"
     width="5"
     height="3"
     rx="0.48819"
     fill="#3f3d56"
     id="rect204"
     ry="0.48819" />
  <rect
     x="300.52484"
     y="482.29578"
     width="5"
     height="3"
     rx="0.48819"
     fill="#3f3d56"
     id="rect206"
     ry="0.48819" />
  <rect
     x="310.52484"
     y="482.29578"
     width="5"
     height="3"
     rx="0.48819"
     fill="#3f3d56"
     id="rect208"
     ry="0.48819" />
  <rect
     x="320.52484"
     y="482.29578"
     width="5"
     height="3"
     rx="0.48819"
     fill="#3f3d56"
     id="rect210"
     ry="0.48819" />
  <rect
     x="330.52484"
     y="482.29578"
     width="5"
     height="3"
     rx="0.48819"
     fill="#3f3d56"
     id="rect212"
     ry="0.48819" />
  <rect
     x="340.52484"
     y="482.29578"
     width="5"
     height="3"
     rx="0.48819"
     fill="#3f3d56"
     id="rect214"
     ry="0.48819" />
  <rect
     x="350.52484"
     y="482.29578"
     width="5"
     height="3"
     rx="0.48819"
     fill="#3f3d56"
     id="rect216"
     ry="0.48819" />
  <rect
     x="360.52484"
     y="482.29578"
     width="5"
     height="3"
     rx="0.48819"
     fill="#3f3d56"
     id="rect218"
     ry="0.48819" />
  <rect
     x="370.52484"
     y="482.29578"
     width="5"
     height="3"
     rx="0.48819"
     fill="#3f3d56"
     id="rect220"
     ry="0.48819" />
  <rect
     x="380.52484"
     y="482.29578"
     width="5"
     height="3"
     rx="0.48819"
     fill="#3f3d56"
     id="rect222"
     ry="0.48819" />
  <rect
     x="390.52484"
     y="482.29578"
     width="5"
     height="3"
     rx="0.48819"
     fill="#3f3d56"
     id="rect224"
     ry="0.48819" />
  <rect
     x="400.52484"
     y="482.29578"
     width="5"
     height="3"
     rx="0.48819"
     fill="#3f3d56"
     id="rect226"
     ry="0.48819" />
  <rect
     x="298.52484"
     y="488.29578"
     width="40"
     height="3"
     rx="0.48819"
     fill="#3f3d56"
     id="rect228"
     ry="0.48819" />
  <path
     d="M 448.74814,246.67669 H 193.42478 a 1.01559,1.01559 0 0 1 0,-2.03069 h 255.32336 a 1.01559,1.01559 0 0 1 0,2.03069 z"
     fill="#3f3d56"
     id="path230"
     style="fill:#5c8dca;fill-opacity:1" />
  <ellipse
     cx="210.80498"
     cy="233.3788"
     rx="5.9504299"
     ry="6.0830402"
     fill="#3f3d56"
     id="ellipse232"
     style="fill:#5c8dca;fill-opacity:1" />
  <ellipse
     cx="231.36099"
     cy="233.3788"
     rx="5.9504299"
     ry="6.0830402"
     fill="#3f3d56"
     id="ellipse234"
     style="fill:#5c8dca;fill-opacity:1" />
  <ellipse
     cx="251.91702"
     cy="233.3788"
     rx="5.9504299"
     ry="6.0830402"
     fill="#3f3d56"
     id="ellipse236"
     style="fill:#5c8dca;fill-opacity:1" />
  <path
     d="m 436.37001,228.8 h -14.6 a 1.1053,1.1053 0 0 0 0,2.21 h 14.6 a 1.10511,1.10511 0 0 0 0,-2.21 z"
     fill="#3f3d56"
     id="path238"
     style="fill:#5c8dca;fill-opacity:1" />
  <path
     d="m 436.37001,232.95 h -14.6 a 1.10527,1.10527 0 0 0 0,2.21 h 14.6 a 1.10508,1.10508 0 0 0 0,-2.21 z"
     fill="#3f3d56"
     id="path240"
     style="fill:#5c8dca;fill-opacity:1" />
  <path
     d="m 436.37001,237.1 h -14.6 a 1.1053,1.1053 0 0 0 0,2.21 h 14.6 a 1.10511,1.10511 0 0 0 0,-2.21 z"
     fill="#3f3d56"
     id="path242"
     style="fill:#5c8dca;fill-opacity:1" />
  <rect
     x="207.31413"
     y="270.27328"
     width="11.00609"
     height="5.7599201"
     rx="2.8799601"
     fill="#e6e6e6"
     id="rect244"
     style="fill:#73a4e1;fill-opacity:1"
     ry="2.8799601" />
  <rect
     x="267.31412"
     y="270.27328"
     width="11.00609"
     height="5.7599201"
     rx="2.8799601"
     fill="#e6e6e6"
     id="rect246"
     style="fill:#73a4e1;fill-opacity:1"
     ry="2.8799601" />
  <rect
     x="284.31412"
     y="270.27328"
     width="11.00609"
     height="5.7599201"
     rx="2.8799601"
     fill="#e6e6e6"
     id="rect248"
     ry="2.8799601" />
  <rect
     x="223.63431"
     y="269.79312"
     width="38.3657"
     height="5.7599201"
     rx="2.8799601"
     fill="#e6e6e6"
     id="rect250"
     style="fill:#73a4e1;fill-opacity:1"
     ry="2.8799601" />
  <rect
     x="303.63431"
     y="269.79312"
     width="38.3657"
     height="5.7599201"
     rx="2.8799601"
     fill="#e6e6e6"
     id="rect252"
     ry="2.8799601" />
  <rect
     x="223.31413"
     y="283.27328"
     width="11.00609"
     height="5.7599201"
     rx="2.8799601"
     fill="#e6e6e6"
     id="rect254"
     style="fill:#73a4e1;fill-opacity:1"
     ry="2.8799601" />
  <rect
     x="283.31412"
     y="283.27328"
     width="11.00609"
     height="5.7599201"
     rx="2.8799601"
     fill="#e6e6e6"
     id="rect256"
     ry="2.8799601" />
  <rect
     x="300.31412"
     y="283.27328"
     width="11.00609"
     height="5.7599201"
     rx="2.8799601"
     fill="#e6e6e6"
     id="rect258"
     ry="2.8799601" />
  <rect
     x="239.63431"
     y="282.79312"
     width="38.3657"
     height="5.7599201"
     rx="2.8799601"
     fill="#e6e6e6"
     id="rect260"
     style="fill:#73a4e1;fill-opacity:1"
     ry="2.8799601" />
  <rect
     x="319.63431"
     y="282.79312"
     width="38.3657"
     height="5.7599201"
     rx="2.8799601"
     fill="#e6e6e6"
     id="rect262"
     ry="2.8799601" />
  <rect
     x="239.31413"
     y="296.27328"
     width="11.00609"
     height="5.7599201"
     rx="2.8799601"
     fill="#e6e6e6"
     id="rect264"
     style="fill:#73a4e1;fill-opacity:1"
     ry="2.8799601" />
  <rect
     x="299.31412"
     y="296.27328"
     width="11.00609"
     height="5.7599201"
     rx="2.8799601"
     fill="#e6e6e6"
     id="rect266"
     ry="2.8799601" />
  <rect
     x="316.31412"
     y="296.27328"
     width="11.00609"
     height="5.7599201"
     rx="2.8799601"
     fill="#e6e6e6"
     id="rect268"
     ry="2.8799601" />
  <rect
     x="255.63431"
     y="295.79312"
     width="38.3657"
     height="5.7599201"
     rx="2.8799601"
     fill="#e6e6e6"
     id="rect270"
     style="fill:#73a4e1;fill-opacity:1"
     ry="2.8799601" />
  <rect
     x="335.63431"
     y="295.79312"
     width="38.3657"
     height="5.7599201"
     rx="2.8799601"
     fill="#e6e6e6"
     id="rect272"
     ry="2.8799601" />
  <rect
     x="255.31413"
     y="309.27328"
     width="11.00609"
     height="5.7599201"
     rx="2.8799601"
     fill="#e6e6e6"
     id="rect274"
     style="fill:#73a4e1;fill-opacity:1"
     ry="2.8799601" />
  <rect
     x="315.31412"
     y="309.27328"
     width="11.00609"
     height="5.7599201"
     rx="2.8799601"
     fill="#e6e6e6"
     id="rect276"
     ry="2.8799601" />
  <rect
     x="332.31412"
     y="309.27328"
     width="11.00609"
     height="5.7599201"
     rx="2.8799601"
     fill="#e6e6e6"
     id="rect278"
     ry="2.8799601" />
  <rect
     x="271.63431"
     y="308.79312"
     width="38.3657"
     height="5.7599201"
     rx="2.8799601"
     fill="#e6e6e6"
     id="rect280"
     style="fill:#73a4e1;fill-opacity:1"
     ry="2.8799601" />
  <rect
     x="267.31412"
     y="360.9668"
     width="11.00609"
     height="5.7599201"
     rx="2.8799601"
     fill="#e6e6e6"
     id="rect282"
     style="fill:#73a4e1;fill-opacity:1"
     ry="2.8799601" />
  <rect
     x="284.31412"
     y="360.9668"
     width="11.00609"
     height="5.7599201"
     rx="2.8799601"
     fill="#e6e6e6"
     id="rect284"
     ry="2.8799601" />
  <rect
     x="303.63431"
     y="361.44696"
     width="38.3657"
     height="5.7599201"
     rx="2.8799601"
     fill="#e6e6e6"
     id="rect286"
     ry="2.8799601" />
  <rect
     x="207.31413"
     y="360.9668"
     width="11.00609"
     height="5.7599201"
     rx="2.8799601"
     fill="#e6e6e6"
     id="rect288"
     style="fill:#73a4e1;fill-opacity:1"
     ry="2.8799601" />
  <rect
     x="223.63431"
     y="361.44696"
     width="38.3657"
     height="5.7599201"
     rx="2.8799601"
     fill="#e6e6e6"
     id="rect290"
     style="fill:#73a4e1;fill-opacity:1"
     ry="2.8799601" />
  <rect
     x="223.31413"
     y="347.9668"
     width="11.00609"
     height="5.7599201"
     rx="2.8799601"
     fill="#e6e6e6"
     id="rect292"
     style="fill:#73a4e1;fill-opacity:1"
     ry="2.8799601" />
  <rect
     x="283.31412"
     y="347.9668"
     width="11.00609"
     height="5.7599201"
     rx="2.8799601"
     fill="#e6e6e6"
     id="rect294"
     ry="2.8799601" />
  <rect
     x="239.63431"
     y="348.44696"
     width="38.3657"
     height="5.7599201"
     rx="2.8799601"
     fill="#e6e6e6"
     id="rect298"
     style="fill:#73a4e1;fill-opacity:1"
     ry="2.8799601" />
  <rect
     x="239.31413"
     y="334.9668"
     width="11.00609"
     height="5.7599201"
     rx="2.8799601"
     fill="#e6e6e6"
     id="rect300"
     style="fill:#73a4e1;fill-opacity:1"
     ry="2.8799601" />
  <rect
     x="299.31412"
     y="334.9668"
     width="11.00609"
     height="5.7599201"
     rx="2.8799601"
     fill="#e6e6e6"
     id="rect302"
     ry="2.8799601" />
  <rect
     x="316.31412"
     y="334.9668"
     width="11.00609"
     height="5.7599201"
     rx="2.8799601"
     fill="#e6e6e6"
     id="rect304"
     ry="2.8799601" />
  <rect
     x="255.63431"
     y="335.44696"
     width="38.3657"
     height="5.7599201"
     rx="2.8799601"
     fill="#e6e6e6"
     id="rect306"
     style="fill:#73a4e1;fill-opacity:1"
     ry="2.8799601" />
  <rect
     x="255.31413"
     y="321.9668"
     width="11.00609"
     height="5.7599201"
     rx="2.8799601"
     fill="#e6e6e6"
     id="rect308"
     style="fill:#73a4e1;fill-opacity:1"
     ry="2.8799601" />
  <rect
     x="315.31412"
     y="321.9668"
     width="11.00609"
     height="5.7599201"
     rx="2.8799601"
     fill="#e6e6e6"
     id="rect310"
     ry="2.8799601" />
  <rect
     x="332.31412"
     y="321.9668"
     width="11.00609"
     height="5.7599201"
     rx="2.8799601"
     fill="#e6e6e6"
     id="rect312"
     ry="2.8799601" />
  <rect
     x="271.63431"
     y="322.44696"
     width="38.3657"
     height="5.7599201"
     rx="2.8799601"
     fill="#e6e6e6"
     id="rect314"
     style="fill:#73a4e1;fill-opacity:1"
     ry="2.8799601" />
  <path
     d="m 451.81001,546.77 c -0.61,0.31 -1.23,0.62 -1.84,0.92 -15.8,7.9 -28.43994,12.39 -45.73,17.31 -1.46,-16.3 -2.87,-44.95 -4.24,-62.71 -0.36,-4.61 -0.72,-8.48 -1.07,-11.21 a 15.1823,15.1823 0 0 0 -0.88,-4.25 l 0.06,4.25 0.15,11.21 0.87,64.11 a 288.58782,288.58782 0 0 1 -65.84,9.49 c -1.16,0.03 -2.3,0.05 -3.4,0.07 -0.39,0.01 -0.77,0.02 -1.15,0.02 -1.25,0.01 -2.49,0.02 -3.74,0.02 a 289.27116,289.27116 0 0 1 -69.54,-8.43 c 0.49,-16.13 0.98,-44.46 1.45,-65.28 0.1,-4.07 0.19,-7.86 0.29,-11.21 0.19,-7.16 0.39,-12.32 0.58,-14.05 a 4.36108,4.36108 0 0 0 -0.39,0.97 97.15388,97.15388 0 0 0 -1.89,13.08 c -0.35,3.35 -0.7,7.14 -1.05,11.21 -1.86,21.63 -3.8,51.04 -5.8,63.51 a 285.47262,285.47262 0 0 1 -34.97,-12.03 q -9,-3.75 -17.68,-8.09 c 1.1,-7.2 2.25,-15.27 3.43,-23.64 0.92,-6.49 1.87,-13.16 2.84,-19.75 1.5,-10.18 3.04,-20.16 4.6,-28.95 2.28,-12.84 4.62,-23.16 6.94,-27.9 2.2,-4.5 4.4,-8.94 6.53,-13.19 0.74,-1.49 1.48,-2.96 2.2,-4.39 0.17,-0.34 0.34,-0.67 0.51,-1 1.53,-3.01 3.01,-5.89 4.42,-8.59 1.21,-2.31 2.36005,-4.49 3.45,-6.5 2.64,-4.88 4.88,-8.77 6.54,-11.23 a 55.25656,55.25656 0 0 1 29.28,-22.21 l 0.3,-0.08 0.21,0.09 20.45,-6.28 2.99,-0.92 2.01,-0.62 7.08,-5.39 3.85,-2.93 3.61,-2.75 7.06,-5.37 43.71,2.69 8.51,20.49 19.06,6.97 0.33,-0.15 0.29,-0.12 0.3,0.08 a 55.306,55.306 0 0 1 29.28,22.21 c 0.93994,1.41 2.08,3.27 3.37,5.52 1.1,1.91 2.3,4.09 3.6,6.5 1.85,3.43005 3.87,7.30005 6.01,11.49 0.47,0.92 0.95,1.86 1.43,2.81 q 1.335,2.63993 2.71,5.38995 c 2.13,4.25 4.33,8.69 6.53,13.2 1.91,3.91 3.84,11.95 5.74,22.18 1.57,8.5 3.13,18.52 4.64,28.95 1.98,13.52 -0.13,29.71 1.66,42.15 0.11,0.79005 0.23,1.56005 0.34,2.33005 z"
     fill="#3f3d56"
     id="path316"
     style="fill:#cd4948;fill-opacity:1" />
  <circle
     cx="325.61505"
     cy="288.88824"
     r="50.836449"
     fill="#a0616a"
     id="circle318"
     style="fill:#c78f81;fill-opacity:1" />
  <path
     d="m 409.45001,221.52 a 26.60846,26.60846 0 0 0 -3.97,-6.5 c -7.72,-9.43 -21.76,-13.58 -36.17,-2.42 a 15.27875,15.27875 0 0 0 -8.35,0.48 12.91024,12.91024 0 0 0 -3.52,1.94 15.97041,15.97041 0 0 0 -4.94,6.5 15.52156,15.52156 0 0 0 -1.1,4.23 50.56537,50.56537 0 0 0 -11.23,-4.23 60.33992,60.33992 0 0 0 -29.13,0 36.54359,36.54359 0 0 0 -8.78,3.48 c -4.68,2.7 -7.37,6.11 -7.85,9.9 -6.75,0.38 -13.77,3.93 -19,9.75 -0.59,0.65 -1.16,1.33 -1.69,2.03 a 32.70853,32.70853 0 0 0 -6.72,20.05 V 268 h 1.27 a 26.87038,26.87038 0 0 1 10.15,1.98 27.58525,27.58525 0 0 1 5.89,3.25 28.764,28.764 0 0 1 3.37,2.8 33.48321,33.48321 0 0 1 6.12,8.05 37.4595,37.4595 0 0 1 4.08,24.71 36.19955,36.19955 0 0 1 -1.52,5.76 37.58443,37.58443 0 0 1 -3.71,7.63 c -0.06,0.09 -0.11,0.18 -0.17,0.27 -0.67,1.07 -1.31,2.16 -1.91,3.26 -0.45,0.82 -0.87,1.66 -1.26,2.5 a 51.95669,51.95669 0 0 0 -2.88,7.24 53.58646,53.58646 0 0 0 -2.44,13.54 c -0.07,1.22 -0.09,2.44 -0.05,3.66 a 51.97943,51.97943 0 0 0 1.03,9.36005 c 0.09,0.42 0.18005,0.83 0.27,1.25 l 0.73,3.19 1.73,7.61 1.2,5.24 1.11,4.86 1.64,-2.35 c 0.56,-0.8 1.97,-3.26 3.86,-6.74 1.25,-2.27 2.7,-4.98 4.27,-7.94 2.18994,-4.15 4.59,-8.78 6.93994,-13.4 0.95,-1.87 1.89,-3.73 2.80005,-5.55 1.72,-3.45 3.34,-6.78 4.73,-9.74 1.28,-2.73 2.37,-5.15 3.18,-7.09 0.25,1.27 0.46,2.56 0.62,3.86 0.18,1.32 0.31,2.66 0.38,4 0.02,0.2 0.03,0.41 0.04,0.61005 l 0.04,0.82 0.01,0.24 1.06,0.14 a 93.02194,93.02194 0 0 0 18.4,0.14 h 0.01 a 74.86185,74.86185 0 0 0 23.56,-5.71 49.25718,49.25718 0 0 0 11.8,-7.24 41.3,41.3 0 0 0 4.66,-4.52 c 0.36,-0.41 0.71,-0.82 1.05,-1.24 a 41.12455,41.12455 0 0 0 5.05,-7.9 41.80164,41.80164 0 0 0 2.34,-5.76 c 3.84,-11.63 3.62,-26.14 -0.66,-43.38 a 9.923,9.923 0 0 0 3.27,-1.26 c 3.14,-1.88995 5.32,-5.63995 6,-10.22 l 1.08,0.29 a 30.104,30.104 0 0 0 10.01,-7.54 24.11545,24.11545 0 0 0 1.54,-2.03 c 4.89001,-7.2001 4.93001,-15.8401 1.76001,-23.1301 z"
     fill="#2f2e41"
     id="path320"
     style="fill:#1f3a65;fill-opacity:1" />
  <polygon
     points="206.32,475.296 214.817,442.504 222.32,470.8 "
     opacity="0.2"
     id="polygon322"
     transform="translate(36.000013)" />
  <path
     d="m 468.43001,453.93 c -3.04,41.88 0.11,60.32 -16.67,94.85 a 286.15918,286.15918 0 0 1 -47.52,18.22 q -2.55,0.72 -5.11,1.4 a 288.58782,288.58782 0 0 1 -65.84,9.49 c -1.16,0.03 -2.3,0.05 -3.4,0.07 -0.39,0.01 -0.77,0.02 -1.15,0.02 -1.25,0.01 -2.49,0.02 -3.74,0.02 a 289.27116,289.27116 0 0 1 -69.54,-8.43 q -3.42,-0.84 -6.81,-1.77 a 285.47262,285.47262 0 0 1 -34.97,-12.03 q -9,-3.75 -17.68,-8.09 c -1.31,-0.66 -2.62,-1.32 -3.91,-2 -6.63,-11.66 -10.4,-25.84 -10.48,-42.88 4.59,-29.36 276.68,-74.19 286.82,-48.87 z"
     fill="#2f2e41"
     id="path324"
     style="fill:#98c2f8;fill-opacity:1" />
  <path
     d="m 468.42213,461.96807 c 0.15527,-2.59271 0.32886,-5.27093 0.53131,-8.05987 -10.14,-25.32 -282.23,19.51 -286.82,48.87 0.0126,2.69184 0.12775,5.30414 0.32129,7.85456 11.11559,-28.97829 269.60473,-71.58632 285.9674,-48.66469 z"
     opacity="0.2"
     id="path326"
     style="opacity:0.25;fill:#215eb7;fill-opacity:1" />
  <path
     d="m 199.09553,342.15162 a 6.36455,6.36455 0 0 0 -6.75274,-6.81562 5.8541,5.8541 0 0 0 -1.00507,0.12575 l -39.7621,8.98257 a 6.54762,6.54762 0 0 0 -4.20873,3.23509 8.18371,8.18371 0 0 0 -1.72738,0.25112 9.6613316,9.6613316 0 0 0 4.2714,18.84464 9.79394,9.79394 0 0 0 3.89453,-1.88439 l 13.474,37.9406 a 6.3285,6.3285 0 0 0 6.941,3.04646 l 25.84869,-5.84179 a 6.41623,6.41623 0 0 0 4.93088,-5.71623 z m -49.78137,21.92253 a 6.91049,6.91049 0 0 1 -3.0779,-13.47385 c 0.12556,-0.0314 0.25132,0 0.37688,-0.0314 a 6.50647,6.50647 0 0 0 0.84807,3.26634 l 4.93085,8.60569 a 6.50519,6.50519 0 0 1 -3.0779,1.63326 z"
     fill="#2f2e41"
     id="path328"
     style="fill:#1f3a65;fill-opacity:1" />
  <path
     d="m 192.34279,335.336 c 0.37688,5.02535 -8.22881,10.80427 -19.75539,13.09716 -10.58459,2.16714 -20.06959,0.65944 -22.73936,-3.29777 a 6.02524,6.02524 0 0 1 1.72758,-0.69107 l 39.7621,-8.98257 a 5.8541,5.8541 0 0 1 1.00507,-0.12575 z"
     fill="#3f3d56"
     id="path330"
     style="fill:#122c53;fill-opacity:1" />
  <path
     d="m 164.84334,462.90524 22.33367,-11.16681 -18.6114,-50.25079 -4.90493,-25.342 a 19.16137,19.16137 0 0 0 -31.28219,-10.90731 v 0 a 19.16136,19.16136 0 0 0 -2.49251,26.51833 l 18.20719,22.75891 z"
     fill="#a0616a"
     id="path332"
     style="fill:#c78f81;fill-opacity:1" />
  <path
     d="m 187.17701,442.43273 -29.77821,14.889 22.59854,70.80908 a 30.9768,30.9768 0 0 0 22.33567,20.7164 v 0 a 30.97681,30.97681 0 0 0 33.73743,-14.197 l 59.92487,-102.71393 a 31.62026,31.62026 0 0 0 -10.19564,-42.982 v 0 a 31.62037,31.62037 0 0 0 -45.29613,12.76511 l -36.576,77.93632 z"
     fill="#3f3d56"
     id="path334"
     style="fill:#cd4948;fill-opacity:1" />
  <path
     d="m 177.96681,378.44141 a 0.49632,0.49632 0 0 1 -0.1626,-0.0274 l -6.50147,-2.23828 a 0.49923,0.49923 0 0 1 -0.20556,-0.81055 l 4.83545,-5.26464 a 0.49972,0.49972 0 1 1 0.73633,0.67578 l -4.31885,4.70215 5.77929,1.99023 a 0.49991,0.49991 0 0 1 -0.16259,0.97266 z"
     fill="#a5ceff"
     id="path336" />
  <path
     d="m 186.87843,376.61719 a 0.5,0.5 0 0 1 -0.34766,-0.85938 l 4.39453,-4.249 -5.90332,-2.43262 a 0.49963,0.49963 0 1 1 0.38086,-0.92383 l 6.60938,2.72364 a 0.49951,0.49951 0 0 1 0.15722,0.82129 l -4.94336,4.77929 a 0.49966,0.49966 0 0 1 -0.34765,0.14061 z"
     fill="#a5ceff"
     id="path338" />
  <path
     d="m 179.33155,381.5 a 0.48228,0.48228 0 0 1 -0.147,-0.0225 0.49976,0.49976 0 0 1 -0.33105,-0.625 l 4.61474,-15 a 0.50026,0.50026 0 0 1 0.95606,0.29492 l -4.61475,15 a 0.50035,0.50035 0 0 1 -0.478,0.35254 z"
     fill="#a5ceff"
     id="path340" />
  <path
     style="fill:#1f3a65;fill-opacity:1;stroke:#000000;stroke-width:1.03308px;stroke-linecap:butt;stroke-linejoin:miter;stroke-opacity:1"
     d="M 216.96384,52.16532 Z"
     id="path30476" />
  <path
     style="fill:#98c2f8;fill-opacity:0.4983165;stroke-width:0.32"
     d="m 473.53598,401.36621 0.0814,-72.61488 0.87863,-0.17633 c 1.26108,-0.25309 6.72054,-0.76428 10.63862,-0.99614 5.70512,-0.33761 19.67664,0.81851 21.4663,1.77629 0.33338,0.17843 0.70349,0.71226 0.82247,1.18631 0.38579,1.53711 -0.18192,142.5417 -0.57581,143.01631 -0.28307,0.34109 -3.56051,0.42332 -16.87213,0.42332 l -16.52083,1e-5 z m 19.32492,-37.13984 c 3.7282,-1.16358 7.07911,-4.55901 8.15639,-8.26481 0.76457,-2.63005 0.49837,-6.76456 -0.58531,-9.09026 -1.18861,-2.55087 -3.43636,-4.84223 -5.97706,-6.09301 -1.98947,-0.97942 -2.30333,-1.03721 -5.6336,-1.03721 -3.15651,0 -3.71878,0.09 -5.35651,0.85762 -2.55664,1.1983 -4.844,3.44464 -6.09299,5.98373 -0.97924,1.99069 -1.03722,2.30558 -1.03722,5.6336 0,2.98849 0.11053,3.76472 0.72611,5.09956 2.77191,6.01057 9.39821,8.90883 15.80019,6.91078 z m 19.22794,74.87472 c 0,-0.616 0.0659,-0.868 0.14634,-0.56 0.0805,0.308 0.0805,0.812 0,1.12 -0.0805,0.308 -0.14634,0.056 -0.14634,-0.56 z m 37.44,-51.52 c 0,-0.616 0.0659,-0.868 0.14634,-0.56 0.0805,0.308 0.0805,0.812 0,1.12 -0.0805,0.308 -0.14634,0.056 -0.14634,-0.56 z m 46.08,-31.36 c 0,-0.616 0.0659,-0.868 0.14634,-0.56 0.0805,0.308 0.0805,0.812 0,1.12 -0.0805,0.308 -0.14634,0.056 -0.14634,-0.56 z"
     id="path1274" />
  <path
     style="fill:#98c2f8;fill-opacity:0.4983165;stroke-width:0.32"
     d="m 554.26586,473.36213 c -0.35516,-0.66364 -0.49635,-125.61851 -0.14297,-126.53939 0.70832,-1.8458 16.60173,-3.38651 25.46419,-2.46852 3.84122,0.39789 9.54314,1.42983 10.74752,1.94511 l 0.72,0.30803 v 63.0679 c 0,42.86235 -0.10611,63.26621 -0.33126,63.68687 -0.32144,0.60062 -0.86154,0.61896 -18.22874,0.61896 -17.3672,0 -17.9073,-0.0183 -18.22874,-0.61896 z m 23.69725,-93.39048 c 6.34765,-3.05296 9.00256,-10.85743 5.84784,-17.19043 -1.13341,-2.27529 -3.68121,-4.74432 -6.00288,-5.81732 -1.76848,-0.81731 -2.28685,-0.90281 -5.47347,-0.90281 -3.15658,0 -3.71056,0.0893 -5.36582,0.86496 -2.35725,1.10461 -4.97082,3.7187 -6.17383,6.17504 -0.86822,1.7727 -0.94006,2.19004 -0.93648,5.44 0.004,3.25103 0.0763,3.66671 0.95133,5.44 1.58675,3.21555 4.36298,5.56328 8.0048,6.76933 0.7928,0.26255 2.37622,0.38801 4.16,0.32962 2.46374,-0.0807 3.18474,-0.24085 4.98851,-1.10839 z m -65.85699,63.12944 c 0.003,-0.88 0.0645,-1.20202 0.13811,-0.7156 0.0735,0.48642 0.0716,1.20642 -0.004,1.6 -0.0759,0.39358 -0.13613,-0.004 -0.13373,-0.8844 z m 37.44,-59.84 c 0.003,-0.88 0.0645,-1.20202 0.13811,-0.7156 0.0735,0.48642 0.0716,1.20642 -0.004,1.6 -0.0759,0.39358 -0.13613,-0.004 -0.13373,-0.8844 z m 46.08,-23.04 c 0.003,-0.88 0.0645,-1.20202 0.13811,-0.7156 0.0735,0.48641 0.0716,1.20641 -0.004,1.6 -0.0759,0.39358 -0.13613,-0.004 -0.13373,-0.8844 z"
     id="path1270" />
  <path
     style="fill:#5c8dca;fill-opacity:0.49494949;stroke-width:0.32"
     d="m 512.7186,473.59709 c -0.29664,-0.29665 -0.384,-18.88635 -0.384,-81.72455 0,-77.65853 0.0259,-81.37255 0.57235,-82.04737 0.47303,-0.58417 1.26423,-0.81192 4.56,-1.31259 8.02839,-1.21963 19.61303,-1.14222 27.89616,0.18641 3.13837,0.50341 4.08762,0.89546 4.1,1.69335 0.005,0.30181 0,36.96122 -0.008,81.46535 -0.0112,53.78949 -0.12509,81.11889 -0.33974,81.52 -0.31047,0.58013 -1.01127,0.6034 -18.16768,0.6034 -13.45258,0 -17.93927,-0.0945 -18.22874,-0.384 z m 22.82931,-128.74698 c 3.26231,-0.90617 6.75968,-4.29809 7.95005,-7.71027 1.15514,-3.31128 0.916,-7.02692 -0.652,-10.13024 -4.75123,-9.40358 -18.42998,-9.15903 -22.96518,0.41057 -0.9089,1.91785 -0.98567,2.34421 -0.97972,5.44091 0.006,2.9353 0.11082,3.58247 0.83188,5.12 2.28035,4.8625 7.50166,7.95763 12.60166,7.47011 0.88,-0.0841 2.32598,-0.35461 3.21331,-0.60108 z m 60.48474,128.40344 c -0.42487,-0.64843 -0.45671,-8.93183 -0.27629,-71.87267 0.16298,-56.85295 0.28554,-71.22136 0.61018,-71.54603 0.83184,-0.83183 8.65984,-2.017 15.16806,-2.29647 6.88653,-0.29571 18.64678,1.02421 20.72,2.32553 l 0.72,0.45193 -0.005,70.95262 c -0.004,56.55816 -0.0869,71.11493 -0.40941,71.75263 l -0.4047,0.8 -17.82147,0.0827 -17.82144,0.0827 -0.48023,-0.73291 z M 619.61543,363.8232 c 1.01248,-0.46611 2.60759,-1.57263 3.54471,-2.45891 6.39433,-6.0475 4.84924,-16.51025 -3.03332,-20.54051 -1.74332,-0.89135 -2.44643,-1.05867 -4.94598,-1.17702 -3.56826,-0.16896 -5.66678,0.37024 -8.12512,2.08772 -6.43926,4.49866 -7.29741,13.8598 -1.77664,19.38056 2.74976,2.74977 5.46509,3.77978 9.61552,3.64746 2.30918,-0.0736 3.24486,-0.25978 4.72083,-0.9393 z"
     id="path1194" />
  <path
     d="m 87.588464,435.65285 c 0,0.24725 -0.25404,0.48769 -0.744,0.71906 -3.15517,1.50159 -15.95278,2.62212 -31.26364,2.62212 -15.30859,0 -28.11075,-1.12053 -31.26365,-2.62212 -0.48768,-0.23137 -0.74399,-0.47181 -0.74399,-0.71906 0,-1.84863 14.33096,-3.34571 32.00764,-3.34571 17.67895,0 32.00764,1.49708 32.00764,3.34571"
     style="fill:#a1bee1;fill-opacity:0.85882354;fill-rule:nonzero;stroke:none;stroke-width:0.0226827"
     id="path6181" />
  <path
     d="m 84.744044,435.29674 c 0.99351,0.186 0.99351,1.6014 0,1.78966 -5.45293,1.03207 -17.08918,1.90763 -29.16322,1.90763 -12.0695,0 -22.98444,-0.82339 -28.43739,-1.85545 -0.99123,-0.186 -1.10691,-1.34962 -0.11568,-1.53789 5.45294,-1.03207 16.48357,-1.85546 28.55307,-1.85546 12.07404,0 23.71029,0.51944 29.16322,1.55151"
     style="fill:#a1bee1;fill-opacity:0.85882354;fill-rule:nonzero;stroke:none;stroke-width:0.0226827"
     id="path6183" />
  <path
     id="path6185"
     style="fill:#99c3f9;fill-opacity:0.49803922;fill-rule:nonzero;stroke:none;stroke-width:0.0226827"
     d="M 44.794922 388.38477 C 44.794922 388.38477 38.731201 402.19908 37.910156 416.49805 C 35.179419 413.85008 30.852827 411.22665 23.40625 408.93555 C 17.601726 407.14815 12.224609 403.42578 12.224609 403.42578 C 12.224609 403.42578 16.715633 417.0853 20.730469 421.57422 C 27.619222 429.27273 33.96534 433.08012 35.423828 437.85938 L 43.306641 438.45312 C 43.311262 438.45898 43.315685 438.46486 43.320312 438.4707 L 43.710938 438.48438 L 45.589844 438.625 C 45.589844 438.625 45.592809 438.55808 45.59375 438.54492 L 51.863281 438.75195 C 51.900381 439.04669 51.925781 439.23633 51.925781 439.23633 L 62.003906 439.23633 L 62.785156 439.23633 C 62.785156 439.23633 62.815095 439.17981 62.818359 439.17383 L 73.875 438.31836 C 73.875 438.31836 79.474402 436.64385 87.333984 426.59766 C 95.193547 416.54921 94.279297 399.69531 94.279297 399.69531 C 94.279297 399.69531 87.900792 406.09646 76.314453 413.80859 C 74.005158 415.34616 72.054183 417.28589 70.400391 419.39844 C 70.570103 418.72693 70.733537 418.04811 70.886719 417.36133 C 72.944037 408.13399 72.425781 393.82422 72.425781 393.82422 C 62.746237 399.00207 57.465427 406.78267 54.632812 414.44922 C 54.527083 413.98827 54.412557 413.52652 54.285156 413.06445 C 50.71035 400.10127 46.010721 393.84224 44.794922 388.38477 z " />
  <path
     d="m 41.696704,436.13827 c -0.0499,0 -0.0975,-0.0227 -0.12929,-0.0657 -0.0749,-0.0975 -7.53975,-9.96227 -13.13332,-15.84391 -4.23714,-4.4549 -12.36891,-11.83586 -12.45057,-11.91072 -0.0657,-0.059 -0.0703,-0.16105 -0.0114,-0.2291 0.0612,-0.0657 0.16332,-0.0703 0.2291,-0.01 0.0817,0.0726 8.22249,7.46263 12.46644,11.92659 5.60718,5.89526 13.08341,15.7736 13.15827,15.87113 0.0544,0.0726 0.0385,0.17239 -0.0318,0.22683 -0.0294,0.0227 -0.0635,0.034 -0.0975,0.034"
     style="fill:#3d2d1d;fill-opacity:1;fill-rule:nonzero;stroke:none;stroke-width:0.0226827"
     id="path6187" />
  <path
     d="m 48.517414,438.73018 c -0.0817,0 -0.15424,-0.046 -0.17921,-0.11824 -5.20114,-15.50147 -3.93545,-46.19571 -3.92184,-46.50443 0.002,-0.092 0.0907,-0.17079 0.19281,-0.15984 0.10435,0.004 0.18373,0.081 0.17919,0.17297 -0.0136,0.30872 -1.27476,30.94822 3.90825,46.39497 0.0294,0.0876 -0.0272,0.18173 -0.12477,0.208 -0.0181,0.004 -0.0363,0.006 -0.0544,0.006"
     style="fill:#3d2d1d;fill-opacity:1;fill-rule:nonzero;stroke:none;stroke-width:0.0222852"
     id="path6195" />
  <path
     d="m 57.023444,438.86049 c -0.0884,0 -0.16331,-0.0683 -0.16785,-0.15644 -0.76668,-17.58704 13.807,-41.07903 13.95443,-41.31479 0.0476,-0.077 0.15199,-0.10136 0.23137,-0.0551 0.0793,0.0485 0.10203,0.14981 0.0544,0.22914 -0.14744,0.23355 -14.66668,23.64182 -13.90226,41.12531 0.002,0.0926 -0.0681,0.16965 -0.16105,0.17185 -0.002,0 -0.004,0 -0.01,0"
     style="fill:#3d2d1d;fill-opacity:1;fill-rule:nonzero;stroke:none;stroke-width:0.0223557"
     id="path6197" />
  <path
     d="m 65.255024,439.01357 c -0.0499,0 -0.0975,-0.0198 -0.13383,-0.0593 -0.0613,-0.0704 -0.0522,-0.17599 0.0227,-0.23537 12.94732,-10.38249 27.04466,-33.74748 27.1853,-33.98064 0.0476,-0.0814 0.15423,-0.10779 0.23815,-0.0616 0.084,0.0462 0.11342,0.14739 0.0658,0.22657 -0.1429,0.23538 -14.26973,23.65096 -27.26468,34.07304 -0.034,0.0264 -0.0726,0.0373 -0.11341,0.0373"
     style="fill:#3d2d1d;fill-opacity:1;fill-rule:nonzero;stroke:none;stroke-width:0.0223371"
     id="path6199" />
  <path
     d="m 87.588464,435.65285 c -0.15878,0.88463 -0.31983,1.7738 -0.48315,2.6607 -0.31528,1.74884 -0.63284,3.49768 -0.94813,5.24652 -0.4582,2.51551 -0.91412,5.0333 -1.37005,7.54656 -0.32435,1.78966 -0.64872,3.57707 -0.97308,5.36673 -0.15198,0.83019 -0.30167,1.66492 -0.45365,2.49511 -0.44231,2.452 -0.88918,4.90628 -1.33375,7.35828 -0.36973,2.02104 -2.06186,3.23911 -2.26601,5.05372 -0.0227,0.186 -0.0272,0.37881 -0.0114,0.58295 0.0408,0.60563 0.25179,1.28384 0.72358,2.07548 -17.458341,0.22283 -32.3654,0.0339 -49.72741,0 0.38561,-0.76442 0.60562,-1.44036 0.70316,-2.05053 0.0317,-0.19734 0.0521,-0.38788 0.059,-0.57387 0.10887,-2.61532 -2.1163,-3.97856 -2.59037,-6.58708 l -1.36324,-7.5148 -2.32271,-12.81349 -0.93454,-5.15805 -0.66914,-3.68823 c 8.66708,1.72162 19.49131,3.14611 31.96001,3.14611 12.48687,0.002 23.32469,-1.41994 32.00084,-3.14611"
     style="fill:#a1bee1;fill-opacity:0.85882354;fill-rule:nonzero;stroke:none;stroke-width:0.0226827"
     id="path6201"
     sodipodi:nodetypes="cccccccccccccccccccc" />
  <path
     d="m 575.30775,310.86481 c -0.16868,-0.16866 -0.30668,-1.06109 -0.30668,-1.98316 v -1.67651 h -1.96808 c -1.63941,0 -1.96806,-0.13823 -1.96806,-0.8279 0,-0.9427 0.81457,-1.35883 2.65986,-1.35883 1.19423,0 1.27628,-0.11087 1.27628,-1.72359 0,-0.94795 0.20543,-1.85053 0.4565,-2.0057 0.79712,-0.49265 1.73024,0.72191 1.73024,2.25212 0,1.38642 0.0907,1.47717 1.47717,1.47717 1.5302,0 2.74477,0.93311 2.25211,1.73023 -0.15518,0.25107 -1.04643,0.4565 -1.98057,0.4565 -1.68491,0 -1.69949,0.0147 -1.83292,1.85495 -0.12846,1.77117 -0.9768,2.62377 -1.79585,1.80472 z"
     style="fill:#1f3a65;fill-opacity:1;stroke-width:0.437348"
     id="path13790" />
  <path
     d="m 445.39464,145.06708 c -0.31391,-0.83161 -1.39191,-1.98635 -2.42142,-2.59379 l -1.85563,-1.09483 1.47274,-0.61925 c 1.64143,-0.69017 3.65276,-2.97922 3.65276,-4.15712 0,-0.42154 0.51538,0.20813 1.14527,1.39928 0.62991,1.19115 1.85444,2.54607 2.72123,3.01094 l 1.57596,0.84519 -1.74131,0.93775 c -0.9577,0.51578 -2.11782,1.57519 -2.57804,2.35425 -1.05155,1.78016 -1.27201,1.77093 -1.97156,-0.0825 z"
     style="fill:#1f3a65;fill-opacity:1;stroke-width:0.50343"
     id="path16037" />
  <path
     d="m 245.88186,133.13854 c -0.3139,-0.83163 -1.39189,-1.98635 -2.42141,-2.59378 l -1.85563,-1.09484 1.47274,-0.61924 c 1.64143,-0.69017 3.65275,-2.97923 3.65275,-4.15712 0,-0.42154 0.51538,0.20812 1.14529,1.39928 0.62989,1.19115 1.85442,2.54607 2.72121,3.01092 l 1.57596,0.84519 -1.74131,0.93775 c -0.9577,0.51576 -2.11782,1.57518 -2.57803,2.35426 -1.05156,1.78014 -1.272,1.77092 -1.97157,-0.0824 z"
     style="fill:#1f3a65;fill-opacity:1;stroke-width:0.503429"
     id="path16037-4" />
  <path
     d="m 525.03686,54.476527 c -0.28252,-0.748455 -1.25272,-1.787718 -2.17928,-2.334409 l -1.67005,-0.985348 1.32545,-0.557323 c 1.47729,-0.621151 3.2875,-2.681304 3.2875,-3.741408 0,-0.37939 0.46382,0.187323 1.03074,1.259349 0.5669,1.072042 1.66898,2.291465 2.44908,2.709834 l 1.41838,0.760674 -1.56718,0.843983 c -0.86195,0.464187 -1.90605,1.417662 -2.32024,2.118826 -0.94639,1.602125 -1.1448,1.593827 -1.7744,-0.07419 z"
     style="fill:#1f3a65;fill-opacity:1;stroke-width:0.453086"
     id="path16037-4-6" />
  <path
     d="m 116.84369,305.82198 c -0.31391,-0.83163 -1.39191,-1.98635 -2.4214,-2.59378 l -1.85563,-1.09484 1.47273,-0.61924 c 1.64142,-0.69019 3.65276,-2.97923 3.65276,-4.15712 0,-0.42154 0.51538,0.20812 1.14526,1.39928 0.62991,1.19115 1.85444,2.54607 2.72123,3.01092 l 1.57596,0.84519 -1.74131,0.93775 c -0.9577,0.51576 -2.11782,1.57518 -2.57804,2.35426 -1.05155,1.78014 -1.27202,1.77092 -1.97156,-0.0824 z"
     style="fill:#1f3a65;fill-opacity:1;stroke-width:0.503429"
     id="path16037-48" />
  <path
     d="m 52.957143,104.67425 c -0.313904,-0.83162 -1.3919,-1.98635 -2.421411,-2.59378 l -1.85562,-1.09484 1.472733,-0.61925 c 1.641427,-0.690172 3.652762,-2.97923 3.652762,-4.157117 0,-0.42154 0.51537,0.20813 1.145268,1.39928 0.629899,1.19115 1.854441,2.546057 2.721218,3.010927 l 1.575966,0.84519 -1.741312,0.93776 c -0.957708,0.51575 -2.117826,1.57518 -2.578038,2.35425 -1.051551,1.78013 -1.272005,1.77092 -1.971566,-0.0824 z"
     style="fill:#1f3a65;fill-opacity:1;stroke-width:0.503429"
     id="path16037-3" />
  <path
     d="m 619.60747,97.022351 c -0.43474,-1.132936 0.0225,-3.248468 0.73105,-3.382649 0.82239,-0.155744 1.33647,1.426107 0.95606,2.941804 -0.27242,1.085379 -1.33338,1.36262 -1.68711,0.440845 z m -5.1136,-4.712162 c -0.57408,-0.333963 -0.62714,-0.542816 -0.2526,-0.994091 0.6693,-0.806473 3.55175,-0.751993 3.86836,0.07308 0.4635,1.207835 -2.03063,1.843105 -3.61576,0.920968 z m 8.30357,-0.599698 c -0.43996,-1.146486 2.07058,-1.874127 3.45084,-1.000167 1.08036,0.684091 0.1645,1.644595 -1.56815,1.644595 -1.12818,0 -1.71211,-0.199869 -1.88269,-0.644428 z m -3.18997,-2.738778 c -0.43474,-1.132938 0.0225,-3.248472 0.73105,-3.382652 0.82239,-0.155743 1.33647,1.426108 0.95606,2.941805 -0.27242,1.085376 -1.33338,1.36262 -1.68711,0.440847 z"
     style="fill:#1f3a65;fill-opacity:1;stroke-width:0.402533"
     id="path16786" />
  <path
     d="m 321.36484,71.720762 c -0.43475,-1.13294 0.0224,-3.248473 0.73106,-3.382656 0.82238,-0.155741 1.33644,1.42611 0.95604,2.941808 -0.27241,1.085378 -1.33339,1.362621 -1.6871,0.440848 z m -5.1136,-4.712171 c -0.57409,-0.333963 -0.62716,-0.542814 -0.25262,-0.99409 0.66931,-0.806475 3.55175,-0.751994 3.86838,0.07308 0.46348,1.207836 -2.03063,1.843109 -3.61576,0.92097 z m 8.30357,-0.599697 c -0.43996,-1.146487 2.07058,-1.874127 3.45083,-1.000168 1.08037,0.684092 0.16451,1.644598 -1.56815,1.644598 -1.12818,0 -1.7121,-0.199871 -1.88268,-0.64443 z m -3.18997,-2.73878 c -0.43475,-1.132939 0.0224,-3.248473 0.73106,-3.382642 0.82238,-0.155755 1.33644,1.426096 0.95604,2.941794 -0.27241,1.085391 -1.33339,1.362622 -1.6871,0.440848 z"
     style="fill:#1f3a65;fill-opacity:1;stroke-width:0.402533"
     id="path16786-6" />
  <path
     d="m 599.04993,208.98194 c -0.43476,-1.13293 0.0225,-3.24848 0.73104,-3.38265 0.82238,-0.15575 1.33646,1.42611 0.95604,2.94182 -0.27241,1.08536 -1.33337,1.36261 -1.68708,0.44083 z m -5.11361,-4.71217 c -0.57409,-0.33396 -0.62715,-0.54281 -0.25262,-0.99409 0.66931,-0.80646 3.55175,-0.75199 3.86837,0.0732 0.4635,1.20784 -2.03062,1.84311 -3.61575,0.92098 z m 8.30357,-0.59969 c -0.43996,-1.1465 2.07059,-1.87412 3.45083,-1.00017 1.08036,0.6841 0.16452,1.6446 -1.56815,1.6446 -1.12818,0 -1.71209,-0.19988 -1.88268,-0.64443 z m -3.18996,-2.73878 c -0.43476,-1.13294 0.0225,-3.24848 0.73104,-3.38265 0.82238,-0.15575 1.33646,1.4261 0.95604,2.94179 -0.27241,1.08541 -1.33337,1.36264 -1.68708,0.44086 z"
     style="fill:#1f3a65;fill-opacity:1;stroke-width:0.402533"
     id="path16786-6-1" />
  <path
     d="m 128.12623,175.14367 4.98448,1.43235 c 0.13743,0.039 0.25093,0.13592 0.3117,0.2648 0.0609,0.12944 0.0628,0.27803 0.006,0.40878 l -4.62658,10.60553 10.33943,-11.65817 -5.04194,-1.37488 c -0.1393,-0.0376 -0.25489,-0.13468 -0.31695,-0.26481 -0.0621,-0.13068 -0.064,-0.28132 -0.006,-0.4134 l 4.61598,-10.42393 z m -1.02952,15.87531 c -0.0917,0 -0.18424,-0.0258 -0.26679,-0.0779 -0.20538,-0.13137 -0.28461,-0.39228 -0.1869,-0.61549 l 5.65081,-12.95381 -5.20173,-1.49507 c -0.16378,-0.047 -0.29255,-0.175 -0.33944,-0.33944 -0.047,-0.16377 -0.007,-0.34075 0.10769,-0.46755 l 12.87724,-14.33002 c 0.16308,-0.18094 0.43319,-0.21726 0.63789,-0.0846 0.20407,0.13206 0.28198,0.39358 0.18359,0.61611 l -5.64418,12.74646 5.25523,1.43367 c 0.16576,0.0449 0.29585,0.17235 0.34472,0.33612 0.0488,0.16444 0.008,0.34208 -0.10452,0.47019 l -12.94326,14.59418 c -0.0971,0.10947 -0.2331,0.16708 -0.37046,0.16708"
     style="fill:#1f3a65;fill-opacity:1;fill-rule:nonzero;stroke:none;stroke-width:0.00660367"
     id="path46121" />
  <path
     d="m 620.81267,275.19017 4.98451,1.43235 c 0.13743,0.039 0.25093,0.13605 0.31168,0.2648 0.0609,0.12945 0.0628,0.27802 0.006,0.40877 l -4.62655,10.60556 10.33942,-11.6582 -5.04194,-1.37488 c -0.1393,-0.0377 -0.25491,-0.13468 -0.31696,-0.26481 -0.0621,-0.13068 -0.064,-0.28131 -0.006,-0.41339 l 4.61599,-10.42397 z m -1.0295,15.87531 c -0.0917,0 -0.18424,-0.0258 -0.26679,-0.0779 -0.20538,-0.13137 -0.28461,-0.39227 -0.1869,-0.61548 l 5.65081,-12.95382 -5.20175,-1.49509 c -0.16377,-0.047 -0.29254,-0.17498 -0.33943,-0.33942 -0.047,-0.16379 -0.007,-0.34075 0.10769,-0.46755 l 12.87723,-14.33004 c 0.16312,-0.18094 0.4332,-0.21727 0.63793,-0.0845 0.20405,0.13206 0.28196,0.39359 0.18357,0.61614 l -5.6442,12.74647 5.25525,1.43366 c 0.16574,0.0449 0.29585,0.17236 0.34471,0.33612 0.0489,0.16444 0.008,0.34208 -0.10438,0.4702 l -12.94327,14.5942 c -0.0971,0.10947 -0.23312,0.16706 -0.37047,0.16706"
     style="fill:#1f3a65;fill-opacity:1;fill-rule:nonzero;stroke:none;stroke-width:0.00660368"
     id="path46121-9" />
  <path
     d="m 360.22432,133.9988 h -2.52016 c -0.49102,0 -0.88738,-0.39754 -0.88738,-0.88737 0,-0.49102 0.39636,-0.88739 0.88738,-0.88739 h 2.52016 c 0.48983,0 0.88738,0.39637 0.88738,0.88739 0,0.48983 -0.39755,0.88737 -0.88738,0.88737"
     style="fill:#1f3a65;fill-opacity:1;fill-rule:nonzero;stroke:none;stroke-width:0.0118317"
     id="path43347" />
  <path
     d="m 370.53096,133.9988 h -5.98213 c -0.48984,0 -0.8874,-0.39754 -0.8874,-0.88737 0,-0.49102 0.39756,-0.88739 0.8874,-0.88739 h 5.98213 c 0.48983,0 0.88738,0.39637 0.88738,0.88739 0,0.48983 -0.39755,0.88737 -0.88738,0.88737"
     style="fill:#1f3a65;fill-opacity:1;fill-rule:nonzero;stroke:none;stroke-width:0.0118317"
     id="path43349" />
  <path
     d="m 47.207324,253.5988 h -2.520158 c -0.489832,0 -0.887381,-0.39755 -0.887381,-0.88738 0,-0.48983 0.397549,-0.88739 0.887381,-0.88739 h 2.520158 c 0.489843,0 0.887381,0.39756 0.887381,0.88739 0,0.48983 -0.397538,0.88738 -0.887381,0.88738"
     style="fill:#1f3a65;fill-opacity:1;fill-rule:nonzero;stroke:none;stroke-width:0.0118317"
     id="path43351" />
  <path
     d="m 59.487495,253.5988 h -8.822931 c -0.489833,0 -0.887382,-0.39755 -0.887382,-0.88738 0,-0.48983 0.397549,-0.88739 0.887382,-0.88739 h 8.822931 c 0.489834,0 0.887392,0.39756 0.887392,0.88739 0,0.48983 -0.397558,0.88738 -0.887392,0.88738"
     style="fill:#1f3a65;fill-opacity:1;fill-rule:nonzero;stroke:none;stroke-width:0.0118317"
     id="path43353" />
  <path
     d="m 209.25363,61.939171 h -8.82293 c -0.48984,0 -0.88739,-0.397548 -0.88739,-0.887384 0,-0.489831 0.39755,-0.887379 0.88739,-0.887379 h 8.82293 c 0.48983,0 0.88738,0.397548 0.88738,0.887379 0,0.489836 -0.39755,0.887384 -0.88738,0.887384"
     style="fill:#1f3a65;fill-opacity:1;fill-rule:nonzero;stroke:none;stroke-width:0.0118317"
     id="path43355" />
  <path
     d="m 214.59685,61.939171 h -2.0043 c -0.48984,0 -0.88738,-0.397548 -0.88738,-0.887384 0,-0.489831 0.39754,-0.887379 0.88738,-0.887379 h 2.0043 c 0.48983,0 0.88738,0.397548 0.88738,0.887379 0,0.489836 -0.39755,0.887384 -0.88738,0.887384"
     style="fill:#1f3a65;fill-opacity:1;fill-rule:nonzero;stroke:none;stroke-width:0.0118317"
     id="path43357" />
  <path
     d="m 211.07098,56.853886 h -7.40548 c -0.48984,0 -0.88739,-0.397548 -0.88739,-0.887379 0,-0.489837 0.39755,-0.887384 0.88739,-0.887384 h 7.40548 c 0.48985,0 0.88738,0.397547 0.88738,0.887384 0,0.489831 -0.39753,0.887379 -0.88738,0.887379"
     style="fill:#1f3a65;fill-opacity:1;fill-rule:nonzero;stroke:none;stroke-width:0.0118317"
     id="path43361" />
  <path
     d="m 368.30541,139.08409 h -5.45562 c -0.48984,0 -0.88738,-0.39755 -0.88738,-0.88737 0,-0.48985 0.39754,-0.88739 0.88738,-0.88739 h 5.45562 c 0.48982,0 0.88737,0.39754 0.88737,0.88739 0,0.48982 -0.39755,0.88737 -0.88737,0.88737"
     style="fill:#1f3a65;fill-opacity:1;fill-rule:nonzero;stroke:none;stroke-width:0.0118317"
     id="path43363" />
  <path
     d="m 359.62446,139.08409 h -1.9203 c -0.49102,0 -0.88738,-0.39755 -0.88738,-0.88737 0,-0.48985 0.39636,-0.88739 0.88738,-0.88739 h 1.9203 c 0.48982,0 0.88737,0.39754 0.88737,0.88739 0,0.48982 -0.39755,0.88737 -0.88737,0.88737"
     style="fill:#1f3a65;fill-opacity:1;fill-rule:nonzero;stroke:none;stroke-width:0.0118317"
     id="path43365" />
  <path
     d="M 56.363919,258.56815 H 53.27465 c -0.489833,0 -0.887381,-0.39637 -0.887381,-0.8874 0,-0.48984 0.397548,-0.88738 0.887381,-0.88738 h 3.089269 c 0.489832,0 0.88738,0.39754 0.88738,0.88738 0,0.49103 -0.397548,0.8874 -0.88738,0.8874"
     style="fill:#1f3a65;fill-opacity:1;fill-rule:nonzero;stroke:none;stroke-width:0.0118317"
     id="path43367" />
  <path
     d="m 533.84483,246.86614 h -3.5365 c -0.48984,0 -0.88738,-0.39636 -0.88738,-0.88738 0,-0.48983 0.39754,-0.88738 0.88738,-0.88738 h 3.5365 c 0.48985,0 0.88738,0.39755 0.88738,0.88738 0,0.49102 -0.39753,0.88738 -0.88738,0.88738"
     style="fill:#1f3a65;fill-opacity:1;fill-rule:nonzero;stroke:none;stroke-width:0.0118317"
     id="path43369" />
  <path
     d="m 543.36585,246.86614 h -2.94494 c -0.48983,0 -0.88737,-0.39636 -0.88737,-0.88738 0,-0.48983 0.39754,-0.88738 0.88737,-0.88738 h 2.94494 c 0.48982,0 0.88738,0.39755 0.88738,0.88738 0,0.49102 -0.39756,0.88738 -0.88738,0.88738"
     style="fill:#1f3a65;fill-opacity:1;fill-rule:nonzero;stroke:none;stroke-width:0.0118317"
     id="path43371" />
  <path
     d="m 537.38489,246.86614 h -0.77023 c -0.48984,0 -0.88739,-0.39636 -0.88739,-0.88738 0,-0.48983 0.39755,-0.88738 0.88739,-0.88738 h 0.77023 c 0.49102,0 0.88738,0.39755 0.88738,0.88738 0,0.49102 -0.39636,0.88738 -0.88738,0.88738"
     style="fill:#1f3a65;fill-opacity:1;fill-rule:nonzero;stroke:none;stroke-width:0.0118317"
     id="path43373" />
  <path
     d="m 534.72749,251.85441 h -7.08486 c -0.49101,0 -0.88738,-0.39755 -0.88738,-0.88737 0,-0.49103 0.39637,-0.88739 0.88738,-0.88739 h 7.08486 c 0.48982,0 0.88738,0.39636 0.88738,0.88739 0,0.48982 -0.39756,0.88737 -0.88738,0.88737"
     style="fill:#1f3a65;fill-opacity:1;fill-rule:nonzero;stroke:none;stroke-width:0.0118317"
     id="path43375" />
  <path
     d="m 538.26873,251.85441 h -0.77025 c -0.49102,0 -0.88738,-0.39755 -0.88738,-0.88737 0,-0.49103 0.39636,-0.88739 0.88738,-0.88739 h 0.77025 c 0.48984,0 0.88738,0.39636 0.88738,0.88739 0,0.48982 -0.39754,0.88737 -0.88738,0.88737"
     style="fill:#1f3a65;fill-opacity:1;fill-rule:nonzero;stroke:none;stroke-width:0.0118317"
     id="path43377" />
  <path
     d="m 50.048127,258.56815 h -1.919103 c -0.491021,0 -0.887382,-0.39637 -0.887382,-0.8874 0,-0.48984 0.396361,-0.88738 0.887382,-0.88738 h 1.919103 c 0.491021,0 0.887381,0.39754 0.887381,0.88738 0,0.49103 -0.39636,0.8874 -0.887381,0.8874"
     style="fill:#1f3a65;fill-opacity:1;fill-rule:nonzero;stroke:none;stroke-width:0.0118317"
     id="path43379" />
  <path
     d="m 354.35696,139.08409 h -1.3015 c -0.48982,0 -0.88737,-0.39755 -0.88737,-0.88737 0,-0.48985 0.39755,-0.88739 0.88737,-0.88739 h 1.3015 c 0.48983,0 0.88738,0.39754 0.88738,0.88739 0,0.48982 -0.39755,0.88737 -0.88738,0.88737"
     style="fill:#1f3a65;fill-opacity:1;fill-rule:nonzero;stroke:none;stroke-width:0.0118317"
     id="path43381" />
  <path
     d="m 509.24587,185.95723 c -0.95347,0 -1.72979,0.77633 -1.72979,1.72979 0,0.95436 0.77632,1.73068 1.72979,1.73068 0.95436,0 1.7307,-0.77632 1.7307,-1.73068 0,-0.95346 -0.77634,-1.72979 -1.7307,-1.72979 z m 0,4.81609 c -1.70176,0 -3.08541,-1.38453 -3.08541,-3.0863 0,-1.70085 1.38365,-3.08539 3.08541,-3.08539 1.70177,0 3.0863,1.38454 3.0863,3.08539 0,1.70177 -1.38453,3.0863 -3.0863,3.0863 z m -3.3267,2.9128 c 0.25937,0 0.52235,0.0515 0.77721,0.15725 0.76098,0.31451 1.23363,1.02215 1.23363,1.84546 0,0.35426 0.28829,0.64257 0.64257,0.64257 h 1.34659 c 0.35516,0 0.64347,-0.28831 0.64347,-0.64257 0,-0.82331 0.47266,-1.53095 1.23362,-1.84546 0.76096,-0.3154 1.59511,-0.15003 2.17714,0.43289 0.25033,0.25033 0.65883,0.25033 0.90917,0 l 0.95256,-0.95256 c 0.25032,-0.25033 0.25032,-0.65792 0,-0.90916 -0.58294,-0.58202 -0.74831,-1.41619 -0.43382,-2.17714 0.31541,-0.76097 1.02306,-1.23361 1.84637,-1.23361 0.35426,0 0.64258,-0.2883 0.64258,-0.64258 v -1.3475 c 0,-0.35427 -0.28832,-0.64255 -0.64258,-0.64255 -0.82331,0 -1.53096,-0.47266 -1.84637,-1.23361 -0.31449,-0.76097 -0.14912,-1.59514 0.43382,-2.17715 0.25032,-0.25125 0.25032,-0.65884 0,-0.90917 l -0.95256,-0.95255 c -0.25034,-0.25035 -0.65884,-0.25035 -0.90917,0 -0.58203,0.58201 -1.41709,0.7483 -2.17714,0.4329 -0.76096,-0.31452 -1.23362,-1.02217 -1.23362,-1.84547 0,-0.35517 -0.28831,-0.64348 -0.64347,-0.64348 h -1.34659 c -0.35428,0 -0.64257,0.28831 -0.64257,0.64348 0,0.8233 -0.47265,1.53095 -1.23363,1.84547 -0.76095,0.3154 -1.59511,0.14911 -2.17803,-0.4329 -0.25033,-0.25035 -0.65792,-0.25035 -0.90828,0 l -0.95253,0.95255 c -0.25036,0.25033 -0.25036,0.65792 0,0.90827 0.582,0.58291 0.74829,1.41708 0.43289,2.17805 -0.3145,0.76095 -1.02215,1.23361 -1.84637,1.23361 -0.35427,0 -0.64256,0.28828 -0.64256,0.64255 v 1.3475 c 0,0.35428 0.28829,0.64258 0.64256,0.64258 0.82422,0 1.53187,0.47264 1.84637,1.23361 0.3154,0.76095 0.14911,1.59512 -0.43289,2.17714 -0.12113,0.122 -0.188,0.28288 -0.188,0.45459 0,0.17169 0.0669,0.33348 0.188,0.45457 l 0.95253,0.95256 c 0.25036,0.25033 0.65795,0.25033 0.90828,0 0.38771,-0.38771 0.88659,-0.59014 1.40082,-0.59014 z m 4,4.0009 h -1.34659 c -1.10168,0 -1.9982,-0.89562 -1.9982,-1.99819 0,-0.39766 -0.30365,-0.5549 -0.39674,-0.59376 -0.0931,-0.0379 -0.41844,-0.14189 -0.7004,0.13918 -0.77905,0.77992 -2.04701,0.77992 -2.82604,9.1e-4 l -0.95255,-0.95255 c -0.77904,-0.77905 -0.77904,-2.047 0,-2.82603 0.28198,-0.28197 0.17803,-0.60734 0.13918,-0.70041 -0.0379,-0.0931 -0.19521,-0.39675 -0.59377,-0.39675 -1.10168,0 -1.99818,-0.89652 -1.99818,-1.9982 v -1.34747 c 0,-1.10169 0.8965,-1.99822 1.99818,-1.99822 0.39856,0 0.55582,-0.30365 0.59377,-0.39674 0.0389,-0.0929 0.1428,-0.41843 -0.13918,-0.7004 -0.37687,-0.37686 -0.58472,-0.87934 -0.58472,-1.41256 0,-0.53411 0.20785,-1.03569 0.58472,-1.41347 l 0.95255,-0.95255 c 0.77903,-0.77903 2.04699,-0.77903 2.82604,0 0.28196,0.28197 0.6073,0.17804 0.7004,0.14007 0.0929,-0.0389 0.39674,-0.19611 0.39674,-0.59376 0,-1.10257 0.89652,-1.99909 1.9982,-1.99909 h 1.34659 c 1.10259,0 1.99908,0.89652 1.99908,1.99909 0,0.39765 0.30367,0.55491 0.39675,0.59376 0.0929,0.0379 0.41844,0.1419 0.70042,-0.14007 0.77904,-0.77903 2.04699,-0.77903 2.82602,0 l 0.95167,0.95255 c 0.77992,0.77903 0.77992,2.04699 0,2.82603 -0.28108,0.28197 -0.17715,0.60731 -0.13919,0.7004 0.0388,0.0931 0.1952,0.39674 0.59376,0.39674 1.10258,0 1.9982,0.89653 1.9982,1.99822 v 1.34747 c 0,1.10168 -0.89562,1.9982 -1.9982,1.9982 -0.39856,0 -0.5549,0.30366 -0.59376,0.39675 -0.0379,0.0929 -0.14189,0.41844 0.13919,0.70041 0.77992,0.77903 0.77992,2.04698 0,2.82603 l -0.95167,0.95255 c -0.77992,0.77903 -2.04698,0.77903 -2.82602,0 -0.28198,-0.28197 -0.60733,-0.17803 -0.70042,-0.14008 -0.0929,0.0388 -0.39675,0.19611 -0.39675,0.59377 0,1.10256 -0.89649,1.99818 -1.99908,1.99818"
     style="fill:#1f3a65;fill-opacity:1;fill-rule:nonzero;stroke:none;stroke-width:0.00903747"
     id="path38319" />
  <path
     d="m 27.344326,345.77498 c -0.953454,0 -1.729781,0.77632 -1.729781,1.72978 0,0.95436 0.776327,1.73067 1.729781,1.73067 0.954368,0 1.730695,-0.77631 1.730695,-1.73067 0,-0.95346 -0.776327,-1.72978 -1.730695,-1.72978 z m 0,4.81608 c -1.701752,0 -3.085401,-1.38455 -3.085401,-3.0863 0,-1.70085 1.383649,-3.08541 3.085401,-3.08541 1.701762,0 3.086314,1.38456 3.086314,3.08541 0,1.70175 -1.384552,3.0863 -3.086314,3.0863 z m -3.326694,2.9128 c 0.259375,0 0.522357,0.0515 0.777218,0.15723 0.760966,0.31453 1.233614,1.02216 1.233614,1.84548 0,0.35426 0.288306,0.64256 0.642582,0.64256 h 1.346585 c 0.355165,0 0.643471,-0.2883 0.643471,-0.64256 0,-0.82332 0.472661,-1.53095 1.233613,-1.84548 0.760967,-0.31538 1.595121,-0.15001 2.177144,0.43292 0.250339,0.25033 0.658833,0.25033 0.909172,0 l 0.952563,-0.95257 c 0.250326,-0.25033 0.250326,-0.65792 0,-0.90916 -0.582937,-0.58202 -0.748323,-1.41619 -0.433818,-2.17715 0.315408,-0.76094 1.02306,-1.2336 1.846375,-1.2336 0.354263,0 0.642569,-0.28831 0.642569,-0.64258 v -1.3475 c 0,-0.35426 -0.288306,-0.64255 -0.642569,-0.64255 -0.823315,0 -1.530967,-0.47267 -1.846375,-1.23361 -0.314505,-0.76098 -0.149119,-1.59514 0.433818,-2.17715 0.250326,-0.25123 0.250326,-0.65882 0,-0.90918 l -0.952563,-0.95256 c -0.250339,-0.25033 -0.658833,-0.25033 -0.909172,0 -0.582023,0.58203 -1.417093,0.74831 -2.177144,0.43292 -0.760952,-0.31452 -1.233613,-1.02215 -1.233613,-1.84548 0,-0.35516 -0.288306,-0.64347 -0.643471,-0.64347 h -1.346585 c -0.354276,0 -0.642582,0.28831 -0.642582,0.64347 0,0.82333 -0.472648,1.53096 -1.233614,1.84548 -0.760953,0.31539 -1.59512,0.14911 -2.178034,-0.43292 -0.250339,-0.25033 -0.657929,-0.25033 -0.908282,0 l -0.952537,0.95256 c -0.250353,0.25036 -0.250353,0.65795 0,0.90828 0.58201,0.58291 0.748297,1.41707 0.432888,2.17805 -0.314505,0.76094 -1.022142,1.23361 -1.846359,1.23361 -0.354277,0 -0.64257,0.28829 -0.64257,0.64255 v 1.3475 c 0,0.35427 0.288293,0.64258 0.64257,0.64258 0.824217,0 1.531854,0.47266 1.846359,1.2336 0.315409,0.76096 0.149122,1.59513 -0.432888,2.17715 -0.121131,0.122 -0.18799,0.28288 -0.18799,0.45459 0,0.17169 0.06689,0.33348 0.18799,0.45457 l 0.952537,0.95257 c 0.250353,0.25033 0.657943,0.25033 0.908282,0 0.387707,-0.38771 0.886582,-0.59015 1.400816,-0.59015 z m 3.999999,4.0009 h -1.346585 c -1.101685,0 -1.998201,-0.89562 -1.998201,-1.99819 0,-0.39766 -0.303654,-0.55489 -0.39674,-0.59377 -0.09305,-0.0379 -0.418444,-0.14188 -0.700409,0.13919 -0.779046,0.77993 -2.047006,0.77993 -2.826041,9e-4 l -0.952537,-0.95254 c -0.779048,-0.77905 -0.779048,-2.047 0,-2.82603 0.281965,-0.28197 0.178027,-0.60733 0.139172,-0.70041 -0.03789,-0.0929 -0.195208,-0.39677 -0.593764,-0.39677 -1.101673,0 -1.998189,-0.8965 -1.998189,-1.99818 v -1.34748 c 0,-1.10168 0.896516,-1.9982 1.998189,-1.9982 0.398556,0 0.555809,-0.30366 0.593764,-0.39675 0.03892,-0.0929 0.142793,-0.41843 -0.139172,-0.70041 -0.376869,-0.37687 -0.58473,-0.87933 -0.58473,-1.41257 0,-0.53411 0.207861,-1.03568 0.58473,-1.41345 l 0.952537,-0.95255 c 0.779035,-0.77904 2.046995,-0.77904 2.826041,0 0.281965,0.28197 0.607309,0.17804 0.700409,0.14008 0.09305,-0.0389 0.39674,-0.19612 0.39674,-0.59378 0,-1.10258 0.896516,-1.99908 1.998201,-1.99908 h 1.346585 c 1.102587,0 1.99909,0.8965 1.99909,1.99908 0,0.39766 0.303654,0.55491 0.396753,0.59378 0.09305,0.0379 0.418431,0.14189 0.700409,-0.14008 0.779033,-0.77904 2.046993,-0.77904 2.826026,0 l 0.951662,0.95255 c 0.779924,0.77903 0.779924,2.047 0,2.82602 -0.281076,0.28198 -0.17715,0.60732 -0.139184,0.70041 0.03878,0.0929 0.195206,0.39675 0.593764,0.39675 1.102574,0 1.998188,0.89652 1.998188,1.9982 v 1.34748 c 0,1.10168 -0.895614,1.99818 -1.998188,1.99818 -0.398558,0 -0.554908,0.30368 -0.593764,0.39677 -0.03789,0.0929 -0.141892,0.41844 0.139184,0.70041 0.779924,0.77903 0.779924,2.04698 0,2.82603 l -0.951662,0.95254 c -0.779935,0.77905 -2.046993,0.77905 -2.826026,0 -0.281978,-0.28196 -0.607323,-0.17803 -0.700409,-0.14008 -0.09305,0.0388 -0.396753,0.19612 -0.396753,0.59378 0,1.10256 -0.896503,1.99818 -1.99909,1.99818"
     style="fill:#1f3a65;fill-opacity:1;fill-rule:nonzero;stroke:none;stroke-width:0.00903747"
     id="path38319-0" />
</svg>
