<?xml version="1.0" encoding="UTF-8" standalone="no"?>
<svg
   data-name="Layer 1"
   width="578"
   height="578"
   viewBox="0 0 578 578"
   version="1.1"
   id="svg342"
   sodipodi:docname="coder.svg"
   inkscape:version="1.2.1 (9c6d41e4, 2022-07-14)"
   xmlns:inkscape="http://www.inkscape.org/namespaces/inkscape"
   xmlns:sodipodi="http://sodipodi.sourceforge.net/DTD/sodipodi-0.dtd"
   xmlns="http://www.w3.org/2000/svg"
   xmlns:svg="http://www.w3.org/2000/svg">
  <defs
     id="defs346">
    <inkscape:path-effect
       effect="spiro"
       id="path-effect28963"
       is_visible="true"
       lpeversion="1" />
    <inkscape:path-effect
       effect="bspline"
       id="path-effect28892"
       is_visible="true"
       lpeversion="1"
       weight="33.333333"
       steps="2"
       helper_size="0"
       apply_no_weight="true"
       apply_with_weight="true"
       only_selected="false" />
    <inkscape:path-effect
       effect="bspline"
       id="path-effect28888"
       is_visible="true"
       lpeversion="1"
       weight="33.333333"
       steps="2"
       helper_size="0"
       apply_no_weight="true"
       apply_with_weight="true"
       only_selected="false" />
    <inkscape:path-effect
       effect="spiro"
       id="path-effect28884"
       is_visible="true"
       lpeversion="1" />
    <clipPath
       clipPathUnits="userSpaceOnUse"
       id="clipPath32250">
      <path
         d="M 472.78212,533.90132 C 385.41605,556.85119 293.07553,586.48725 202.68667,561.9566 130.28144,533.53022 63.75748,483.61407 24.70479,415.57369 5.9846504,366.7459 15.34122,313.30568 6.2702404,262.73042 2.7952804,195.3351 22.84446,119.22003 81.7617,79.843494 128.82502,51.663687 186.72926,60.195101 237.82706,70.19833 c 34.89898,8.882353 65.29375,36.28864 72.68794,72.27372 12.19896,38.76044 17.48289,88.14642 57.4572,109.08953 36.04762,14.12826 76.94662,-4.11175 112.16938,14.01746 75.35599,25.70718 116.17357,124.13572 75.91445,194.23176 -17.80517,33.59714 -48.67589,59.10486 -83.27391,74.09052 z"
         fill="#f4faff"
         id="path32252"
         style="fill:#d700cf;fill-opacity:1;stroke-width:1.35162"
         sodipodi:nodetypes="sccccccccccccccccccccccccccs" />
    </clipPath>
    <clipPath
       clipPathUnits="userSpaceOnUse"
       id="clipPath32278">
      <path
         d="M 472.78212,533.90132 C 385.41605,556.85119 293.07553,586.48725 202.68667,561.9566 130.28144,533.53022 63.75748,483.61407 24.70479,415.57369 5.9846504,366.7459 15.34122,313.30568 6.2702404,262.73042 2.7952804,195.3351 22.84446,119.22003 81.7617,79.8435 128.82502,51.66369 186.72926,60.1951 237.82706,70.19833 c 34.89898,8.88235 65.29375,36.28864 72.68794,72.27372 12.19896,38.76044 17.48289,88.14642 57.4572,109.08953 36.04762,14.12826 76.94662,-4.11175 112.16938,14.01746 75.35599,25.70718 116.17357,124.13572 75.91445,194.23176 -17.80517,33.59714 -48.67589,59.10486 -83.27391,74.09052 z"
         fill="#f4faff"
         id="path32280"
         style="fill:#d700cf;fill-opacity:1;stroke-width:1.35162"
         sodipodi:nodetypes="sccccccccccccccccccccccccccs" />
    </clipPath>
    <clipPath
       clipPathUnits="userSpaceOnUse"
       id="clipPath32304">
      <path
         d="M 783.78212,694.90132 C 696.41605,717.85119 604.07553,747.48725 513.68667,722.9566 441.28144,694.53022 374.75748,644.61407 335.70479,576.57369 316.98465,527.7459 326.34122,474.30568 317.27024,423.73042 313.79528,356.3351 333.84446,280.22003 392.7617,240.8435 c 47.06332,-28.17981 104.96756,-19.6484 156.06536,-9.64517 34.89898,8.88235 65.29375,36.28864 72.68794,72.27372 12.19896,38.76044 17.48289,88.14642 57.4572,109.08953 36.04762,14.12826 76.94662,-4.11175 112.16938,14.01746 75.35599,25.70718 116.17357,124.13572 75.91445,194.23176 -17.80517,33.59714 -48.67589,59.10486 -83.27391,74.09052 z"
         fill="#f4faff"
         id="path32306"
         style="fill:#d700cf;fill-opacity:1;stroke-width:1.35162"
         sodipodi:nodetypes="sccccccccccccccccccccccccccs" />
    </clipPath>
  </defs>
  <sodipodi:namedview
     id="namedview344"
     pagecolor="#ffffff"
     bordercolor="#666666"
     borderopacity="1.0"
     inkscape:showpageshadow="2"
     inkscape:pageopacity="0.0"
     inkscape:pagecheckerboard="0"
     inkscape:deskcolor="#d1d1d1"
     showgrid="false"
     inkscape:zoom="2.309719"
     inkscape:cx="255.22585"
     inkscape:cy="155.43016"
     inkscape:window-width="3840"
     inkscape:window-height="1178"
     inkscape:window-x="2"
     inkscape:window-y="25"
     inkscape:window-maximized="0"
     inkscape:current-layer="svg342" />
  <path
     d="M 472.78212,533.90132 C 385.41605,556.85119 293.07553,586.48725 202.68667,561.9566 130.28144,533.53022 63.757478,483.61407 24.704786,415.57369 5.9846544,366.7459 15.341216,313.30568 6.2702418,262.73042 2.7952774,195.3351 22.844456,119.22003 81.7617,79.843496 128.82502,51.663689 186.72926,60.195103 237.82706,70.198332 c 34.89898,8.882353 65.29375,36.288638 72.68794,72.273718 12.19896,38.76044 17.48289,88.14642 57.4572,109.08953 36.04762,14.12826 76.94662,-4.11175 112.16938,14.01746 75.35599,25.70718 116.17357,124.13572 75.91445,194.23176 -17.80517,33.59714 -48.67589,59.10486 -83.27391,74.09052 z"
     fill="#f4faff"
     id="path465-1"
     style="fill:#f4faff;fill-opacity:1;stroke-width:1.35162"
     sodipodi:nodetypes="sccccccccccccccccccccccccccs" />
  <path
     style="fill:none;stroke:#ffffff;stroke-width:3;stroke-linecap:butt;stroke-linejoin:miter;stroke-opacity:1;stroke-dasharray:none"
     d="m 571.49808,411.61571 c -25.51667,11.33928 -53.49931,-1.64095 -74.85727,-16.03823 -10.8351,-7.531 -27.38195,-16.29912 -36.9003,-1.98579 -7.85192,8.74768 -13.42653,29.57401 -28.85227,19.51265 -19.0389,-10.27943 -35.40866,-25.86459 -56.48444,-32.08744 l -0.76629,0.25485 -0.43218,0.14373"
     id="path32308"
     sodipodi:nodetypes="csccc" />
  <path
     style="fill:none;stroke:#ffffff;stroke-width:3;stroke-linecap:butt;stroke-linejoin:miter;stroke-opacity:1;stroke-dasharray:none"
     d="m 286.18496,97.198955 c -63.13175,3.143225 -120.31012,60.142075 -117.93042,124.400585 -0.13472,26.27226 15.04298,49.00463 18.42992,74.58869 10.99771,61.70173 -8.36018,128.18012 -52.24475,173.22795 -9.06085,9.83761 -17.63232,20.11251 -26.63143,29.9962"
     id="path31934-0"
     sodipodi:nodetypes="cccc" />
  <ellipse
     style="opacity:1;fill:none;fill-opacity:1;fill-rule:evenodd;stroke:#ffffff;stroke-width:3;stroke-linecap:round;stroke-linejoin:round;stroke-dasharray:none;stroke-opacity:1;stop-color:#000000"
     id="path32010"
     cx="44.377693"
     cy="387.7095"
     rx="66.673485"
     ry="64.075768"
     clip-path="url(#clipPath32250)" />
  <path
     d="m 858.57692,634.60819 c -5.22363,8.56168 -17.65054,20.40002 -27.68705,29.38295 L 409.80772,665.29 c -10.03651,-8.98293 -20.56684,-19.52241 -29.2541,-29.81591 z"
     transform="translate(-311,-161)"
     fill="#3f3d56"
     id="path152"
     style="fill:#5c8dca;fill-opacity:1"
     sodipodi:nodetypes="ccccc"
     clip-path="url(#clipPath32304)" />
  <ellipse
     style="opacity:1;fill:none;fill-opacity:1;fill-rule:evenodd;stroke:#ffffff;stroke-width:3;stroke-linecap:round;stroke-linejoin:round;stroke-dasharray:none;stroke-opacity:1;stop-color:#000000"
     id="path32254"
     cx="542.49023"
     cy="288.34674"
     rx="74.098305"
     ry="61.542683"
     clip-path="url(#clipPath32278)" />
  <path
     d="M632.28,536.07H567.36a3.17486,3.17486,0,0,0-1.03.16,3.448,3.448,0,0,0-2.43,3.3V642.09h71.85V539.53A3.46328,3.46328,0,0,0,632.28,536.07Zm-24.57,50.6a7.53127,7.53127,0,0,1-1.56,4.6,7.665,7.665,0,0,1-13.78-4.6v-11.9a7.67033,7.67033,0,0,1,15.34,0Z"
     transform="translate(-311 -161)"
     fill="#2f2e41"
     id="path154" />
  <path
     d="M563.68,638.81v9.89a1.93971,1.93971,0,0,0,1.93,1.94h68.43a1.94622,1.94622,0,0,0,1.93-1.94v-9.89Z"
     transform="translate(-311 -161)"
     fill="#3f3d56"
     id="path156" />
  <path
     d="M739.78,376.02H462.28a9.01147,9.01147,0,0,0-9,8.99V572.27a9.0071,9.0071,0,0,0,9,9h277.5a9.00714,9.00714,0,0,0,9-9V385.01A9.01151,9.01151,0,0,0,739.78,376.02Z"
     transform="translate(-311 -161)"
     fill="#3f3d56"
     id="path158"
     style="fill:#5c8dca;fill-opacity:1" />
  <path
     d="M737.46,382.52H464.59a4.82046,4.82046,0,0,0-4.81,4.82V569.96a4.81829,4.81829,0,0,0,4.81,4.81H737.46a4.81833,4.81833,0,0,0,4.81-4.81V387.34A4.8205,4.8205,0,0,0,737.46,382.52Z"
     transform="translate(-311 -161)"
     fill="#a5ceff"
     id="path160"
     style="fill:#cee8f4;fill-opacity:1" />
  <path
     d="M687.24,650.48l-2.52-11.97a2.99238,2.99238,0,0,0-1.86-2.17,2.89431,2.89431,0,0,0-1.06-.2H524.49a2.89455,2.89455,0,0,0-1.06.2,2.99262,2.99262,0,0,0-1.86,2.17l-2.52,11.97a2.98724,2.98724,0,0,0,2.92,3.6H684.31a2.94839,2.94839,0,0,0,2.32-1.11A2.98494,2.98494,0,0,0,687.24,650.48Z"
     transform="translate(-311 -161)"
     fill="#2f2e41"
     id="path162" />
  <rect
     x="214.643"
     y="477.29577"
     width="5"
     height="3"
     rx="0.48819"
     fill="#3f3d56"
     id="rect164" />
  <rect
     x="224.643"
     y="477.29577"
     width="5"
     height="3"
     rx="0.48819"
     fill="#3f3d56"
     id="rect166" />
  <rect
     x="234.643"
     y="477.29577"
     width="5"
     height="3"
     rx="0.48819"
     fill="#3f3d56"
     id="rect168" />
  <rect
     x="244.643"
     y="477.29577"
     width="5"
     height="3"
     rx="0.48819"
     fill="#3f3d56"
     id="rect170" />
  <rect
     x="254.643"
     y="477.29577"
     width="5"
     height="3"
     rx="0.48819"
     fill="#3f3d56"
     id="rect172" />
  <rect
     x="264.643"
     y="477.29577"
     width="5"
     height="3"
     rx="0.48819"
     fill="#3f3d56"
     id="rect174" />
  <rect
     x="274.643"
     y="477.29577"
     width="5"
     height="3"
     rx="0.48819"
     fill="#3f3d56"
     id="rect176" />
  <rect
     x="284.643"
     y="477.29577"
     width="5"
     height="3"
     rx="0.48819"
     fill="#3f3d56"
     id="rect178" />
  <rect
     x="294.643"
     y="477.29577"
     width="5"
     height="3"
     rx="0.48819"
     fill="#3f3d56"
     id="rect180" />
  <rect
     x="304.643"
     y="477.29577"
     width="5"
     height="3"
     rx="0.48819"
     fill="#3f3d56"
     id="rect182" />
  <rect
     x="314.643"
     y="477.29577"
     width="5"
     height="3"
     rx="0.48819"
     fill="#3f3d56"
     id="rect184" />
  <rect
     x="324.643"
     y="477.29577"
     width="5"
     height="3"
     rx="0.48819"
     fill="#3f3d56"
     id="rect186" />
  <rect
     x="334.643"
     y="477.29577"
     width="5"
     height="3"
     rx="0.48819"
     fill="#3f3d56"
     id="rect188" />
  <rect
     x="344.643"
     y="477.29577"
     width="5"
     height="3"
     rx="0.48819"
     fill="#3f3d56"
     id="rect190" />
  <rect
     x="354.643"
     y="477.29577"
     width="5"
     height="3"
     rx="0.48819"
     fill="#3f3d56"
     id="rect192" />
  <rect
     x="364.643"
     y="477.29577"
     width="5"
     height="3"
     rx="0.48819"
     fill="#3f3d56"
     id="rect194" />
  <rect
     x="214.52484"
     y="482.29577"
     width="5"
     height="3"
     rx="0.48819"
     fill="#3f3d56"
     id="rect196" />
  <rect
     x="224.52484"
     y="482.29577"
     width="5"
     height="3"
     rx="0.48819"
     fill="#3f3d56"
     id="rect198" />
  <rect
     x="234.52484"
     y="482.29577"
     width="5"
     height="3"
     rx="0.48819"
     fill="#3f3d56"
     id="rect200" />
  <rect
     x="244.52484"
     y="482.29577"
     width="5"
     height="3"
     rx="0.48819"
     fill="#3f3d56"
     id="rect202" />
  <rect
     x="254.52484"
     y="482.29577"
     width="5"
     height="3"
     rx="0.48819"
     fill="#3f3d56"
     id="rect204" />
  <rect
     x="264.52484"
     y="482.29577"
     width="5"
     height="3"
     rx="0.48819"
     fill="#3f3d56"
     id="rect206" />
  <rect
     x="274.52484"
     y="482.29577"
     width="5"
     height="3"
     rx="0.48819"
     fill="#3f3d56"
     id="rect208" />
  <rect
     x="284.52484"
     y="482.29577"
     width="5"
     height="3"
     rx="0.48819"
     fill="#3f3d56"
     id="rect210" />
  <rect
     x="294.52484"
     y="482.29577"
     width="5"
     height="3"
     rx="0.48819"
     fill="#3f3d56"
     id="rect212" />
  <rect
     x="304.52484"
     y="482.29577"
     width="5"
     height="3"
     rx="0.48819"
     fill="#3f3d56"
     id="rect214" />
  <rect
     x="314.52484"
     y="482.29577"
     width="5"
     height="3"
     rx="0.48819"
     fill="#3f3d56"
     id="rect216" />
  <rect
     x="324.52484"
     y="482.29577"
     width="5"
     height="3"
     rx="0.48819"
     fill="#3f3d56"
     id="rect218" />
  <rect
     x="334.52484"
     y="482.29577"
     width="5"
     height="3"
     rx="0.48819"
     fill="#3f3d56"
     id="rect220" />
  <rect
     x="344.52484"
     y="482.29577"
     width="5"
     height="3"
     rx="0.48819"
     fill="#3f3d56"
     id="rect222" />
  <rect
     x="354.52484"
     y="482.29577"
     width="5"
     height="3"
     rx="0.48819"
     fill="#3f3d56"
     id="rect224" />
  <rect
     x="364.52484"
     y="482.29577"
     width="5"
     height="3"
     rx="0.48819"
     fill="#3f3d56"
     id="rect226" />
  <rect
     x="262.52484"
     y="488.29577"
     width="40"
     height="3"
     rx="0.48819"
     fill="#3f3d56"
     id="rect228" />
  <path
     d="M723.74813,407.67669H468.42477a1.01559,1.01559,0,0,1,0-2.03069H723.74813a1.01559,1.01559,0,0,1,0,2.03069Z"
     transform="translate(-311 -161)"
     fill="#3f3d56"
     id="path230"
     style="fill:#5c8dca;fill-opacity:1" />
  <ellipse
     cx="174.80496"
     cy="233.3788"
     rx="5.95043"
     ry="6.08304"
     fill="#3f3d56"
     id="ellipse232"
     style="fill:#5c8dca;fill-opacity:1" />
  <ellipse
     cx="195.36098"
     cy="233.3788"
     rx="5.95043"
     ry="6.08304"
     fill="#3f3d56"
     id="ellipse234"
     style="fill:#5c8dca;fill-opacity:1" />
  <ellipse
     cx="215.917"
     cy="233.3788"
     rx="5.95043"
     ry="6.08304"
     fill="#3f3d56"
     id="ellipse236"
     style="fill:#5c8dca;fill-opacity:1" />
  <path
     d="M711.37,389.8h-14.6a1.1053,1.1053,0,0,0,0,2.21h14.6a1.10511,1.10511,0,0,0,0-2.21Z"
     transform="translate(-311 -161)"
     fill="#3f3d56"
     id="path238"
     style="fill:#5c8dca;fill-opacity:1" />
  <path
     d="M711.37,393.95h-14.6a1.10527,1.10527,0,0,0,0,2.21h14.6a1.10508,1.10508,0,0,0,0-2.21Z"
     transform="translate(-311 -161)"
     fill="#3f3d56"
     id="path240"
     style="fill:#5c8dca;fill-opacity:1" />
  <path
     d="M711.37,398.1h-14.6a1.1053,1.1053,0,0,0,0,2.21h14.6a1.10511,1.10511,0,0,0,0-2.21Z"
     transform="translate(-311 -161)"
     fill="#3f3d56"
     id="path242"
     style="fill:#5c8dca;fill-opacity:1" />
  <rect
     x="171.31411"
     y="270.27328"
     width="11.00609"
     height="5.75992"
     rx="2.87996"
     fill="#e6e6e6"
     id="rect244"
     style="fill:#73a4e1;fill-opacity:1" />
  <rect
     x="231.31411"
     y="270.27328"
     width="11.00609"
     height="5.75992"
     rx="2.87996"
     fill="#e6e6e6"
     id="rect246"
     style="fill:#73a4e1;fill-opacity:1" />
  <rect
     x="248.31411"
     y="270.27328"
     width="11.00609"
     height="5.75992"
     rx="2.87996"
     fill="#e6e6e6"
     id="rect248" />
  <rect
     x="187.6343"
     y="269.79312"
     width="38.3657"
     height="5.75992"
     rx="2.87996"
     fill="#e6e6e6"
     id="rect250"
     style="fill:#73a4e1;fill-opacity:1" />
  <rect
     x="267.6343"
     y="269.79312"
     width="38.3657"
     height="5.75992"
     rx="2.87996"
     fill="#e6e6e6"
     id="rect252" />
  <rect
     x="187.31411"
     y="283.27328"
     width="11.00609"
     height="5.75992"
     rx="2.87996"
     fill="#e6e6e6"
     id="rect254"
     style="fill:#73a4e1;fill-opacity:1" />
  <rect
     x="247.31411"
     y="283.27328"
     width="11.00609"
     height="5.75992"
     rx="2.87996"
     fill="#e6e6e6"
     id="rect256" />
  <rect
     x="264.31411"
     y="283.27328"
     width="11.00609"
     height="5.75992"
     rx="2.87996"
     fill="#e6e6e6"
     id="rect258" />
  <rect
     x="203.6343"
     y="282.79312"
     width="38.3657"
     height="5.75992"
     rx="2.87996"
     fill="#e6e6e6"
     id="rect260"
     style="fill:#73a4e1;fill-opacity:1" />
  <rect
     x="283.6343"
     y="282.79312"
     width="38.3657"
     height="5.75992"
     rx="2.87996"
     fill="#e6e6e6"
     id="rect262" />
  <rect
     x="203.31411"
     y="296.27328"
     width="11.00609"
     height="5.75992"
     rx="2.87996"
     fill="#e6e6e6"
     id="rect264"
     style="fill:#73a4e1;fill-opacity:1" />
  <rect
     x="263.31411"
     y="296.27328"
     width="11.00609"
     height="5.75992"
     rx="2.87996"
     fill="#e6e6e6"
     id="rect266" />
  <rect
     x="280.31411"
     y="296.27328"
     width="11.00609"
     height="5.75992"
     rx="2.87996"
     fill="#e6e6e6"
     id="rect268" />
  <rect
     x="219.6343"
     y="295.79312"
     width="38.3657"
     height="5.75992"
     rx="2.87996"
     fill="#e6e6e6"
     id="rect270"
     style="fill:#73a4e1;fill-opacity:1" />
  <rect
     x="299.6343"
     y="295.79312"
     width="38.3657"
     height="5.75992"
     rx="2.87996"
     fill="#e6e6e6"
     id="rect272" />
  <rect
     x="219.31411"
     y="309.27328"
     width="11.00609"
     height="5.75992"
     rx="2.87996"
     fill="#e6e6e6"
     id="rect274"
     style="fill:#73a4e1;fill-opacity:1" />
  <rect
     x="279.31411"
     y="309.27328"
     width="11.00609"
     height="5.75992"
     rx="2.87996"
     fill="#e6e6e6"
     id="rect276" />
  <rect
     x="296.31411"
     y="309.27328"
     width="11.00609"
     height="5.75992"
     rx="2.87996"
     fill="#e6e6e6"
     id="rect278" />
  <rect
     x="235.6343"
     y="308.79312"
     width="38.3657"
     height="5.75992"
     rx="2.87996"
     fill="#e6e6e6"
     id="rect280"
     style="fill:#73a4e1;fill-opacity:1" />
  <rect
     x="231.31411"
     y="360.9668"
     width="11.00609"
     height="5.75992"
     rx="2.87996"
     fill="#e6e6e6"
     id="rect282"
     style="fill:#73a4e1;fill-opacity:1" />
  <rect
     x="248.31411"
     y="360.9668"
     width="11.00609"
     height="5.75992"
     rx="2.87996"
     fill="#e6e6e6"
     id="rect284" />
  <rect
     x="267.6343"
     y="361.44697"
     width="38.3657"
     height="5.75992"
     rx="2.87996"
     fill="#e6e6e6"
     id="rect286" />
  <rect
     x="171.31411"
     y="360.9668"
     width="11.00609"
     height="5.75992"
     rx="2.87996"
     fill="#e6e6e6"
     id="rect288"
     style="fill:#73a4e1;fill-opacity:1" />
  <rect
     x="187.6343"
     y="361.44697"
     width="38.3657"
     height="5.75992"
     rx="2.87996"
     fill="#e6e6e6"
     id="rect290"
     style="fill:#73a4e1;fill-opacity:1" />
  <rect
     x="187.31411"
     y="347.9668"
     width="11.00609"
     height="5.75992"
     rx="2.87996"
     fill="#e6e6e6"
     id="rect292"
     style="fill:#73a4e1;fill-opacity:1" />
  <rect
     x="247.31411"
     y="347.9668"
     width="11.00609"
     height="5.75992"
     rx="2.87996"
     fill="#e6e6e6"
     id="rect294" />
  <rect
     x="203.6343"
     y="348.44697"
     width="38.3657"
     height="5.75992"
     rx="2.87996"
     fill="#e6e6e6"
     id="rect298"
     style="fill:#73a4e1;fill-opacity:1" />
  <rect
     x="203.31411"
     y="334.9668"
     width="11.00609"
     height="5.75992"
     rx="2.87996"
     fill="#e6e6e6"
     id="rect300"
     style="fill:#73a4e1;fill-opacity:1" />
  <rect
     x="263.31411"
     y="334.9668"
     width="11.00609"
     height="5.75992"
     rx="2.87996"
     fill="#e6e6e6"
     id="rect302" />
  <rect
     x="280.31411"
     y="334.9668"
     width="11.00609"
     height="5.75992"
     rx="2.87996"
     fill="#e6e6e6"
     id="rect304" />
  <rect
     x="219.6343"
     y="335.44697"
     width="38.3657"
     height="5.75992"
     rx="2.87996"
     fill="#e6e6e6"
     id="rect306"
     style="fill:#73a4e1;fill-opacity:1" />
  <rect
     x="219.31411"
     y="321.9668"
     width="11.00609"
     height="5.75992"
     rx="2.87996"
     fill="#e6e6e6"
     id="rect308"
     style="fill:#73a4e1;fill-opacity:1" />
  <rect
     x="279.31411"
     y="321.9668"
     width="11.00609"
     height="5.75992"
     rx="2.87996"
     fill="#e6e6e6"
     id="rect310" />
  <rect
     x="296.31411"
     y="321.9668"
     width="11.00609"
     height="5.75992"
     rx="2.87996"
     fill="#e6e6e6"
     id="rect312" />
  <rect
     x="235.6343"
     y="322.44697"
     width="38.3657"
     height="5.75992"
     rx="2.87996"
     fill="#e6e6e6"
     id="rect314"
     style="fill:#73a4e1;fill-opacity:1" />
  <path
     d="m 415.81,546.77 c -0.61,0.31 -1.23,0.62 -1.84,0.92 -15.8,7.9 -28.43994,12.39 -45.73,17.31 -1.46,-16.3 -2.87,-44.95 -4.24,-62.71 -0.36,-4.61 -0.72,-8.48 -1.07,-11.21 a 15.1823,15.1823 0 0 0 -0.88,-4.25 l 0.06,4.25 0.15,11.21 0.87,64.11 a 288.58782,288.58782 0 0 1 -65.84,9.49 c -1.16,0.03 -2.3,0.05 -3.4,0.07 -0.39,0.01 -0.77,0.02 -1.15,0.02 -1.25,0.01 -2.49,0.02 -3.74,0.02 a 289.27116,289.27116 0 0 1 -69.54,-8.43 c 0.49,-16.13 0.98,-44.46 1.45,-65.28 0.1,-4.07 0.19,-7.86 0.29,-11.21 0.19,-7.16 0.39,-12.32 0.58,-14.05 a 4.36108,4.36108 0 0 0 -0.39,0.97 97.15388,97.15388 0 0 0 -1.89,13.08 c -0.35,3.35 -0.7,7.14 -1.05,11.21 -1.86,21.63 -3.8,51.04 -5.8,63.51 a 285.47262,285.47262 0 0 1 -34.97,-12.03 q -9,-3.75 -17.68,-8.09 c 1.1,-7.2 2.25,-15.27 3.43,-23.64 0.92,-6.49 1.87,-13.16 2.84,-19.75 1.5,-10.18 3.04,-20.16 4.6,-28.95 2.28,-12.84 4.62,-23.16 6.94,-27.9 2.2,-4.5 4.4,-8.94 6.53,-13.19 0.74,-1.49 1.48,-2.96 2.2,-4.39 0.17,-0.34 0.34,-0.67 0.51,-1 1.53,-3.01 3.01,-5.89 4.42,-8.59 1.21,-2.31 2.36005,-4.49 3.45,-6.5 2.64,-4.88 4.88,-8.77 6.54,-11.23 a 55.25656,55.25656 0 0 1 29.28,-22.21 l 0.3,-0.08 0.21,0.09 20.45,-6.28 2.99,-0.92 2.01,-0.62 7.08,-5.39 3.85,-2.93 3.61,-2.75 7.06,-5.37 43.71,2.69 8.51,20.49 19.06,6.97 0.33,-0.15 0.29,-0.12 0.3,0.08 a 55.306,55.306 0 0 1 29.28,22.21 c 0.93994,1.41 2.08,3.27 3.37,5.52 1.1,1.91 2.3,4.09 3.6,6.5 1.85,3.43005 3.87,7.30005 6.01,11.49 0.47,0.92 0.95,1.86 1.43,2.81 q 1.335,2.63993 2.71,5.38995 c 2.13,4.25 4.33,8.69 6.53,13.2 1.91,3.91 3.84,11.95 5.74,22.18 1.57,8.5 3.13,18.52 4.64,28.95 1.98,13.52 -0.13,29.71 1.66,42.15 0.11,0.79005 0.23,1.56005 0.34,2.33005 z"
     fill="#3f3d56"
     id="path316"
     style="fill:#cd4948;fill-opacity:1" />
  <circle
     cx="289.61504"
     cy="288.88825"
     r="50.83645"
     fill="#a0616a"
     id="circle318"
     style="fill:#c78f81;fill-opacity:1" />
  <path
     d="M684.45,382.52a26.60846,26.60846,0,0,0-3.97-6.5c-7.72-9.43-21.76-13.58-36.17-2.42a15.27875,15.27875,0,0,0-8.35.48,12.91024,12.91024,0,0,0-3.52,1.94,15.97041,15.97041,0,0,0-4.94,6.5,15.52156,15.52156,0,0,0-1.1,4.23,50.56537,50.56537,0,0,0-11.23-4.23,60.33992,60.33992,0,0,0-29.13,0,36.54359,36.54359,0,0,0-8.78,3.48c-4.68,2.7-7.37,6.11-7.85,9.9-6.75.38-13.77,3.93-19,9.75-.59.65-1.16,1.33-1.69,2.03A32.70853,32.70853,0,0,0,542,427.73V429h1.27a26.87038,26.87038,0,0,1,10.15,1.98,27.58525,27.58525,0,0,1,5.89,3.25,28.764,28.764,0,0,1,3.37,2.8,33.48321,33.48321,0,0,1,6.12,8.05,37.4595,37.4595,0,0,1,4.08,24.71,36.19955,36.19955,0,0,1-1.52,5.76,37.58443,37.58443,0,0,1-3.71,7.63c-.06.09-.11.18-.17.27-.67,1.07-1.31,2.16-1.91,3.26-.45.82-.87,1.66-1.26,2.5a51.95669,51.95669,0,0,0-2.88,7.24,53.58646,53.58646,0,0,0-2.44,13.54c-.07,1.22-.09,2.44-.05,3.66a51.97943,51.97943,0,0,0,1.03,9.36005c.09.42.18005.83.27,1.25l.73,3.19,1.73,7.61,1.2,5.24,1.11,4.86,1.64-2.35c.56-.8,1.97-3.26,3.86-6.74,1.25-2.27,2.7-4.98,4.27-7.94,2.18994-4.15,4.59-8.78,6.93994-13.4.95-1.87,1.89-3.73,2.80005-5.55,1.72-3.45,3.34-6.78,4.73-9.74,1.28-2.73,2.37-5.15,3.18-7.09.25,1.27.46,2.56.62,3.86.18,1.32.31,2.66.38,4,.02.2.03.41.04.61005l.04.82.01.24,1.06.14a93.02194,93.02194,0,0,0,18.4.14h.01a74.86185,74.86185,0,0,0,23.56-5.71,49.25718,49.25718,0,0,0,11.8-7.24,41.3,41.3,0,0,0,4.66-4.52c.36-.41.71-.82,1.05-1.24a41.12455,41.12455,0,0,0,5.05-7.9,41.80164,41.80164,0,0,0,2.34-5.76c3.84-11.63,3.62-26.14-.66-43.38a9.923,9.923,0,0,0,3.27-1.26c3.14-1.88995,5.32-5.63995,6-10.22l1.08.29a30.104,30.104,0,0,0,10.01-7.54,24.11545,24.11545,0,0,0,1.54-2.03C687.58,398.45,687.62,389.81,684.45,382.52Z"
     fill="#2f2e41"
     id="path320"
     transform="translate(-311 -161)"
     style="fill:#1f3a65;fill-opacity:1" />
  <polygon
     points="206.32 475.296 214.817 442.504 222.32 470.8 206.32 475.296"
     opacity="0.2"
     id="polygon322" />
  <path
     d="m 432.43,453.93 c -3.04,41.88 0.11,60.32 -16.67,94.85 A 286.15918,286.15918 0 0 1 368.24,567 q -2.55,0.72 -5.11,1.4 a 288.58782,288.58782 0 0 1 -65.84,9.49 c -1.16,0.03 -2.3,0.05 -3.4,0.07 -0.39,0.01 -0.77,0.02 -1.15,0.02 -1.25,0.01 -2.49,0.02 -3.74,0.02 a 289.27116,289.27116 0 0 1 -69.54,-8.43 q -3.42,-0.84 -6.81,-1.77 a 285.47262,285.47262 0 0 1 -34.97,-12.03 q -9,-3.75 -17.68,-8.09 c -1.31,-0.66 -2.62,-1.32 -3.91,-2 -6.63,-11.66 -10.4,-25.84 -10.48,-42.88 4.59,-29.36 276.68,-74.19 286.82,-48.87 z"
     fill="#2f2e41"
     id="path324"
     style="fill:#98c2f8;fill-opacity:1" />
  <path
     d="m 432.42212,461.96807 c 0.15527,-2.59271 0.32886,-5.27093 0.53131,-8.05987 -10.14,-25.32 -282.23,19.51 -286.82,48.87 0.0126,2.69184 0.12775,5.30414 0.32129,7.85456 11.11559,-28.97829 269.60473,-71.58632 285.9674,-48.66469 z"
     opacity="0.2"
     id="path326"
     style="opacity:0.25;fill:#215eb7;fill-opacity:1" />
  <path
     d="M474.09552,503.15162a6.36455,6.36455,0,0,0-6.75274-6.81562,5.8541,5.8541,0,0,0-1.00507.12575l-39.7621,8.98257a6.54762,6.54762,0,0,0-4.20873,3.23509,8.18371,8.18371,0,0,0-1.72738.25112,9.66133,9.66133,0,0,0,4.2714,18.84464,9.79394,9.79394,0,0,0,3.89453-1.88439l13.474,37.9406a6.3285,6.3285,0,0,0,6.941,3.04646l25.84869-5.84179A6.41623,6.41623,0,0,0,480,555.31982Zm-49.78137,21.92253a6.91049,6.91049,0,0,1-3.0779-13.47385c.12556-.03144.25132,0,.37688-.03144a6.50647,6.50647,0,0,0,.84807,3.26634l4.93085,8.60569A6.50519,6.50519,0,0,1,424.31415,525.07415Z"
     transform="translate(-311 -161)"
     fill="#2f2e41"
     id="path328"
     style="fill:#1f3a65;fill-opacity:1" />
  <path
     d="M467.34278,496.336c.37688,5.02535-8.22881,10.80427-19.75539,13.09716-10.58459,2.16714-20.06959.65944-22.73936-3.29777a6.02524,6.02524,0,0,1,1.72758-.69107l39.7621-8.98257A5.8541,5.8541,0,0,1,467.34278,496.336Z"
     transform="translate(-311 -161)"
     fill="#3f3d56"
     id="path330"
     style="fill:#122c53;fill-opacity:1" />
  <path
     d="M439.84333,623.90524,462.177,612.73843l-18.6114-50.25079-4.90493-25.342a19.16137,19.16137,0,0,0-31.28219-10.90731h0a19.16136,19.16136,0,0,0-2.49251,26.51833l18.20719,22.75891Z"
     transform="translate(-311 -161)"
     fill="#a0616a"
     id="path332"
     style="fill:#c78f81;fill-opacity:1" />
  <path
     d="M462.177,603.43273l-29.77821,14.889,22.59854,70.80908A30.9768,30.9768,0,0,0,477.333,709.84721h0a30.97681,30.97681,0,0,0,33.73743-14.197l59.92487-102.71393a31.62026,31.62026,0,0,0-10.19564-42.982h0a31.62037,31.62037,0,0,0-45.29613,12.76511l-36.576,77.93632Z"
     transform="translate(-311 -161)"
     fill="#3f3d56"
     id="path334"
     style="fill:#cd4948;fill-opacity:1" />
  <path
     style="fill:none;stroke:#ffffff;stroke-width:3;stroke-linecap:butt;stroke-linejoin:miter;stroke-opacity:1;stroke-dasharray:none"
     d="M 228.16628,68.406589 C 186.79866,81.922152 138.46878,95.735337 116.34192,136.88838 98.448539,182.32881 82.662676,231.81743 45.265696,265.53299 34.94392,274.56397 22.959683,281.75377 9.9579211,286.18199"
     id="path31934"
     sodipodi:nodetypes="ccc" />
  <path
     d="M452.9668,539.44141a.49632.49632,0,0,1-.1626-.02735l-6.50147-2.23828a.49923.49923,0,0,1-.20556-.81055l4.83545-5.26464a.49972.49972,0,1,1,.73633.67578l-4.31885,4.70215,5.77929,1.99023a.49991.49991,0,0,1-.16259.97266Z"
     transform="translate(-311 -161)"
     fill="#a5ceff"
     id="path336" />
  <path
     d="M461.87842,537.61719a.5.5,0,0,1-.34766-.85938l4.39453-4.249-5.90332-2.43262a.49963.49963,0,1,1,.38086-.92383l6.60938,2.72364a.49951.49951,0,0,1,.15722.82129l-4.94336,4.77929A.49966.49966,0,0,1,461.87842,537.61719Z"
     transform="translate(-311 -161)"
     fill="#a5ceff"
     id="path338" />
  <path
     d="M454.33154,542.5a.48228.48228,0,0,1-.147-.02246.49976.49976,0,0,1-.33105-.625l4.61474-15a.50026.50026,0,0,1,.95606.29492l-4.61475,15A.50035.50035,0,0,1,454.33154,542.5Z"
     transform="translate(-311 -161)"
     fill="#a5ceff"
     id="path340" />
  <path
     style="fill:none;stroke:#000000;stroke-width:1px;stroke-linecap:butt;stroke-linejoin:miter;stroke-opacity:1"
     d="M 186.60278,61.912292 Z"
     id="path30476" />
</svg>
