<?xml version="1.0" encoding="UTF-8" standalone="no"?>
<svg
   width="57.76257"
   height="42.77667"
   viewBox="0 0 57.76257 42.77667"
   creator="Katerina Limpitsouni"
   version="1.1"
   id="svg138"
   sodipodi:docname="code2.svg"
   inkscape:version="1.2.1 (9c6d41e4, 2022-07-14)"
   xmlns:inkscape="http://www.inkscape.org/namespaces/inkscape"
   xmlns:sodipodi="http://sodipodi.sourceforge.net/DTD/sodipodi-0.dtd"
   xmlns="http://www.w3.org/2000/svg"
   xmlns:svg="http://www.w3.org/2000/svg">
  <defs
     id="defs142" />
  <sodipodi:namedview
     id="namedview140"
     pagecolor="#ffffff"
     bordercolor="#666666"
     borderopacity="1.0"
     inkscape:showpageshadow="2"
     inkscape:pageopacity="0.0"
     inkscape:pagecheckerboard="0"
     inkscape:deskcolor="#d1d1d1"
     showgrid="false"
     inkscape:zoom="11.034052"
     inkscape:cx="31.176216"
     inkscape:cy="9.5159961"
     inkscape:window-width="1343"
     inkscape:window-height="970"
     inkscape:window-x="2372"
     inkscape:window-y="352"
     inkscape:window-maximized="0"
     inkscape:current-layer="svg138" />
  <g
     id="g45234"
     transform="matrix(0.65088749,0,0,0.65088749,59.843053,6.56007)">
    <path
       d="m -72.828258,44.535535 c -0.37127,0 -0.74079,-0.154847 -1.00121,-0.459253 l -17.05215,-19.814708 c -0.42758,-0.496204 -0.42583,-1.231716 0.003,-1.726155 l 17.60818,-20.3109182 c 0.47685,-0.550749 1.31089,-0.608817 1.86164,-0.131965 0.55075,0.476845 0.60882,1.310889 0.13197,1.861643 l -16.86036,19.4487112 16.30785,18.952514 c 0.47509,0.552513 0.41174,1.384797 -0.14076,1.859885 -0.24811,0.214668 -0.55428,0.320246 -0.85868,0.320246"
       style="fill:#479bff;fill-opacity:1;fill-rule:nonzero;stroke:none;stroke-width:0.0175958"
       id="path43339" />
    <path
       d="m -22.307,44.535535 c -0.306165,0 -0.612335,-0.105578 -0.860437,-0.320246 -0.552507,-0.475088 -0.615858,-1.307372 -0.140765,-1.859885 L -6.9985899,23.40289 -23.860715,3.9541788 c -0.476846,-0.550754 -0.418783,-1.384798 0.131971,-1.861643 0.550749,-0.476852 1.384792,-0.418784 1.861644,0.131965 L -4.2589099,22.535419 c 0.429336,0.494439 0.431095,1.229951 0.0035,1.726155 L -21.307575,44.076282 c -0.260419,0.304406 -0.629933,0.459253 -0.999448,0.459253"
       style="fill:#479bff;fill-opacity:1;fill-rule:nonzero;stroke:none;stroke-width:0.0175958"
       id="path43341" />
    <path
       d="m -61.959288,43.539604 0.2393,5.982598 5.48639,-3.550848 26.79851,-46.10470122 c 0.462776,-0.795333 0.582424,-1.72263098 0.336087,-2.60770198 -0.244585,-0.886836 -0.823491,-1.618824 -1.629383,-2.064001 -1.617059,-0.890347 -3.672254,-0.307923 -4.583724,1.298578 z m -0.98537,9.667175 c -0.20939,0 -0.41702,-0.0475 -0.60706,-0.147806 -0.4223,-0.218191 -0.69327,-0.64401 -0.71263,-1.117338 l -0.34664,-8.673003 c -0.0105,-0.246343 0.0475,-0.489169 0.16892,-0.703837 L -37.60837,-4.8068082 c 1.618824,-2.859328 5.277003,-3.893964 8.15393,-2.308579 1.432302,0.788298 2.46342,2.092152 2.899797,3.668742 0.436382,1.576591 0.223467,3.22356098 -0.598259,4.638269 L -54.111528,47.57082 c -0.10382,0.179481 -0.24811,0.330805 -0.42231,0.445177 l -7.69467,4.979632 c -0.21643,0.140765 -0.46629,0.21115 -0.71615,0.21115"
       style="fill:#479bff;fill-opacity:1;fill-rule:nonzero;stroke:none;stroke-width:0.0175958"
       id="path43343" />
    <path
       d="m -29.375261,3.7078358 c -0.226985,0 -0.459252,-0.05983 -0.668644,-0.184757 l -8.08882,-4.773764 c -0.62817,-0.371267 -0.835803,-1.180677 -0.466288,-1.807093 0.371274,-0.628175 1.180683,-0.835802 1.807093,-0.466287 l 8.088821,4.775516 c 0.628175,0.369515 0.835808,1.178924 0.466293,1.807099 -0.246343,0.417019 -0.686238,0.649286 -1.138455,0.649286"
       style="fill:#479bff;fill-opacity:1;fill-rule:nonzero;stroke:none;stroke-width:0.0175958"
       id="path43345" />
    <path
       d="m -65.401038,10.218307 h -3.74793 c -0.73022,0 -1.31968,-0.5912232 -1.31968,-1.3196882 0,-0.73023 0.58946,-1.319695 1.31968,-1.319695 h 3.74793 c 0.72846,0 1.31969,0.589465 1.31969,1.319695 0,0.728465 -0.59123,1.3196882 -1.31969,1.3196882"
       style="fill:#479bff;fill-opacity:1;fill-rule:nonzero;stroke:none;stroke-width:0.0175958"
       id="path43347" />
    <path
       d="m -50.073278,10.218307 h -8.89647 c -0.72848,0 -1.3197,-0.5912232 -1.3197,-1.3196882 0,-0.73023 0.59122,-1.319695 1.3197,-1.319695 h 8.89647 c 0.72847,0 1.31969,0.589465 1.31969,1.319695 0,0.728465 -0.59122,1.3196882 -1.31969,1.3196882"
       style="fill:#479bff;fill-opacity:1;fill-rule:nonzero;stroke:none;stroke-width:0.0175958"
       id="path43349" />
    <path
       d="m -76.555068,25.343719 h -3.74792 c -0.72847,0 -1.31969,-0.591223 -1.31969,-1.319694 0,-0.728466 0.59122,-1.319689 1.31969,-1.319689 h 3.74792 c 0.72847,0 1.31969,0.591223 1.31969,1.319689 0,0.728471 -0.59122,1.319694 -1.31969,1.319694"
       style="fill:#479bff;fill-opacity:1;fill-rule:nonzero;stroke:none;stroke-width:0.0175958"
       id="path43351" />
    <path
       d="m -58.292318,25.343719 h -13.12123 c -0.72847,0 -1.3197,-0.591223 -1.3197,-1.319694 0,-0.728466 0.59123,-1.319689 1.3197,-1.319689 h 13.12123 c 0.72847,0 1.3197,0.591223 1.3197,1.319689 0,0.728471 -0.59123,1.319694 -1.3197,1.319694"
       style="fill:#479bff;fill-opacity:1;fill-rule:nonzero;stroke:none;stroke-width:0.0175958"
       id="path43353" />
    <path
       d="m -22.762729,25.343719 h -13.121244 c -0.728466,0 -1.319689,-0.591223 -1.319689,-1.319694 0,-0.728466 0.591223,-1.319689 1.319689,-1.319689 h 13.121244 c 0.728465,0 1.319689,0.591223 1.319689,1.319689 0,0.728471 -0.591224,1.319694 -1.319689,1.319694"
       style="fill:#479bff;fill-opacity:1;fill-rule:nonzero;stroke:none;stroke-width:0.0175958"
       id="path43355" />
    <path
       d="m -14.816438,25.343719 h -2.980741 c -0.728465,0 -1.319689,-0.591223 -1.319689,-1.319694 0,-0.728466 0.591224,-1.319689 1.319689,-1.319689 h 2.980741 c 0.728471,0 1.319694,0.591223 1.319694,1.319689 0,0.728471 -0.591223,1.319694 -1.319694,1.319694"
       style="fill:#479bff;fill-opacity:1;fill-rule:nonzero;stroke:none;stroke-width:0.0175958"
       id="path43357" />
    <path
       d="m -24.798572,10.218307 h -2.85581 c -0.73023,0 -1.319689,-0.5912232 -1.319689,-1.3196882 0,-0.73023 0.589459,-1.319695 1.319689,-1.319695 h 2.85581 c 0.728465,0 1.319689,0.589465 1.319689,1.319695 0,0.728465 -0.591224,1.3196882 -1.319689,1.3196882"
       style="fill:#479bff;fill-opacity:1;fill-rule:nonzero;stroke:none;stroke-width:0.0175958"
       id="path43359" />
    <path
       d="m -20.060007,17.781013 h -11.013251 c -0.728472,0 -1.319695,-0.591223 -1.319695,-1.319688 0,-0.728472 0.591223,-1.319695 1.319695,-1.319695 h 11.013251 c 0.728471,0 1.319689,0.591223 1.319689,1.319695 0,0.728465 -0.591218,1.319688 -1.319689,1.319688"
       style="fill:#479bff;fill-opacity:1;fill-rule:nonzero;stroke:none;stroke-width:0.0175958"
       id="path43361" />
    <path
       d="m -53.383068,17.781013 h -8.11345 c -0.72847,0 -1.31969,-0.591223 -1.31969,-1.319688 0,-0.728472 0.59122,-1.319695 1.31969,-1.319695 h 8.11345 c 0.72847,0 1.31969,0.591223 1.31969,1.319695 0,0.728465 -0.59122,1.319688 -1.31969,1.319688"
       style="fill:#479bff;fill-opacity:1;fill-rule:nonzero;stroke:none;stroke-width:0.0175958"
       id="path43363" />
    <path
       d="m -66.293148,17.781013 h -2.85582 c -0.73022,0 -1.31968,-0.591223 -1.31968,-1.319688 0,-0.728472 0.58946,-1.319695 1.31968,-1.319695 h 2.85582 c 0.72847,0 1.31968,0.591223 1.31968,1.319695 0,0.728465 -0.59121,1.319688 -1.31968,1.319688"
       style="fill:#479bff;fill-opacity:1;fill-rule:nonzero;stroke:none;stroke-width:0.0175958"
       id="path43365" />
    <path
       d="m -62.937618,32.733985 h -4.59429 c -0.72846,0 -1.31968,-0.589465 -1.31968,-1.319695 0,-0.728465 0.59122,-1.319688 1.31968,-1.319688 h 4.59429 c 0.72847,0 1.31969,0.591223 1.31969,1.319688 0,0.73023 -0.59122,1.319695 -1.31969,1.319695"
       style="fill:#479bff;fill-opacity:1;fill-rule:nonzero;stroke:none;stroke-width:0.0175958"
       id="path43367" />
    <path
       d="m -34.845815,32.733985 h -5.259413 c -0.72846,0 -1.31968,-0.589465 -1.31968,-1.319695 0,-0.728465 0.59122,-1.319688 1.31968,-1.319688 h 5.259413 c 0.728471,0 1.319689,0.591223 1.319689,1.319688 0,0.73023 -0.591218,1.319695 -1.319689,1.319695"
       style="fill:#479bff;fill-opacity:1;fill-rule:nonzero;stroke:none;stroke-width:0.0175958"
       id="path43369" />
    <path
       d="m -20.686417,32.733985 h -4.379615 c -0.728465,0 -1.319689,-0.589465 -1.319689,-1.319695 0,-0.728465 0.591224,-1.319688 1.319689,-1.319688 h 4.379615 c 0.728471,0 1.319688,0.591223 1.319688,1.319688 0,0.73023 -0.591217,1.319695 -1.319688,1.319695"
       style="fill:#479bff;fill-opacity:1;fill-rule:nonzero;stroke:none;stroke-width:0.0175958"
       id="path43371" />
    <path
       d="m -29.581129,32.733985 h -1.14549 c -0.728471,0 -1.319695,-0.589465 -1.319695,-1.319695 0,-0.728465 0.591224,-1.319688 1.319695,-1.319688 h 1.14549 c 0.730229,0 1.319688,0.591223 1.319688,1.319688 0,0.73023 -0.589459,1.319695 -1.319688,1.319695"
       style="fill:#479bff;fill-opacity:1;fill-rule:nonzero;stroke:none;stroke-width:0.0175958"
       id="path43373" />
    <path
       d="m -33.533161,40.152403 h -10.536407 c -0.73023,0 -1.31969,-0.591224 -1.31969,-1.319689 0,-0.73023 0.58946,-1.319695 1.31969,-1.319695 h 10.536407 c 0.728465,0 1.319689,0.589465 1.319689,1.319695 0,0.728465 -0.591224,1.319689 -1.319689,1.319689"
       style="fill:#479bff;fill-opacity:1;fill-rule:nonzero;stroke:none;stroke-width:0.0175958"
       id="path43375" />
    <path
       d="m -28.266717,40.152403 h -1.145495 c -0.730225,0 -1.319689,-0.591224 -1.319689,-1.319689 0,-0.73023 0.589464,-1.319695 1.319689,-1.319695 h 1.145495 c 0.728465,0 1.319689,0.589465 1.319689,1.319695 0,0.728465 -0.591224,1.319689 -1.319689,1.319689"
       style="fill:#479bff;fill-opacity:1;fill-rule:nonzero;stroke:none;stroke-width:0.0175958"
       id="path43377" />
    <path
       d="m -72.330298,32.733985 h -2.85405 c -0.73023,0 -1.31969,-0.589465 -1.31969,-1.319695 0,-0.728465 0.58946,-1.319688 1.31969,-1.319688 h 2.85405 c 0.73023,0 1.31969,0.591223 1.31969,1.319688 0,0.73023 -0.58946,1.319695 -1.31969,1.319695"
       style="fill:#479bff;fill-opacity:1;fill-rule:nonzero;stroke:none;stroke-width:0.0175958"
       id="path43379" />
    <path
       d="m -74.126838,17.781013 h -1.93554 c -0.72847,0 -1.31969,-0.591223 -1.31969,-1.319688 0,-0.728472 0.59122,-1.319695 1.31969,-1.319695 h 1.93554 c 0.72847,0 1.3197,0.591223 1.3197,1.319695 0,0.728465 -0.59123,1.319688 -1.3197,1.319688"
       style="fill:#479bff;fill-opacity:1;fill-rule:nonzero;stroke:none;stroke-width:0.0175958"
       id="path43381" />
  </g>
</svg>
