<?xml version="1.0" encoding="UTF-8" standalone="no"?>
<svg
   width="57.76257"
   height="42.77667"
   viewBox="0 0 57.76257 42.77667"
   creator="Katerina Limpitsouni"
   version="1.1"
   id="svg138"
   sodipodi:docname="code.svg"
   inkscape:version="1.2.1 (9c6d41e4, 2022-07-14)"
   xmlns:inkscape="http://www.inkscape.org/namespaces/inkscape"
   xmlns:sodipodi="http://sodipodi.sourceforge.net/DTD/sodipodi-0.dtd"
   xmlns="http://www.w3.org/2000/svg"
   xmlns:svg="http://www.w3.org/2000/svg">
  <defs
     id="defs142" />
  <sodipodi:namedview
     id="namedview140"
     pagecolor="#ffffff"
     bordercolor="#666666"
     borderopacity="1.0"
     inkscape:showpageshadow="2"
     inkscape:pageopacity="0.0"
     inkscape:pagecheckerboard="0"
     inkscape:deskcolor="#d1d1d1"
     showgrid="false"
     inkscape:zoom="5.5170262"
     inkscape:cx="-0.090628535"
     inkscape:cy="23.563419"
     inkscape:window-width="1343"
     inkscape:window-height="970"
     inkscape:window-x="2372"
     inkscape:window-y="380"
     inkscape:window-maximized="0"
     inkscape:current-layer="svg138" />
  <path
     d="M11.95807,9.16698c-3.74727,4.03459-7.49455,8.06917-11.24182,12.10376-1.37202,1.47722-.64613,3.49155,1.10317,4.17846,4.62035,1.81431,8.79785,4.64518,12.28856,8.16049,2.27051,2.28651,5.80634-1.24872,3.53553-3.53553-4.12829-4.15739-9.05087-7.30861-14.49489-9.44635l1.10317,4.17846c3.74727-4.03459,7.49455-8.06917,11.24182-12.10376,2.18766-2.35539-1.34005-5.89935-3.53553-3.53553h0Z"
     fill="#01010C"
     origin="undraw"
     id="path132"
     style="fill:#479bff;fill-opacity:1" />
  <path
     d="M42.26896,12.70251c3.74727,4.03459,7.49455,8.06917,11.24182,12.10376,.36772-1.39282,.73545-2.78564,1.10317-4.17846-5.44399,2.13773-10.36664,5.289-14.49489,9.44635-2.26983,2.28583,1.26405,5.82303,3.53553,3.53553,3.49076-3.51537,7.66813-6.34615,12.28856-8.16049,1.7493-.68691,2.47519-2.70124,1.10317-4.17846-3.74727-4.03459-7.49455-8.06917-11.24182-12.10376-2.19454-2.3628-5.72413,1.17913-3.53553,3.53553h0Z"
     fill="#01010C"
     id="path134"
     style="fill:#479bff;fill-opacity:1" />
  <path
     d="M24.69051,40.9371c4.91551-12.58945,9.83102-25.17889,14.74653-37.76834,.49121-1.25808-.54011-2.74392-1.7461-3.0753-1.41591-.38905-2.58229,.48342-3.0753,1.7461-4.91551,12.58945-9.83102,25.17889-14.74653,37.76834-.49121,1.25808,.54011,2.74392,1.7461,3.0753,1.41591,.38905,2.58229-.48342,3.0753-1.7461h0Z"
     fill="#01010C"
     id="path136"
     style="fill:#479bff;fill-opacity:1" />
</svg>
