<?xml version="1.0" encoding="UTF-8" standalone="no"?>
<svg
   width="62.63443"
   height="48.83955"
   viewBox="0 0 62.63443 48.83955"
   creator="Katerina Limpitsouni"
   version="1.1"
   id="svg983"
   sodipodi:docname="fun-arrow.svg"
   inkscape:version="1.2.1 (9c6d41e4, 2022-07-14)"
   xmlns:inkscape="http://www.inkscape.org/namespaces/inkscape"
   xmlns:sodipodi="http://sodipodi.sourceforge.net/DTD/sodipodi-0.dtd"
   xmlns="http://www.w3.org/2000/svg"
   xmlns:svg="http://www.w3.org/2000/svg">
  <defs
     id="defs987" />
  <sodipodi:namedview
     id="namedview985"
     pagecolor="#ffffff"
     bordercolor="#666666"
     borderopacity="1.0"
     inkscape:showpageshadow="2"
     inkscape:pageopacity="0.0"
     inkscape:pagecheckerboard="0"
     inkscape:deskcolor="#d1d1d1"
     showgrid="false"
     inkscape:zoom="4.8321494"
     inkscape:cx="14.382833"
     inkscape:cy="25.14409"
     inkscape:window-width="1041"
     inkscape:window-height="577"
     inkscape:window-x="2099"
     inkscape:window-y="624"
     inkscape:window-maximized="0"
     inkscape:current-layer="svg983" />
  <path
     d="M44.98697,17.27072c3.02152-4.51246,6.04304-9.02491,9.06455-13.53737h-4.31735c2.40533,3.96877,4.81066,7.93755,7.216,11.90632,.34353,.56682,.68706,1.13365,1.03059,1.70047,.69922,1.15371,2.24206,1.58614,3.42047,.89688,1.15413-.67506,1.59935-2.2614,.89688-3.42047-2.40533-3.96877-4.81066-7.93755-7.216-11.90632-.34353-.56682-.68706-1.13365-1.03059-1.70047-1.01399-1.67307-3.27826-1.55182-4.31735,0-3.02152,4.51246-6.04304,9.02491-9.06455,13.53737-.75151,1.12234-.21797,2.7684,.89688,3.42047,1.22766,.71806,2.66719,.22811,3.42047-.89688h0Z"
     fill="#01010C"
     origin="undraw"
     id="path979"
     style="fill:#479bff;fill-opacity:1" />
  <path
     d="M2.5,48.54032c9.98476-1.10812,19.23175-7.01358,24.027-15.93333,2.57961-4.79839,4.1285-11.12074,1.05639-16.08048-2.76184-4.45884-8.78327-6.86452-13.37808-3.572-4.65048,3.33241-5.40732,9.23623-4.16926,14.46374,.63378,2.67602,1.65266,5.29118,2.6765,7.83978,.92629,2.30578,1.9356,4.61149,3.35298,6.66419,2.95718,4.2827,7.44023,7.17352,12.79181,6.89937,5.40109-.27669,10.27355-3.15896,13.66494-7.28503,3.97582-4.83709,6.41813-10.83763,8.35242-16.73667,2.1236-6.47637,3.3803-13.21153,3.88983-20.00421,.10112-1.34804-1.2214-2.5-2.5-2.5-1.43699,0-2.39859,1.14808-2.5,2.5-.72105,9.61263-3.11196,19.4488-7.5363,28.05291-1.94694,3.78626-4.50102,7.445-8.33595,9.50003-3.33345,1.78631-7.49538,2.16839-10.71346-.0623-3.04595-2.11138-4.69295-5.8781-5.98461-9.22046-1.50713-3.89995-3.7081-8.6514-2.34844-12.87282,1.02202-3.17312,4.20143-5.00393,7.04753-2.69742,3.32838,2.69736,2.63287,7.49083,1.10972,10.98162-3.53242,8.09567-11.73046,14.08948-20.50302,15.06307-1.3418,.14892-2.5,1.04242-2.5,2.5,0,1.23594,1.14939,2.64989,2.5,2.5h0Z"
     fill="#01010C"
     id="path981"
     style="fill:#479bff;fill-opacity:1" />
</svg>
