<?xml version="1.0" encoding="UTF-8" standalone="no"?>
<!-- Created with Inkscape (http://www.inkscape.org/) -->

<svg
   width="58"
   height="58"
   viewBox="0 0 58 58"
   version="1.1"
   id="svg317"
   inkscape:version="1.2.1 (9c6d41e4, 2022-07-14)"
   sodipodi:docname="heart.svg"
   inkscape:export-filename="heart.svg"
   inkscape:export-xdpi="300"
   inkscape:export-ydpi="300"
   xmlns:inkscape="http://www.inkscape.org/namespaces/inkscape"
   xmlns:sodipodi="http://sodipodi.sourceforge.net/DTD/sodipodi-0.dtd"
   xmlns="http://www.w3.org/2000/svg"
   xmlns:svg="http://www.w3.org/2000/svg">
  <sodipodi:namedview
     id="namedview319"
     pagecolor="#ffffff"
     bordercolor="#666666"
     borderopacity="1.0"
     inkscape:showpageshadow="2"
     inkscape:pageopacity="0.0"
     inkscape:pagecheckerboard="0"
     inkscape:deskcolor="#d1d1d1"
     inkscape:document-units="mm"
     showgrid="false"
     inkscape:zoom="19.02887"
     inkscape:cx="24.515381"
     inkscape:cy="29.744277"
     inkscape:window-width="2370"
     inkscape:window-height="1566"
     inkscape:window-x="993"
     inkscape:window-y="120"
     inkscape:window-maximized="0"
     inkscape:current-layer="layer1" />
  <defs
     id="defs314">
    <inkscape:path-effect
       effect="spiro"
       id="path-effect10410"
       is_visible="true"
       lpeversion="1" />
    <inkscape:path-effect
       effect="spiro"
       id="path-effect1425"
       is_visible="true"
       lpeversion="1" />
  </defs>
  <g
     inkscape:label="Layer 1"
     inkscape:groupmode="layer"
     id="layer1">
    <path
       style="color:#000000;fill:#ff4751;stroke-linecap:round;stroke-linejoin:round;stroke-miterlimit:10;-inkscape-stroke:none"
       d="m 43.076172,3.7539063 c 0,0 -12.955466,4.608834 -14.181641,4.6230468 C 27.668491,8.3911643 14.935547,3.7578125 14.935547,3.7578125 13.827904,3.3918942 12.611339,3.7950352 11.941406,4.75 L 1.4921875,19.644531 C 1.0350806,20.29538 0.89520659,21.117408 1.1113281,21.882812 l 3.1132813,11.003907 c 0.1378947,0.487898 0.4131501,0.925865 0.7929687,1.261718 L 27.136719,53.712891 c 0.992526,0.87734 2.481088,0.884855 3.482422,0.01758 L 52.849609,34.501953 c 0.390251,-0.337237 0.673356,-0.781243 0.814453,-1.277344 l 3.222657,-11.33789 c 0.217929,-0.766313 0.07873,-1.590038 -0.378907,-2.242188 L 46.058594,4.75 C 45.391297,3.7987434 44.181188,3.3945812 43.076172,3.7539063 Z m -0.222656,5.6347656 c 0.755926,0.2251633 8.432891,11.3362141 8.603515,12.2617191 0.145392,0.788642 -2.151342,8.533848 -2.664062,9.36914 C 48.208813,31.971203 29.605775,48.205877 28.908203,48.21875 28.210631,48.231623 9.5159087,31.279043 9.1015625,30.701172 8.6528326,30.075348 6.4939498,22.50439 6.5429687,21.652344 6.5919876,20.800298 14.075589,9.7775997 15.140625,9.3964844 c 1.065036,-0.3811153 12.840934,4.2134836 13.180728,4.3259896 0.535625,0.177345 0.522553,0.183338 1.072321,0.05645 0.708184,-0.163451 12.537002,-4.6651331 13.459842,-4.3902521 z"
       id="path10408"
       sodipodi:nodetypes="csccccccccccccccssszszzsss" />
  </g>
</svg>
