<?xml version="1.0" encoding="UTF-8" standalone="no"?>
<svg
   width="62.63443"
   height="48.83955"
   viewBox="0 0 62.63443 48.83955"
   creator="Katerina Limpitsouni"
   version="1.1"
   id="svg983"
   sodipodi:docname="versitile.svg"
   inkscape:version="1.2.1 (9c6d41e4, 2022-07-14)"
   xmlns:inkscape="http://www.inkscape.org/namespaces/inkscape"
   xmlns:sodipodi="http://sodipodi.sourceforge.net/DTD/sodipodi-0.dtd"
   xmlns="http://www.w3.org/2000/svg"
   xmlns:svg="http://www.w3.org/2000/svg">
  <defs
     id="defs987" />
  <sodipodi:namedview
     id="namedview985"
     pagecolor="#ffffff"
     bordercolor="#666666"
     borderopacity="1.0"
     inkscape:showpageshadow="2"
     inkscape:pageopacity="0.0"
     inkscape:pagecheckerboard="0"
     inkscape:deskcolor="#d1d1d1"
     showgrid="false"
     inkscape:zoom="2.4160747"
     inkscape:cx="-133.27402"
     inkscape:cy="16.348832"
     inkscape:window-width="1615"
     inkscape:window-height="983"
     inkscape:window-x="1636"
     inkscape:window-y="616"
     inkscape:window-maximized="0"
     inkscape:current-layer="svg983" />
  <g
     id="g40904"
     transform="translate(82.899386,-2.6426039)">
    <path
       d="m -51.582649,25.243434 c -1.002538,0 -1.818826,0.816288 -1.818826,1.818826 0,1.003488 0.816288,1.819776 1.818826,1.819776 1.003488,0 1.819776,-0.816288 1.819776,-1.819776 0,-1.002538 -0.816288,-1.818826 -1.819776,-1.818826 z m 0,5.06401 c -1.789363,0 -3.244234,-1.455816 -3.244234,-3.245184 0,-1.788413 1.454871,-3.244234 3.244234,-3.244234 1.789363,0 3.245184,1.455821 3.245184,3.244234 0,1.789368 -1.455821,3.245184 -3.245184,3.245184 z m -3.497952,3.062736 c 0.272726,0 0.549254,0.05416 0.817229,0.165345 0.800131,0.330696 1.297123,1.074764 1.297123,1.940458 0,0.372509 0.303139,0.675648 0.675648,0.675648 h 1.415914 c 0.373449,0 0.676588,-0.303139 0.676588,-0.675648 0,-0.865694 0.496992,-1.609762 1.297124,-1.940458 0.800131,-0.331646 1.677235,-0.157747 2.289216,0.45518 0.263222,0.263227 0.692745,0.263227 0.955968,0 l 1.001596,-1.001588 c 0.263223,-0.263227 0.263223,-0.6918 0,-0.955972 -0.612931,-0.611981 -0.786835,-1.48908 -0.456134,-2.289212 0.331642,-0.800131 1.075709,-1.297123 1.941408,-1.297123 0.372509,0 0.675648,-0.303139 0.675648,-0.675648 v -1.416859 c 0,-0.372504 -0.303139,-0.675643 -0.675648,-0.675643 -0.865699,0 -1.609766,-0.496992 -1.941408,-1.297123 -0.330701,-0.800132 -0.156797,-1.677236 0.456134,-2.289211 0.263223,-0.264177 0.263223,-0.69275 0,-0.955972 l -1.001596,-1.001592 c -0.263223,-0.263223 -0.692746,-0.263223 -0.955968,0 -0.611981,0.611976 -1.490036,0.78683 -2.289216,0.455184 -0.800132,-0.330696 -1.297124,-1.074764 -1.297124,-1.940463 0,-0.373454 -0.303139,-0.676593 -0.676588,-0.676593 h -1.415914 c -0.372509,0 -0.675648,0.303139 -0.675648,0.676593 0,0.865699 -0.496992,1.609767 -1.297123,1.940463 -0.800131,0.331646 -1.677226,0.156792 -2.290157,-0.455184 -0.263222,-0.263223 -0.691795,-0.263223 -0.955027,0 l -1.001587,1.001592 c -0.263223,0.263222 -0.263223,0.691795 0,0.955022 0.61198,0.612925 0.786825,1.490029 0.455184,2.290161 -0.330701,0.800131 -1.074759,1.297123 -1.941408,1.297123 -0.372509,0 -0.675648,0.303139 -0.675648,0.675643 v 1.416859 c 0,0.372509 0.303139,0.675648 0.675648,0.675648 0.866649,0 1.610707,0.496992 1.941408,1.297123 0.331641,0.800132 0.156796,1.677231 -0.455184,2.289212 -0.127335,0.128284 -0.197655,0.297432 -0.197655,0.477984 0,0.180552 0.07037,0.350654 0.197655,0.477988 l 1.001587,1.001588 c 0.263232,0.263227 0.691805,0.263227 0.955027,0 0.407664,-0.407664 0.932218,-0.620525 1.472928,-0.620525 z m 4.205914,4.206859 h -1.415914 c -1.158384,0 -2.101056,-0.941722 -2.101056,-2.101056 0,-0.418118 -0.319286,-0.583464 -0.417168,-0.624326 -0.09788,-0.03989 -0.439978,-0.149194 -0.736464,0.146342 -0.819139,0.820085 -2.152368,0.820085 -2.971507,9.6e-4 l -1.001587,-1.001587 c -0.81914,-0.819139 -0.81914,-2.152373 0,-2.971507 0.296486,-0.296487 0.1872,-0.638588 0.146342,-0.736464 -0.03994,-0.09788 -0.205258,-0.417168 -0.624326,-0.417168 -1.158384,0 -2.101056,-0.942672 -2.101056,-2.101061 v -1.416855 c 0,-1.158384 0.942672,-2.101056 2.101056,-2.101056 0.419068,0 0.584419,-0.319291 0.624326,-0.417168 0.0409,-0.09788 0.150144,-0.439977 -0.146342,-0.736464 -0.396269,-0.396264 -0.614832,-0.924613 -0.614832,-1.485277 0,-0.56161 0.218563,-1.089014 0.614832,-1.486229 l 1.001587,-1.001587 c 0.819139,-0.819139 2.152368,-0.819139 2.971507,0 0.296486,0.296486 0.638582,0.187205 0.736464,0.147293 0.09788,-0.04085 0.417168,-0.206213 0.417168,-0.624331 0,-1.159335 0.942672,-2.102007 2.101056,-2.102007 h 1.415914 c 1.159334,0 2.101996,0.942672 2.101996,2.102007 0,0.418118 0.319296,0.583468 0.417178,0.624331 0.09787,0.03989 0.439978,0.149193 0.736464,-0.147293 0.81913,-0.819139 2.152368,-0.819139 2.971498,0 l 1.000646,1.001587 c 0.82008,0.819139 0.82008,2.152372 0,2.971506 -0.295536,0.296487 -0.186259,0.638588 -0.146342,0.736464 0.0408,0.09788 0.205257,0.417168 0.624326,0.417168 1.159334,0 2.101056,0.942672 2.101056,2.101056 v 1.41686 c 0,1.158384 -0.941722,2.101056 -2.101056,2.101056 -0.419069,0 -0.583469,0.319291 -0.624326,0.417172 -0.03994,0.09788 -0.149194,0.439973 0.146342,0.73646 0.82008,0.819139 0.82008,2.152368 0,2.971507 l -1.000646,1.001592 c -0.82008,0.819134 -2.152368,0.819134 -2.971498,0 -0.296486,-0.296487 -0.638592,-0.187205 -0.736464,-0.147293 -0.09788,0.04085 -0.417178,0.206208 -0.417178,0.624326 0,1.159335 -0.942662,2.101056 -2.101996,2.101056"
       style="fill:#479bff;fill-opacity:1;fill-rule:nonzero;stroke:none;stroke-width:0.0095027"
       id="path38319" />
    <path
       d="m -59.525036,15.344434 c -0.23472,0 -0.464688,-0.115935 -0.601527,-0.327845 -0.21191,-0.331647 -0.114979,-0.772575 0.215712,-0.984485 2.48497,-1.591709 5.365248,-2.432702 8.328202,-2.432702 0.394368,0 0.712704,0.319291 0.712704,0.712708 0,0.394364 -0.318336,0.712704 -0.712704,0.712704 -2.690227,0 -5.304422,0.763071 -7.559424,2.207487 -0.11879,0.07602 -0.251827,0.112133 -0.382963,0.112133"
       style="fill:#479bff;fill-opacity:1;fill-rule:nonzero;stroke:none;stroke-width:0.0095027"
       id="path38321" />
    <path
       d="m -65.953638,24.444253 c -0.05318,0 -0.107385,-0.0066 -0.161549,-0.01901 -0.383913,-0.08838 -0.622425,-0.471336 -0.534048,-0.854294 0.641434,-2.775753 2.042132,-5.321533 4.052909,-7.361773 0.276538,-0.28033 0.72696,-0.283181 1.007299,-0.0066 0.28033,0.275582 0.284132,0.72696 0.0077,1.007289 -1.825478,1.852085 -3.09694,4.163151 -3.678508,6.681374 -0.07603,0.32975 -0.369658,0.55306 -0.693706,0.55306"
       style="fill:#479bff;fill-opacity:1;fill-rule:nonzero;stroke:none;stroke-width:0.0095027"
       id="path38323" />
    <path
       d="m -63.9191,35.861797 c -0.232819,0 -0.459936,-0.113083 -0.596775,-0.321192 -1.654425,-2.519179 -2.529628,-5.450774 -2.529628,-8.478345 0,-0.393413 0.319296,-0.712704 0.712704,-0.712704 0.394368,0 0.712704,0.319291 0.712704,0.712704 0,2.748192 0.794428,5.409912 2.295868,7.696267 0.215712,0.328795 0.124484,0.770674 -0.204316,0.986386 -0.120682,0.07982 -0.25657,0.116884 -0.390557,0.116884"
       style="fill:#479bff;fill-opacity:1;fill-rule:nonzero;stroke:none;stroke-width:0.0095027"
       id="path38325" />
    <path
       d="m -54.32894,42.270417 c -0.04378,0 -0.08842,-0.0038 -0.133037,-0.01238 -2.996218,-0.564447 -5.738707,-1.995538 -7.930032,-4.138407 -0.28128,-0.274627 -0.286032,-0.726009 -0.01142,-1.007289 0.275578,-0.282231 0.72696,-0.286983 1.00824,-0.01142 1.988918,1.945214 4.47769,3.244238 7.19737,3.756436 0.386764,0.07222 0.641443,0.445676 0.568272,0.832392 -0.06461,0.342135 -0.363956,0.580637 -0.699408,0.580637"
       style="fill:#479bff;fill-opacity:1;fill-rule:nonzero;stroke:none;stroke-width:0.0095027"
       id="path38327" />
    <path
       d="m -51.582649,42.525099 c -0.393408,0 -0.712704,-0.318345 -0.712704,-0.712708 0,-0.393394 0.319296,-0.712685 0.712704,-0.712685 2.859379,0 5.610422,-0.853344 7.954742,-2.468813 0.324048,-0.223315 0.767828,-0.14159 0.991143,0.182453 0.223315,0.324043 0.14159,0.767823 -0.182458,0.991138 -2.583792,1.779845 -5.614214,2.720615 -8.763427,2.720615"
       style="fill:#479bff;fill-opacity:1;fill-rule:nonzero;stroke:none;stroke-width:0.0095027"
       id="path38329" />
    <path
       d="m -41.026057,38.077837 c -0.179597,0 -0.359203,-0.06747 -0.497942,-0.203361 -0.28128,-0.274627 -0.286983,-0.72601 -0.01238,-1.00729 1.911955,-1.959465 3.200524,-4.405469 3.726979,-7.075742 0.07603,-0.38676 0.450423,-0.637632 0.836233,-0.56161 0.386765,0.07602 0.637637,0.450427 0.561614,0.837192 -0.578717,2.942045 -1.998423,5.637975 -4.104231,7.795099 -0.13969,0.143487 -0.324989,0.215712 -0.510298,0.215712"
       style="fill:#479bff;fill-opacity:1;fill-rule:nonzero;stroke:none;stroke-width:0.0095027"
       id="path38331" />
    <path
       d="m -36.832493,27.774964 c -0.393417,0 -0.71271,-0.318341 -0.71271,-0.712704 0,-2.859375 -0.853344,-5.610417 -2.469763,-7.954742 -0.223305,-0.324043 -0.14159,-0.768772 0.182458,-0.992088 0.324038,-0.223315 0.767817,-0.14159 0.991133,0.182453 1.780815,2.584747 2.721586,5.615169 2.721586,8.764377 0,0.394363 -0.318341,0.712704 -0.712704,0.712704"
       style="fill:#479bff;fill-opacity:1;fill-rule:nonzero;stroke:none;stroke-width:0.0095027"
       id="path38333" />
    <path
       d="m -41.207555,17.290594 c -0.181507,0 -0.362054,-0.06842 -0.500793,-0.206208 -2.003184,-1.982276 -4.518557,-3.303154 -7.272451,-3.819154 -0.386756,-0.07222 -0.641434,-0.444725 -0.569213,-0.83149 0.07219,-0.38676 0.444729,-0.641433 0.831494,-0.569212 3.035175,0.568262 5.806176,2.023132 8.012707,4.206864 0.27938,0.276528 0.282231,0.72791 0.0048,1.00824 -0.138739,0.14064 -0.323088,0.21096 -0.506496,0.21096"
       style="fill:#479bff;fill-opacity:1;fill-rule:nonzero;stroke:none;stroke-width:0.0095027"
       id="path38335" />
    <path
       d="m -51.582649,13.024814 c -0.393408,0 -0.712704,-0.31834 -0.712704,-0.712704 V 3.8755773 c 0,-0.3943632 0.319296,-0.712704 0.712704,-0.712704 0.394368,0 0.712704,0.3183408 0.712704,0.712704 V 12.31211 c 0,0.394364 -0.318336,0.712704 -0.712704,0.712704"
       style="fill:#479bff;fill-opacity:1;fill-rule:nonzero;stroke:none;stroke-width:0.0095027"
       id="path38337" />
    <path
       d="m -49.700156,6.3700461 c -0.182448,0 -0.364906,-0.06937 -0.503645,-0.209064 l -1.378848,-1.3778928 -1.377898,1.3778928 c -0.278428,0.2784336 -0.729811,0.2784336 -1.00824,0 -0.278428,-0.2784288 -0.278428,-0.728856 0,-1.0072896 l 1.882493,-1.8824928 c 0.278429,-0.2784278 0.729811,-0.2784278 1.00824,0 l 1.881543,1.8824928 c 0.278438,0.2784336 0.278438,0.7288608 0,1.0072896 -0.13874,0.1396944 -0.321188,0.209064 -0.503645,0.209064"
       style="fill:#479bff;fill-opacity:1;fill-rule:nonzero;stroke:none;stroke-width:0.0095027"
       id="path38339" />
    <path
       d="m -51.582649,50.962563 c -0.393408,0 -0.712704,-0.319272 -0.712704,-0.712709 v -8.437463 c 0,-0.393394 0.319296,-0.712685 0.712704,-0.712685 0.394368,0 0.712704,0.319291 0.712704,0.712685 v 8.437463 c 0,0.393437 -0.318336,0.712709 -0.712704,0.712709"
       style="fill:#479bff;fill-opacity:1;fill-rule:nonzero;stroke:none;stroke-width:0.0095027"
       id="path38341" />
    <path
       d="m -51.582649,51.062379 c -0.182448,0 -0.364906,-0.06938 -0.503645,-0.208133 l -1.882493,-1.882469 c -0.278428,-0.278481 -0.278428,-0.729859 0,-1.008264 0.278429,-0.277469 0.729812,-0.277469 1.00824,0 l 1.377898,1.378829 1.378848,-1.378829 c 0.278429,-0.277469 0.728861,-0.277469 1.00729,0 0.278438,0.278405 0.278438,0.729783 0,1.008264 l -1.881543,1.882469 c -0.139689,0.138754 -0.322137,0.208133 -0.504595,0.208133"
       style="fill:#479bff;fill-opacity:1;fill-rule:nonzero;stroke:none;stroke-width:0.0095027"
       id="path38343" />
    <path
       d="m -66.332799,27.774964 h -8.436528 c -0.394368,0 -0.712704,-0.318341 -0.712704,-0.712704 0,-0.393413 0.318336,-0.712704 0.712704,-0.712704 h 8.436528 c 0.394368,0 0.712704,0.319291 0.712704,0.712704 0,0.394363 -0.318336,0.712704 -0.712704,0.712704"
       style="fill:#479bff;fill-opacity:1;fill-rule:nonzero;stroke:none;stroke-width:0.0095027"
       id="path38345" />
    <path
       d="m -72.987567,29.657457 c -0.182448,0 -0.364906,-0.06937 -0.503645,-0.20906 l -1.882493,-1.881542 c -0.278429,-0.278429 -0.278429,-0.729811 0,-1.00824 l 1.882493,-1.882493 c 0.278429,-0.277483 0.728861,-0.277483 1.007289,0 0.278429,0.278429 0.278429,0.729811 0,1.00824 l -1.377897,1.377898 1.377897,1.378848 c 0.278429,0.278429 0.278429,0.728861 0,1.007289 -0.138739,0.13969 -0.321187,0.20906 -0.503644,0.20906"
       style="fill:#479bff;fill-opacity:1;fill-rule:nonzero;stroke:none;stroke-width:0.0095027"
       id="path38347" />
    <path
       d="m -28.395014,27.774964 h -8.437479 c -0.393417,0 -0.71271,-0.318341 -0.71271,-0.712704 0,-0.393413 0.319293,-0.712704 0.71271,-0.712704 h 8.437479 c 0.393412,0 0.712708,0.319291 0.712708,0.712704 0,0.394363 -0.319296,0.712704 -0.712708,0.712704"
       style="fill:#479bff;fill-opacity:1;fill-rule:nonzero;stroke:none;stroke-width:0.0095027"
       id="path38349" />
    <path
       d="m -30.176774,29.657457 c -0.182453,0 -0.364906,-0.06937 -0.504596,-0.20906 -0.277483,-0.278428 -0.277483,-0.72886 0,-1.007289 l 1.378844,-1.378848 -1.378844,-1.377898 c -0.277483,-0.278429 -0.277483,-0.729811 0,-1.00824 0.278429,-0.277483 0.729807,-0.277483 1.00824,0 l 1.882493,1.882493 c 0.278429,0.278429 0.278429,0.729811 0,1.00824 l -1.882493,1.881542 c -0.138739,0.13969 -0.321192,0.20906 -0.503644,0.20906"
       style="fill:#479bff;fill-opacity:1;fill-rule:nonzero;stroke:none;stroke-width:0.0095027"
       id="path38351" />
    <path
       d="m -62.011907,17.345707 c -0.182448,0 -0.364905,-0.07032 -0.504595,-0.209059 l -5.965814,-5.965819 c -0.278429,-0.278429 -0.278429,-0.729811 0,-1.00824 0.278429,-0.2784289 0.729811,-0.2784289 1.00824,0 l 5.965814,5.965819 c 0.278439,0.278429 0.278439,0.729811 0,1.00824 -0.139689,0.138739 -0.322137,0.209059 -0.503645,0.209059"
       style="fill:#479bff;fill-opacity:1;fill-rule:nonzero;stroke:none;stroke-width:0.0095027"
       id="path38353" />
    <path
       d="m -68.048991,13.970338 c -0.393418,0 -0.712704,-0.319296 -0.712704,-0.712709 v -2.661715 c 0,-0.393413 0.319286,-0.7127043 0.712704,-0.7127043 h 2.661715 c 0.393417,0 0.712704,0.3192913 0.712704,0.7127043 0,0.393412 -0.319287,0.712704 -0.712704,0.712704 h -1.949011 v 1.949011 c 0,0.393413 -0.319296,0.712709 -0.712704,0.712709"
       style="fill:#479bff;fill-opacity:1;fill-rule:nonzero;stroke:none;stroke-width:0.0095027"
       id="path38355" />
    <path
       d="m -35.186621,44.170961 c -0.182453,0 -0.364905,-0.06934 -0.503645,-0.208099 l -5.96582,-5.965799 c -0.278429,-0.278429 -0.278429,-0.729811 0,-1.00824 0.278429,-0.278434 0.729811,-0.278434 1.00824,0 l 5.96582,5.965789 c 0.278429,0.278439 0.278429,0.729821 0,1.00825 -0.139689,0.138758 -0.322142,0.208099 -0.504595,0.208099"
       style="fill:#479bff;fill-opacity:1;fill-rule:nonzero;stroke:none;stroke-width:0.0095027"
       id="path38357" />
    <path
       d="m -35.11535,44.242232 h -2.661712 c -0.394368,0 -0.712713,-0.319311 -0.712713,-0.712704 0,-0.393404 0.318345,-0.712704 0.712713,-0.712704 h 1.949008 v -1.948987 c 0,-0.393412 0.31834,-0.712704 0.712704,-0.712704 0.393412,0 0.712704,0.319292 0.712704,0.712704 v 2.661691 c 0,0.393393 -0.319292,0.712704 -0.712704,0.712704"
       style="fill:#479bff;fill-opacity:1;fill-rule:nonzero;stroke:none;stroke-width:0.0095027"
       id="path38359" />
    <path
       d="m -67.978671,44.170961 c -0.181508,0 -0.363956,-0.06934 -0.503645,-0.208099 -0.278429,-0.278429 -0.278429,-0.729811 0,-1.00825 l 5.965814,-5.965789 c 0.278439,-0.278434 0.729811,-0.278434 1.00824,0 0.278429,0.278429 0.278429,0.729811 0,1.00824 l -5.965814,5.965799 c -0.13969,0.138758 -0.322147,0.208099 -0.504595,0.208099"
       style="fill:#479bff;fill-opacity:1;fill-rule:nonzero;stroke:none;stroke-width:0.0095027"
       id="path38361" />
    <path
       d="m -65.387276,44.242232 h -2.661715 c -0.393418,0 -0.712704,-0.319311 -0.712704,-0.712704 v -2.661691 c 0,-0.393412 0.319286,-0.712704 0.712704,-0.712704 0.393408,0 0.712704,0.319292 0.712704,0.712704 v 1.948987 h 1.949011 c 0.393417,0 0.712704,0.3193 0.712704,0.712704 0,0.393393 -0.319287,0.712704 -0.712704,0.712704"
       style="fill:#479bff;fill-opacity:1;fill-rule:nonzero;stroke:none;stroke-width:0.0095027"
       id="path38363" />
    <path
       d="m -41.152441,17.345707 c -0.182448,0 -0.364906,-0.07032 -0.503645,-0.209059 -0.278429,-0.278429 -0.278429,-0.729811 0,-1.00824 l 5.96582,-5.965819 c 0.278429,-0.2784289 0.729812,-0.2784289 1.00824,0 0.278429,0.278429 0.278429,0.729811 0,1.00824 l -5.96582,5.965819 c -0.139689,0.138739 -0.322137,0.209059 -0.504595,0.209059"
       style="fill:#479bff;fill-opacity:1;fill-rule:nonzero;stroke:none;stroke-width:0.0095027"
       id="path38365" />
    <path
       d="m -35.11535,13.970338 c -0.394364,0 -0.712704,-0.319296 -0.712704,-0.712709 v -1.949011 h -1.949008 c -0.394368,0 -0.712713,-0.319292 -0.712713,-0.712704 0,-0.393413 0.318345,-0.7127043 0.712713,-0.7127043 h 2.661712 c 0.393412,0 0.712704,0.3192913 0.712704,0.7127043 v 2.661715 c 0,0.393413 -0.319292,0.712709 -0.712704,0.712709"
       style="fill:#479bff;fill-opacity:1;fill-rule:nonzero;stroke:none;stroke-width:0.0095027"
       id="path38367" />
  </g>
</svg>
