<svg id="Layer_1" data-name="Layer 1" xmlns="http://www.w3.org/2000/svg" viewBox="0 0 400 400"><defs><style>.cls-1{fill:#008bb9;}.cls-2{fill:#e10098;}</style></defs><title>Square</title><g id="Square"><path class="cls-1" d="M207.91,43.67V213.79H192.08V43.67Z"/><path class="cls-1" d="M74.69,116.79V286.9H58.86V116.79Z"/><path class="cls-2" d="M341.14,116.79V286.9H325.31V116.79Z"/><path class="cls-2" d="M188.34,197,335.67,112l7.91,13.71L196.26,210.73Z"/><path class="cls-2" d="M196.26,188.14l147.33,85.06-7.91,13.71L188.34,201.84Z"/><path class="cls-1" d="M200,78.88A33.28,33.28,0,1,0,166.72,45.6,33.25,33.25,0,0,0,200,78.88Z"/><path class="cls-2" d="M200,320a33.28,33.28,0,1,0,33.28,33.28A33.25,33.25,0,0,0,200,320Z"/><path class="cls-1" d="M69.06,114.7l147.33,85.06-7.91,13.71L61.14,128.41Z"/><path class="cls-1" d="M95.59,139.16a33.28,33.28,0,1,0-45.46,12.18A33.25,33.25,0,0,0,95.59,139.16Z"/><path class="cls-1" d="M170.83,182.59a33.28,33.28,0,1,0,45.46-12.18A33.25,33.25,0,0,0,170.83,182.59Z"/><path class="cls-2" d="M304.4,259.71a33.28,33.28,0,1,0,45.46-12.18A33.25,33.25,0,0,0,304.4,259.71Z"/><path class="cls-1" d="M95.59,259.71a33.28,33.28,0,1,0-12.18,45.46A33.25,33.25,0,0,0,95.59,259.71Z"/><path class="cls-2" d="M304.4,139.16A33.28,33.28,0,1,0,316.58,93.7,33.25,33.25,0,0,0,304.4,139.16Z"/><path class="cls-1" d="M54.77,120.12,202.09,35.06,210,48.77,62.68,133.83Z"/><path class="cls-2" d="M188.34,350.86,335.67,265.8l7.91,13.71L196.26,364.57Z"/><path class="cls-2" d="M182.76,189.48a19.5,19.5,0,1,0,26.63-7.14A19.48,19.48,0,0,0,182.76,189.48Z"/></g></svg>