<svg id="Layer_1" data-name="Layer 1" xmlns="http://www.w3.org/2000/svg" viewBox="0 0 400 492.41"><defs><style>.cls-1{fill:#008bb9;}.cls-2{fill:#e10098;}.cls-3{isolation:isolate;}</style></defs><title>WithText</title><g id="With_Text" data-name="With Text"><path class="cls-1" d="M208.3,46.59V225H191.7V46.59Z"/><path class="cls-1" d="M68.59,123.26v178.4H52V123.26Z"/><path class="cls-2" d="M348,123.26v178.4h-16.6V123.26Z"/><path class="cls-2" d="M187.78,207.41l154.5-89.2,8.3,14.38-154.5,89.2Z"/><path class="cls-2" d="M196.08,198.09l154.5,89.2-8.3,14.38-154.5-89.2Z"/><path class="cls-1" d="M200,83.51a34.9,34.9,0,1,0-34.9-34.9A34.87,34.87,0,0,0,200,83.51Z"/><path class="cls-2" d="M200,336.36a34.9,34.9,0,1,0,34.9,34.9A34.87,34.87,0,0,0,200,336.36Z"/><path class="cls-1" d="M62.68,121.07l154.5,89.2-8.3,14.38-154.5-89.2Z"/><path class="cls-1" d="M90.51,146.72A34.9,34.9,0,1,0,42.84,159.5,34.87,34.87,0,0,0,90.51,146.72Z"/><path class="cls-1" d="M169.41,192.27a34.9,34.9,0,1,0,47.67-12.77A34.87,34.87,0,0,0,169.41,192.27Z"/><path class="cls-2" d="M309.49,273.15a34.9,34.9,0,1,0,47.67-12.77A34.87,34.87,0,0,0,309.49,273.15Z"/><path class="cls-1" d="M90.51,273.15a34.9,34.9,0,1,0-12.77,47.67A34.87,34.87,0,0,0,90.51,273.15Z"/><path class="cls-2" d="M309.49,146.72A34.9,34.9,0,1,0,322.26,99,34.87,34.87,0,0,0,309.49,146.72Z"/><path class="cls-1" d="M47.7,126.76l154.5-89.2,8.3,14.38L56,141.14Z"/><path class="cls-2" d="M187.78,368.73l154.5-89.2,8.3,14.38-154.5,89.2Z"/><path class="cls-2" d="M181.93,199.5A20.45,20.45,0,1,0,209.85,192,20.43,20.43,0,0,0,181.93,199.5Z"/><g class="cls-3"><g class="cls-3"><path class="cls-1" d="M41.3,453.58H33v17.78H27.86V427.3H41.3q16,0,16,13.08T41.3,453.58Zm0-4.58q10.82,0,10.82-8.62t-10.82-8.5H33V449Z"/><path class="cls-1" d="M90.88,456.2q0,15.16-13.67,15.16H76q-13.5,0-13.5-15.16v-1.61q0-15.28,13.5-15.28h1.19q13.67,0,13.67,15.28ZM76,443.89q-8.32,0-8.32,10.7v1.61q0,10.58,8.32,10.58h1.19q8.5,0,8.5-10.58v-1.61q0-10.7-8.5-10.7Z"/><path class="cls-1" d="M101.52,449.15q.3,2.78,3.92,3.49l6.72.83q8.38,1.07,8.5,8.17,0,9.59-9.81,9.59A60.85,60.85,0,0,1,97,470l.54-4.09a93.7,93.7,0,0,0,13.32.74q4.64,0,4.64-4.93-.12-3-3.63-3.49l-6.72-.84q-8.38-1.26-8.8-8.35,0-9.74,10.4-9.74a45.32,45.32,0,0,1,12.07,1.27l-.59,4.41a47.91,47.91,0,0,0-11.47-1.1Q101.52,443.89,101.52,449.15Z"/><path class="cls-1" d="M134.1,431.23v8.08h7.73v4H134.1V461.7q.06,5,3.21,5a20,20,0,0,0,3.8-.36l1.07,4a15.18,15.18,0,0,1-4.93,1q-8.32,0-8.32-9.55V443.3H123v-4h5.95v-8.08Z"/></g><g class="cls-3"><path class="cls-2" d="M175.68,433.37a59.13,59.13,0,0,0-12.07-1.19q-11.36,0-11.35,17.48,0,16.59,11.47,16.59a41.6,41.6,0,0,0,9.87-1.13v-12.9H162.54V447.7h16.23v21.76a79.71,79.71,0,0,1-15,1.78q-16.65,0-16.65-21.52,0-22.41,16.59-22.41a49.12,49.12,0,0,1,12.72,1.64Z"/><path class="cls-2" d="M204.87,444.37a15.71,15.71,0,0,0-4-.48q-6.12,0-9.16,7.67v19.68H186.5V439.31h4.58l.59,5.29a9.89,9.89,0,0,1,9.16-5.29,11.61,11.61,0,0,1,4.93,1.27Z"/><path class="cls-2" d="M234.24,450.43v20.81h-4.52l-.59-4.72a11.52,11.52,0,0,1-9.39,4.72q-10.7,0-10.7-9.27.18-7.85,8.86-9.63a35.7,35.7,0,0,1,7.13-.71h4.1v-1.17q0-6.44-6.66-6.44a24,24,0,0,0-9.27,1.9l-1.43-4q4-2.62,10.7-2.62Q234.24,439.31,234.24,450.43Zm-5.11,5.77H225a27.56,27.56,0,0,0-7.19.71q-3.51.88-3.63,5,0,4.94,5.53,4.94t9.39-5.41Z"/><path class="cls-2" d="M247.2,483.72H242V439.31h4.64l.59,5q4.52-5,9.1-5,12.48,0,12.48,16t-12.48,16.05q-4.58,0-9.16-4.16Zm0-21.89q4.58,4.59,9.16,4.59,7.31,0,7.31-11.13,0-11.7-7.31-11.7-4.58,0-9.16,5.89Z"/><path class="cls-2" d="M281.09,426.65v17.26q3-4.65,9.27-4.66,11,0,11,12.79v19.19h-5.17V452.09q0-8.26-5.83-8.26-6.3,0-9.27,6v21.42h-5.17V426.65Z"/><path class="cls-2" d="M331.68,470.53a17.55,17.55,0,0,1-5.17.71h-3.39q-15.1,0-15.1-20v-4.11q0-19.91,15.1-19.91h3.39q15.1,0,15.1,19.92v4.11q0,11.51-5.05,16.4l7.13,5.11-3,4.22Zm-18.49-23.37v4.12q0,15.39,9.93,15.39h3.39q9.93,0,9.93-15.39v-4.12q0-15.33-9.93-15.33h-3.39Q313.19,431.82,313.19,447.15Z"/><path class="cls-2" d="M355.23,427.3v34.12q0,4.94,4.58,4.94h16.59v4.88H359.8q-9.75,0-9.75-9.82V427.3Z"/></g></g></g></svg>