<?xml version="1.0" encoding="UTF-8" standalone="no"?>
<svg
   viewBox="0 0 750 500"
   version="1.1"
   id="svg1259"
   sodipodi:docname="build-graphic2.svg"
   inkscape:version="1.2.1 (9c6d41e4, 2022-07-14)"
   xmlns:inkscape="http://www.inkscape.org/namespaces/inkscape"
   xmlns:sodipodi="http://sodipodi.sourceforge.net/DTD/sodipodi-0.dtd"
   xmlns="http://www.w3.org/2000/svg"
   xmlns:svg="http://www.w3.org/2000/svg">
  <defs
     id="defs1263" />
  <sodipodi:namedview
     id="namedview1261"
     pagecolor="#ffffff"
     bordercolor="#666666"
     borderopacity="1.0"
     inkscape:showpageshadow="2"
     inkscape:pageopacity="0.0"
     inkscape:pagecheckerboard="0"
     inkscape:deskcolor="#d1d1d1"
     showgrid="false"
     inkscape:zoom="1.3350176"
     inkscape:cx="514.59996"
     inkscape:cy="333.32894"
     inkscape:window-width="2263"
     inkscape:window-height="2024"
     inkscape:window-x="0"
     inkscape:window-y="25"
     inkscape:window-maximized="0"
     inkscape:current-layer="svg1259" />
  <path
     d="m 53.8,198.75 a 22.55,22.55 0 0 1 5.51,-2.39 l 1.13,-5.44 9.2,-0.17 1.36,5.41 a 22.48,22.48 0 0 1 5.58,2.19 l 4.65,-3 6.62,6.4 -2.88,4.75 a 22.49,22.49 0 0 1 2.39,5.5 l 5.44,1.14 0.17,9.2 -5.41,1.32 a 22.4,22.4 0 0 1 -2.19,5.59 l 3,4.65 -6.37,6.57 -4.75,-2.88 a 22.87,22.87 0 0 1 -5.5,2.39 l -1.14,5.44 -9.2,0.16 -1.32,-5.4 a 22.43,22.43 0 0 1 -5.59,-2.2 l -4.66,3.02 -6.62,-6.39 2.88,-4.75 a 22.94,22.94 0 0 1 -2.39,-5.51 l -5.44,-1.13 -0.16,-9.2 5.4,-1.33 a 22.87,22.87 0 0 1 2.19,-5.58 l -3,-4.65 6.39,-6.62 4.75,2.88 z M 58.71,211 a 9.87,9.87 0 1 0 14,-0.24 9.87,9.87 0 0 0 -14,0.24 z"
     style="fill:#a4a4a4;fill-opacity:0.2"
     id="path717" />
  <path
     d="m 273.65297,27.974068 a 22.55,22.55 0 0 1 5.51,-2.39 l 1.14,-5.45 9.2,-0.16 1.32,5.42 a 22.9,22.9 0 0 1 5.58,2.2 l 4.65,-3.05 6.62,6.4 -2.88,4.75 a 22.49,22.49 0 0 1 2.39,5.5 l 5.45,1.14 0.16,9.2 -5.41,1.32 a 22.18,22.18 0 0 1 -2.19,5.54 l 3,4.66 -6.4,6.62 -4.75,-2.89 a 22.11,22.11 0 0 1 -5.5,2.39 l -1.14,5.45 -9.2,0.16 -1.27,-5.39 a 22.82,22.82 0 0 1 -5.59,-2.2 l -4.65,3 -6.62,-6.39 2.89,-4.76 a 22.52,22.52 0 0 1 -2.4,-5.5 l -5.44,-1.13 -0.16,-9.2 5.4,-1.33 a 22.36,22.36 0 0 1 2.2,-5.49 l -3,-4.65 6.34,-6.65 z m 4.91,12.26 a 9.87,9.87 0 1 0 14,-0.25 9.86,9.86 0 0 0 -14,0.25 z"
     style="fill:#a4a4a4;fill-opacity:0.2"
     id="path719" />
  <path
     d="m 260.19508,115.11136 a 27.08,27.08 0 0 1 6.64,-2.89 l 1.37,-6.58 11.11,-0.19 1.6,6.52 a 27.16,27.16 0 0 1 6.74,2.65 l 5.62,-3.68 8,7.72 -3.48,5.74 a 27.47,27.47 0 0 1 2.89,6.64 l 6.57,1.37 0.2,11.11 -6.53,1.6 a 26.78,26.78 0 0 1 -2.65,6.74 l 3.68,5.62 -7.71,8 -5.74,-3.48 a 27.54,27.54 0 0 1 -6.65,2.89 l -1.37,6.57 -11.11,0.2 -1.6,-6.53 a 27.08,27.08 0 0 1 -6.74,-2.65 l -5.61,3.68 -8,-7.72 3.48,-5.74 a 26.92,26.92 0 0 1 -2.89,-6.64 l -6.58,-1.37 -0.19,-11.11 6.52,-1.6 a 27.87,27.87 0 0 1 2.65,-6.74 l -3.68,-5.61 7.72,-8 5.74,3.49 z m 5.92,14.77 a 11.92,11.92 0 1 0 16.86,-0.29 11.93,11.93 0 0 0 -16.86,0.29 z"
     style="fill:#a4a4a4;fill-opacity:0.2"
     id="path721" />
  <path
     d="m 347.50737,91.61017 a 10.93,10.93 0 0 1 2.79,-1.210001 l 0.57,-2.79 4.65,-0.08 0.67,2.73 a 11.49,11.49 0 0 1 2.82,1.11 l 2.35,-1.54 3.31,3.260001 -1.46,2.41 a 11.22,11.22 0 0 1 1.21,2.78 l 2.75,0.57 0.08,4.65 -2.73,0.67 a 11.19,11.19 0 0 1 -1.11,2.82 l 1.54,2.36 -3.23,3.34 -2.4,-1.46 a 11,11 0 0 1 -2.78,1.21 l -0.57,2.76 -4.66,0.08 -0.64,-2.73 a 11.49,11.49 0 0 1 -2.82,-1.11 l -2.35,1.54 -3.35,-3.23 1.52,-2.41 a 11.61,11.61 0 0 1 -1.26,-2.73 l -2.74,-0.62 -0.08,-4.65 2.73,-0.67 a 11.19,11.19 0 0 1 1.11,-2.82 l -1.54,-2.36 3.23,-3.340001 2.4,1.460001 z m 2.48,6.19 a 5,5 0 1 0 7.06,-0.12 5,5 0 0 0 -7.06,0.12 z"
     style="fill:#a4a4a4;fill-opacity:0.2"
     id="path723" />
  <g
     id="freepik--Floor--inject-18"
     style="stroke:#95091f;stroke-opacity:1">
    <path
       d="M711.52,468.8c0,.15-152.47.27-340.5.27S30.48,469,30.48,468.8s152.44-.26,340.54-.26S711.52,468.66,711.52,468.8Z"
       style="fill:#263238;stroke:#95091f;stroke-opacity:1"
       id="path796" />
  </g>
  <g
     id="g21929"
     transform="translate(-1.5889831,-15.36017)">
    <rect
       x="593.64581"
       y="168.24924"
       width="56.330002"
       height="56.330002"
       rx="9.8699999"
       style="fill:#4c505b;fill-opacity:1"
       id="rect799"
       ry="9.8699999" />
    <rect
       x="585.38586"
       y="168.24924"
       width="56.330002"
       height="56.330002"
       rx="9.8699999"
       style="fill:#727888;fill-opacity:1"
       id="rect801"
       ry="9.8699999" />
    <polygon
       points="666.82,257.06 643.82,279.36 628.89,265.2 634.25,259.84 644.58,269.03 661.84,251.7 "
       style="fill:#ffffff"
       id="polygon803"
       transform="translate(-32.574153,-69.120763)" />
  </g>
  <rect
     x="665.05396"
     y="230.07799"
     width="56.330002"
     height="56.330002"
     rx="9.8699999"
     style="fill:#4c505b;fill-opacity:1"
     id="rect799-0"
     ry="9.8699999" />
  <rect
     x="656.79401"
     y="230.07799"
     width="56.330002"
     height="56.330002"
     rx="9.8699999"
     style="fill:#727888;fill-opacity:1"
     id="rect801-6"
     ry="9.8699999" />
  <path
     d="m 646.56,407.79 a 11.29,11.29 0 0 1 5.83,6.6 19.88,19.88 0 0 1 0.77,8.94 c -0.66,5.8 -3.95,11.66 -7.5,16.3 -4.89,-4.27 -6,-11.7 -6.35,-15.51 -0.52,-6 2.18,-17.22 7.25,-16.33"
     style="fill:#e05f47;fill-opacity:1"
     id="path806" />
  <path
     d="m 651.33,449.2 a 9.62,9.62 0 0 1 3.1,-9.12 12.75,12.75 0 0 1 9.4,-2.93 5.36,5.36 0 0 1 4.17,1.85 4.1,4.1 0 0 1 0.06,4.16 8.34,8.34 0 0 1 -3.07,3 c -4.24,2.65 -8.82,4.45 -13.61,3"
     style="fill:#e05f47;fill-opacity:1"
     id="path808" />
  <path
     d="m 645.07,467 a 7.12,7.12 0 0 1 0.17,-1.19 c 0.16,-0.84 0.36,-1.92 0.59,-3.22 a 33.78,33.78 0 0 1 3.33,-10.3 20.49,20.49 0 0 1 7.39,-7.84 13.94,13.94 0 0 1 3,-1.34 c 0.37,-0.12 0.67,-0.17 0.86,-0.22 a 1,1 0 0 1 0.31,0 22.13,22.13 0 0 0 -4,1.85 21.31,21.31 0 0 0 -7.17,7.8 36.19,36.19 0 0 0 -3.4,10.15 c -0.3,1.35 -0.54,2.44 -0.72,3.19 a 6.59,6.59 0 0 1 -0.36,1.12 z"
     style="fill:#263238;stroke:#95091f;stroke-opacity:1"
     id="path810" />
  <path
     d="m 645.25,416.51 a 1.65,1.65 0 0 1 0.06,0.52 c 0,0.38 0.06,0.88 0.09,1.49 0.07,1.3 0.15,3.18 0.22,5.5 0.15,4.65 0.27,11.08 0.24,18.17 -0.03,7.09 -0.2,13.53 -0.39,18.17 -0.1,2.33 -0.19,4.21 -0.27,5.5 0,0.62 -0.08,1.11 -0.1,1.5 a 2,2 0 0 1 -0.07,0.52 3,3 0 0 1 0,-0.52 c 0,-0.39 0,-0.89 0,-1.5 0,-1.35 0.08,-3.22 0.14,-5.51 0.11,-4.64 0.24,-11.06 0.27,-18.16 0.03,-7.1 0,-13.51 -0.12,-18.16 0,-2.28 -0.06,-4.15 -0.08,-5.5 0,-0.62 0,-1.11 0,-1.5 a 3,3 0 0 1 0.01,-0.52 z"
     style="fill:#263238;stroke:#95091f;stroke-opacity:1"
     id="path812" />
  <path
     d="M 642.88,452.73 A 22.42,22.42 0 0 0 630.63,436.3 c -1.63,-0.78 -3.76,-1.3 -5.1,-0.08 -1.34,1.22 -1,3.4 -0.39,5.09 a 19.17,19.17 0 0 0 17.63,11.9"
     style="fill:#e05f47;fill-opacity:1"
     id="path814" />
  <path
     d="m 631.42,441.8 a 5.72,5.72 0 0 1 1,0.45 10.93,10.93 0 0 1 1.17,0.63 17.26,17.26 0 0 1 1.49,0.93 19.18,19.18 0 0 1 1.71,1.29 20.65,20.65 0 0 1 1.81,1.64 24.88,24.88 0 0 1 3.45,4.44 24.64,24.64 0 0 1 2.28,5.14 22,22 0 0 1 0.57,2.38 16,16 0 0 1 0.29,2.12 c 0.09,0.65 0.06,1.24 0.09,1.76 a 10.53,10.53 0 0 1 0,1.32 6.2,6.2 0 0 1 -0.13,1.13 c -0.1,0 0.07,-1.62 -0.21,-4.18 -0.09,-0.64 -0.17,-1.34 -0.34,-2.08 a 22,22 0 0 0 -0.61,-2.34 25.07,25.07 0 0 0 -2.26,-5 25.53,25.53 0 0 0 -3.37,-4.38 22.24,22.24 0 0 0 -1.76,-1.66 19,19 0 0 0 -1.65,-1.3 c -2.1,-1.54 -3.57,-2.21 -3.53,-2.29 z"
     style="fill:#263238;stroke:#95091f;stroke-opacity:1"
     id="path816" />
  <g
     id="freepik--Server--inject-18">
    <rect
       x="96.16"
       y="218.17"
       width="104.54"
       height="250.7"
       style="fill:#e0e0e0"
       id="rect819" />
    <rect
       x="65.78"
       y="218.17"
       width="82.65"
       height="250.7"
       style="fill:#f5f5f5"
       id="rect821" />
    <path
       d="M148.55,468.68c-.14,0-.26-56.14-.26-125.39s.12-125.4.26-125.4.26,56.14.26,125.4S148.7,468.68,148.55,468.68Z"
       style="fill:#263238"
       id="path823" />
    <rect
       x="163.51"
       y="246.97"
       width="25.04"
       height="2.58"
       style="fill:#263238"
       id="rect825" />
    <rect
       x="163.51"
       y="254.35"
       width="25.04"
       height="2.58"
       style="fill:#263238"
       id="rect827" />
    <rect
       x="163.51"
       y="261.74"
       width="25.04"
       height="2.58"
       style="fill:#263238"
       id="rect829" />
    <rect
       x="74.32"
       y="228.83"
       width="66.12"
       height="232.08"
       style="fill:#e0e0e0"
       id="rect831" />
    <rect
       x="79.07"
       y="237.38"
       width="54.78"
       height="8.3"
       style="fill:#ebebeb"
       id="rect833" />
    <rect
       x="79.07"
       y="237.38"
       width="8.3"
       height="8.3"
       style="fill:#D40D2C"
       id="rect835" />
    <rect
       x="117.51"
       y="237.38"
       width="18.04"
       height="8.3"
       style="fill:#f5f5f5"
       id="rect837" />
    <rect
       x="79.07"
       y="252.15"
       width="54.78"
       height="8.3"
       style="fill:#ebebeb"
       id="rect839" />
    <rect
       x="79.07"
       y="252.15"
       width="8.3"
       height="8.3"
       style="fill:#fff"
       id="rect841" />
    <rect
       x="117.51"
       y="252.15"
       width="18.04"
       height="8.3"
       style="fill:#f5f5f5"
       id="rect843" />
    <rect
       x="79.07"
       y="266.93"
       width="54.78"
       height="8.3"
       style="fill:#ebebeb"
       id="rect845" />
    <rect
       x="79.07"
       y="266.93"
       width="8.3"
       height="8.3"
       style="fill:#D40D2C"
       id="rect847" />
    <rect
       x="117.51"
       y="266.93"
       width="18.04"
       height="8.3"
       style="fill:#f5f5f5"
       id="rect849" />
    <rect
       x="79.07"
       y="281.71"
       width="54.78"
       height="8.3"
       style="fill:#ebebeb"
       id="rect851" />
    <rect
       x="79.07"
       y="281.71"
       width="8.3"
       height="8.3"
       style="fill:#fff"
       id="rect853" />
    <rect
       x="117.51"
       y="281.71"
       width="18.04"
       height="8.3"
       style="fill:#f5f5f5"
       id="rect855" />
    <rect
       x="79.07"
       y="296.48"
       width="54.78"
       height="8.3"
       style="fill:#ebebeb"
       id="rect857" />
    <rect
       x="79.07"
       y="296.48"
       width="8.3"
       height="8.3"
       style="fill:#D40D2C"
       id="rect859" />
    <rect
       x="117.51"
       y="296.48"
       width="18.04"
       height="8.3"
       style="fill:#f5f5f5"
       id="rect861" />
    <rect
       x="79.07"
       y="311.26"
       width="54.78"
       height="8.3"
       style="fill:#ebebeb"
       id="rect863" />
    <rect
       x="79.07"
       y="311.26"
       width="8.3"
       height="8.3"
       style="fill:#D40D2C"
       id="rect865" />
    <rect
       x="117.51"
       y="311.26"
       width="18.04"
       height="8.3"
       style="fill:#f5f5f5"
       id="rect867" />
    <rect
       x="79.07"
       y="326.04"
       width="54.78"
       height="8.3"
       style="fill:#ebebeb"
       id="rect869" />
    <rect
       x="79.07"
       y="326.04"
       width="8.3"
       height="8.3"
       style="fill:#fff"
       id="rect871" />
    <rect
       x="117.51"
       y="326.04"
       width="18.04"
       height="8.3"
       style="fill:#f5f5f5"
       id="rect873" />
    <rect
       x="79.07"
       y="340.81"
       width="54.78"
       height="8.3"
       style="fill:#ebebeb"
       id="rect875" />
    <rect
       x="79.07"
       y="340.81"
       width="8.3"
       height="8.3"
       style="fill:#fff"
       id="rect877" />
    <rect
       x="117.51"
       y="340.81"
       width="18.04"
       height="8.3"
       style="fill:#f5f5f5"
       id="rect879" />
    <rect
       x="79.07"
       y="355.59"
       width="54.78"
       height="8.3"
       style="fill:#ebebeb"
       id="rect881" />
    <rect
       x="79.07"
       y="355.59"
       width="8.3"
       height="8.3"
       style="fill:#fff"
       id="rect883" />
    <rect
       x="117.51"
       y="355.59"
       width="18.04"
       height="8.3"
       style="fill:#f5f5f5"
       id="rect885" />
    <rect
       x="79.07"
       y="370.37"
       width="54.78"
       height="8.3"
       style="fill:#ebebeb"
       id="rect887" />
    <rect
       x="79.07"
       y="370.37"
       width="8.3"
       height="8.3"
       style="fill:#D40D2C"
       id="rect889" />
    <rect
       x="117.51"
       y="370.37"
       width="18.04"
       height="8.3"
       style="fill:#f5f5f5"
       id="rect891" />
    <rect
       x="79.07"
       y="385.15"
       width="54.78"
       height="8.3"
       style="fill:#ebebeb"
       id="rect893" />
    <rect
       x="79.07"
       y="385.15"
       width="8.3"
       height="8.3"
       style="fill:#fff"
       id="rect895" />
    <rect
       x="117.51"
       y="385.15"
       width="18.04"
       height="8.3"
       style="fill:#f5f5f5"
       id="rect897" />
    <rect
       x="79.07"
       y="399.92"
       width="54.78"
       height="8.3"
       style="fill:#ebebeb"
       id="rect899" />
    <rect
       x="79.07"
       y="399.92"
       width="8.3"
       height="8.3"
       style="fill:#D40D2C"
       id="rect901" />
    <rect
       x="117.51"
       y="399.92"
       width="18.04"
       height="8.3"
       style="fill:#f5f5f5"
       id="rect903" />
    <rect
       x="79.07"
       y="414.7"
       width="54.78"
       height="8.3"
       style="fill:#ebebeb"
       id="rect905" />
    <rect
       x="79.07"
       y="414.7"
       width="8.3"
       height="8.3"
       style="fill:#fff"
       id="rect907" />
    <rect
       x="117.51"
       y="414.7"
       width="18.04"
       height="8.3"
       style="fill:#f5f5f5"
       id="rect909" />
    <rect
       x="79.07"
       y="429.48"
       width="54.78"
       height="8.3"
       style="fill:#ebebeb"
       id="rect911" />
    <rect
       x="79.07"
       y="429.48"
       width="8.3"
       height="8.3"
       style="fill:#D40D2C"
       id="rect913" />
    <rect
       x="117.51"
       y="429.48"
       width="18.04"
       height="8.3"
       style="fill:#f5f5f5"
       id="rect915" />
    <rect
       x="79.07"
       y="444.25"
       width="54.78"
       height="8.3"
       style="fill:#ebebeb"
       id="rect917" />
    <rect
       x="79.07"
       y="444.25"
       width="8.3"
       height="8.3"
       style="fill:#fff"
       id="rect919" />
    <rect
       x="117.51"
       y="444.25"
       width="18.04"
       height="8.3"
       style="fill:#f5f5f5"
       id="rect921" />
    <path
       d="M200.7,468.87c0-2.23-.1-104.1-.24-250.7l.24.24-134.9,0h0l.26-.26c0,96.24-.05,184.24-.06,250.7l-.2-.2,134.92.2-134.92.19h-.2v-.2c0-66.46,0-154.46-.06-250.7v-.26h.28l134.9,0h.24v.24c0,73.36-.08,136.06-.11,180.43C200.75,442.81,200.7,467.76,200.7,468.87Z"
       style="fill:#263238"
       id="path923" />
  </g>
  <path
     d="M 554.92,147.51 H 195.08 a 11.23,11.23 0 0 0 -11.23,11.23 v 254.17 a 11.23,11.23 0 0 0 11.23,11.23 h 138.11 l -6.7,44.4 H 426.62 L 421,424.14 h 133.92 a 11.23,11.23 0 0 0 11.23,-11.23 V 158.74 a 11.23,11.23 0 0 0 -11.23,-11.23 z"
     style="fill:#4c505b;fill-opacity:1"
     id="path926" />
  <path
     d="m 379.8,397.41 c 4.9,7 -2.76,14.66 -9.76,9.76 a 2.44,2.44 0 0 1 -0.6,-0.6 c -4.88,-7 2.77,-14.65 9.76,-9.76 a 2.44,2.44 0 0 1 0.6,0.6 z"
     style="fill:#353840;fill-opacity:1"
     id="path928" />
  <path
     d="m 203.61,157.21 h 342.83 a 9.7,9.7 0 0 1 9.7,9.7 V 377.64 H 193.91 V 166.91 a 9.7,9.7 0 0 1 9.7,-9.7 z"
     style="fill:#01263d;fill-opacity:1"
     id="path930" />
  <path
     d="m 458.16,424.14 c 0,0.13 -30.17,0.23 -67.37,0.23 -37.2,0 -67.37,-0.1 -67.37,-0.23 0,-0.13 30.16,-0.22 67.37,-0.22 37.21,0 67.37,0.08 67.37,0.22 z"
     style="fill:#263238"
     id="path932" />
  <rect
     x="230.28999"
     y="174.62"
     width="26.4"
     height="5.5700002"
     style="fill:#455a64"
     id="rect934" />
  <rect
     x="230.28999"
     y="199.58"
     width="13.2"
     height="5.5700002"
     style="fill:#e05f47;fill-opacity:1"
     id="rect936" />
  <rect
     x="240.23"
     y="212.13"
     width="18.59"
     height="5.5700002"
     style="fill:#455a64"
     id="rect938" />
  <rect
     x="261.76999"
     y="212.13"
     width="10.83"
     height="5.5700002"
     style="fill:#455a64"
     id="rect940" />
  <rect
     x="347.44"
     y="212.13"
     width="22.280001"
     height="5.5700002"
     style="fill:#455a64"
     id="rect942" />
  <rect
     x="397.19"
     y="224.36"
     width="37.630001"
     height="5.5700002"
     style="fill:#455a64"
     id="rect944" />
  <rect
     x="474.79999"
     y="212.13"
     width="18.07"
     height="5.5700002"
     style="fill:#455a64"
     id="rect946" />
  <rect
     x="498.41"
     y="212.13"
     width="36.34"
     height="5.5700002"
     style="fill:#455a64"
     id="rect948" />
  <rect
     x="240.23"
     y="224.36"
     width="18.59"
     height="5.5700002"
     style="fill:#455a64"
     id="rect950" />
  <rect
     x="228.8"
     y="236.56"
     width="18.59"
     height="5.5700002"
     style="fill:#e05f47;fill-opacity:1"
     id="rect952" />
  <rect
     x="238.71001"
     y="248.77"
     width="8.6899996"
     height="5.5700002"
     style="fill:#455a64"
     id="rect954" />
  <rect
     x="270.59"
     y="274.47"
     width="8.6800003"
     height="5.5700002"
     style="fill:#455a64"
     id="rect956" />
  <rect
     x="390.06"
     y="320.91"
     width="16.969999"
     height="5.5700002"
     style="fill:#455a64"
     id="rect958" />
  <rect
     x="460.26001"
     y="320.91"
     width="41.57"
     height="5.5700002"
     style="fill:#455a64"
     id="rect960" />
  <rect
     x="326.17001"
     y="308.72"
     width="16.969999"
     height="5.5700002"
     style="fill:#e0e0e0"
     id="rect962" />
  <rect
     x="264.69"
     y="298.26001"
     width="16.969999"
     height="5.5700002"
     style="fill:#455a64"
     id="rect964" />
  <rect
     x="359.78"
     y="320.91"
     width="26.76"
     height="5.5700002"
     style="fill:#455a64"
     id="rect966" />
  <rect
     x="238.71001"
     y="261.19"
     width="14.09"
     height="5.5700002"
     style="fill:#455a64"
     id="rect968" />
  <rect
     x="238.71001"
     y="274.67999"
     width="26.139999"
     height="5.5700002"
     style="fill:#455a64"
     id="rect970" />
  <rect
     x="238.71001"
     y="285"
     width="38.25"
     height="5.5700002"
     style="fill:#455a64"
     id="rect972" />
  <rect
     x="308.01001"
     y="285"
     width="38.25"
     height="5.5700002"
     style="fill:#455a64"
     id="rect974" />
  <rect
     x="264.35001"
     y="308.72"
     width="53.709999"
     height="5.5700002"
     style="fill:#455a64"
     id="rect976" />
  <rect
     x="264.35001"
     y="320.91"
     width="90.839996"
     height="5.5700002"
     style="fill:#455a64"
     id="rect978" />
  <rect
     x="236.87"
     y="333.10999"
     width="90.839996"
     height="5.5700002"
     style="fill:#455a64"
     id="rect980" />
  <rect
     x="281"
     y="285"
     width="22.950001"
     height="5.5700002"
     style="fill:#455a64"
     id="rect982" />
  <rect
     x="250.82001"
     y="248.77"
     width="23.68"
     height="5.5700002"
     style="fill:#455a64"
     id="rect984" />
  <rect
     x="256.04001"
     y="261.20001"
     width="23.68"
     height="5.5700002"
     style="fill:#455a64"
     id="rect986" />
  <rect
     x="308.76001"
     y="261.20001"
     width="62.700001"
     height="5.5700002"
     style="fill:#455a64"
     id="rect988" />
  <rect
     x="373.16"
     y="261.20001"
     width="72.410004"
     height="5.5700002"
     style="fill:#455a64"
     id="rect990" />
  <rect
     x="283.60999"
     y="261.20001"
     width="19.6"
     height="5.5700002"
     style="fill:#455a64"
     id="rect992" />
  <rect
     x="277.73999"
     y="248.77"
     width="31.040001"
     height="5.5700002"
     style="fill:#455a64"
     id="rect994" />
  <rect
     x="312.20999"
     y="248.77"
     width="17.280001"
     height="5.5700002"
     style="fill:#e0e0e0"
     id="rect996" />
  <rect
     x="261.76999"
     y="224.36"
     width="19.379999"
     height="5.5700002"
     style="fill:#455a64"
     id="rect998" />
  <rect
     x="294.32001"
     y="224.36"
     width="95.690002"
     height="5.5700002"
     style="fill:#455a64"
     id="rect1000" />
  <rect
     x="452.17999"
     y="261.20001"
     width="45.240002"
     height="5.5700002"
     style="fill:#455a64"
     id="rect1002" />
  <rect
     x="411.44"
     y="320.91"
     width="45.25"
     height="5.5700002"
     style="fill:#455a64"
     id="rect1004" />
  <rect
     x="373.5"
     y="212.13"
     width="94.260002"
     height="5.5700002"
     style="fill:#455a64"
     id="rect1006" />
  <rect
     x="275.98999"
     y="212.13"
     width="65.589996"
     height="5.5700002"
     style="fill:#455a64"
     id="rect1008" />
  <rect
     x="230.28999"
     y="186.44"
     width="44.16"
     height="5.5700002"
     style="fill:#455a64"
     id="rect1010" />
  <rect
     x="278.85999"
     y="186.44"
     width="60.470001"
     height="5.5700002"
     style="fill:#455a64"
     id="rect1012" />
  <rect
     x="260.82001"
     y="174.62"
     width="19.440001"
     height="5.5700002"
     style="fill:#e0e0e0"
     id="rect1014" />
  <rect
     x="215.25"
     y="174.62"
     width="5.4000001"
     height="5.5700002"
     style="fill:#455a64"
     id="rect1016" />
  <rect
     x="215.25"
     y="186.82001"
     width="5.4000001"
     height="5.5700002"
     style="fill:#455a64"
     id="rect1018" />
  <rect
     x="215.25"
     y="199.00999"
     width="5.4000001"
     height="5.5700002"
     style="fill:#455a64"
     id="rect1020" />
  <rect
     x="215.25"
     y="211.2"
     width="5.4000001"
     height="5.5700002"
     style="fill:#455a64"
     id="rect1022" />
  <rect
     x="215.25"
     y="223.39"
     width="5.4000001"
     height="5.5700002"
     style="fill:#455a64"
     id="rect1024" />
  <rect
     x="215.25"
     y="235.58"
     width="5.4000001"
     height="5.5700002"
     style="fill:#455a64"
     id="rect1026" />
  <rect
     x="215.25"
     y="247.77"
     width="5.4000001"
     height="5.5700002"
     style="fill:#455a64"
     id="rect1028" />
  <rect
     x="215.25"
     y="259.95999"
     width="5.4000001"
     height="5.5700002"
     style="fill:#455a64"
     id="rect1030" />
  <rect
     x="215.25"
     y="272.14999"
     width="5.4000001"
     height="5.5700002"
     style="fill:#455a64"
     id="rect1032" />
  <rect
     x="268.45999"
     y="359.44"
     width="8.6800003"
     height="5.5700002"
     style="fill:#e0e0e0"
     id="rect1034" />
  <rect
     x="237.03999"
     y="359.44"
     width="26.139999"
     height="5.5700002"
     style="fill:#e05f47;fill-opacity:1"
     id="rect1036" />
  <rect
     x="215.25"
     y="358.82001"
     width="5.4000001"
     height="5.5700002"
     style="fill:#455a64"
     id="rect1038" />
  <rect
     x="215.25"
     y="284.34"
     width="5.4000001"
     height="5.5700002"
     style="fill:#455a64"
     id="rect1040" />
  <rect
     x="215.25"
     y="296.53"
     width="5.4000001"
     height="5.5700002"
     style="fill:#455a64"
     id="rect1042" />
  <rect
     x="215.25"
     y="308.72"
     width="5.4000001"
     height="5.5700002"
     style="fill:#455a64"
     id="rect1044" />
  <rect
     x="215.25"
     y="320.91"
     width="5.4000001"
     height="5.5700002"
     style="fill:#455a64"
     id="rect1046" />
  <rect
     x="215.25"
     y="333.10999"
     width="5.4000001"
     height="5.5700002"
     style="fill:#455a64"
     id="rect1048" />
  <rect
     x="236.87"
     y="345.92999"
     width="26.48"
     height="5.5700002"
     style="fill:#455a64"
     id="rect1050" />
  <rect
     x="268.45999"
     y="345.92999"
     width="59.91"
     height="5.5700002"
     style="fill:#455a64"
     id="rect1052" />
  <rect
     x="215.25"
     y="345.92999"
     width="5.4000001"
     height="5.5700002"
     style="fill:#455a64"
     id="rect1054" />
  <rect
     x="346.70999"
     y="186.39999"
     width="19.440001"
     height="5.5700002"
     style="fill:#e0e0e0"
     id="rect1056" />
  <g
     style="opacity:0.3"
     id="g1060">
    <polygon
       points="376,391.83 534.23,391.83 530.11,286.57 389.28,283.95 376,283.95 "
       id="polygon1058" />
  </g>
  <rect
     x="386.19"
     y="268"
     width="158.33"
     height="113.64"
     style="fill:#dddce2;fill-opacity:1"
     id="rect1062" />
  <path
     d="M 545,382.14 H 385.69 V 267.5 H 545 Z m -158.33,-1 H 544 V 268.5 H 386.69 Z"
     style="fill:#263238"
     id="path1064" />
  <rect
     x="416.25"
     y="280.14001"
     width="25.6"
     height="5.4000001"
     style="fill:#455a64"
     id="rect1066" />
  <rect
     x="416.25"
     y="304.34"
     width="12.8"
     height="5.4000001"
     style="fill:#e05f47;fill-opacity:1"
     id="rect1068" />
  <rect
     x="425.88"
     y="316.51001"
     width="18.030001"
     height="5.4000001"
     style="fill:#455a64"
     id="rect1070" />
  <rect
     x="446.78"
     y="316.51001"
     width="10.5"
     height="5.4000001"
     style="fill:#455a64"
     id="rect1072" />
  <rect
     x="425.88"
     y="328.38"
     width="18.030001"
     height="5.4000001"
     style="fill:#455a64"
     id="rect1074" />
  <rect
     x="414.81"
     y="340.20999"
     width="18.030001"
     height="5.4000001"
     style="fill:#e05f47;fill-opacity:1"
     id="rect1076" />
  <rect
     x="424.41"
     y="352.04001"
     width="8.4200001"
     height="5.4000001"
     style="fill:#455a64"
     id="rect1078" />
  <rect
     x="424.41"
     y="364.09"
     width="13.67"
     height="5.4000001"
     style="fill:#455a64"
     id="rect1080" />
  <rect
     x="436.16"
     y="352.04001"
     width="22.959999"
     height="5.4000001"
     style="fill:#455a64"
     id="rect1082" />
  <rect
     x="441.22"
     y="364.10001"
     width="22.959999"
     height="5.4000001"
     style="fill:#455a64"
     id="rect1084" />
  <rect
     x="492.35001"
     y="364.10001"
     width="27.16"
     height="5.4000001"
     style="fill:#455a64"
     id="rect1086" />
  <rect
     x="467.95999"
     y="364.10001"
     width="19"
     height="5.4000001"
     style="fill:#455a64"
     id="rect1088" />
  <rect
     x="462.26999"
     y="352.04001"
     width="30.1"
     height="5.4000001"
     style="fill:#455a64"
     id="rect1090" />
  <rect
     x="495.69"
     y="352.04001"
     width="16.76"
     height="5.4000001"
     style="fill:#ffffff"
     id="rect1092" />
  <rect
     x="446.78"
     y="328.38"
     width="18.790001"
     height="5.4000001"
     style="fill:#455a64"
     id="rect1094" />
  <rect
     x="460.56"
     y="316.51001"
     width="63.610001"
     height="5.4000001"
     style="fill:#455a64"
     id="rect1096" />
  <rect
     x="416.25"
     y="291.60001"
     width="42.830002"
     height="5.4000001"
     style="fill:#455a64"
     id="rect1098" />
  <rect
     x="463.35001"
     y="291.60001"
     width="58.639999"
     height="5.4000001"
     style="fill:#455a64"
     id="rect1100" />
  <rect
     x="445.85001"
     y="280.14001"
     width="18.85"
     height="5.4000001"
     style="fill:#ffffff"
     id="rect1102" />
  <rect
     x="401.66"
     y="280.14001"
     width="5.23"
     height="5.4000001"
     style="fill:#455a64"
     id="rect1104" />
  <rect
     x="401.66"
     y="291.95999"
     width="5.23"
     height="5.4000001"
     style="fill:#455a64"
     id="rect1106" />
  <rect
     x="401.66"
     y="303.79001"
     width="5.23"
     height="5.4000001"
     style="fill:#455a64"
     id="rect1108" />
  <rect
     x="401.66"
     y="315.60999"
     width="5.23"
     height="5.4000001"
     style="fill:#455a64"
     id="rect1110" />
  <rect
     x="401.66"
     y="327.42999"
     width="5.23"
     height="5.4000001"
     style="fill:#455a64"
     id="rect1112" />
  <rect
     x="401.66"
     y="339.25"
     width="5.23"
     height="5.4000001"
     style="fill:#455a64"
     id="rect1114" />
  <rect
     x="401.66"
     y="351.07999"
     width="5.23"
     height="5.4000001"
     style="fill:#455a64"
     id="rect1116" />
  <rect
     x="401.66"
     y="362.89999"
     width="5.23"
     height="5.4000001"
     style="fill:#455a64"
     id="rect1118" />
  <g
     style="opacity:0.3"
     id="g1122">
    <path
       d="m 300.86,423.53 c 2,-10 -4.5,-39.91 -4.5,-39.91 l -48.62,6.18 -2,33.51 z"
       id="path1120" />
  </g>
  <path
     d="m 239,383.62 c 0,0 2.14,39.77 -6.78,53.45 l 60.55,1.49 c 0,0 4.7,-23.23 3.63,-54.94 z"
     style="fill:#e05f47;fill-opacity:1"
     id="path1124" />
  <path
     d="m 296.2,391.32 c 0,0.14 -12.61,0.26 -28.15,0.26 -15.54,0 -28.15,-0.12 -28.15,-0.26 0,-0.14 12.6,-0.26 28.15,-0.26 15.55,0 28.15,0.12 28.15,0.26 z"
     style="fill:#263238"
     id="path1126" />
  <path
     d="m 289.47,404.93 c 0,0.14 -10.08,0.26 -22.5,0.26 -12.42,0 -22.5,-0.12 -22.5,-0.26 0,-0.14 10.07,-0.26 22.5,-0.26 12.43,0 22.5,0.12 22.5,0.26 z"
     style="fill:#263238"
     id="path1128" />
  <path
     d="m 290,412.36 c 0,0.14 -10.07,0.26 -22.5,0.26 -12.43,0 -22.5,-0.12 -22.5,-0.26 0,-0.14 10.07,-0.26 22.49,-0.26 12.42,0 22.51,0.12 22.51,0.26 z"
     style="fill:#263238"
     id="path1130" />
  <path
     d="m 288.55,419.79 c 0,0.14 -10.08,0.26 -22.5,0.26 -12.42,0 -22.5,-0.12 -22.5,-0.26 0,-0.14 10.07,-0.26 22.5,-0.26 12.43,0 22.5,0.12 22.5,0.26 z"
     style="fill:#263238"
     id="path1132" />
  <g
     style="opacity:0.3"
     id="g1136">
    <path
       d="m 229,384.36 c 0,0 2.59,29.44 2.59,39.91 h -7.46 z"
       id="path1134" />
  </g>
  <path
     d="m 211.11,384.36 c 0,0 2.14,39.78 -6.78,53.45 h 19.94 c 0,0 5.73,-21.74 4.73,-53.45 z"
     style="fill:#e0e0e0"
     id="path1138" />
  <path
     d="m 489.85,211.4 33.53,-38.54 -33.76,-24.52 26.49,-15.59 c 0,0 41.55,25.25 41,40.41 -0.49,13.8 -52.87,48.71 -52.87,48.71 z"
     style="fill:#ffbf9d"
     id="path1140" />
  <path
     d="m 463.55,299 a 48.59,48.59 0 1 1 -60.51,-70 v 0 a 48.59,48.59 0 0 1 60.51,70 z m -80.19,-48.88 a 45.32,45.32 0 1 0 21,-18.13 45.31,45.31 0 0 0 -21,18.08 z"
     style="fill:#d40d2c"
     id="path1142" />
  <g
     style="opacity:0.3"
     id="g1146">
    <path
       d="m 463.55,299 a 48.59,48.59 0 1 1 -60.51,-70 v 0 a 48.59,48.59 0 0 1 60.51,70 z m -80.19,-48.88 a 45.32,45.32 0 1 0 21,-18.13 45.31,45.31 0 0 0 -21,18.08 z"
       id="path1144" />
  </g>
  <path
     d="m 461.58,296.82 a 48.59,48.59 0 1 1 -60.51,-70 v 0 a 48.59,48.59 0 0 1 60.51,70 z m -80.19,-48.88 a 45.31,45.31 0 1 0 21,-18.14 45.29,45.29 0 0 0 -21,18.14 z"
     style="fill:#d40d2c"
     id="path1148" />
  <path
     d="m 532.26,207.48 1.9,3 c 1.71,2.64 -0.38,6.9 -4.12,8.63 l -63.43,38.84 -5.92,-8.66 61.83,-43.29 c 4,-3.06 7.54,-1.92 9.74,1.48 z"
     style="fill:#d40d2c"
     id="path1150" />
  <path
     d="m 422.08,231.15 a 4.15,4.15 0 0 1 -0.8,0 c -0.52,0 -1.29,-0.07 -2.28,0 a 34.88,34.88 0 0 0 -8.25,1.35 42.47,42.47 0 0 0 -5.44,2 48,48 0 0 0 -5.84,3.14 45.38,45.38 0 0 0 -5.87,4.36 43.13,43.13 0 0 0 -5.45,5.66 40.72,40.72 0 0 0 -4.25,6.59 43.63,43.63 0 0 0 -2.68,6.81 41.15,41.15 0 0 0 -1.65,12.26 39.29,39.29 0 0 0 1,8.3 c 0.18,1 0.45,1.7 0.56,2.22 a 3.75,3.75 0 0 1 0.18,0.77 5.76,5.76 0 0 1 -0.28,-0.74 c -0.14,-0.51 -0.44,-1.23 -0.66,-2.2 a 37,37 0 0 1 -1.19,-8.34 40.52,40.52 0 0 1 1.56,-12.4 42.41,42.41 0 0 1 2.69,-6.91 40.1,40.1 0 0 1 4.3,-6.69 43.47,43.47 0 0 1 5.52,-5.72 44,44 0 0 1 6,-4.4 45.25,45.25 0 0 1 5.92,-3.12 43.39,43.39 0 0 1 5.51,-1.92 33.06,33.06 0 0 1 8.32,-1.17 22.62,22.62 0 0 1 2.3,0.08 4.92,4.92 0 0 1 0.78,0.07 z"
     style="fill:#ffffff"
     id="path1152" />
  <path
     d="m 460,283.11 c -0.12,0 0.78,-2.22 1.41,-5.95 0.07,-0.47 0.15,-1 0.22,-1.46 0.07,-0.46 0.09,-1.05 0.15,-1.6 0.12,-1.1 0.1,-2.29 0.12,-3.54 a 37.79,37.79 0 0 0 -3.69,-15.66 c -0.57,-1.11 -1.08,-2.18 -1.68,-3.11 -0.29,-0.47 -0.55,-0.94 -0.84,-1.37 -0.29,-0.43 -0.58,-0.82 -0.85,-1.21 -2.23,-3.05 -4,-4.61 -3.92,-4.7 a 11.82,11.82 0 0 1 1.23,1.1 13.2,13.2 0 0 1 1.34,1.4 21.54,21.54 0 0 1 1.64,2 c 0.29,0.38 0.58,0.78 0.89,1.2 0.31,0.42 0.57,0.89 0.88,1.37 a 34.69,34.69 0 0 1 1.75,3.12 40.47,40.47 0 0 1 2.76,7.73 39.42,39.42 0 0 1 1,8.14 c 0,1.26 0,2.46 -0.17,3.58 -0.06,0.55 -0.09,1.1 -0.18,1.61 -0.09,0.51 -0.18,1 -0.26,1.47 a 24.92,24.92 0 0 1 -0.58,2.51 13.7,13.7 0 0 1 -0.58,1.85 9.71,9.71 0 0 1 -0.64,1.52 z"
     style="fill:#ffffff"
     id="path1154" />
  <path
     d="m 430,248.69 c 0.1,0.11 -6.44,6.23 -14.61,13.68 -8.17,7.45 -14.86,13.41 -15,13.3 -0.14,-0.11 6.44,-6.23 14.61,-13.67 8.17,-7.44 14.86,-13.42 15,-13.31 z"
     style="fill:#ffffff"
     id="path1156" />
  <path
     d="m 442.44,256.58 a 3.68,3.68 0 0 1 -0.47,0.44 l -1.4,1.2 -5.18,4.37 c -4.38,3.68 -10.42,8.78 -17,14.49 -6.58,5.71 -12.53,10.94 -16.8,14.74 l -5.08,4.5 -1.39,1.21 a 2.65,2.65 0 0 1 -0.51,0.39 3.73,3.73 0 0 1 0.44,-0.47 l 1.33,-1.28 c 1.16,-1.11 2.85,-2.68 5,-4.62 4.22,-3.87 10.1,-9.15 16.71,-14.87 6.61,-5.72 12.69,-10.76 17.14,-14.37 2.22,-1.81 4,-3.26 5.29,-4.24 l 1.46,-1.13 a 2.41,2.41 0 0 1 0.46,-0.36 z"
     style="fill:#ffffff"
     id="path1158" />
  <g
     style="opacity:0.3"
     id="g1162">
    <path
       d="m 381.67,294.27 66.71,-57.56 c 0,0 6.59,5 9.39,9.56 L 389.5,305 a 34.87,34.87 0 0 1 -7.83,-10.73 z"
       style="fill:#ffffff"
       id="path1160" />
  </g>
  <g
     style="opacity:0.3"
     id="g1166">
    <path
       d="m 396.81,310.4 65,-56.62 c 0,0 0.32,-0.53 1.21,3.54 L 400,312.17 a 8.11,8.11 0 0 1 -3.19,-1.77 z"
       style="fill:#ffffff"
       id="path1164" />
  </g>
  <path
     d="m 489.85,211.4 c 0,0 -19.56,21.55 -20,22.36 -0.44,0.81 -5.71,13.25 -4.41,15.77 1.3,2.52 11.1,11.37 11.1,11.37 0,0 3.5,-1.51 0.19,-7.43 l -3.31,-5.91 1.78,-6 c 0,0 2.64,7.57 4.17,9.23 1.53,1.66 7.59,4.5 9.11,3 a 6,6 0 0 0 1.75,-3.23 c 0,0 4.15,3.3 7.08,-1.95 0,0 3.69,-0.57 5.27,-3.15 C 504.16,242.88 504,238 504,238 a 2.34,2.34 0 0 0 -3.58,-0.81 10.75,10.75 0 0 0 -3.5,4.62 l -1.71,-2.28 a 33,33 0 0 1 2.61,-8.91 c 1.19,-2.28 8.87,-7.25 9.78,-11.21 0.77,-3.35 -5.93,-5.57 -9.37,-5.38 v 0 a 5.28,5.28 0 0 0 -1.51,0.31 z"
     style="fill:#ffbf9d"
     id="path1168" />
  <path
     d="m 488.15,238.92 a 1.93,1.93 0 0 0 0,0.59 9.09,9.09 0 0 0 0.27,1.56 10.25,10.25 0 0 0 7,7.27 8.78,8.78 0 0 0 1.56,0.32 1.84,1.84 0 0 0 0.58,0 c 0,-0.06 -0.83,-0.12 -2.08,-0.54 a 10.86,10.86 0 0 1 -4.32,-2.71 11,11 0 0 1 -2.55,-4.41 c -0.38,-1.25 -0.41,-2.08 -0.46,-2.08 z"
     style="fill:#ff9a6c"
     id="path1170" />
  <path
     d="m 481.57,238.27 a 2.93,2.93 0 0 0 0,0.62 5.75,5.75 0 0 0 0.08,0.73 8.33,8.33 0 0 0 0.16,1 15.73,15.73 0 0 0 0.75,2.41 15,15 0 0 0 3.46,5.09 13.33,13.33 0 0 0 2,1.59 c 0.29,0.21 0.58,0.36 0.82,0.51 0.24,0.15 0.47,0.25 0.65,0.33 a 2.66,2.66 0 0 0 0.58,0.24 c 0,-0.05 -0.78,-0.42 -1.93,-1.25 a 14.83,14.83 0 0 1 -1.9,-1.61 16.63,16.63 0 0 1 -1.94,-2.34 20.34,20.34 0 0 1 -1.66,-2.78 13,13 0 0 1 -0.6,-2.24 c -0.36,-1.42 -0.41,-2.31 -0.47,-2.3 z"
     style="fill:#ff9a6c"
     id="path1172" />
  <path
     d="m 474.08,236.71 c 0,0 -0.17,0.29 -0.24,0.81 a 4.51,4.51 0 0 0 0.24,2 3.79,3.79 0 0 0 1.1,1.72 c 0.38,0.36 0.67,0.51 0.69,0.48 a 7.09,7.09 0 0 1 -1.52,-2.3 7.22,7.22 0 0 1 -0.27,-2.71 z"
     style="fill:#ff9a6c"
     id="path1174" />
  <path
     d="m 541.54,170.57 c 0,0.08 -1.07,-0.64 -2.93,-1.31 a 15.06,15.06 0 0 0 -7.55,-0.71 13,13 0 0 0 -6.71,3.44 c -1.44,1.35 -2.15,2.37 -2.23,2.32 a 2.64,2.64 0 0 1 0.45,-0.76 14.1,14.1 0 0 1 1.53,-1.82 12.5,12.5 0 0 1 6.9,-3.73 14.35,14.35 0 0 1 7.77,0.89 12.11,12.11 0 0 1 2.12,1.1 c 0.43,0.35 0.67,0.55 0.65,0.58 z"
     style="fill:#ff9a6c"
     id="path1176" />
  <path
     d="m 440.13,81.46 c 0,-6.55 0,-13.14 -1.14,-19.6 -1.14,-6.46 -3.39,-12.83 -7.45,-18 -0.62,-0.78 -5.35,-5.81 -6.26,-5.42 -0.65,0.29 2.87,5.27 2.72,6 -1.44,6.62 -0.16,13.61 2.44,19.87 a 88.72,88.72 0 0 0 9.69,17.16"
     style="fill:#263238"
     id="path1178" />
  <path
     d="M 433,57.47 C 428.45,41.67 415.47,31.15 399.8,36.14 l -1.42,0.54 a 29.4,29.4 0 0 0 -17.67,35.73 c 4,13.67 8.64,28.72 11.45,35.8 5.84,14.66 21.45,11.3 21.45,11.3 0,0 9.74,22.4 9.74,22.4 l 31,-15.89 z"
     style="fill:#ffbf9d"
     id="path1180" />
  <path
     d="m 413.68,119.62 a 38.13,38.13 0 0 0 17,-13 c 0,0 0.44,13.77 -14.77,18.09 z"
     style="fill:#ff9a6c"
     id="path1182" />
  <path
     d="m 391.21,85.69 a 2.24,2.24 0 0 0 2.84,1.31 2.15,2.15 0 0 0 1.44,-2.72 2.25,2.25 0 0 0 -2.84,-1.28 2.15,2.15 0 0 0 -1.44,2.69 z"
     style="fill:#263238"
     id="path1184" />
  <path
     d="m 410.56,78.9 a 2.25,2.25 0 0 0 2.84,1.35 2.15,2.15 0 0 0 1.44,-2.73 2.25,2.25 0 0 0 -2.84,-1.35 2.16,2.16 0 0 0 -1.44,2.73 z"
     style="fill:#263238"
     id="path1188" />
  <path
     d="m 407.32,90.23 c 0,-0.14 -1.54,0.16 -3.93,0.74 -0.6,0.17 -1.19,0.26 -1.44,-0.1 a 3.05,3.05 0 0 1 -0.27,-1.86 c 0,-1.6 0,-3.29 0,-5.05 0,-7.18 -0.29,-13 -0.58,-13 -0.29,0 -0.5,5.83 -0.47,13 0,1.77 0,3.45 0.06,5.06 a 3.65,3.65 0 0 0 0.57,2.38 1.58,1.58 0 0 0 1.28,0.48 4.35,4.35 0 0 0 1,-0.24 c 2.39,-0.75 3.82,-1.28 3.78,-1.41 z"
     style="fill:#263238"
     id="path1192" />
  <path
     d="m 414.58,89.24 c -0.38,0.12 0.56,2.57 -0.87,5.12 -1.43,2.55 -4.15,3.29 -4,3.64 0,0.17 0.77,0.25 1.88,-0.14 A 6.58,6.58 0 0 0 415,95 a 5.73,5.73 0 0 0 0.57,-4.24 c -0.32,-1.1 -0.83,-1.6 -0.99,-1.52 z"
     style="fill:#263238"
     id="path1194" />
  <path
     d="m 405.36,60.49 c 0.46,0.53 2.61,-0.63 5.39,-1.33 2.78,-0.7 5.2,-0.8 5.34,-1.48 0.06,-0.33 -0.54,-0.76 -1.63,-1 a 9.38,9.38 0 0 0 -4.34,0.13 9.11,9.11 0 0 0 -3.83,2 c -0.83,0.75 -1.13,1.43 -0.93,1.68 z"
     style="fill:#263238"
     id="path1196" />
  <path
     d="m 384.29,69.43 c 0.6,0.36 1.95,-0.77 3.82,-1.51 1.87,-0.74 3.59,-1 3.75,-1.67 0.06,-0.32 -0.39,-0.74 -1.27,-1 a 6,6 0 0 0 -6.09,2.56 c -0.5,0.83 -0.5,1.44 -0.21,1.62 z"
     style="fill:#263238"
     id="path1198" />
  <path
     d="m 436,68.84 c 0.21,-0.21 9,-6.88 12.51,3.31 3.51,10.19 -7.39,11.65 -7.51,11.36 -0.12,-0.29 -5,-14.67 -5,-14.67 z"
     style="fill:#ffbf9d"
     id="path1200" />
  <path
     d="m 442.77,78.57 c 0,0 0.22,0.06 0.57,0.09 a 1.87,1.87 0 0 0 1.34,-0.43 c 0.93,-0.77 1.25,-2.79 0.66,-4.65 a 6.37,6.37 0 0 0 -1.34,-2.37 2.17,2.17 0 0 0 -1.81,-0.89 1,1 0 0 0 -0.88,0.85 c 0,0.33 0.1,0.51 0.05,0.55 -0.05,0.04 -0.28,-0.1 -0.34,-0.55 a 1.14,1.14 0 0 1 0.18,-0.78 1.42,1.42 0 0 1 0.89,-0.6 2.63,2.63 0 0 1 2.4,0.94 6.22,6.22 0 0 1 1.6,2.63 c 0.65,2.07 0.27,4.36 -1.06,5.3 a 2,2 0 0 1 -1.71,0.29 c -0.45,-0.14 -0.58,-0.35 -0.55,-0.38 z"
     style="fill:#ff9a6c"
     id="path1202" />
  <path
     d="m 381.65,53.24 c -2,-0.35 1.19,-7.39 4.63,-10.6 5.2,-4.87 14,-9.75 20.22,-10.06 7.47,-0.37 14.28,1.11 19.8,6.16 a 42.3,42.3 0 0 1 11.45,19 12.85,12.85 0 0 1 0.67,6.73 c -0.67,2.74 -2.92,5.09 -1.75,8.17 a 4.51,4.51 0 0 1 0,3.48 c -1.2,2.62 -4.12,1.52 -5.8,0 -3.6,-3.24 -5.47,-7.94 -7.21,-12.46 -1.24,-3.21 -2.5,-6.5 -2.64,-9.94 -0.07,-1.87 0.19,-3.75 0,-5.62 a 6.5,6.5 0 0 0 -2.45,-4.86 6.77,6.77 0 0 0 -1.12,-0.56 11.24,11.24 0 0 0 -11.25,1.56 c -5.07,4 -13.87,10.34 -17.1,9.26 -4.64,-1.57 -6.15,-3.1 -6.15,-3.1 z"
     style="fill:#263238"
     id="path1204" />
  <path
     d="m 366.23,148.08 c 0,0 -1.46,-4.12 3.49,-9.66 4.95,-5.54 44.18,-16.42 44.18,-16.42 0,0 14.26,16.15 26.6,5.12 9,-8 9.3,-16 9.3,-16 h 35.5 l 4.43,36.47 -14.15,0.08 z"
     style="fill:#9dcee2;fill-opacity:1"
     id="path1206" />
  <path
     d="m 478.85,111.11 c 0,0 9.26,-1.87 17.72,2 14.21,6.45 38.9,27 38.9,27 l -30,24.65 -20.8,-17.06 z"
     style="fill:#9dcee2;fill-opacity:1"
     id="path1208" />
  <path
     d="m 491.75,153.59 a 1.76,1.76 0 0 1 -0.39,-0.2 c -0.24,-0.15 -0.6,-0.37 -1,-0.68 a 30.33,30.33 0 0 1 -3.53,-2.86 32.82,32.82 0 0 1 -4.45,-5.08 18.57,18.57 0 0 1 -3.31,-7.58 c -1,-5.82 -0.13,-11.34 1.75,-14.74 a 11.09,11.09 0 0 1 2.92,-3.5 8.86,8.86 0 0 1 1.05,-0.66 c 0.24,-0.14 0.38,-0.21 0.39,-0.19 0.01,0.02 -0.48,0.36 -1.32,1 a 11.83,11.83 0 0 0 -2.72,3.51 c -1.74,3.35 -2.58,8.77 -1.56,14.47 a 18.55,18.55 0 0 0 3.19,7.4 34.22,34.22 0 0 0 4.31,5.09 41,41 0 0 0 3.4,3 15.31,15.31 0 0 1 1.27,1.02 z"
     style="fill:#263238"
     id="path1210" />
  <path
     d="m 484.64,147.61 c 0,0.14 -24.44,0.36 -54.59,0.48 -30.15,0.12 -54.6,0.1 -54.6,-0.05 0,-0.15 24.44,-0.35 54.6,-0.47 30.16,-0.12 54.59,-0.11 54.59,0.04 z"
     style="fill:#263238"
     id="path1212" />
  <path
     d="m 353.44,145.4289 c 0.07,0.15 0.13,0.3 0.19,0.45 a 8.26,8.26 0 0 1 0.44,2.2 9.4,9.4 0 0 0 0.05,1.06 4.39,4.39 0 0 0 0.29,0.62 10.44,10.44 0 0 1 0.39,4.38 8.36,8.36 0 0 0 0.81,4.68 c 0.84,1.38 2.79,2.19 4.12,1.27 a 2.1,2.1 0 0 0 1.57,2.3 3,3 0 0 0 2.81,-0.87 5.63,5.63 0 0 0 1.4,-2.69 2.33,2.33 0 0 0 2.32,2.25 3.58,3.58 0 0 0 2.94,-1.8 8.32,8.32 0 0 0 1,-3.43 41.93,41.93 0 0 1 0.73,-4.6 c 0,0 1.51,0.25 2.2,0.31 h 0.2 a 9.41,9.41 0 0 0 1.44,-2.5 c 1,-2 1.7,-3.24 2.43,-5 0.56,-1.34 0.91,-2.69 0.08,-3.56 -2,-2.11 -5.92,2.18 -5.92,2.18 -0.56,-1.5 -5.11,-1.74 -6,0.25 -0.36,-1.1 -0.22,-1.73 -1.11,-2.47 a 3.68,3.68 0 0 0 -3.22,-0.81 2.61,2.61 0 0 0 -2,2.53 4.44,4.44 0 0 0 -4.62,-1.93 4.37,4.37 0 0 0 -2.57,1.78 4.46,4.46 0 0 0 -0.65,1.44 1.77,1.77 0 0 0 -0.11,0.6 0.89,0.89 0 0 0 0.09,0.26 c 0.26,0.36 0.52,0.7 0.7,1.1 z"
     style="fill:#ffbf9d"
     id="path1214" />
  <path
     d="m 348.63,142.5189 a 3.43,3.43 0 0 0 -2.73,0.91 5.58,5.58 0 0 0 -0.85,3.78 c 1.37,0.26 2.08,0.32 3.46,0.58 0.29,0.05 0.53,0 0.77,0.15 0.63,0.45 0.53,2 0.78,2.7 a 2.65,2.65 0 0 0 3.34,1.43 3.56,3.56 0 0 0 2.15,-3.16 5.49,5.49 0 0 0 -1.4,-3.7 7.66,7.66 0 0 0 -5.52,-2.69 z"
     style="fill:#ffbf9d"
     id="path1216" />
  <path
     d="m 360.66,141.8089 c 0.26,0 0.26,4.13 0,9.19 -0.26,5.06 -0.68,9.15 -0.93,9.14 -0.25,-0.01 -0.26,-4.13 0,-9.19 0.26,-5.06 0.68,-9.2 0.93,-9.14 z"
     style="fill:#ff9a6c"
     id="path1218" />
  <path
     d="m 367,142.6289 c 0.25,0 0.58,3.74 0.18,8.34 -0.4,4.6 -1.36,8.24 -1.6,8.19 -0.24,-0.05 0.29,-3.73 0.67,-8.27 0.38,-4.54 0.46,-8.25 0.75,-8.26 z"
     style="fill:#ff9a6c"
     id="path1220" />
  <path
     d="m 373.16,143.4789 c 0.26,0 0.37,3.11 -0.12,6.89 -0.49,3.78 -1.06,6.77 -1.3,6.75 -0.24,-0.02 -0.1,-3.12 0.38,-6.87 0.48,-3.75 0.78,-6.78 1.04,-6.77 z"
     style="fill:#ff9a6c"
     id="path1222" />
  <path
     d="m 350.61,143.1589 c 0,-0.11 0.66,-0.26 1.61,0.18 a 5.13,5.13 0 0 1 2.53,2.95 10.35,10.35 0 0 1 0.63,3.79 c -0.11,1.14 -0.94,1.47 -1,1.32 -0.06,-0.15 0.38,-0.5 0.3,-1.34 a 18.15,18.15 0 0 0 -0.84,-3.44 5.62,5.62 0 0 0 -2,-2.71 c -0.66,-0.5 -1.24,-0.61 -1.23,-0.75 z"
     style="fill:#ff9a6c"
     id="path1224" />
  <path
     d="M 502.16,457.2 A 28.92,28.92 0 0 0 515,428.62 l 11.35,-7.44 1.61,-1 89.87,-58.9 a 28.91,28.91 0 0 0 44.42,-23.87 l -5.25,-0.91 -5.72,8 -13.15,-2.77 -7.34,-11.25 2.77,-13.16 10.93,-7.13 -7.4,-1.94 c -7.84,-2.31 -12.19,-0.43 -19.57,4.39 a 28.91,28.91 0 0 0 -12.79,28.53 l -91.37,59.89 -2.83,1.84 -8.66,5.67 a 28.91,28.91 0 0 0 -31.27,0.21 c -7.35,4.79 -17.26,14.76 -18.33,22.83 l 5.22,0.86 10.93,-7.13 13.16,2.77 7.34,11.25 -2.77,13.16 -11.77,3.32 0.83,3.81 a 28.87,28.87 0 0 0 26.95,-2.45 z"
     style="fill:#e0e0e0"
     id="path1227" />
  <g
     style="opacity:0.3"
     id="g1231">
    <path
       d="M 502.16,457.2 A 28.92,28.92 0 0 0 515,428.62 l 11.35,-7.44 1.61,-1 89.87,-58.9 a 28.91,28.91 0 0 0 44.42,-23.87 l -5.25,-0.91 -5.72,8 -13.15,-2.77 -7.34,-11.25 2.77,-13.16 10.93,-7.13 -7.4,-1.94 c -7.84,-2.31 -12.19,-0.43 -19.57,4.39 a 28.91,28.91 0 0 0 -12.79,28.53 l -91.37,59.89 -2.83,1.84 -8.66,5.67 a 28.91,28.91 0 0 0 -31.27,0.21 c -7.35,4.79 -17.26,14.76 -18.33,22.83 l 5.22,0.86 10.93,-7.13 13.16,2.77 7.34,11.25 -2.77,13.16 -11.77,3.32 0.83,3.81 a 28.87,28.87 0 0 0 26.95,-2.45 z"
       id="path1229"
       style="fill:#000000;fill-opacity:0.2" />
  </g>
  <path
     d="m 496.94,456.34 a 28.9,28.9 0 0 0 12.79,-28.58 l 11.36,-7.45 1.6,-1 89.87,-58.91 A 28.9,28.9 0 0 0 657,336.5 l -11,7.14 -13.15,-2.77 -7.34,-11.26 2.77,-13.15 10.94,-7.14 a 28.91,28.91 0 0 0 -39.77,31 l -91.37,59.9 -2.79,1.78 -8.66,5.68 a 28.91,28.91 0 0 0 -44.38,23.9 l 10.94,-7.14 13.15,2.77 7.34,11.26 -2.77,13.15 -10.91,7.17 a 28.87,28.87 0 0 0 26.94,-2.45 z"
     style="fill:#dddce2;fill-opacity:1"
     id="path1233" />
  <path
     d="m 496.94,456.34 c 0,0 -0.52,0.34 -1.55,1 a 32.12,32.12 0 0 1 -4.93,2.24 28.95,28.95 0 0 1 -20.53,-0.68 l -0.18,-0.07 0.17,-0.11 10.93,-7.15 -0.06,0.07 c 0.85,-4.05 1.77,-8.46 2.75,-13.15 v 0.11 c -2.29,-3.52 -4.76,-7.3 -7.35,-11.25 l 0.1,0.06 -13.16,-2.75 h 0.13 l -10.94,7.15 -0.28,0.18 v -0.33 A 29,29 0 0 1 466,407.29 28.85,28.85 0 0 1 481,403 a 29.32,29.32 0 0 1 15.7,4.52 h -0.23 l 102.89,-67.42 -0.11,0.24 a 29.44,29.44 0 0 1 2.11,-16 29.16,29.16 0 0 1 24.17,-17.38 29.3,29.3 0 0 1 13.82,2.15 l 0.43,0.19 -0.39,0.25 -10.94,7.14 0.11,-0.16 q -1.39,6.63 -2.77,13.15 v -0.18 l 7.34,11.25 -0.15,-0.1 13.15,2.77 h -0.18 l 10.94,-7.13 0.38,-0.24 v 0.44 a 29.12,29.12 0 0 1 -16.27,25.58 28.91,28.91 0 0 1 -14.73,3 29.71,29.71 0 0 1 -13.84,-4.49 h 0.23 l -102.89,67.3 v -0.11 a 29.57,29.57 0 0 1 -1.38,14.1 29.07,29.07 0 0 1 -5.16,9 29.88,29.88 0 0 1 -4.59,4.34 c -1.17,0.81 -1.77,1.21 -1.77,1.21 l 1.73,-1.26 a 30.89,30.89 0 0 0 4.55,-4.36 29,29 0 0 0 6.4,-23 v -0.07 h 0.06 l 102.77,-67.47 0.12,-0.07 0.12,0.07 a 29.11,29.11 0 0 0 13.63,4.41 28.36,28.36 0 0 0 14.51,-2.94 28.65,28.65 0 0 0 15.93,-25.16 l 0.36,0.2 -10.94,7.14 -0.08,0.05 h -0.1 l -13.15,-2.76 h -0.1 v -0.08 l -7.35,-11.26 -0.05,-0.08 v -0.1 q 1.37,-6.53 2.77,-13.15 v -0.1 l 0.08,-0.06 10.94,-7.13 v 0.43 a 28.66,28.66 0 0 0 -26.64,2.33 28.6,28.6 0 0 0 -10.62,12.55 28.94,28.94 0 0 0 -2.07,15.75 v 0.15 l -0.13,0.09 -102.86,67.35 -0.12,0.07 -0.12,-0.07 a 28.83,28.83 0 0 0 -15.51,-4.46 28.82,28.82 0 0 0 -25,14.77 28.78,28.78 0 0 0 -3.6,13.41 l -0.28,-0.15 11,-7.13 v 0 h 0.07 l 13.15,2.78 h 0.06 v 0.06 l 7.33,11.26 v 0.05 0.06 c -1,4.68 -1.93,9.09 -2.79,13.15 v 0.05 0 l -11,7.12 v -0.18 a 29,29 0 0 0 20.41,0.77 32.15,32.15 0 0 0 4.94,-2.19 z"
     style="fill:#263238"
     id="path1235" />
  <path
     d="m 608.51,356.38 c 0,0 -0.25,-0.13 -0.65,-0.42 a 17.34,17.34 0 0 1 -1.61,-1.39 23.26,23.26 0 0 1 -6.58,-12.15 14.91,14.91 0 0 1 -0.28,-2.1 2.56,2.56 0 0 1 0,-0.77 c 0.08,0 0.21,1.08 0.62,2.8 a 27,27 0 0 0 2.46,6.41 27.27,27.27 0 0 0 4,5.57 c 1.24,1.28 2.09,1.98 2.04,2.05 z"
     style="fill:#263238"
     id="path1237" />
  <rect
     x="86.499115"
     y="45.871143"
     width="132.6209"
     height="132.6209"
     rx="9.8700008"
     style="fill:#d40d2c;stroke-width:1.44925"
     id="rect1240"
     ry="9.8700008" />
  <g
     style="opacity:0.3"
     id="g1244"
     transform="matrix(1.4492503,0,0,1.4492503,-98.439717,-80.213633)">
    <rect
       x="127.61"
       y="87"
       width="91.510002"
       height="91.510002"
       rx="6.8104181"
       id="rect1242"
       ry="6.8104181" />
  </g>
  <rect
     x="67.050179"
     y="45.871143"
     width="132.6209"
     height="132.6209"
     rx="9.8700008"
     style="fill:#d40d2c;stroke-width:1.44925"
     id="rect1246"
     ry="9.8700008" />
  <path
     d="m 112.50361,77.7081 a 39.354402,39.354402 0 0 1 9.77799,-4.250593 l 2.00408,-9.697179 16.35592,-0.290923 2.35964,9.60021 a 39.774614,39.774614 0 0 1 9.92345,3.911193 l 8.25877,-5.430413 11.78207,11.313369 -5.12334,8.452724 a 40.178663,40.178663 0 0 1 4.23444,9.777992 l 9.69718,2.02024 0.29091,16.35592 -9.60021,2.35964 a 40.017043,40.017043 0 0 1 -3.91119,9.92345 l 5.43043,8.25877 -11.31339,11.76591 -8.45271,-5.12334 a 39.612993,39.612993 0 0 1 -9.77799,4.2506 l -2.02025,9.69718 -16.35591,0.29093 -2.34349,-9.55174 a 40.647359,40.647359 0 0 1 -9.92346,-3.91119 l -8.25877,5.41425 -11.765908,-11.31336 5.123346,-8.43655 a 39.726127,39.726127 0 0 1 -4.250593,-9.79417 l -9.69718,-2.00408 -0.290923,-16.35592 9.600211,-2.35964 a 40.40493,40.40493 0 0 1 3.911193,-9.923452 l -5.414254,-8.25877 11.313388,-11.782072 8.45271,5.139506 z m 8.71129,21.786333 a 17.551902,17.551902 0 1 0 24.80863,-0.436369 17.551902,17.551902 0 0 0 -24.80863,0.436369 z"
     style="fill:#ffffff;stroke-width:1.6162"
     id="path1248" />
  <g
     style="opacity:0.3"
     id="g1252"
     transform="matrix(1.4492503,0,0,1.4492503,-98.439717,-80.213633)">
    <polygon
       points="198.79,87 185.14,87 114.19,143.67 114.19,154.7 "
       style="fill:#ffffff"
       id="polygon1250" />
  </g>
  <g
     style="opacity:0.3"
     id="g1256"
     transform="matrix(1.4492503,0,0,1.4492503,-98.439717,-80.213633)">
    <path
       d="M 114.28,167.56 205.7,96.64 v 19.91 l -81.87,62 v 0 a 9.58,9.58 0 0 1 -9.57,-9.65 z"
       style="fill:#ffffff"
       id="path1254" />
  </g>
  <g
     id="g24808"
     transform="matrix(0.93587746,0,0,0.93587746,42.362857,16.746721)">
    <path
       d="m 675.59976,273.06941 -5.64826,2.50357 -0.85769,-0.85768 2.50358,-5.64827 0.0446,-0.0446 4.00237,4.00238 z m 21.91198,-34.49073 -28.30081,28.30104 c -0.32974,0.32974 -0.59534,0.70966 -0.77682,1.1256 l -5.04759,11.72573 c -0.38433,0.89277 0.1636,1.6747 0.97295,1.6747 0.18148,0 0.37597,-0.0393 0.57628,-0.12548 l 11.72595,-5.04758 0.003,0.003 c 0.41292,-0.1845 0.79308,-0.4501 1.12259,-0.77984 l 28.30103,-28.30081 -8.57638,-8.57638"
       style="fill:#ffffff;fill-opacity:1;fill-rule:nonzero;stroke:none;stroke-width:0.00232372"
       id="path24639" />
    <path
       d="m 708.89517,238.28728 -2.51565,-2.51565 c -0.45755,-0.45754 -1.01548,-0.76845 -1.62406,-0.93739 -0.3697,-0.10364 -0.75869,-0.15476 -1.15605,-0.15476 -1.3359,0 -2.76777,0.57953 -3.8899,1.70166 l -0.82422,0.82399 8.57638,8.57638 0.82399,-0.82422 c 1.45604,-1.45581 1.99863,-3.43352 1.5469,-5.04596 -0.16894,-0.60858 -0.48008,-1.1665 -0.93739,-1.62405"
       style="fill:#ffffff;fill-opacity:1;fill-rule:nonzero;stroke:none;stroke-width:0.00232372"
       id="path24641" />
  </g>
</svg>
