<svg xmlns="http://www.w3.org/2000/svg" width="300" height="200" viewBox="0 0 79.375 52.917"><title>General purpose!</title><path fill="#231f20" d="m15.622 11.605.49 3.733-2.798 2.52 3.702.687 1.533 3.439 1.797-3.308 3.744-.394-2.59-2.732.781-3.682-3.398 1.619-3.261-1.882m47.062 3.188-1.497.317-1.239-.91-.017 1.353-1.301.678 1.488.52.432 1.326.937-1.03 1.568.143-.91-1.156.539-1.24M40.303 6.737l1.268 1.97-1.019 2.314 2.399-.773 1.816 1.475.214-2.448 2.14-1.403-2.265-.74-.494-2.342-1.614 1.99-2.446-.043m18.255 23.498c.798 1.275 1.084 2.75.847 4.391-.447 3.114-2.572 4.776-6.313 4.944-.24 2.054-1.019 3.932-2.202 5.303-1.43 1.654-3.404 2.53-5.712 2.53a8.63 8.63 0 0 1-.505-.015c-1.836-.096-3.635-1.003-5.098-2.564-1.05 1.77-2.857 2.895-4.682 2.895-.101 0-.204-.004-.305-.01-3.236-.21-4.575-2.9-4.766-5.267-.486.168-1.5.467-2.604.467-1.106 0-2.012-.299-2.694-.884-.872-.748-1.535-2.512-.53-4.278 0 0 .282-.341.612-.603.323-.253.478-.334.478-.334s-.313-.124-.861.014c-.45.112-.862.416-1.167.902-2.659-.32-5.964-2.775-6.022-7.122-.012-.954.427-3.229 2.185-5.01 1.465-1.485 3.45-2.238 5.896-2.238.288 0 .585.01.887.032-.001-1.017.233-4.714 3.62-5.871a6.168 6.168 0 0 1 2-.326c1.687 0 3.096.607 3.903 1.046.035.649.293 1.096.293 1.096s.378-.873 1.18-1.766c1.446-1.393 4.277-3.556 7.925-3.556.247 0 .498.01.747.03 3.251.26 6.367 2.662 7.659 5.876a6.3 6.3 0 0 1 2.707-.63c2.845 0 5.424 2.13 6 4.955.514 2.53-.783 4.754-3.478 5.993zm4.436-6.39c-.484-2.377-2.248-4.31-4.45-5.104a6.538 6.538 0 0 0-2.603-.549c-.703 0-1.402.114-2.092.338-1.176-2.258-3.206-4.045-5.502-4.899a8.755 8.755 0 0 0-2.72-.68 10.003 10.003 0 0 0-.8-.033c-4.481 0-7.72 2.965-8.966 4.319a10.457 10.457 0 0 0-.968-.418c-.886-.373-2.063-.722-3.367-.722-.768 0-1.513.123-2.217.362-2.961 1.012-3.913 3.84-4.062 5.805a11.745 11.745 0 0 0-.227-.002c-2.634 0-4.779.82-6.376 2.44-1.662 1.684-2.398 4.027-2.38 5.492.053 3.976 2.616 6.504 5.168 7.428.482.206.969.356 1.443.446-.43 1.599.101 3.179 1.114 4.049.398.341.855.6 1.367.774.627.283 1.35.428 2.16.428.614 0 1.197-.083 1.693-.19.215 1.008.613 1.93 1.171 2.677a5.256 5.256 0 0 0 2.493 1.84 5.754 5.754 0 0 0 2.318.484c1.792 0 3.504-.9 4.701-2.41a8.608 8.608 0 0 0 2.54 1.483c.809.346 1.652.55 2.504.595a10.183 10.183 0 0 0 .54.014c2.51 0 4.662-.954 6.222-2.764 1.161-1.345 1.959-3.137 2.283-5.106 4.664-.408 6.058-3.172 6.39-5.484.221-1.536.024-2.944-.586-4.2 1.192-.663 2.082-1.522 2.653-2.561.64-1.165.831-2.498.556-3.853"/><path fill="#fefefe" d="M56.035 19.286a6.3 6.3 0 0 0-2.707.631c-1.292-3.214-4.408-5.616-7.66-5.876a9.513 9.513 0 0 0-.746-.03c-4.776 0-8.156 3.71-8.855 4.542-.551-.352-2.315-1.362-4.446-1.362a6.17 6.17 0 0 0-2 .326c-3.387 1.157-3.621 4.854-3.62 5.871a12.586 12.586 0 0 0-.887-.032c-2.447 0-4.43.753-5.896 2.238-1.758 1.781-2.197 4.056-2.185 5.01.062 4.671 3.876 7.16 6.605 7.16.121 0 .24-.006.355-.017-1.005 1.766-.342 3.53.53 4.278.682.585 1.588.884 2.694.884 1.105 0 2.118-.299 2.603-.467.192 2.367 1.53 5.057 4.767 5.267.101.005.204.01.305.01 1.825 0 3.632-1.125 4.682-2.895 1.463 1.56 3.262 2.468 5.098 2.564.169.01.339.015.504.015 2.309 0 4.284-.876 5.713-2.53 1.183-1.371 1.961-3.249 2.202-5.303 3.741-.168 5.866-1.83 6.313-4.944.237-1.64-.049-3.116-.847-4.391 2.695-1.239 3.992-3.463 3.477-5.993-.575-2.825-3.154-4.956-6-4.956"/><path fill="#231f20" d="m26.851 23.081-6.212-5.849-.94.302zm13.267-1.868 2.767-11.505 1.31-.311Z"/><path fill="#fcd120" d="m40.797 6.986 1.015 1.577-.815 1.852 1.92-.619 1.453 1.182.172-1.96 1.713-1.123-1.813-.592-.395-1.875-1.292 1.594-1.958-.036"/><path fill="#231f20" d="m52.846 24.975 7.78-8.203.076-1.046z"/><path fill="#fcd120" d="m62.273 14.992-1.2.253-.99-.727-.012 1.084-1.044.54v.002l1.193.416.344 1.061.75-.824 1.258.114-.73-.926.432-.991v-.002"/><g fill="#1b1b3d" stroke="#1b1b3d"><path stroke-width=".514" d="M59.158 38.553q-.043.006-.129.009-.087-.005-.207.005l-.184-.016-.072-.006q-.019-.015-.012-.025-.033-.22-.112-.582-.019-.127-.041-.219l-.042-.168-.072-.361q-.022-.144-.071-.363l-.05-.262q-.047-.322-.082-.499-.034-.176-.119-.745-.08-.535-.156-1.105-.077-.57-.11-1.085-.014-.093.18-.183.126-.036.423-.08.688-.102 1.005-.176 1-.167 1.509-.243l.373-.056q.698-.086 1.077-.107.135-.02.243.293.035.056.104.297.046.124.116.303.016.05.014.102l.009.05q.004.087-.081.1-.035-.004-.103.006-.357.053-.865.19l-.446.1q-.275.077-.435.11-.025.002-.052.11-.017.116 0 .521l.015.215q.016.11.046.141.03.022.115.009l.755-.113q.331-.05.761-.07l.101-.015q.115.009.15.063.041.048.058.105l.146.75.005.026q.02.144-.28.215-.174.068-.673.143-.433.065-.561.075-.247.036-.297.053-.088.04-.103.12-.015.071.01.242.017.11.03.315.006.104.039.325.553-.082.813-.138.285-.07.81-.148.035-.005.077.05.056.078.193.36.076.163.165.41.026.056.036.125.026.178-.143.203-.222.033-.592.105-.193.046-.608.108-.892.132-1.34.211z"/><path stroke-width=".527" d="M55.334 39.071q-.621.057-1.263-.026-.634-.092-1.059-.31-.134-.304-.214-.614-.081-.31-.213-.889l-.002-.025q.008-.107.1-.168.349.17.664.247.314.07.683.036l.21-.02.14-.002q.201-.018.405-.1.11-.053.143-.179l-.485-.185q-.557-.206-1.01-.455-.474-.283-.712-.764-.122-.262-.15-.585-.072-.787.365-1.311.38-.467 1.08-.715.608-.205 1.351-.272.438-.04 1.216-.014.08.01.221.016l.267.028q.302.025.442.013.009-.001.028.024l.048.04q.04.058.076.055l.016-.001.035.181q.012.131.05.277.047.217.07.47.02.218.003.317-.029.178-.134.269l-.824-.032-.208.019q-.298.027-.677.123l-.283.087q-.103.027-.101.044.019.21.306.37.137.057.273.098.135.031.172.046.664.125 1.177.536.237.19.38.414.144.226.164.444.012.131-.009.283-.002.662-.395 1.182-.39.467-1.019.727-.54.251-1.328.323z"/><path stroke-width=".571" d="M49.642 39.828q-1.13-.008-1.784-.193-.91-.245-1.38-.894-.546-.775-.536-2.143.006-.978.23-1.662.224-.681.683-1.115.46-.433 1.174-.627.724-.204 1.759-.197.808.007 1.519.26.87.318 1.352.968.591.775.582 2.029-.011 1.462-.454 2.276-.442.748-1.272 1.055-.675.252-1.873.243zm-.069-.922q.115.002.181-.142.146-.303.208-.957.061-.599.064-1.13l.004-.38.002-.238q.003-.418-.05-1.017-.052-.646-.191-.98-.077-.162-.182-.163-.208-.001-.306.397-.099.55-.102.996-.03.38-.037 1.188-.005.541.022.894-.004.446.086 1.035.092.496.301.497z"/><path stroke-width=".642" d="M40.152 40.89q-.182.017-.256-.212-.064-.113-.092-.422-.084-.928-.17-1.651-.128-1.04-.233-2.203l-.213-2.345q-.009-.095.069-.188.088-.106.183-.114l1.228-.1q.341-.02.896-.071.8-.073 1.236-.122l.393-.047q.637-.08 1.053-.118.671-.06 1.296.076.734.15 1.229.631.552.52.639 1.479.147 1.62-.608 2.42-.662.747-2.101.877l-1.462.133q.035.244.06.521.008.097.008.236l.032.351q.032.352-.108.461-.108.107-.427.136-.47.043-.65.072-.735.067-1.17.128zm3.548-3.307q.224-.02.292-.457.059-.297.05-.865-.007-.31-.042-.695l-.01-.117q-.016-.171-.1-.507-.06-.187-.122-.29-.064-.112-.158-.178-.093-.09-.199-.08-.053.005-.093.052-.028.045-.054.113-.1.201-.136.871-.014.195-.001.58 0 .592.089 1.573l.012.01q.011.01.044.017l.128-.001z"/><path stroke-width=".659" d="M38.01 41.203q-.042.009-.077.004-.183-.061-.316-.156-.042-.047-.055-.043-.014-.02-.036-.015l-.024-.008-.053-.034-1.206-1.15q-.095-.126-.248-.26-.091-.06-.165-.134-.056-.055-.099-.045-.032.007-.047.043-.003.035-.002.09.03.297.14.791.103.471.112.772 0 .147-.065.16l-.065.014q-.024-.008-.046-.003l-.013-.01q-.368.114-1.11.322-.718.202-1.104.287-.108.023-.177.016l-.236.052-.192.042-.097.021-.414-.044-.05-.079q-.003-.012-.021-.04l-.018-.086q-.015-.064-.074-.231-.196-.643-.156-.505l-.285-.949-.12-.389q-.042-.193-.085-.34-.044-.15-.078-.254l-.074-.23q-.128-.433-.212-.82l-.008-.03q.007-.024-.008-.09.008-.068-.023-.208l-.032-.194-.017-.132q-.05-.225-.165-.649-.102-.258-.193-.676-.132-.6-.117-.895.012-.408.236-.457 1.212-.264 2.473-.508.278-.06.84-.162l.421-.08q.861-.168 1.193-.24 1.398-.239 2.243.239.38.197.613.54.244.34.338.768.108.492.017.95-.078.366-.295.707-.21.326-.517.562.07.018.201.102.056.044.182.105l.173.074q.043.048.098.091.053.034.107.078l.64.512q.439.364.581.546.105.124.12.198.026.108-.042.212-.067.104-.21.271-.108.125-.26.248-.142.12-.21.214l-.351.3q-.19.167-.416.306-.011.003-.03.02-.008.015-.039.03-.056.046-.328.197-.046.042-.17.092-.027.028-.067.05-.04.021-.062.026l-.054.01q.001.057-.031.064l-.032.007zm-2.586-3.4q.331-.072.451-.447.117-.34.054-.73-.028-.23-.096-.541l-.026-.117q-.054-.248-.199-.496-.16-.324-.46-.416-.14-.07-.334-.028-.052.012-.057.147-.044.258.058.774.003.224.067.513l.06.324q.114.627.204 1.034.002.011.014.019.014.009.025.007l.076-.007z"/><path stroke-width=".703" d="M24.94 42.767q-1.11.1-1.728-.361-.516-.366-.773-1.25-.171-.585-.28-1.776-.078-.864-.077-1.901-.014-.163-.02-.469-.01-.246-.039-.691-.028-.458-.059-.796-.016-.175-.046-.243-.038-.162-.047-.255-.016-.187.38-.223l.7-.063q.746-.092 1.441-.084.484.003.747.038.323.053.44.196.11.167.15.6.048.524.075.97.03.432.047.773-.004.082.012.258.021.234.05.796.07 1.03.132 1.719.039.432.091.628.053.184.204.17.316-.028.675-.215.224-.138.313-.205l-.426-4.695q-.06-.263-.083-.522-.03-.067-.041-.196l-.01-.105q-.019-.21.055-.3.075-.077.38-.105.339-.03.873-.114.186-.017.512-.07.232-.021.335-.065.07-.007.166.008.14-.013.235-.009l.35-.021q.258-.01.652.035l.335.064q.109.026.135.07.04.043.046.114.157 1.73.245 3.476.137 2.295.243 3.464.042.467-.401.507l-.597.054q-.23.044-.847.124-.349.055-.547.073l-.536.072q-.315.028-.489-.061-.172-.091-.254-.343-.602.373-1.286.623-.685.24-1.434.307z"/><path stroke-width=".77" d="M14.39 43.946q-.219.02-.308-.255-.076-.134-.11-.507-.1-1.112-.205-1.978-.151-1.25-.278-2.643l-.255-2.815q-.01-.114.082-.225.104-.126.219-.137l1.472-.12q.41-.025 1.075-.085.959-.087 1.482-.147l.472-.056q.764-.095 1.263-.14.806-.073 1.555.09.88.179 1.473.757.663.623.767 1.774.177 1.943-.729 2.9-.795.898-2.521 1.055l-1.751.159q.04.292.07.625.01.115.012.282l.039.422q.038.422-.131.553-.13.127-.515.162-.562.05-.778.086-.882.08-1.403.153zm4.254-3.97q.267-.023.35-.546.07-.355.06-1.037-.008-.373-.05-.833l-.012-.14q-.019-.206-.12-.61-.071-.223-.146-.346-.078-.134-.188-.215-.112-.105-.24-.094-.064.006-.11.062-.035.054-.066.134-.119.243-.163 1.046-.017.233 0 .696-.002.71.105 1.885l.014.012q.014.011.053.02h.154z"/><path stroke-width=".684" d="M64.842 36.018q-.227-.013-.396-.046-.306-.04-.384-.08-.043-.06-.048-.357l-.027-.127.005-.09-.001-.15q-.01-.035.001-.228-.017-.104-.07-.77.004-.067-.015-.138-.007-.08-.004-.102-.017-.093-.01-.23.005-.08-.002-.16-.006-.091 0-.183-.01-.228-.005-.307l-.003-.173q.01-.136-.013-.355.006-.09-.007-.252-.069-.404-.054-.654.013-.216-.052-.47.002-.035.014-.045.024-.022.059-.031.209-.068.517-.05.103.005.285.005.183 0 .297-.005.058.003.161-.025l1.924.112q.056.049.133.077.179.066.264.185.053.061.047.176-.027.466-.175.834l-.381 1.646-.006.079q-.036.044-.042.146l-.031.148-.006.078q-.012.228-.14.678-.1.314-.232.82-.001.023-.048.043-.047.02-.116.028-.208.044-.868.006zm1.197 2.993q-.4-.023-.623-.082l-.136-.021-.661-.037q-.41-.025-.669-.096-.114-.008-.111-.053l.025-.993q-.005-.126.005-.295.007-.116.02-.16.005-.091.03-.124l.006-.08.007-.137q.004-.056.064-.11.071-.065.152-.06.137.009.217.002l.284.016.274.015.238.014.445.027q.376.02.635.083.315.074.307.21-.023.412-.022.582-.006.092-.01.548l-.025.422q-.02.158-.07.224-.05.076-.142.095-.045-.004-.102.006-.06.01-.138.005z"/><path stroke-width=".728" d="M65.861 28.58q-1.237.168-1.803.234-.516.07-.793.095l-.986.121q-.109.015-.218-.067t-.124-.191l-.36-2.642-.157-1.153-.146-.982q-.065-.494-.144-1.242-.02-.154-.074-.81l-.036-.275q-.047-.336.058-.558.045-.118.178-.135.588-.08 1.288-.15.096 0 .277-.025.397-.056.592-.07l.648-.088.276-.036q.24-.033.38.009.234.09.29.523l.001.097q.005.037 0 .184-.01.184 0 .268.02.133.083.332.045.142.05.19l.022.069.228 1.681.106.78.102.745.02.144q.013.095.124.106.037.007.159-.01l.876-.12q.322-.054.983-.145.132-.018.228.056.092.06.105.144l.311 2.294.002.024q.016.096-.073.168-.101.063-.244.095-.151.057-.488.103z"/><path stroke-width=".748" d="M52.82 29.908q-.161.015-.246-.228-.016-.035-.024-.122-.011-.125.016-.378l.016-.252.023-.152q.213-1.785.454-3.146l.514-4.005q-.002-.024.03-.077t.081-.072l.063-.006q.001.015.038.011.149-.013.333-.069.181-.053.33-.067.273-.024.513-.01.112-.01.25-.009.137 0 .286-.013.05-.004.11-.036l.51-.046.297-.038q.086-.02.209-.032.1-.009.098-.022l1.143-.103q.696-.063.923-.058.037-.003.1.002.074-.007.089.018.087-.008.174-.029.085-.02.159-.027.171-.053.333-.068.074-.006.15.024.08.032.166.024l.062-.019.036-.003q.04.022.083.068.051.033.053.057l1.227 3.847q.529 1.416 1 3.016.007.073.063.156l.06.233q.037.147.046.247.018.047.026.135.015.173-.05.292-.041.078-.142.087l-.16.015q-.187.017-.287.014l-.883.08q-.1.01-.1-.003l-.783.07-.002-.023q-.05-.022-.126-.015l-.012.014-.012.012q.003.026-.021.028l-.137.013q-.066-.02-.25-.003-.376.01-.588.029-.084-.106-.2-.433-.106-.33-.23-.731-.044-.196-.074-.268-.257.072-.679.11l-.745.068-.052.407q-.086.833-.168 1.041-.05.005-.123.036l-.045.03-.063.005q-.075.007-.114-.015-.028-.022-.065-.019l-.557.075-.385.035q-.046.03-.121.037l-1.305.118q-.135.025-.558.064l-.323.029q-.098.02-.284.037zm5.464-3.562-.143-.601q-.053-.17-.183-.647-.037-.122-.186-.66l-.154-.587q-.059-.245-.113-.428l-.027-.16q-.043-.06-.047-.108l-.02-.074q-.01.025-.006.075t-.018.066l.004.048-.01.163q-.004.089-.02.203-.002.1-.016.228l-.031.352q-.066.796-.078.922 0 .137-.027.416-.017.089-.025.264l-.047.582.633-.058.084-.033.026-.003q.149-.013.226.006.049-.005.088.016l.09.018z"/><path stroke-width=".779" d="M52.56 30.42q-.053.005-.092-.006-.203-.098-.348-.229-.044-.06-.057-.06-.015-.024-.04-.021l-.027-.01-.057-.05-1.247-1.528q-.094-.161-.252-.342-.1-.084-.173-.18-.06-.074-.112-.07-.038.004-.06.045-.01.041-.017.106-.008.353.046.948.052.57.02.925-.024.171-.101.178l-.079.007q-.026-.01-.052-.008l-.014-.011q-.45.08-1.35.212-.875.132-1.342.174-.128.011-.209-.007l-.633.057-.479-.111-.05-.101q0-.013-.017-.05l-.01-.104q-.006-.077-.05-.282l-.108-.617-.197-1.156-.082-.474q-.021-.234-.05-.414-.03-.18-.054-.307l-.052-.283q-.086-.526-.128-.992l-.004-.039q.01-.026.004-.105.018-.08.003-.247l-.008-.234-.002-.157q-.024-.272-.097-.786-.082-.32-.128-.824-.065-.725-.004-1.068.075-.476.345-.5 1.462-.133 2.98-.233.336-.03 1.012-.064l.504-.033q1.036-.068 1.437-.104 1.676-.075 2.6.61.417.29.639.725.233.436.28.953.054.596-.118 1.12-.145.416-.451.783-.295.354-.69.585.08.032.223.15.056.06.195.152l.193.111q.044.061.103.122.056.047.113.108l.677.695q.462.491.6.728.106.16.114.25.012.128-.083.241-.093.114-.287.288-.144.13-.341.253-.185.12-.28.219l-.457.303q-.245.166-.534.297-.012.002-.037.017-.012.014-.049.03-.073.045-.413.18-.061.046-.214.084-.038.03-.088.048t-.076.02l-.064.006q-.009.065-.047.069l-.038.003zm-2.536-4.375q.4-.036.598-.458.187-.382.17-.85.002-.274-.032-.65l-.013-.142q-.027-.296-.16-.611-.14-.404-.481-.556-.152-.104-.386-.083-.064.006-.088.165-.092.296-.047.917-.03.263.003.614l.022.388q.042.752.087 1.244.001.013.015.025t.027.01l.09.005z"/><path stroke-width=".871" d="M40.042 31.775q-.072.006-.218.003-.146-.014-.35-.01l-.31-.045q-.074-.01-.119-.018-.031-.026-.018-.042-.034-.377-.134-.993-.02-.217-.048-.374-.03-.172-.055-.286l-.085-.62q-.023-.245-.085-.617l-.056-.448q-.05-.548-.091-.85-.042-.303-.13-1.27-.082-.91-.154-1.88-.075-.968-.081-1.841-.015-.16.324-.292.214-.048.719-.094 1.17-.106 1.714-.199 1.703-.183 2.569-.262l.636-.057q1.188-.079 1.828-.079.23-.02.381.518.053.097.148.51.063.215.166.525.022.086.016.174l.007.086q-.002.146-.147.159-.059-.01-.174.001-.606.055-1.479.236l-.76.127q-.472.101-.744.14-.044.004-.1.184-.04.194-.051.879l.003.363q.018.19.066.243.047.04.192.026l1.285-.116q.563-.051 1.292-.044l.174-.016q.191.026.243.123.066.082.09.181l.174 1.28.004.044q.022.245-.493.336-.298.1-1.148.176-.738.067-.957.073-.417.037-.503.061-.157.057-.187.19-.033.12-.006.41.017.187.02.536-.001.175.033.55.94-.085 1.385-.155.487-.088 1.383-.169.058-.005.125.09.085.138.29.63.112.281.238.706.038.1.049.216.027.303-.261.329-.375.034-1.008.12-.33.06-1.039.124-1.517.137-2.28.22z"/><path stroke-width=".903" d="M30.886 33.057q-.148.022-.258.007l-.296.043-.24.035-.132.018-.695-.066-.062-.112q-.016.001-.039-.162-.095-.444-.178-1.024-.06-.417-.128-.666-.06-.416-.105-.622l-.077-.522q-.174-.674-.306-1.491-.134-.817-.246-1.593l-.192-1.523q-.021-.256-.096-.776-.076-.522-.128-.773-.095-.335.121-.534.137-.097.51-.15.55-.08 1.411-.235l.323-.077q.886-.189 1.11-.222.207-.03.3-.027.21-.016.292.017.079.035.154.13.089.094.128.15.213.212.43.454.328.363.524.562l1.201 1.361.58.646q-.055-.386-.058-.615l-.202-1.385-.108-1.063q-.002-.121.006-.169.009-.046.036-.066l.037-.052q.158-.174.326-.274.144-.051.234-.064l.848-.124.179-.026q.123-.002.42-.045.328-.047.524-.06l.506-.073.418-.06.178-.027q.386-.056.538.044.181.095.239.497l.007.151.02.24q-.003.091.019.241l.026.18.017.117.052.146.069.475q.023.257.11.866l.16 1.102q.04.391.143 1.09l.126.864.072.506.343 2.355.021.573q-.01.352-.177.453l-.252.052-.255.021-.67.096-.88.128-.909.131-.223.034q-.292.073-.59.01-.143-.041-.326-.15l-1.828-1.91q-.002-.016-.408-.504-.144-.162-.268-.28-.039-.056-.088-.08-.036-.04-.052-.037-.134.019-.116.139l.047.327q.007.15.056.494l.085.58.082.567q-.004.183.034.45l.044.3.033.223.026.072q.017.118-.098.165-.067.07-.235.065-.502.104-.796.176-.175.041-.618.136-.444.094-.83.15z"/><path stroke-width=".969" d="M22.544 33.92q-.08.007-.242.006-.165-.018-.392-.013l-.344-.05q-.082-.009-.131-.02-.035-.03-.02-.047-.039-.42-.15-1.107-.021-.24-.055-.416-.034-.191-.061-.318l-.095-.69q-.025-.274-.095-.69l-.061-.496q-.056-.611-.102-.948-.047-.335-.145-1.414-.091-1.013-.173-2.094-.082-1.078-.09-2.05-.015-.177.36-.326.239-.054.803-.105 1.302-.118 1.91-.221 1.895-.204 2.86-.292l.708-.064q1.322-.088 2.035-.088.257-.023.426.578.058.107.165.57.07.236.182.581.025.097.017.194l.009.096q-.001.162-.162.177-.065-.01-.194.001-.676.061-1.647.264l-.847.142q-.525.112-.83.156-.048.004-.11.204-.045.215-.057.98l.004.403q.02.21.073.271.053.044.213.03l1.432-.13q.628-.057 1.44-.05l.193-.017q.212.029.27.137.073.09.1.2l.194 1.428.004.048q.025.273-.548.373-.331.111-1.28.197-.82.074-1.064.08-.465.042-.56.067-.174.064-.208.215-.037.132-.008.454.02.209.022.6.002.194.04.61 1.045-.094 1.54-.172.543-.097 1.54-.188.064-.005.138.103.095.153.324.7.125.313.265.786.042.11.054.238.03.34-.29.369-.418.038-1.124.134-.366.066-1.154.137-1.69.153-2.541.247z"/><path stroke-width=".982" d="M16.981 34.852q-1.273.116-2.337-.38-1.192-.45-2.042-1.657-.944-1.36-1.121-3.318-.126-1.385.262-2.539.389-1.153 1.233-2.003.83-.831 2-1.332 1.172-.5 2.59-.629 2.087-.189 4.402.668l-.385 2.831-.285-.055q-.15-.036-.352-.068-.918-.147-1.347-.174-.397-.029-.64-.006-1.028.093-1.517.695-.579.694-.443 2.194.125 1.37.587 1.92.391.524 1.06.464.425-.039.957-.318-.024-.26-.103-.78l-.049-.357q-.05-.374-.116-1.107l-.04-.44q-.013-.148.03-.2.044-.069.176-.081.05.012.277-.009l1.73-.157q.766-.07 1.008-.107.44-.04.574-.036.216.029.292.135.089.092.11.32.007.082.029.146l.238 2.624-.019.15q-.009.084 0 .181l.008.082q.093 1.028.098 1.438.028.671-.037.86-.425.038-.634.09l-.357.048-.048.004q-.148.014-.165 0-.018-.015-.034-.014l-.001-.016-.05.005-.03.035.002.016-2.07.187q-.05.02-.13.028-.065.006-.124-.087-.14-.283-.193-.689-.05-.193-.117-.565-.073.844-.911 1.38-.76.514-1.966.623z"/></g><path fill="#ff19b8" stroke="#1b1b3d" stroke-width=".515" d="M58.798 38.209q-.041.006-.127.01-.089-.004-.21.004l-.183-.015-.07-.007q-.02-.015-.012-.025-.033-.22-.113-.582-.019-.127-.042-.22-.023-.1-.042-.166l-.072-.363q-.02-.144-.07-.361l-.048-.263q-.048-.321-.083-.5-.035-.176-.12-.744-.08-.534-.156-1.104-.077-.57-.11-1.085-.013-.093.18-.184.126-.035.423-.08.687-.102 1.005-.175 1-.168 1.51-.243l.37-.056q.7-.087 1.079-.108.136-.02.244.293.033.055.104.297.044.123.114.303.016.05.015.103l.008.05q.005.087-.081.1-.035-.005-.102.005-.357.054-.866.19l-.444.1q-.276.077-.435.11-.025.003-.053.111-.018.116 0 .52l.015.216q.016.11.046.139.03.023.114.01l.755-.113q.331-.05.762-.07l.102-.015q.114.01.148.065.042.046.06.104l.145.75.004.025q.022.144-.279.215-.173.07-.674.144-.432.064-.56.074-.247.036-.297.054-.09.04-.103.12-.015.07.01.24.017.11.03.317.006.103.04.324.55-.082.812-.14.285-.068.81-.146.034-.005.077.05.055.078.193.362.076.162.165.408.026.057.035.125.027.179-.143.203-.22.034-.591.105-.193.046-.609.109-.89.132-1.338.209z"/><path fill="#ff19b8" stroke="#1b1b3d" stroke-width=".526" d="M54.974 38.728q-.62.057-1.262-.027-.635-.093-1.058-.309-.134-.305-.215-.615-.082-.31-.213-.888l-.002-.026q.008-.106.098-.168.351.171.667.248.314.07.68.035l.211-.019.14-.002q.202-.019.407-.1.11-.054.142-.18l-.484-.185q-.557-.204-1.011-.454-.475-.284-.712-.765-.12-.262-.151-.585-.07-.786.366-1.311.38-.466 1.08-.715.609-.204 1.351-.272.437-.04 1.215-.014.081.012.222.016l.267.029q.302.025.442.012.009 0 .029.024l.046.04q.042.058.077.055h.008l.01-.001.033.18q.011.132.05.28.047.215.07.468.02.218.003.317-.028.179-.135.267l-.822-.03-.087.008-.122.012q-.298.025-.678.122l-.282.087q-.103.026-.102.045.02.21.307.368.138.058.274.099.135.031.17.046.665.125 1.177.537.238.19.382.415.143.224.163.442.012.132-.01.284 0 .662-.394 1.181-.39.467-1.019.727-.541.251-1.328.323z"/><path fill="#ff19b8" stroke="#1b1b3d" stroke-width=".57" d="M49.283 39.484q-1.13-.008-1.785-.194-.91-.244-1.38-.894-.546-.773-.535-2.141.007-.98.231-1.661.223-.683.683-1.116.459-.434 1.173-.628.724-.204 1.759-.197.807.007 1.518.259.871.32 1.352.97.593.774.583 2.028-.011 1.464-.453 2.277-.443.748-1.272 1.055-.677.252-1.873.243zm-.069-.922q.114.001.181-.14.145-.304.207-.959.062-.598.066-1.13l.003-.38.002-.238q.002-.418-.05-1.017-.052-.647-.192-.98-.075-.163-.18-.163-.209-.002-.306.397-.1.55-.103.997-.031.38-.038 1.188-.004.54.023.893-.004.446.086 1.036.092.495.301.496z"/><path fill="#ff19b8" stroke="#1b1b3d" stroke-width=".642" d="M39.792 40.546q-.18.017-.255-.213-.064-.112-.092-.421-.084-.927-.17-1.65-.129-1.042-.233-2.203l-.213-2.347q-.008-.095.07-.188.087-.104.182-.113l1.227-.1q.343-.02.897-.07.799-.073 1.236-.123l.392-.047q.64-.079 1.054-.116.671-.062 1.296.075.734.148 1.23.63.551.52.638 1.479.146 1.62-.609 2.42-.662.747-2.102.878l-1.459.132q.032.244.058.521.008.097.01.236l.032.352q.032.351-.108.461-.11.106-.43.135-.468.043-.648.072-.735.066-1.171.128zm3.548-3.308q.224-.02.293-.457.058-.295.05-.864-.007-.311-.042-.695l-.01-.116q-.016-.172-.1-.507-.06-.189-.123-.29-.064-.112-.156-.18-.093-.088-.2-.079-.054.006-.093.053-.028.045-.054.111-.1.203-.136.872-.015.196 0 .581 0 .592.088 1.572l.011.01q.012.01.045.018l.128-.001z"/><path fill="#ff19b8" stroke="#1b1b3d" stroke-width=".659" d="M37.651 40.858q-.043.01-.077.005-.183-.061-.315-.156-.044-.046-.055-.044-.016-.018-.037-.014l-.023-.008-.054-.035-1.207-1.15q-.095-.125-.247-.26-.093-.058-.165-.132-.057-.055-.099-.047-.032.008-.046.044-.005.035-.004.091.032.296.14.79.104.472.114.772-.003.147-.067.16l-.065.015q-.023-.008-.045-.004l-.013-.011q-.368.116-1.109.322-.72.203-1.106.287-.107.024-.175.017l-.236.052-.193.042-.096.022-.415-.044-.051-.08q-.002-.01-.02-.04l-.018-.086q-.014-.064-.074-.231l-.155-.505-.287-.948-.119-.39q-.043-.193-.086-.34-.043-.148-.077-.253l-.074-.232q-.127-.431-.212-.818l-.007-.031q.006-.024-.008-.089.007-.07-.024-.209l-.032-.194-.017-.131q-.05-.225-.165-.65-.101-.258-.193-.675-.132-.601-.118-.896.012-.407.237-.457 1.212-.266 2.472-.507.28-.062.841-.163l.42-.081q.863-.166 1.195-.238 1.396-.24 2.242.238.38.197.613.54.244.34.337.768.108.494.017.951-.076.365-.295.705-.209.327-.517.563.072.018.203.102.054.044.18.105l.175.075q.043.046.098.09.052.035.106.078l.64.511q.44.365.58.547.106.124.123.198.023.108-.044.213-.067.104-.209.27-.108.124-.261.248-.142.12-.212.214l-.348.302q-.19.164-.418.305-.01.002-.028.02-.008.014-.039.03-.058.046-.328.195-.047.044-.17.093-.028.029-.068.05-.04.02-.062.025l-.053.012q0 .056-.032.063l-.032.007zm-2.586-3.398q.332-.072.453-.448.116-.339.052-.73-.028-.23-.097-.54l-.025-.118q-.054-.247-.198-.496-.162-.325-.462-.416-.14-.07-.332-.027-.054.011-.058.147-.044.256.058.774.003.223.067.512l.06.325q.116.625.204 1.034.002.01.015.019.013.008.023.005l.078-.005z"/><path fill="#ff19b8" stroke="#1b1b3d" stroke-width=".704" d="M24.581 42.423q-1.11.1-1.728-.361-.516-.366-.774-1.25-.17-.584-.279-1.777-.078-.863-.078-1.9-.014-.163-.018-.47-.012-.246-.04-.691-.029-.457-.06-.795-.015-.175-.045-.244-.039-.161-.047-.255-.017-.186.38-.222l.702-.064q.744-.09 1.44-.083.483.003.746.038.323.053.441.196.11.166.149.598.046.527.077.971l.046.774q-.005.081.012.258.02.232.048.796.07 1.03.133 1.719.038.432.092.627.052.185.203.17.316-.028.676-.214.223-.137.311-.204l-.426-4.696q-.058-.266-.081-.522-.03-.069-.042-.198l-.01-.104q-.02-.21.055-.3.076-.077.379-.105.339-.031.873-.115.186-.016.511-.07.235-.02.337-.064.07-.007.165.008.14-.013.235-.01l.352-.02q.258-.012.65.034l.336.064q.108.026.136.07.04.044.046.115.156 1.728.244 3.475.137 2.296.243 3.464.042.467-.402.508l-.596.053q-.23.045-.848.125-.348.054-.546.073l-.536.072q-.315.028-.488-.062-.174-.09-.256-.342-.601.371-1.286.622-.685.24-1.432.307z"/><path fill="#ff19b8" stroke="#1b1b3d" stroke-width=".77" d="M14.03 43.601q-.217.02-.306-.256-.077-.133-.11-.505-.102-1.112-.206-1.978-.151-1.25-.28-2.644l-.253-2.812q-.01-.115.082-.227.105-.125.22-.136l1.471-.12q.41-.024 1.076-.085.958-.086 1.481-.146l.473-.056q.764-.095 1.262-.14.805-.074 1.556.09.88.179 1.473.756.662.624.766 1.774.177 1.943-.73 2.901-.794.897-2.52 1.054l-1.752.16q.04.292.07.624.01.116.012.282l.04.422q.038.423-.13.554-.132.128-.515.163-.563.05-.779.085-.882.08-1.404.152zm4.255-3.968q.267-.023.349-.547.072-.354.061-1.036-.008-.374-.05-.834l-.011-.14q-.02-.205-.121-.608-.072-.226-.148-.349-.076-.133-.185-.214-.114-.106-.242-.095-.064.006-.11.063-.034.054-.065.135-.12.242-.163 1.045-.018.234-.001.697 0 .709.105 1.884l.014.012q.014.011.054.022l.154-.003z"/><path fill="#ff19b8" stroke="#1b1b3d" stroke-width=".684" d="M64.483 35.674q-.227-.014-.397-.046-.306-.04-.383-.08-.042-.06-.048-.357-.019-.081-.027-.128l.005-.09-.002-.148q-.01-.035.002-.229-.017-.104-.07-.769.005-.07-.015-.14-.006-.078-.004-.101-.018-.093-.01-.23.005-.08-.002-.16-.006-.091 0-.182-.01-.229-.006-.309v-.17q.007-.138-.014-.356.005-.09-.008-.252-.069-.403-.053-.654.011-.216-.053-.472.001-.035.014-.044.023-.022.058-.031.21-.068.517-.05.104.006.286.006t.297-.006q.057.003.162-.025l1.923.112q.055.049.133.077.179.067.264.186.053.061.046.174-.027.467-.174.836l-.381 1.645-.005.08q-.037.043-.043.145l-.031.148-.005.079q-.014.227-.143.677-.097.314-.23.82 0 .023-.049.043-.046.021-.116.028-.208.045-.867.007zm1.197 2.994q-.399-.024-.624-.082l-.136-.022-.66-.038q-.41-.023-.669-.095-.114-.007-.11-.053l.023-.993q-.003-.125.006-.296.007-.114.02-.16.005-.09.03-.123l.006-.08.008-.136q.003-.057.062-.11.074-.065.153-.06.137.008.217 0l.284.017.273.016.24.013.443.027q.377.021.636.081.315.077.306.213-.023.41-.022.58-.005.094-.009.55l-.024.42q-.021.16-.07.225-.051.077-.143.095-.046-.004-.104.006-.057.01-.136.005z"/><path fill="#ff19b8" stroke="#1b1b3d" stroke-width=".727" d="M65.503 28.238q-1.237.168-1.803.232-.517.07-.794.096l-.986.122q-.108.015-.218-.067-.109-.084-.124-.192l-.359-2.641-.157-1.154-.146-.982q-.066-.493-.144-1.24-.021-.157-.073-.81l-.037-.277q-.047-.336.058-.558.046-.116.177-.134.588-.08 1.289-.151.097 0 .277-.026.396-.053.59-.067l.648-.089.277-.037q.24-.033.38.01.232.09.291.522l.002.098q.004.036 0 .183-.012.186 0 .269.018.132.08.332.045.14.052.188l.022.07.229 1.682.106.78.1.745.02.144q.013.096.125.105.037.008.158-.009l.877-.12q.321-.055.982-.144.133-.019.228.054.093.06.105.144l.312 2.294.004.024q.012.096-.076.17-.101.062-.244.093-.15.058-.488.104z"/><path fill="#ff19b8" stroke="#1b1b3d" stroke-width=".748" d="M52.462 29.567q-.162.015-.246-.228-.016-.036-.024-.123-.011-.125.015-.378.012-.162.016-.252l.023-.15q.215-1.787.454-3.149l.515-4.004q-.003-.025.03-.078.032-.053.081-.07l.062-.005q0 .011.038.008.15-.013.332-.067.184-.055.332-.068.273-.024.513-.01.112-.01.25-.01t.286-.012q.05-.005.11-.035l.224-.021.285-.026.297-.04q.086-.019.21-.03.1-.01.099-.023l.198-.017.423-.038.522-.047q.695-.064.92-.059.038-.003.102.003.074-.006.088.017.087-.007.174-.028.085-.02.16-.027.17-.053.332-.067.074-.007.152.023.078.031.165.023l.061-.018.038-.004q.04.022.08.069.053.032.056.058l1.225 3.845q.53 1.417.999 3.016.008.075.065.157l.058.232q.04.147.048.247.017.049.025.136.015.174-.048.291-.043.08-.143.089l-.162.015q-.186.016-.287.012l-.323.03-.31.028-.248.024q-.1.008-.1-.005l-.783.07-.003-.023q-.052-.021-.126-.014l-.012.014-.011.012q.003.026-.022.028l-.038.004-.098.008q-.065-.019-.251-.003-.375.01-.587.03-.085-.105-.202-.434-.105-.329-.229-.73-.043-.197-.074-.269-.256.073-.679.112l-.385.035-.36.032-.051.407q-.088.834-.169 1.04-.05.005-.122.036l-.046.03h-.013l-.05.007q-.074.005-.114-.016-.028-.023-.065-.02l-.556.076-.199.019-.186.016q-.047.03-.123.037l-.049.004-1.143.104-.111.01q-.136.025-.558.063l-.323.03q-.098.02-.284.038zm5.463-3.564-.142-.6q-.053-.172-.185-.648l-.184-.66-.154-.586q-.059-.245-.113-.429l-.027-.16q-.043-.058-.048-.108l-.02-.073q-.009.025-.004.075.004.05-.02.064l.005.05-.01.164q-.005.088-.02.202-.003.101-.017.226l-.03.355q-.066.794-.08.92 0 .14-.024.417-.018.09-.027.265l-.047.58.633-.058.085-.032.025-.003q.15-.012.226.005.049-.005.088.017l.09.017z"/><path fill="#ff19b8" stroke="#1b1b3d" stroke-width=".779" d="M52.2 30.076q-.05.005-.09-.004-.206-.099-.347-.229-.045-.062-.059-.06-.015-.025-.04-.022l-.027-.01-.057-.047-1.247-1.531q-.093-.162-.252-.342-.1-.082-.174-.18-.058-.073-.11-.07-.038.005-.061.047-.01.04-.017.104-.007.354.047.948.052.57.018.925-.023.172-.1.179l-.079.007q-.026-.01-.052-.008l-.014-.012q-.45.08-1.35.214-.874.131-1.34.174-.13.012-.21-.008l-.284.025-.232.022-.117.01-.48-.113-.049-.1q0-.011-.017-.05l-.01-.104q-.007-.077-.05-.281-.137-.783-.109-.616l-.196-1.157-.081-.475q-.022-.232-.051-.412-.03-.18-.055-.308l-.051-.283q-.087-.527-.13-.993l-.003-.038q.01-.027.004-.105.018-.08.003-.248l-.008-.234v-.157q-.025-.271-.098-.786-.082-.318-.128-.823-.065-.724-.005-1.07.074-.475.346-.499 1.462-.133 2.979-.232.336-.03 1.01-.065l.507-.033q1.037-.068 1.438-.104 1.675-.074 2.598.612.417.288.64.725.235.434.281.952.054.595-.12 1.119-.144.418-.45.784-.295.353-.691.584.081.033.222.15.058.06.197.151l.192.114q.045.06.103.12.056.047.114.108l.676.694q.461.494.6.729.105.16.115.25.011.13-.083.242-.094.114-.287.287-.145.131-.343.253-.184.121-.278.221l-.457.302q-.245.166-.534.296-.012.001-.037.017-.012.014-.05.03-.073.046-.414.181-.06.045-.214.085-.036.029-.087.046-.05.019-.076.021l-.064.006q-.007.065-.047.07l-.038.002zm-2.534-4.373q.4-.036.597-.458.187-.383.17-.85.002-.274-.032-.65l-.011-.142q-.028-.297-.16-.611-.142-.404-.482-.557-.153-.103-.385-.08-.065.004-.09.162-.09.296-.047.917-.028.264.003.614l.023.389q.041.753.086 1.243 0 .014.015.025.014.012.027.012l.092.003z"/><path fill="#ff19b8" stroke="#1b1b3d" stroke-width=".87" d="M39.684 31.432q-.072.007-.218.005-.148-.015-.35-.012l-.311-.044q-.073-.008-.117-.019-.032-.026-.019-.041-.035-.377-.134-.994-.02-.217-.048-.374-.03-.172-.055-.287l-.086-.618q-.022-.245-.085-.619l-.054-.446q-.05-.548-.093-.85-.04-.302-.128-1.27-.084-.91-.157-1.88-.073-.969-.079-1.841-.015-.16.323-.292.214-.049.72-.095 1.169-.105 1.715-.199 1.702-.183 2.567-.261l.637-.058q1.187-.08 1.828-.078.231-.021.382.518.052.098.148.511.062.213.163.524.024.086.017.174l.008.086q-.003.145-.147.16-.058-.01-.174 0-.606.055-1.479.236l-.76.128q-.472.1-.744.14-.044.004-.1.183-.042.194-.052.88l.003.363q.018.187.067.241.046.04.191.026l1.286-.116q.564-.051 1.292-.044l.174-.017q.19.027.244.125.065.081.088.181l.175 1.28.004.043q.022.246-.493.337-.298.1-1.15.176-.737.068-.954.072-.42.039-.505.06-.155.059-.186.193-.033.12-.007.407.017.188.02.538 0 .174.034.55.94-.085 1.385-.155.488-.087 1.382-.168.058-.006.126.09.085.138.29.63.112.28.238.706.039.099.05.214.026.303-.262.33-.377.033-1.01.12-.328.059-1.037.122-1.516.139-2.28.222z"/><path fill="#ff19b8" stroke="#1b1b3d" stroke-width=".903" d="M30.529 32.714q-.15.021-.258.007l-.298.043-.238.035-.135.019-.693-.066-.063-.113q-.015.002-.038-.163-.094-.441-.179-1.022-.06-.418-.128-.665-.059-.419-.104-.624l-.076-.522q-.174-.674-.308-1.491-.133-.817-.246-1.592l-.19-1.523q-.023-.255-.098-.778-.076-.52-.128-.771-.093-.337.121-.534.14-.097.511-.151.55-.08 1.41-.235l.324-.077q.884-.19 1.109-.22.209-.032.3-.03.21-.015.29.02.082.033.156.128.09.093.128.149.214.212.431.455.327.362.523.562l1.201 1.363.58.646q-.055-.388-.057-.616l-.202-1.385-.108-1.064q-.003-.122.005-.168.009-.047.036-.066l.039-.051q.157-.175.325-.276.144-.05.233-.064l.85-.123.178-.026q.121-.003.419-.046.328-.046.524-.06l.506-.073.418-.06.178-.026q.388-.057.539.043.181.095.24.497l.006.15.02.241q-.002.093.018.242l.027.178.018.12.05.143.07.477q.021.255.11.866l.16 1.104q.04.388.143 1.088l.124.864.074.507.34 2.353.024.574q-.01.352-.178.453l-.25.051-.256.021-.672.098-.878.127-.908.132-.224.032q-.293.073-.592.01-.142-.04-.325-.152l-1.828-1.908q-.003-.015-.408-.504-.145-.162-.268-.279-.039-.057-.089-.08-.034-.04-.05-.037-.134.018-.117.138l.047.328q.007.15.058.493l.083.581.082.566q-.004.183.035.452l.044.297.032.223.026.073q.017.119-.098.166-.066.07-.234.064-.502.104-.796.177-.177.04-.62.134-.44.096-.829.151z"/><path fill="#ff19b8" stroke="#1b1b3d" stroke-width=".969" d="M22.185 33.576q-.082.009-.243.007-.163-.018-.39-.014l-.345-.05q-.082-.008-.133-.02-.035-.03-.02-.046-.038-.418-.148-1.107-.023-.24-.055-.416-.033-.191-.061-.319l-.094-.689q-.026-.273-.096-.689l-.061-.497q-.056-.61-.102-.948-.047-.337-.145-1.413-.092-1.014-.174-2.094-.081-1.08-.088-2.052-.016-.177.36-.324.238-.055.802-.105 1.303-.118 1.91-.222 1.895-.204 2.86-.292l.709-.064q1.322-.087 2.035-.087.258-.024.425.578.058.108.165.57.07.235.184.582.024.096.017.193l.008.097q-.001.162-.162.176-.066-.01-.194.003-.677.06-1.648.262l-.846.142q-.525.112-.83.155-.047.005-.11.206-.047.215-.058.978l.004.405q.019.21.074.269.052.044.213.03l1.431-.13q.628-.058 1.44-.05l.192-.017q.214.029.273.138.074.09.1.2l.193 1.427.005.049q.024.273-.55.374-.33.11-1.28.197-.82.074-1.063.08-.467.042-.562.067-.172.065-.208.214-.036.133-.007.455.019.209.022.597 0 .195.039.613 1.045-.095 1.541-.172.544-.097 1.54-.188.065-.006.14.101.095.154.323.7.125.314.266.787.042.11.053.24.032.336-.29.365-.418.039-1.123.135-.368.066-1.156.137-1.69.153-2.54.246z"/><path fill="#ff19b8" stroke="#1b1b3d" stroke-width=".983" d="M16.622 34.51q-1.272.115-2.336-.38-1.192-.451-2.041-1.657-.946-1.362-1.123-3.318-.126-1.387.263-2.54.388-1.152 1.232-2.003.829-.83 2.001-1.332 1.171-.5 2.59-.628 2.088-.19 4.402.669l-.386 2.83-.284-.056q-.152-.035-.351-.067-.918-.147-1.348-.174-.397-.03-.642-.008-1.027.093-1.515.697-.578.693-.442 2.194.124 1.37.585 1.92.393.523 1.06.463.425-.039.959-.318-.023-.26-.105-.779l-.047-.358q-.051-.373-.116-1.107l-.041-.441q-.014-.146.031-.2.043-.07.173-.081.05.011.28-.008l1.728-.157q.766-.07 1.01-.108.44-.04.572-.035.216.029.291.137.09.09.112.32.007.08.029.145l.014.146.023.261.044.488.15 1.649.007.08q-.01.067-.019.15-.009.083 0 .182l.007.081q.093 1.027.098 1.438.028.672-.037.859-.424.038-.633.09l-.358.05-.049.003q-.146.014-.165-.002-.017-.015-.034-.012v-.017l-.05.004-.03.036.001.016-1.63.148-.08.008-.164.014-.197.018q-.046.02-.127.028-.067.006-.125-.088-.14-.282-.194-.689-.05-.193-.116-.564-.072.844-.91 1.38-.76.513-1.967.623z"/><path fill="#fcd120" d="m16.086 12.375.392 2.988-2.239 2.016 2.963.551 1.226 2.752 1.44-2.647 2.996-.315-2.074-2.187.627-2.948-2.72 1.296-2.611-1.506"/></svg>

