<?xml version="1.0" encoding="UTF-8" standalone="no"?>
<!-- Created with Inkscape (http://www.inkscape.org/) -->

<svg
   width="13.483582mm"
   height="25.671486mm"
   viewBox="0 0 13.483582 25.671486"
   version="1.1"
   id="svg5"
   inkscape:version="1.2.1 (9c6d41e4, 2022-07-14)"
   sodipodi:docname="grafast-wordmark-2023.svg"
   xml:space="preserve"
   inkscape:export-filename="grafast-pride.png"
   inkscape:export-xdpi="1195.2941"
   inkscape:export-ydpi="1195.2941"
   xmlns:inkscape="http://www.inkscape.org/namespaces/inkscape"
   xmlns:sodipodi="http://sodipodi.sourceforge.net/DTD/sodipodi-0.dtd"
   xmlns:xlink="http://www.w3.org/1999/xlink"
   xmlns="http://www.w3.org/2000/svg"
   xmlns:svg="http://www.w3.org/2000/svg"><sodipodi:namedview
     id="namedview7"
     pagecolor="#ffffff"
     bordercolor="#666666"
     borderopacity="1.0"
     inkscape:showpageshadow="2"
     inkscape:pageopacity="0.0"
     inkscape:pagecheckerboard="0"
     inkscape:deskcolor="#d1d1d1"
     inkscape:document-units="mm"
     showgrid="false"
     inkscape:zoom="3.3638608"
     inkscape:cx="165.13763"
     inkscape:cy="88.885961"
     inkscape:window-width="1819"
     inkscape:window-height="1234"
     inkscape:window-x="1424"
     inkscape:window-y="174"
     inkscape:window-maximized="0"
     inkscape:current-layer="layer1"
     showguides="false" /><defs
     id="defs2"><color-profile
       name="Generic-CMYK-Profile"
       xlink:href="file:///System/Library/ColorSync/Profiles/Generic%20CMYK%20Profile.icc"
       id="color-profile49588" /></defs><g
     inkscape:label="Layer 1"
     inkscape:groupmode="layer"
     id="layer1"
     transform="translate(-43.756289,-49.77337)"><g
       aria-label="!"
       transform="matrix(0.45395177,0.16186451,-0.1417307,0.56475199,-18.676057,-11.078094)"
       id="text4683-4-3-2-5-0-2-7-9-2-9-1"
       style="font-size:56.6684px;line-height:1.25;font-family:Silom;-inkscape-font-specification:Silom;text-align:center;letter-spacing:0px;text-anchor:middle;fill:#000000;fill-opacity:1;stroke:#000000;stroke-width:1.59379"><path
         d="m 170.33294,85.355005 c -0.63313,-3.132137 -1.03944,-6.564435 -1.36014,-9.690296 -0.1145,-1.419422 -0.32581,-3.00976 -0.34008,-4.363467 -0.0254,-3.205474 -1.03949,-6.402735 -1.19007,-9.406954 -0.004,-0.0778 0.0189,-0.188895 0.0567,-0.226674 0.0756,-0.07556 0.17,-0.132226 0.28334,-0.170005 1.90166,-0.543214 3.52328,-0.377173 5.44017,-0.566686 3.42624,-0.125104 7.74954,-0.796337 11.05033,0.170005 0.60447,0.188895 1.05781,0.472237 1.36004,0.850026 0.1889,0.188895 0.25737,0.552489 0.28335,0.850026 -0.81518,6.052712 -1.82061,12.708064 -2.83342,18.133888 -0.26175,1.387185 -0.56669,2.436742 -0.9067,4.136793 0,0.07556 -0.0756,0.151116 -0.22667,0.226674 -2.42321,0.403397 -9.00998,1.109403 -11.61685,0.05667 z m 10.71032,14.903785 c -3.4546,-0.12802 -6.7717,0.063 -10.42698,-0.566682 -0.20049,-0.03454 -0.56669,-0.07556 -0.56669,-0.226674 -0.46687,-3.109762 -0.0567,-5.92763 -0.0567,-8.896939 0,-0.188895 0.0944,-0.377789 0.28334,-0.566684 0.22667,-0.226673 0.47224,-0.34001 0.73669,-0.34001 3.41176,0.05601 7.1366,-0.386694 10.42698,0.170004 1.05781,0.188895 1.58672,0.510016 1.58672,0.963363 0.015,2.867712 0.17003,5.023048 0.17003,7.706902 -0.0378,0.528905 -0.13225,0.906695 -0.28334,1.133368 -0.15111,0.264452 -0.37779,0.434462 -0.68002,0.510022 -0.15111,0 -0.33976,0.0401 -0.51001,0.0567 -0.2264,0.022 -0.41558,0.0567 -0.68003,0.0567 z"
         style="font-family:'Sigmar One';-inkscape-font-specification:'Sigmar One';fill:#000000;fill-opacity:1"
         id="path7751-3-2-7-6-7-9-6-3-8"
         sodipodi:nodetypes="ccccsccccccccccsccsccccccacc" /></g><g
       aria-label="!"
       transform="matrix(0.45395177,0.16186451,-0.1417307,0.56475199,-18.961682,-11.647414)"
       id="text4683-4-3-2-5-0-2-7-9-2-7"
       style="font-size:56.6684px;line-height:1.25;font-family:Silom;-inkscape-font-specification:Silom;text-align:center;letter-spacing:0px;text-anchor:middle;fill:#00c268;fill-opacity:1;stroke:#000000;stroke-width:1.59379"><path
         d="m 170.33294,85.355005 c -0.63313,-3.132137 -1.03944,-6.564435 -1.36014,-9.690296 -0.1145,-1.419422 -0.32581,-3.00976 -0.34008,-4.363467 -0.0254,-3.205474 -1.03949,-6.402735 -1.19007,-9.406954 -0.004,-0.0778 0.0189,-0.188895 0.0567,-0.226674 0.0756,-0.07556 0.17,-0.132226 0.28334,-0.170005 1.90166,-0.543214 3.52328,-0.377173 5.44017,-0.566686 3.42624,-0.125104 7.74954,-0.796337 11.05033,0.170005 0.60447,0.188895 1.05781,0.472237 1.36004,0.850026 0.1889,0.188895 0.25737,0.552489 0.28335,0.850026 -0.81518,6.052712 -1.82061,12.708064 -2.83342,18.133888 -0.26175,1.387185 -0.56669,2.436742 -0.9067,4.136793 0,0.07556 -0.0756,0.151116 -0.22667,0.226674 -2.42321,0.403397 -9.00998,1.109403 -11.61685,0.05667 z m 10.71032,14.903785 c -3.4546,-0.12802 -6.7717,0.063 -10.42698,-0.566682 -0.20049,-0.03454 -0.56669,-0.07556 -0.56669,-0.226674 -0.46687,-3.109762 -0.0567,-5.92763 -0.0567,-8.896939 0,-0.188895 0.0944,-0.377789 0.28334,-0.566684 0.22667,-0.226673 0.47224,-0.34001 0.73669,-0.34001 3.41176,0.05601 7.1366,-0.386694 10.42698,0.170004 1.05781,0.188895 1.58672,0.510016 1.58672,0.963363 0.015,2.867712 0.17003,5.023048 0.17003,7.706902 -0.0378,0.528905 -0.13225,0.906695 -0.28334,1.133368 -0.15111,0.264452 -0.37779,0.434462 -0.68002,0.510022 -0.15111,0 -0.33976,0.0401 -0.51001,0.0567 -0.2264,0.022 -0.41558,0.0567 -0.68003,0.0567 z"
         style="font-family:'Sigmar One';-inkscape-font-specification:'Sigmar One';fill:#00c268;fill-opacity:1"
         id="path7751-3-2-7-6-7-9-6-7"
         sodipodi:nodetypes="ccccsccccccccccsccsccccccacc" /></g></g></svg>
