<svg xmlns="http://www.w3.org/2000/svg" width="751.11894" height="669.03003" viewBox="0 0 751.11894 669.03003" xmlns:xlink="http://www.w3.org/1999/xlink"><path d="M86.15177,669.03003l-.65359-.24268c-22.14285-8.35199-39.49097-26.02118-47.43555-48.31348-2.15253-6.19543-3.51642-12.63721-4.05945-19.1734l-.05334-.6239,.616,.11023c7.35355,1.31976,15.07318,2.04901,18.5127,2.33435l-19.29642-12.76855,.03485-.66339c.30045-6.23358,4.36337-11.65723,10.26117-13.69775,5.95404-2.19873,12.64682-.55408,16.90366,4.15381,1.91843,2.08209,3.94659,4.1781,5.90768,6.20538,6.73965,6.96545,13.7088,14.16803,18.11551,22.6709,6.62744,13.1012,6.98718,28.49396,.979,41.8905l.16779,18.11798Z" fill="#f2f2f2"/><path d="M476.58878,656.65717l-.00781-.06909c-.85303-18.93866-4.328-37.6676-10.32568-55.65173l-.00555-.02979c-.34991-1.84698-.24835-3.75122,.29614-5.55048,1.67511-5.15698,6.86951-8.3139,12.21851-7.42584,5.52545,1.03821,11.23999,.0625,16.10791-2.75031,3.09161-1.7934,6.84296-2.04169,10.14392-.67139,3.11261,1.26874,5.4411,3.93585,6.27808,7.19122,.06537,.25598,.1228,.51453,.17157,.77765,.17554,19.02777,3.67065,37.87897,10.32806,55.70496l.00427,.02301c.69641,3.68109-.41486,7.47278-2.98798,10.19568-2.27423,2.30829-5.46118,3.47919-8.6889,3.19238-5.79425-.3949-11.7536,.78033-18.21826,3.59479-2.25793,1.00482-4.79736,1.18311-7.17352,.5036-4.20258-1.23163-7.35205-4.72693-8.14075-9.03467Z" fill="#41c044"/><path d="M291.36612,396.49957v248.70038h174.23083v-248.70038c.00604-3.67194-2.38434-6.91809-5.89258-8.00223-.80548-.26602-1.64941-.39709-2.49762-.38791h-157.42621c-4.63818-.00897-8.40546,3.74374-8.41443,8.3819v.00824Zm67.99487,85.45435c.09454-10.27203,8.49835-18.52258,18.77045-18.42798,10.13855,.09332,18.33466,8.28937,18.42798,18.42798v28.85669c-.04858,10.27203-8.4151,18.55981-18.68713,18.51129-10.20349-.04828-18.46307-8.30786-18.51129-18.51129v-28.85669Z" fill="#f2f2f2"/><path d="M290.83273,637.24628v23.98254c.00818,2.58527,2.09485,4.6828,4.68005,4.70435h165.93768c2.58881-.01294,4.68054-2.11548,4.68011-4.70435v-23.98254h-175.29785Z" fill="#e6e6e6"/><path d="M17.27673,21.8002V475.8916c.00954,12.04932,9.77504,21.81482,21.82434,21.82434H712.01792c12.04932-.00946,21.81488-9.77502,21.82434-21.82434V21.8002c-.02863-12.03748-9.78687-21.78493-21.82434-21.8002H39.10108c-12.03748,.01533-21.79568,9.76275-21.82434,21.8002Z" fill="#e6e6e6"/><path d="M706.40421,15.76201H44.71475c-6.44543,.01402-11.66324,5.24272-11.66382,11.68817V470.2901c.01108,6.43719,5.22665,11.65277,11.66382,11.66388H706.40421c6.43719-.01111,11.65277-5.22668,11.66382-11.66388V27.45016c-.00061-6.44545-5.21838-11.67413-11.66382-11.68816Zm-166.91357,314.618c-1.9776,3.90741-5.98883,6.36639-10.36816,6.35599l-.06934-.00488c-6.34326-.88373-12.70996-1.46646-19.10022-1.74823,.99213,.71051,1.86517,1.57404,2.58655,2.55829,1.85468,2.65717,2.42456,6.00427,1.55371,9.12549-1.44531,5.625-1.37695,11.69873,.21094,18.56836,.57605,2.40332,.28809,4.93268-.81348,7.14499-1.9776,3.90741-5.98883,6.36639-10.36816,6.35599l-.06934-.00488c-15.14862-2.10992-30.48572-2.51855-45.72522-1.2182-.0603,.38434-.13586,.76935-.23474,1.15375-1.44531,5.625-1.37695,11.69873,.21094,18.56833,.57605,2.40332,.28809,4.93268-.81348,7.14502-1.9776,3.90741-5.98883,6.36639-10.36816,6.35602l-.06934-.00488c-15.55774-2.16577-31.31287-2.5368-46.95532-1.10583-.11859,3.90643,.28711,7.81116,1.2063,11.60974,.57605,2.40332,.28809,4.93268-.81348,7.14502-1.9776,3.90741-5.98883,6.36639-10.36816,6.35602l-.06934-.00488c-18.77649-2.61621-37.82507-2.61621-56.60156,0h-.03027c-1.87982,.00714-3.73358-.44012-5.40332-1.30371-4.76489-2.58777-6.9212-8.27087-5.07227-13.36816,.56732-1.60468,.98889-3.2572,1.25964-4.9375-17.20776-1.98346-34.59747-1.77869-51.75378,.60938h-.03027c-1.87985,.00714-3.73358-.44012-5.40332-1.30371-4.76486-2.58777-6.9212-8.27087-5.07227-13.36816,2.02881-5.24332,2.11194-11.04001,.23438-16.33936-.8848-2.48486-.88495-5.19897-.00061-7.68399-12.93387-.65909-25.90109-.09149-38.72791,1.69519h-.03027c-1.87985,.00714-3.73358-.44012-5.40332-1.30371-4.76486-2.5878-6.9212-8.2709-5.07227-13.36816,2.02881-5.24332,2.11194-11.04001,.23438-16.33936-1.19934-3.36688-.75909-7.10059,1.19043-10.09619,1.81525-2.82895,4.86237-4.63177,8.21582-4.86084,.26367-.01758,.52832-.02686,.7959-.02686,6.57172,1.1488,13.207,1.89835,19.86938,2.24451-4.25015-2.79349-6.0307-8.13666-4.30591-12.92126,2.02881-5.24332,2.11194-11.04001,.23438-16.33936-1.19934-3.36688-.75909-7.10059,1.19043-10.09619,.08435-.129,.18262-.24359,.27148-.3681-4.74121,.32703-9.47134,.81885-14.19043,1.47552h-.03027c-1.87985,.00714-3.73358-.44012-5.40332-1.30371-4.76486-2.5878-6.9212-8.2709-5.07227-13.36816,2.02881-5.24332,2.11194-11.04001,.23438-16.33936-1.19934-3.36688-.75909-7.10059,1.19043-10.09619,1.81525-2.82895,4.86237-4.63177,8.21582-4.86084,.26367-.01758,.52832-.02686,.7959-.02686,7.90204,1.38345,15.89456,2.18805,23.91382,2.40741-2.04593-2.94852-2.54843-6.70126-1.35034-10.08417,2.02881-5.24332,2.11194-11.04001,.23438-16.33936-1.19934-3.36688-.75909-7.10059,1.19043-10.09619,1.81525-2.82895,4.86237-4.63177,8.21582-4.86084,.26367-.01758,.52832-.02686,.7959-.02686,6.68707,1.16946,13.43988,1.92548,20.22,2.26367-1.4566-2.75803-1.69461-5.99921-.65649-8.94043,2.02881-5.24332,2.11194-11.04001,.23438-16.33936-1.19934-3.36688-.75909-7.10059,1.19043-10.09619,1.81525-2.82895,4.86237-4.63174,8.21579-4.86084,.26367-.01758,.52832-.02686,.7959-.02686,7.86853,1.37735,15.82672,2.18082,23.81177,2.40405-1.0871-2.56848-1.17566-5.45041-.24829-8.08081,2.02881-5.24332,2.11194-11.04001,.23438-16.33936-1.19934-3.36688-.75909-7.10059,1.19043-10.09619,1.81525-2.82895,4.86237-4.63176,8.21582-4.86084,.26367-.01758,.52832-.02686,.7959-.02686,18.74054,3.29855,37.9129,3.30104,56.6543,.00732h.02344c1.44641,.29802,2.93835,.29802,4.38477,0h.02344c18.74139,3.29372,37.91376,3.29123,56.6543-.00732,.26758,0,.53223,.00928,.7959,.02686,3.35345,.22908,6.40057,2.03189,8.21582,4.86084,1.94952,2.99561,2.38977,6.72931,1.19043,10.09619-1.87756,5.29935-1.79443,11.09604,.23438,16.33936,.92737,2.6304,.83881,5.51233-.24829,8.08081,7.98505-.22324,15.94324-1.0267,23.81177-2.40405,.26758,0,.53223,.00928,.7959,.02686,3.35345,.22906,6.40057,2.03189,8.21582,4.86084,1.94952,2.99561,2.38977,6.72931,1.19043,10.09619-1.87756,5.29935-1.79443,11.09604,.23438,16.33936,1.03809,2.94122,.80011,6.1824-.65649,8.94043,6.78009-.3382,13.5329-1.09418,20.21997-2.26367,.26758,0,.53223,.00928,.7959,.02686,3.35345,.22906,6.40057,2.03189,8.21582,4.86084,1.94952,2.99561,2.38977,6.72931,1.19043,10.09619-1.87756,5.29935-1.79443,11.09604,.23438,16.33936,1.20142,3.39148,.69336,7.15421-1.3645,10.10559,.89288,.67404,1.68286,1.47458,2.34497,2.37634,1.85468,2.65717,2.42456,6.00427,1.55371,9.12549-1.44531,5.625-1.37695,11.69873,.21094,18.56836,.57605,2.40332,.28809,4.93268-.81348,7.14499-.40302,.78754-.89362,1.52704-1.46252,2.20447,4.68103-.41141,9.35052-1.02509,14.00842-1.84119h.02344c3.74634-.01315,7.27173,1.77115,9.47949,4.79785,1.85468,2.65717,2.42456,6.00427,1.55371,9.12549-1.44531,5.625-1.37695,11.69873,.21094,18.56836,.57605,2.40329,.28802,4.93265-.81348,7.14496Z" fill="#fff"/><path d="M684.94241,76.76521H65.80228c-1.3598-.02995-2.43787-1.15657-2.40793-2.51637,.02902-1.31764,1.09027-2.37889,2.40793-2.40791H684.94241c1.3598,.02995,2.43787,1.15657,2.4079,2.51637-.02899,1.31764-1.09027,2.37889-2.4079,2.40791Z" fill="#e6e6e6"/><path d="M382.85239,422.93994l-.06934-.00488c-18.77649-2.61621-37.82507-2.61621-56.60156,0h-.03027c-1.87982,.00714-3.73358-.44012-5.40332-1.30371-4.76489-2.58777-6.9212-8.27087-5.07227-13.36816,2.02881-5.24335,2.11194-11.03998,.23438-16.33936-1.19934-3.36688-.75909-7.10059,1.19043-10.09619,1.81525-2.82895,4.86237-4.63177,8.21582-4.86084,.26367-.01758,.52832-.02686,.7959-.02686,18.74054,3.29855,37.9129,3.30106,56.6543,.00732h.02344c3.74634-.01315,7.27173,1.77115,9.47949,4.79785,1.85468,2.6572,2.42456,6.00427,1.55371,9.12549-1.44531,5.625-1.37695,11.69873,.21094,18.56836,.57605,2.40332,.28809,4.93268-.81348,7.14502-1.9776,3.90741-5.98883,6.36639-10.36816,6.35596Z" fill="#41c044"/><path d="M440.59525,324.89316l-15.10559-12.50043c-11.3277,5.93741-28.56433,29.64163-28.56433,29.64163l-39.76385,28.59866c-4.77539,.22745-8.46222,4.28305-8.2348,9.05844s4.28302,8.46222,9.05841,8.2348c3.099-.14761,5.88208-1.94238,7.29492-4.70453l54.02759-28.54996,21.28766-29.77863Z" fill="#ffb8b8"/><path d="M466.08029,277.31686h0c8.71851,7.38367,9.8006,20.43704,2.41693,29.15555-.82739,.97696-1.74371,1.875-2.73712,2.68259l-9.6059,7.80899s-23.96075,34.49338-36.43274,38.49512l-32.0191,16.72754-14.43756-14.47549,29.0188-23.6492s13.34698-12.62436,14.68341-21.86572c.81842-5.65958,10.39703-21.07626,19.99786-32.51083,7.3689-8.69266,20.3894-9.76578,29.08209-2.39685l.03333,.02832Z" fill="#3f3d56"/><polygon points="435.03681 651.67199 421.3898 651.67101 414.8978 599.031 435.0398 599.03197 435.03681 651.67199" fill="#ffb6b6"/><path d="M435.51743,665.90845l-41.96674-.00159v-.53076c.00067-9.02106,7.31354-16.33386,16.33459-16.33435h.00098l7.66577-5.81561,14.30261,5.81653,3.66339,.00012-.00061,16.86566Z" fill="#2f2e41"/><polygon points="539.02078 579.84197 532.55783 591.86102 483.11981 572.65301 492.65881 554.91302 539.02078 579.84197" fill="#ffb6b6"/><path d="M551.78775,586.15973l-19.87402,36.96259-.46747-.25134c-7.94525-4.27234-10.92328-14.17621-6.65198-22.12201l.00049-.00092-1.49231-9.50574,11.89581-9.84308,1.73486-3.22662,14.85461,7.98712Z" fill="#2f2e41"/><path d="M409.23508,410.61041l-12.04492,96.35956,6.02246,32.3056,108.40454,47.49219,6.02246-19.573c-27.70959-16.95575-57.33087-42.61707-75.995-44.50348,0,0-1.54816-17.10034,11.823-27.65363,2.69757-2.12909,2.10748-5.00983,3.19849-7.62085,.75043-1.79584,3.73456-3.66571,4.49908-5.50824,.99054-2.38715-.23529-4.75934,.76068-7.18524,.56-1.36401,2.68274-1.44965,3.23932-2.81476,.9494-2.32855,.32776-5.9339,1.25287-8.23468,1.97656-4.91571,3.87689-9.72302,5.612-14.22961,5.40106-14.02771,9.20203-25.14154,8.72198-27.54163-1.50568-7.5282-71.51697-11.29224-71.51697-11.29224Z" fill="#2f2e41"/><path d="M407.16049,506.69135l-6.30133,40.69318,15.90411,83.04614h21.07867c7.57275-27.90393,7.96332-64.57837,.75281-95.60675l-31.43427-28.13257Z" fill="#2f2e41"/><path d="M420.70291,292.87839l9.71704-16.93222,10.43311-8.36954,19.573-3.01123,5.43787,4.1813h0c19.56995,29.91022,26.86786,66.20883,20.37823,101.35834l-1.52759,8.27393-.96967,5.25189,.42004,6.27756-3.26642,9.13919,.44934,6.69214,.23999,3.5744,.24084,3.5871,.33618,5.00714c.60181,2.85773-2.42859,2.4809-2,5,.75269,4.42377,4.12842,10.97888-1,11l-53-11c-13.46436,.05548-26-16-13-29l7.53802-101.03Z" fill="#3f3d56"/><circle cx="445.51114" cy="234.11192" r="25.73653" fill="#ffb8b8"/><path d="M445.94705,259.11737c3.76575,.05875,7.52966-.20432,11.25061-.78625,3.68823-.75,11.93921-6.79636,14.23932-10.43481h0c1.70886-2.70331,2.80164-6.92474,3.41754-9.98981,1.67749-8.20267-.2016-16.73196-5.17072-23.47034-.9444-1.39371-2.24786-2.50623-3.77264-3.21994-.13513-.05286-.27423-.09967-.41473-.13971-2.2218-.58459-4.21814-1.81989-5.73279-3.54733-.2937-.3494-.61218-.67719-.953-.9808-1.71191-1.44467-3.74139-2.46375-5.92255-2.97385-3.52063-.94226-8.61578-.00693-15.14362,2.78265-3.2796,1.40155-6.86627,.89432-9.62549,.29581-.31494-.06082-.63849,.05005-.84998,.29123-1.17389,1.10208-2.72144,1.71896-4.3316,1.72668-.98627,.0433-2.02094,1.40884-3.27161,3.18954-.28375,.40421-.61493,.87601-.85376,1.16293l-.03204-.55127-.5578,.61499c-2.87,3.16342-2.63208,8.05444,.53137,10.92441,.85016,.77133,1.86139,1.34372,2.96027,1.67563,.99207,.26395,2.00848,.42593,3.03345,.4834,.62085,.05585,1.263,.11362,1.87842,.2204,4.01801,.82278,7.30823,3.69604,8.66473,7.56659,.56842,1.58527,2.31427,2.40964,3.8996,1.84125,.24896-.08929,.48523-.21057,.70294-.36081,1.30121-1.01328,3.01599-1.32553,4.59088-.836,.67053,.37286,1.19244,.9649,1.47833,1.67688,.34735,.79321,.92316,1.46494,1.65387,1.92957,2.49939,1.2886,2.67163,6.99725,1.77399,11.7561-.86523,4.5871-2.57568,7.90546-4.15936,8.06949-1.21918,.12613-1.35858,.21274-1.4469,.42834l-.07886,.19299,.13696,.18057c.67334,.24411,1.39136,.34012,2.10516,.28146Z" fill="#2f2e41"/><path d="M393.85239,243.93994l-.06934-.00488c-18.77649-2.61621-37.82507-2.61621-56.60156,0h-.03027c-1.87982,.00714-3.73358-.44012-5.40332-1.30371-4.76489-2.5878-6.9212-8.2709-5.07227-13.36816,2.02881-5.24332,2.11194-11.04001,.23438-16.33936-1.19934-3.36688-.75909-7.10059,1.19043-10.09619,1.81525-2.82895,4.86237-4.63177,8.21582-4.86084,.26367-.01758,.52832-.02686,.7959-.02686,18.74054,3.29855,37.9129,3.30106,56.6543,.00732h.02344c3.74634-.01315,7.27173,1.77115,9.47949,4.79785,1.85468,2.6572,2.42456,6.00427,1.55371,9.12549-1.44531,5.625-1.37695,11.69873,.21094,18.56836,.57605,2.40332,.28809,4.93268-.81348,7.14499-1.9776,3.90741-5.98883,6.36639-10.36816,6.35599Z" fill="#41c044"/><path d="M417.91947,304.55588l10.64954-16.46286c-7.22046-10.55627-32.77655-24.90469-32.77655-24.90469l-33.04956-36.14938c-.78394-4.71609-5.24255-7.90378-9.95868-7.11984-4.71606,.78391-7.90375,5.24255-7.11981,9.95865,.50873,3.06055,2.61646,5.61478,5.52478,6.69519l34.66803,50.32104,32.06226,17.6619Z" fill="#ffb8b8"/><path d="M468.14798,324.30655h0c-6.31427,9.52161-19.15173,12.1217-28.67334,5.80746-1.06696-.70755-2.06592-1.51263-2.98407-2.40485l-8.87799-8.62753s-37.2149-19.43216-42.64673-31.35101l-24.3844-34.58673,16.34985-14.74942,28.41852,25.83398s13.08417,15.1301,22.41833,15.37735c5.71643,.15143,22.14685,7.86285,34.625,16.06161,9.49426,6.30258,12.08167,19.10843,5.77905,28.60269l-.02423,.03644Z" fill="#3f3d56"/><path d="M220.23819,665.75885l-.06934-.00488c-18.77649-2.61621-37.82507-2.61621-56.60156,0h-.03027c-1.87985,.00714-3.73355-.44012-5.40332-1.30371-4.76486-2.58777-6.9212-8.27087-5.07227-13.36816,2.02881-5.24335,2.11194-11.03998,.23438-16.33936-1.19934-3.36688-.75909-7.10059,1.19043-10.09619,1.81525-2.82898,4.86237-4.63177,8.21582-4.86084,.26367-.01758,.52832-.02686,.7959-.02686,18.74051,3.29858,37.91293,3.30103,56.6543,.00732h.02344c3.74634-.01318,7.27173,1.77112,9.47949,4.79785,1.85468,2.65717,2.42453,6.00427,1.55371,9.12549-1.44531,5.625-1.37701,11.69873,.21094,18.56836,.57605,2.40332,.28809,4.93268-.81348,7.14502-1.97763,3.90741-5.98883,6.36639-10.36816,6.35596Z" fill="#41c044"/><path d="M236.23819,623.75885l-.06934-.00488c-18.77649-2.61621-37.82507-2.61621-56.60156,0h-.03027c-1.87985,.00714-3.73355-.44012-5.40332-1.30371-4.76486-2.58777-6.9212-8.27087-5.07227-13.36816,2.02881-5.24335,2.11194-11.03998,.23438-16.33936-1.19934-3.36688-.75909-7.10059,1.19043-10.09619,1.81525-2.82898,4.86237-4.63177,8.21582-4.86084,.26367-.01758,.52832-.02686,.7959-.02686,18.74051,3.29858,37.91293,3.30103,56.6543,.00732h.02344c3.74634-.01318,7.27173,1.77112,9.47949,4.79785,1.85468,2.65717,2.42453,6.00427,1.55371,9.12549-1.44531,5.625-1.37701,11.69873,.21094,18.56836,.57605,2.40332,.28809,4.93268-.81348,7.14502-1.97763,3.90741-5.98883,6.36639-10.36816,6.35596Z" fill="#41c044"/><path d="M96.22534,635.20837l.04288-.05469c12.68781-14.08618,23.36115-29.86365,31.71509-46.88165l.017-.02509c1.04739-1.56104,2.45654-2.84583,4.10742-3.74493,4.81326-2.49664,10.72867-1.09827,13.91461,3.28925,3.20615,4.61835,7.96078,7.93518,13.40213,9.34937,3.46072,.89319,6.30658,3.34985,7.6954,6.64313,1.32602,3.08868,1.11188,6.62268-.57739,9.52863-.13318,.22821-.2738,.45264-.42371,.67426-13.23282,13.67407-23.9776,29.55273-31.75067,46.92126l-.01312,.01941c-2.08826,3.11035-5.5415,5.03058-9.28549,5.16327-3.24008,.0473-6.3317-1.35614-8.42899-3.82629-3.84921-4.34894-8.91824-7.69556-15.49789-10.22955-2.31339-.86951-4.24704-2.52533-5.46222-4.67731-2.1283-3.82739-1.91748-8.52759,.54495-12.14905Z" fill="#41c044"/><path d="M749.93448,667.284l-748.75,.30731c-.65759-.00342-1.1879-.53931-1.18446-1.1969,.0034-.65271,.53172-1.18103,1.18446-1.18445l748.75-.30731c.65759,.00342,1.18787,.53931,1.18445,1.1969-.00342,.65271-.53168,1.18103-1.18445,1.18445Z" fill="#cacaca"/><g><ellipse cx="160.25148" cy="45.26305" rx="8.45661" ry="8.64507" fill="#3f3d56"/><ellipse cx="189.46523" cy="45.26305" rx="8.45661" ry="8.64507" fill="#3f3d56"/><ellipse cx="218.67899" cy="45.26305" rx="8.45661" ry="8.64507" fill="#3f3d56"/><path d="M251.99041,52.09584c-.25977,0-.51904-.10059-.71484-.30078l-5.70605-5.83301c-.38037-.38867-.38037-1.00977,0-1.39844l5.70605-5.83252c.38721-.39453,1.021-.40088,1.41406-.01562,.39502,.38623,.40186,1.01953,.01562,1.41406l-5.02197,5.1333,5.02197,5.13379c.38623,.39453,.37939,1.02783-.01562,1.41406-.19434,.19043-.44678,.28516-.69922,.28516Z" fill="#3f3d56"/><path d="M261.57879,52.09584c-.25244,0-.50488-.09473-.69922-.28516-.39502-.38623-.40186-1.01904-.01562-1.41406l5.02148-5.13379-5.02148-5.1333c-.38623-.39453-.37939-1.02783,.01562-1.41406,.39404-.38672,1.02783-.37939,1.41406,.01562l5.70557,5.83252c.38037,.38867,.38037,1.00977,0,1.39844l-5.70557,5.83301c-.1958,.2002-.45508,.30078-.71484,.30078Z" fill="#3f3d56"/><path d="M560.08861,37.61887h-10.60999c-1.21002,0-2.19,.97998-2.19,2.19v10.62c0,1.21002,.97998,2.19,2.19,2.19h10.60999c1.21002,0,2.20001-.97998,2.20001-2.19v-10.62c0-1.21002-.98999-2.19-2.20001-2.19Z" fill="#3f3d56"/><path d="M534.08861,37.61887h-10.60999c-1.21002,0-2.19,.97998-2.19,2.19v10.62c0,1.21002,.97998,2.19,2.19,2.19h10.60999c1.21002,0,2.20001-.97998,2.20001-2.19v-10.62c0-1.21002-.98999-2.19-2.20001-2.19Z" fill="#3f3d56"/><path d="M584.58861,38.11887h-10.60999c-1.21002,0-2.19,.97998-2.19,2.19v10.62c0,1.21002,.97998,2.19,2.19,2.19h10.60999c1.21002,0,2.20001-.97998,2.20001-2.19v-10.62c0-1.21002-.98999-2.19-2.20001-2.19Z" fill="#3f3d56"/><path d="M424.66692,42.15885h-84.81c-1.48004,0-2.67004,1.20001-2.67004,2.67004s1.19,2.66998,2.67004,2.66998h84.81c1.46997,0,2.66998-1.20001,2.66998-2.66998s-1.20001-2.67004-2.66998-2.67004Z" fill="#3f3d56"/></g></svg>