<svg xmlns="http://www.w3.org/2000/svg" width="300" height="200" viewBox="0 0 79.375 52.917"><title>Holistic!</title><path fill="#231f20" d="M56.476 28.025c.798 1.274 1.083 2.75.847 4.39-.447 3.112-2.571 4.773-6.31 4.94-.241 2.054-1.019 3.93-2.202 5.3-1.428 1.655-3.402 2.53-5.71 2.53a8.626 8.626 0 0 1-.504-.015c-1.835-.096-3.633-1.003-5.095-2.563-1.05 1.77-2.856 2.894-4.68 2.894a5.15 5.15 0 0 1-.305-.01c-3.235-.21-4.574-2.9-4.765-5.265-.485.169-1.498.467-2.602.467-1.105 0-2.01-.298-2.693-.883-.871-.748-1.535-2.51-.529-4.276 0 0 .281-.341.612-.603.322-.253.477-.334.477-.334s-.313-.124-.86.014c-.45.112-.862.416-1.167.902-2.657-.32-5.962-2.774-6.02-7.12-.012-.952.428-3.227 2.184-5.007 1.465-1.484 3.448-2.237 5.893-2.237.289 0 .586.01.888.032-.002-1.016.232-4.712 3.618-5.869a6.165 6.165 0 0 1 1.999-.325c1.686 0 3.094.606 3.901 1.045.035.649.293 1.095.293 1.095s.378-.871 1.18-1.764c1.445-1.393 4.275-3.554 7.92-3.554.248 0 .5.01.747.03 3.25.26 6.365 2.66 7.656 5.873a6.297 6.297 0 0 1 2.706-.631c2.844 0 5.422 2.13 5.996 4.954.515 2.528-.782 4.752-3.475 5.99zm4.433-6.388c-.483-2.375-2.246-4.307-4.448-5.101a6.535 6.535 0 0 0-2.601-.548c-.702 0-1.401.113-2.09.337-1.176-2.257-3.205-4.042-5.5-4.897a8.751 8.751 0 0 0-2.719-.68 9.999 9.999 0 0 0-.8-.032c-4.48 0-7.716 2.963-8.962 4.317a10.452 10.452 0 0 0-.968-.418c-.885-.372-2.061-.721-3.365-.721-.767 0-1.513.122-2.216.361-2.96 1.012-3.911 3.838-4.06 5.803a11.74 11.74 0 0 0-.227-.002c-2.633 0-4.777.82-6.373 2.439-1.662 1.683-2.397 4.025-2.378 5.49.052 3.973 2.613 6.5 5.164 7.423.483.207.97.356 1.443.446-.43 1.598.101 3.178 1.114 4.047.397.342.854.6 1.366.774.626.283 1.348.428 2.158.428.614 0 1.197-.083 1.693-.19.214 1.008.613 1.929 1.171 2.676a5.254 5.254 0 0 0 2.491 1.84 5.752 5.752 0 0 0 2.318.482c1.79 0 3.502-.899 4.698-2.408a8.604 8.604 0 0 0 2.54 1.482c.808.346 1.65.55 2.502.595a10.179 10.179 0 0 0 .539.014c2.51 0 4.66-.954 6.22-2.762 1.16-1.346 1.958-3.136 2.282-5.105 4.662-.407 6.055-3.17 6.387-5.48.221-1.536.024-2.944-.586-4.2 1.191-.661 2.081-1.52 2.652-2.56.64-1.164.831-2.495.555-3.85"/><path fill="#fefefe" d="M53.955 17.081c-.91 0-1.82.212-2.706.631-1.291-3.213-4.406-5.614-7.656-5.873a9.509 9.509 0 0 0-.746-.03c-4.773 0-8.152 3.707-8.851 4.54-.55-.353-2.314-1.362-4.444-1.362a6.19 6.19 0 0 0-1.998.325c-3.387 1.157-3.62 4.853-3.62 5.869a12.58 12.58 0 0 0-.887-.032c-2.445 0-4.428.753-5.893 2.237-1.756 1.78-2.196 4.055-2.183 5.008.062 4.669 3.874 7.156 6.601 7.156.122 0 .24-.005.356-.016-1.006 1.765-.342 3.528.529 4.276.682.585 1.588.883 2.693.883 1.104 0 2.117-.298 2.602-.467.191 2.366 1.53 5.055 4.765 5.265.1.005.203.01.305.01 1.824 0 3.63-1.125 4.68-2.894 1.462 1.56 3.26 2.467 5.095 2.563.169.01.339.015.504.015 2.308 0 4.282-.875 5.71-2.53 1.183-1.37 1.96-3.246 2.201-5.3 3.74-.167 5.864-1.828 6.31-4.94.237-1.64-.048-3.115-.846-4.39 2.693-1.238 3.99-3.462 3.476-5.99-.575-2.825-3.153-4.954-5.997-4.954"/><g fill="#1b1b3d" stroke="#1b1b3d"><path stroke-width=".648" d="M66.282 38.258q-.757-.088-1.253-.215-.642-.166-1.141-.467l-.194-.127q-.118-.095-.2-.174-.343-.365-.537-.794-.17-.228-.289-.614-.217-.837-.09-1.948.152-1.308.804-2.23.578-.885 1.418-1.323.853-.447 1.857-.4l.14.004.148.017q.894.103 1.883.589.086.056.38.229.293.173.537.376l-.377 1.465-.658-.25q-.355-.133-.676-.17-.642-.074-1.018.37-.402.465-.533 1.599-.042.366-.025.52-.038.726.198 1.102.23.328.596.37.344.04.793-.129.386-.13.856-.377l-.103 1.892q-.494.36-1.225.566-.697.187-1.291.119z"/><path stroke-width=".71" d="M58.424 37.576q-.088-.002-.162-.067-.075-.077-.11-.19-.047-.229-.066-.507-.011-.089-.008-.24l.003-.164.043-1.564q.015-.796.067-1.564l.077-3.987q.003-.126.167-.123.87.017 1.299.012l1.263.024q.036 0 .062-.01.026-.013.064-.012.165-.023.454-.004.216.004.455.046.074.052.112.028.026 0 .101-.024.191.004.29.031.114.028.175.118.06.114.095.279.01.126.003.53l-.047 2.46-.004.19q-.014.1-.021.454-.007.38-.037.592l-.023.567q-.016.19-.023.48l-.017.201-.014.808q-.014.757-.088 1.285-.004.177-.096.353-.227-.006-.657.012-.202-.005-.265.02l-.126-.002-.038-.001q-.088-.002-.087-.027-.101-.027-.114-.027l-.102.048-1.16-.023q-.014.013-.203.01l-.48-.01-.466-.009z"/><path stroke-width=".726" d="M52.072 36.731q-.18-.02-.242-.275-.143-.446-.015-1.562.125-1.079.325-2.474.064-.447.172-1.384l-.032-.057-1.424-.164q-.167-.02-.25-.21-.067-.204-.08-.543-.02-.393.063-1.112l.02-.179q.015-.128.036-.204l.036-.308q.009-.077.093-.119.084-.055.19-.07.132-.023.39.007l.975.112q.32.037.486.069l.473.066 4.622.534q.5.057.652.088.064.021.179.048.113.025.16.07.085.049.09.115.02.053.007.17l-.244 2.118q-.017.14-.137.178-.081.018-.21.003l-.835-.096q-.294-.034-.444-.079l-.387-.044q-.115-.013-.134.037-.001.012-.016.037-.014.011-.017.036l-.072.63q-.023.194-.048.294-.043.371-.24 1.624l-.069.383q-.088.535-.142.777l-.14 1.219q-.05.436-.245.531-.173.045-.239.05l-.322-.024q-.501-.058-.71-.055l-1.349-.143q-.258-.018-.926-.095z"/><path stroke-width=".775" d="M45.978 36.731q-.97-.112-1.932-.445-.945-.345-1.53-.814-.107-.513-.132-1.015-.025-.503-.043-1.435l.005-.04q.046-.161.206-.226.484.374.945.594.462.206 1.037.272l.329.038.216.04q.315.036.655-.023.186-.047.277-.232l-.685-.44q-.79-.493-1.408-1.022-.64-.587-.851-1.402-.102-.442-.043-.95.142-1.232.982-1.898.735-.594 1.89-.753 1-.12 2.163.014.686.079 1.874.368.119.042.335.094l.402.13q.457.136.676.161.012.002.035.046l.061.077q.043.102.098.108l.028.003-.006.29q-.023.206-.009.443.002.348-.044.745-.04.342-.098.489-.1.265-.293.368l-1.254-.311-.33-.038q-.465-.054-1.079-.026l-.462.042q-.168.009-.17.035-.039.33.352.667.193.132.39.238.197.093.248.127.98.404 1.638 1.201.304.369.453.76.15.392.11.734-.023.206-.106.432-.214 1.017-.985 1.69-.749.594-1.798.792-.913.213-2.146.071z"/><path stroke-width=".825" d="M37.709 35.792q-.103-.008-.184-.087-.081-.095-.115-.23-.036-.269-.04-.592-.007-.103.007-.278l.015-.191.16-1.81q.073-.922.187-1.81l.369-4.62q.012-.145.201-.13 1.01.079 1.507.105l1.462.117q.044.003.074-.009t.075-.008q.192-.015.527.026.248.02.522.086.083.066.13.04.029.003.12-.02.218.018.333.056.13.04.194.148.062.138.092.33.002.147-.035.615l-.228 2.852-.018.219q-.024.116-.057.524-.034.439-.083.685l-.068.657q-.032.217-.059.554l-.033.233-.074.935q-.07.877-.191 1.486-.017.204-.136.401-.263-.021-.762-.032-.235-.019-.31.004l-.146-.01-.043-.005q-.104-.007-.1-.036-.116-.038-.13-.04l-.122.049-1.344-.106q-.016.013-.235-.005l-.555-.045-.541-.043z"/><path stroke-width=".866" d="M34.346 35.62q-1.577-.182-2.294-.28-.659-.076-1.01-.133l-1.253-.159q-.138-.016-.246-.152-.107-.138-.09-.275l.557-4.837.13-1.257q.072-.628.211-1.574.023-.198.165-1.02l.04-.35q.05-.43.248-.671.092-.128.26-.11.75.088 1.635.22.12.03.349.056.506.059.749.101l1.179.136q.306.036.466.131.258.186.194.737l-.03.12q-.005.046-.056.227-.073.224-.085.331-.02.17-.004.434.01.187.002.248l.006.094-.493 4.27q-.014.123.12.17.043.02.197.038l1.117.128q.415.033 1.257.13.169.02.263.139.098.104.086.212l-.34 2.954q-.015.122-.147.185-.145.045-.331.04-.204.023-.633-.027z"/><path stroke-width=".918" d="M23.185 34.92q-1.865-.535-2.861-1.142-1.393-.823-1.872-2.112-.546-1.53.1-3.788.461-1.614 1.144-2.64.682-1.025 1.642-1.531.959-.505 2.229-.499 1.289-.004 2.998.485 1.333.382 2.391 1.124 1.295.931 1.79 2.225.624 1.552.032 3.622-.69 2.413-1.796 3.555-1.076 1.032-2.587 1.16-1.235.105-3.21-.46zm.31-1.557q.187.053.364-.15.38-.436.783-1.49.376-.96.628-1.838l.179-.627.111-.392q.198-.69.386-1.705.212-1.091.133-1.708-.05-.302-.222-.352-.344-.098-.69.516-.417.863-.627 1.6-.227.613-.607 1.946-.256.894-.376 1.487-.21.737-.33 1.753-.078.86.268.96z"/><path stroke-width=".968" d="M8.851 33.31q-1.076-.124-1.601-.22-.817-.128-1.412-.37-.068-.008-.113-.221-.033-.16-.024-.244l.393-6.256.04-.342q.013-.12.066-.425t.111-.818l.137-.884q.04-.342.076-.51.059-.512.15-.988l.023-.204q.025-.066.027-.083.036-.014.13-.072.11-.073.185-.117.19-.134.514-.097l1.263.146q.17.037.63.09.497.057.801.11l1.674.192q.444.052.582.206.188.178.137.622l-.02.17q-.007.07-.033.135-.025.067-.033.135l-.066.27-.04.204q-.008.067.018.14.01.069-.003.172-.053.461-.094.664l-.097.699.444.05q.217.077.472.107.338.074.474.09.15.052.458.087l.15-1.16q.035-.152.069-.442l.099-.698.015-.137q.032-.273.073-.476.042-.22.103-.3.118-.124.255-.109.106-.022.482.022l.462.036q.497.057.825.06l.973.111q.684.08.994.098.598.069.821.077l.461.054q.41.047.536.166.094.08.113.221.02.123-.008.361-.076.666-.24 1.79-.195 1.086-.272 1.753-.012.101.014.173-.008.069.003.123.014.036.012.053l-1.176 6.441q-.01.085-.147.226-.172.136-.292.123l-4.696-.542q-.053-.006-.093-.098-.042-.09-.06-.231-.008-.088-.026-.23 0-.155.01-.378l.176-3.181-.12-.014q-.46-.053-.732-.103-.645-.109-.799-.127l-.137-.015q-.154-.018-.187.272-.244 2.119-.328 2.698-.016.135-.126.642-.08.389-.346.446l-.258-.013q-1.34-.086-1.872-.13z"/><path stroke-width=".76" d="M70.41 35.737q-.263-.06-.456-.131-.35-.107-.435-.168-.036-.078.014-.426l-.007-.154.025-.106.023-.175q-.004-.042.046-.266 0-.125.067-.913.018-.08.01-.165.007-.096.012-.12-.003-.113.034-.272.02-.092.028-.187.01-.109.033-.214.032-.27.054-.362l.03-.201q.036-.16.052-.419.024-.105.04-.296-.002-.484.064-.775.056-.25.028-.56.01-.041.027-.052.032-.02.075-.024.259-.039.615.041.118.026.331.062.215.033.35.05.066.015.194.003l2.228.502q.055.068.14.115.197.113.273.269.053.08.021.212-.121.542-.364.944l-.764 1.85-.02.094q-.052.043-.078.162l-.066.166-.02.092q-.059.263-.297.765-.175.348-.428.915-.006.027-.065.042-.058.014-.14.008-.253.014-1.018-.159zm.822 3.732q-.462-.104-.714-.216l-.155-.049-.765-.173q-.475-.106-.763-.24-.132-.03-.12-.083l.218-1.156q.019-.15.065-.346.027-.132.054-.182.024-.106.059-.14l.02-.092.037-.158q.015-.066.096-.116.096-.063.188-.041.16.035.254.043l.33.074.317.071.277.063.514.116q.436.098.727.218.354.15.32.307-.108.476-.139.677-.023.105-.117.64l-.109.487q-.055.182-.127.25-.073.08-.183.082-.053-.012-.121-.014-.071-.002-.163-.022z"/></g><g fill="#fcd120" stroke="#1b1b3d"><path stroke-width=".648" d="M65.715 37.543q-.756-.087-1.253-.214-.642-.166-1.14-.468l-.195-.127q-.118-.094-.2-.174-.342-.364-.537-.794-.17-.228-.289-.613-.217-.838-.089-1.949.151-1.307.803-2.23.578-.884 1.419-1.322.852-.448 1.856-.4l.14.003.149.017q.893.103 1.882.59.087.056.38.228.294.174.538.376l-.378 1.465-.658-.25q-.355-.133-.676-.17-.641-.074-1.018.37-.402.465-.532 1.6-.043.365-.026.519-.037.727.198 1.102.23.329.596.37.344.04.793-.129.386-.13.857-.377l-.103 1.892q-.494.36-1.226.567-.696.187-1.29.118z"/><path stroke-width=".71" d="M57.858 36.861q-.088-.001-.163-.066-.075-.078-.11-.19-.047-.23-.066-.508-.01-.088-.008-.24l.003-.164.043-1.564q.016-.795.068-1.563l.077-3.988q.002-.126.166-.123.87.017 1.299.012l1.263.025q.037 0 .063-.011.026-.012.063-.011.165-.023.455-.005.215.004.454.047.074.051.113.027.025.001.1-.023.191.003.291.03.114.028.174.119.06.114.096.278.01.127.002.53l-.047 2.46-.003.19q-.014.1-.022.454-.007.38-.036.592l-.024.568q-.016.19-.022.48l-.017.2-.015.809q-.014.756-.088 1.285-.003.176-.096.352-.226-.005-.656.013-.202-.005-.265.02l-.126-.003h-.038q-.088-.002-.088-.028-.101-.026-.113-.027l-.103.049-1.16-.024q-.014.013-.202.01l-.48-.01-.466-.008z"/><path stroke-width=".726" d="M51.505 36.017q-.179-.02-.241-.276-.144-.446-.015-1.562.124-1.078.324-2.473.064-.448.172-1.385l-.031-.056-1.425-.165q-.167-.019-.25-.21-.066-.204-.079-.543-.02-.392.062-1.111l.02-.18q.016-.128.037-.204l.035-.307q.009-.078.094-.12.083-.055.19-.07.132-.022.388.007l.976.113q.32.037.487.068l.473.067 4.622.533q.5.058.652.089.063.02.178.047.114.026.16.07.085.05.091.115.02.054.006.17l-.244 2.119q-.016.14-.137.178-.08.017-.209.002l-.835-.096q-.294-.034-.445-.078l-.386-.045q-.115-.013-.135.037 0 .013-.016.038-.014.01-.017.036l-.072.63q-.022.193-.048.293-.042.372-.24 1.625l-.068.382q-.09.536-.143.777l-.14 1.22q-.05.435-.244.53-.174.045-.24.051l-.321-.025q-.502-.057-.71-.054l-1.35-.144q-.257-.017-.925-.094z"/><path stroke-width=".775" d="M45.411 36.017q-.97-.112-1.932-.445-.945-.346-1.53-.814-.106-.513-.132-1.015-.025-.504-.043-1.436l.005-.04q.047-.161.206-.226.485.375.945.595.462.205 1.037.271l.33.038.215.04q.315.036.656-.022.185-.048.277-.232l-.686-.44q-.79-.493-1.408-1.022-.64-.588-.851-1.402-.101-.443-.043-.95.142-1.232.982-1.898.735-.595 1.89-.754 1-.12 2.164.014.685.08 1.873.369.12.042.335.093l.402.13q.457.136.676.162.012.001.035.045l.061.077q.044.102.098.108l.028.004-.005.29q-.024.206-.01.443.002.347-.044.744-.04.343-.098.49-.1.265-.293.368l-1.254-.312-.33-.038q-.464-.053-1.078-.026l-.463.042q-.168.01-.17.036-.039.33.352.666.193.133.39.239.197.093.249.127.98.403 1.637 1.2.305.37.453.76.15.392.11.735-.023.205-.105.431-.215 1.017-.985 1.691-.75.593-1.8.791-.912.214-2.144.072z"/><path stroke-width=".825" d="M37.142 35.078q-.102-.008-.184-.088-.08-.095-.114-.23-.037-.268-.041-.591-.007-.104.007-.279l.015-.19.16-1.811q.073-.922.188-1.81l.368-4.619q.012-.146.202-.131 1.009.08 1.506.105l1.462.117q.044.004.075-.008.03-.013.074-.01.192-.014.527.027.248.02.523.086.083.066.13.04.028.003.119-.02.219.018.333.056.13.04.194.149.063.137.092.33.003.147-.034.615l-.229 2.851-.017.219q-.025.116-.057.525-.035.438-.084.684l-.067.657q-.033.217-.06.554l-.032.233-.075.936q-.07.876-.191 1.485-.016.205-.136.402-.262-.022-.762-.033-.234-.018-.31.005l-.145-.01-.044-.006q-.103-.007-.1-.036-.116-.038-.13-.04l-.121.05-1.345-.107q-.016.013-.235-.005l-.555-.044-.54-.043z"/><path stroke-width=".866" d="M33.78 34.906q-1.577-.182-2.295-.28-.658-.077-1.009-.133l-1.253-.16q-.138-.016-.247-.152-.106-.137-.09-.274l.557-4.837.13-1.258q.072-.628.212-1.573.023-.199.164-1.02l.04-.351q.05-.43.248-.671.092-.128.26-.109.751.087 1.635.22.12.03.35.056.505.058.748.1l1.18.137q.305.035.465.13.258.186.195.737l-.03.12q-.006.047-.057.227-.073.225-.085.331-.02.17-.003.434.009.188.002.248l.005.094-.493 4.27q-.014.123.12.17.044.02.197.038l1.118.129q.414.033 1.257.13.168.02.262.138.099.105.086.213l-.34 2.953q-.015.123-.147.186-.145.044-.33.039-.205.023-.633-.026z"/><path stroke-width=".918" d="M22.619 34.205q-1.866-.535-2.862-1.141-1.393-.823-1.872-2.113-.546-1.53.1-3.787.462-1.615 1.144-2.64.683-1.025 1.643-1.532.958-.505 2.228-.498 1.289-.005 2.999.484 1.332.382 2.39 1.125 1.296.93 1.79 2.224.625 1.553.033 3.622-.69 2.413-1.797 3.555-1.075 1.033-2.587 1.16-1.235.106-3.21-.46zm.31-1.557q.187.054.364-.15.378-.435.782-1.489.376-.961.628-1.839l.18-.627.11-.391q.198-.69.386-1.705.212-1.092.133-1.708-.05-.303-.222-.352-.344-.099-.69.515-.417.863-.627 1.6-.226.614-.607 1.946-.255.895-.375 1.488-.21.736-.331 1.753-.077.86.268.96z"/><path stroke-width=".968" d="M8.284 32.595q-1.076-.124-1.6-.219-.818-.128-1.413-.371-.068-.008-.113-.22-.033-.16-.023-.245l.393-6.256.039-.341q.014-.12.066-.426t.112-.817l.136-.885q.04-.341.076-.51.06-.512.15-.987l.023-.205q.025-.066.027-.083.036-.014.13-.072.111-.073.185-.117.19-.134.514-.096l1.264.145q.168.037.63.09.496.057.8.11l1.674.193q.445.051.583.206.188.177.137.621l-.02.171q-.008.069-.034.135-.025.067-.033.135l-.065.27-.041.203q-.008.068.018.14.01.07-.002.172-.054.461-.094.664l-.098.699.444.051q.217.077.473.106.337.075.474.09.15.052.457.088l.151-1.16q.035-.152.068-.443l.099-.697.016-.137q.031-.274.072-.476.043-.221.103-.3.119-.125.256-.11.105-.021.482.022l.462.036q.496.057.824.06l.974.112q.684.079.993.097.598.07.822.078l.46.053q.411.047.536.166.094.08.113.222.02.122-.007.36-.077.667-.241 1.79-.195 1.086-.272 1.753-.012.102.014.173-.008.07.003.123.015.036.013.053l-1.176 6.442q-.01.085-.148.226-.171.136-.291.122l-4.697-.542q-.052-.006-.093-.098-.041-.09-.06-.231-.008-.088-.026-.229.001-.155.01-.379l.177-3.181-.121-.014q-.46-.053-.732-.103-.645-.108-.799-.126l-.136-.016q-.154-.018-.188.273-.244 2.118-.328 2.697-.016.136-.126.642-.08.39-.345.446l-.259-.013q-1.34-.086-1.872-.13z"/><path stroke-width=".76" d="M69.843 35.023q-.263-.061-.456-.132-.35-.106-.434-.167-.037-.078.013-.427l-.006-.154.024-.105.024-.175q-.005-.043.045-.266.001-.125.068-.914.017-.08.009-.164.007-.096.012-.121-.003-.112.034-.271.02-.092.028-.187.01-.11.033-.215.033-.27.054-.361l.03-.202q.036-.159.053-.418.023-.105.039-.296-.002-.485.065-.775.056-.251.028-.561.01-.04.026-.051.032-.021.075-.025.259-.039.615.042.119.026.332.061.214.034.35.05.065.016.193.003l2.229.503q.054.067.14.114.196.113.273.27.052.079.02.212-.12.541-.363.944l-.765 1.85-.02.093q-.052.043-.078.163l-.065.165-.02.092q-.06.263-.298.766-.175.348-.428.915-.005.026-.065.041-.058.014-.14.008-.252.014-1.017-.159zm.822 3.731q-.462-.103-.714-.216l-.155-.048-.765-.173q-.474-.106-.763-.241-.132-.03-.12-.083l.219-1.156q.018-.149.064-.346.028-.132.054-.181.025-.107.06-.14l.02-.093.036-.157q.015-.066.096-.117.097-.062.189-.04.159.035.253.042l.33.075.317.07.278.063.514.116q.435.098.726.219.355.15.32.307-.108.475-.139.677-.023.105-.116.639l-.11.488q-.055.181-.126.249-.073.08-.184.083-.053-.012-.121-.014-.07-.002-.163-.023z"/></g><path fill="#ff0808" fill-rule="evenodd" stroke="#000" stroke-width=".278" d="M59.593 17.575a1.084 1.084 0 0 0-1.417.585c-.285.684.582 2.038.854 2.958.834-.45 2.468-.734 2.766-1.453a1.084 1.084 0 0 0-1.565-1.342 1.084 1.084 0 0 0-.638-.748z"/><path fill="#ff0808" fill-rule="evenodd" stroke="#000" stroke-width=".238" d="M54.636 9.658a.93.93 0 0 0-1.215.501c-.244.586.5 1.747.733 2.535.714-.386 2.114-.63 2.37-1.245a.93.93 0 0 0-1.341-1.15.93.93 0 0 0-.547-.641zM31.957 7.849a.93.93 0 0 0-.447 1.236c.27.575 1.628.807 2.368 1.165.196-.788.958-1.987.675-2.591a.93.93 0 0 0-1.753.217.93.93 0 0 0-.843-.027Z"/><path fill="#ff0808" fill-rule="evenodd" stroke="#000" stroke-width=".668" d="M41.183 13.891a2.602 2.602 0 0 0-2.845 2.333c-.174 1.77 2.757 4.264 4.02 6.178l.009.015c1.599-1.616 5.15-3.41 5.334-5.268a2.602 2.602 0 0 0-4.53-1.987 2.602 2.602 0 0 0-1.988-1.271z"/><path fill="#ff0808" fill-rule="evenodd" stroke="#000" stroke-width=".569" d="M17.618 12.44a2.216 2.216 0 0 0-1.339 2.834c.511 1.425 3.682 2.28 5.36 3.296.64-1.827 2.72-4.502 2.183-6a2.216 2.216 0 0 0-4.212.124 2.216 2.216 0 0 0-1.992-.253z"/></svg>
