<?xml version="1.0" encoding="UTF-8" standalone="no"?>
<svg
   data-name="Layer 1"
   width="238.66722"
   height="300"
   viewBox="0 0 238.66722 300.00001"
   version="1.1"
   id="svg6581"
   sodipodi:docname="thank-you.svg"
   inkscape:version="1.4 (e7c3feb1, 2024-10-09)"
   xmlns:inkscape="http://www.inkscape.org/namespaces/inkscape"
   xmlns:sodipodi="http://sodipodi.sourceforge.net/DTD/sodipodi-0.dtd"
   xmlns="http://www.w3.org/2000/svg"
   xmlns:svg="http://www.w3.org/2000/svg">
  <defs
     id="defs6585" />
  <sodipodi:namedview
     id="namedview6583"
     pagecolor="#ffffff"
     bordercolor="#666666"
     borderopacity="1.0"
     inkscape:showpageshadow="2"
     inkscape:pageopacity="0.0"
     inkscape:pagecheckerboard="0"
     inkscape:deskcolor="#d1d1d1"
     showgrid="false"
     inkscape:zoom="2.4606202"
     inkscape:cx="152.807"
     inkscape:cy="185.52233"
     inkscape:window-width="1904"
     inkscape:window-height="1198"
     inkscape:window-x="1684"
     inkscape:window-y="388"
     inkscape:window-maximized="0"
     inkscape:current-layer="svg6581" />
  <g
     id="g1"
     transform="matrix(0.55354166,0,0,0.55354166,2.0170069,0.07069563)">
    <path
       d="m 86.39077,504.16054 a 3.61324,3.61324 0 0 1 -2.61866,-6.26263 c 0.0911,-0.36213 0.15647,-0.62217 0.24758,-0.9843 q -0.0489,-0.11821 -0.0984,-0.23627 a 9.70311,9.70311 0 0 0 -17.89849,0.0665 c -2.92739,7.05051 -6.65447,14.11307 -7.57216,21.5678 a 28.70547,28.70547 0 0 0 0.5039,9.87235 115.08618,115.08618 0 0 1 -10.46893,-47.79892 111.08,111.08 0 0 1 0.689,-12.392 q 0.5708,-5.05966 1.58377,-10.0473 a 116.41943,116.41943 0 0 1 23.087,-49.34152 30.98252,30.98252 0 0 0 12.88556,-13.36892 23.63333,23.63333 0 0 0 2.14933,-6.45822 c -0.62729,0.0823 -1.26489,0.1337 -1.89217,0.17479 -0.19543,0.0102 -0.40108,0.0205 -0.59651,0.0309 l -0.0737,0.003 a 3.57989,3.57989 0 0 1 -2.9401,-5.83225 q 0.40628,-0.5 0.81305,-0.99948 c 0.4114,-0.51423 0.833,-1.01813 1.24434,-1.53228 a 1.78188,1.78188 0 0 0 0.13369,-0.15432 c 0.47313,-0.58619 0.94609,-1.16206 1.41922,-1.74825 a 10.35187,10.35187 0 0 0 -3.39367,-3.28044 c -4.74083,-2.77661 -11.28133,-0.85357 -14.70586,3.43477 -3.43476,4.28825 -4.0826,10.30437 -2.88976,15.66218 a 41.48523,41.48523 0 0 0 5.73842,12.793 c -0.25715,0.32911 -0.52454,0.64791 -0.78161,0.977 a 117.1705,117.1705 0 0 0 -12.22972,19.37481 48.70929,48.70929 0 0 0 -2.908,-22.62447 c -2.78346,-6.71479 -8.00064,-12.37 -12.595,-18.17495 -5.51856,-6.97261 -16.83488,-3.9296 -17.80713,4.90927 q -0.0141,0.12837 -0.0276,0.25666 1.02362,0.57749 2.004,1.22585 a 4.9011,4.9011 0 0 1 -1.976,8.91908 l -0.0999,0.0154 a 48.76657,48.76657 0 0 0 1.28544,7.29124 50.20986,50.20986 0 0 0 24.99983,31.46837 c 0.40108,0.20566 0.79193,0.41131 1.193,0.60674 a 119.59713,119.59713 0 0 0 -6.43766,30.296 113.434,113.434 0 0 0 0.0823,18.31541 l -0.0309,-0.216 a 29.97408,29.97408 0 0 0 -10.23241,-17.3076 c -7.87438,-6.46853 -18.9994,-8.8505 -27.49446,-14.04993 a 5.62527,5.62527 0 0 0 -8.61571,5.47251 q 0.0171,0.11352 0.0347,0.227 a 32.92549,32.92549 0 0 1 3.69184,1.779 q 1.02362,0.57761 2.004,1.22586 a 4.90115,4.90115 0 0 1 -1.976,8.91916 l -0.1,0.0154 c -0.072,0.0103 -0.13369,0.0206 -0.20557,0.031 a 48.80788,48.80788 0 0 0 8.97767,14.05785 50.25446,50.25446 0 0 0 36.44581,15.9916 h 0.0103 a 119.56344,119.56344 0 0 0 8.03167,23.447 h 28.69167 c 0.10291,-0.3188 0.19543,-0.64792 0.288,-0.96672 a 32.59875,32.59875 0 0 1 -7.93916,-0.473 c 2.12878,-2.61214 4.25748,-5.24482 6.38625,-7.85688 a 1.78139,1.78139 0 0 0 0.1337,-0.15424 c 1.07978,-1.33685 2.16987,-2.66347 3.24965,-4.00032 l 5.8e-4,-0.002 a 47.75037,47.75037 0 0 0 -1.39916,-12.16412 z"
       fill="#f2f2f2"
       id="path6506" />
    <path
       d="m 337.48551,504.16054 a 3.61324,3.61324 0 0 0 2.61866,-6.26263 c -0.0911,-0.36213 -0.15647,-0.62217 -0.24758,-0.9843 q 0.0489,-0.11821 0.0984,-0.23627 a 9.70311,9.70311 0 0 1 17.89849,0.0665 c 2.92739,7.05051 6.65447,14.11307 7.57216,21.5678 a 28.70547,28.70547 0 0 1 -0.5039,9.87235 115.08618,115.08618 0 0 0 10.46893,-47.79892 111.08,111.08 0 0 0 -0.689,-12.392 q -0.57079,-5.05966 -1.58377,-10.0473 a 116.41943,116.41943 0 0 0 -23.087,-49.34152 30.98252,30.98252 0 0 1 -12.88556,-13.36892 23.63333,23.63333 0 0 1 -2.14933,-6.45822 c 0.62729,0.0823 1.26489,0.1337 1.89217,0.17479 0.19543,0.0102 0.40108,0.0205 0.59651,0.0309 l 0.0737,0.003 a 3.57989,3.57989 0 0 0 2.9401,-5.83225 q -0.40628,-0.5 -0.813,-0.99948 c -0.4114,-0.51423 -0.833,-1.01813 -1.24434,-1.53228 a 1.78188,1.78188 0 0 1 -0.13369,-0.15432 c -0.47313,-0.58619 -0.94609,-1.16206 -1.41922,-1.74825 a 10.35187,10.35187 0 0 1 3.39367,-3.28044 c 4.74083,-2.77661 11.28133,-0.85357 14.70586,3.43477 3.43476,4.28825 4.0826,10.30437 2.88976,15.66218 a 41.48523,41.48523 0 0 1 -5.73842,12.793 c 0.25715,0.32911 0.52454,0.64791 0.78161,0.977 a 117.1705,117.1705 0 0 1 12.22972,19.37481 48.70929,48.70929 0 0 1 2.908,-22.62447 c 2.78346,-6.71479 8.00064,-12.37 12.595,-18.17495 5.51856,-6.97261 16.83488,-3.9296 17.80713,4.90927 q 0.0141,0.12837 0.0276,0.25666 -1.02361,0.57749 -2.004,1.22585 a 4.9011,4.9011 0 0 0 1.976,8.91908 l 0.0999,0.0154 a 48.76657,48.76657 0 0 1 -1.28544,7.29124 50.20986,50.20986 0 0 1 -24.99983,31.46837 c -0.40108,0.20566 -0.79193,0.41131 -1.193,0.60674 a 119.59713,119.59713 0 0 1 6.43766,30.296 113.434,113.434 0 0 1 -0.0823,18.31541 l 0.0309,-0.216 a 29.97408,29.97408 0 0 1 10.23241,-17.3076 c 7.87438,-6.46853 18.9994,-8.8505 27.49446,-14.04993 a 5.62527,5.62527 0 0 1 8.61571,5.47251 q -0.0171,0.11352 -0.0347,0.227 a 32.92549,32.92549 0 0 0 -3.69184,1.779 q -1.02361,0.57761 -2.004,1.22586 a 4.90115,4.90115 0 0 0 1.976,8.91916 l 0.1,0.0154 c 0.072,0.0103 0.13369,0.0206 0.20557,0.031 a 48.80788,48.80788 0 0 1 -8.97776,14.05811 50.25446,50.25446 0 0 1 -36.44577,15.99134 h -0.0103 a 119.56321,119.56321 0 0 1 -8.03167,23.447 H 338.2045 c -0.10291,-0.3188 -0.19543,-0.64792 -0.288,-0.96672 a 32.59875,32.59875 0 0 0 7.93916,-0.473 c -2.12878,-2.61214 -4.25748,-5.24482 -6.38625,-7.85688 a 1.78139,1.78139 0 0 1 -0.1337,-0.15424 c -1.07978,-1.33685 -2.16987,-2.66347 -3.24965,-4.00032 l -5.8e-4,-0.002 a 47.75037,47.75037 0 0 1 1.39916,-12.16412 z"
       fill="#f2f2f2"
       id="path6508" />
    <polygon
       points="103.913,518.096 121.692,487.445 109.312,482.17 95.525,514.522 "
       fill="#a0616a"
       id="polygon6510"
       style="fill:#ffb6b6;fill-opacity:1" />
    <polygon
       points="173.956,522.459 178.294,487.291 164.837,487.292 164.839,522.46 "
       fill="#a0616a"
       id="polygon6512"
       style="fill:#ffb6b6;fill-opacity:1" />
    <path
       d="m 164.51787,531.97071 28.03732,-0.001 v -0.35463 a 10.9135,10.9135 0 0 0 -10.9129,-10.91274 h -6.8e-4 l -5.12137,-3.88534 -9.55536,3.88593 -2.44748,9e-5 z"
       fill="#2f2e41"
       id="path6514" />
    <path
       d="m 90.42519,520.6108 25.79295,10.99168 0.139,-0.32619 a 10.91352,10.91352 0 0 0 -5.76059,-14.31765 l -6.2e-4,-2.6e-4 -3.188,-5.58221 -10.31387,-0.17158 -2.25155,-0.95951 z"
       fill="#2f2e41"
       id="path6516" />
    <path
       d="m 173.78249,314.32461 13.85665,84.37457 -3.771,12.57327 4.94839,8.90485 -7.26683,78.20391 2.94976,6.49418 -8.24162,5.08284 h -16.77059 l -0.89,-70.79862 -4.14262,-10.39477 v -5.72876 l -8.43315,-43.17135 -0.89958,53.613 -2.69237,5.19324 -24.11923,63.13834 H 99.50503 l 1.45444,-11.20445 v 0 c -3.36924,-1.70583 5.05852,-6.69143 5.86836,-10.38 l -2.769,-6.23027 2.769,-11.7683 6.378,-32.72881 -6.51658,-38.80648 2.334,-24.97791 -1.21533,-8.54429 0.0922,-2.76335 c 0,0 3.2144,-1.24011 0.14469,-4.33583 -4.24981,-24.09107 0.97842,-29.3193 0.97842,-29.3193 l 20.9245,-12.24624 z"
       fill="#2f2e41"
       id="path6518" />
    <circle
       id="a947ada5-bf6f-4e8a-be72-c0404926012e"
       data-name="ab6171fa-7d69-4734-b81c-8dff60f9761b"
       cx="140.03783"
       cy="184.20438"
       r="19.00411"
       fill="#a0616a"
       style="fill:#ffb6b6;fill-opacity:1" />
    <path
       d="m 116.21159,147.74908 a 7.47842,7.47842 0 0 1 -8.15889,8.058 l -11.0421,24.17336 -7.32789,-11.70577 11.60924,-21.1608 a 7.519,7.519 0 0 1 14.91964,0.63519 z"
       fill="#a0616a"
       id="path6521"
       style="fill:#ffb6b6;fill-opacity:1" />
    <path
       d="m 175.02814,316.14145 a 1.78613,1.78613 0 0 1 -2.15,1.99006 c -9.95,-2.15 -51.01,3.00994 -64.61,16.87 a 1.79625,1.79625 0 0 1 -3.08,-1.39 c 0.24,-2.98 4.57,-16.46 4.57,-16.46 l 1.32,-8.4 a 1.947,1.947 0 0 0 0,-0.59 l -1.21,-6.95 a 1.82131,1.82131 0 0 0 -0.5,-0.96 l -0.41,-0.41 a 1.79855,1.79855 0 0 1 0,-2.54 l 1.59,-1.58 a 1.8408,1.8408 0 0 0 0.51,-1.51 l -2.11,-15.6 c -0.01,-0.03 -0.01,-0.07 -0.02,-0.1 l -9.32,-49.22 a 1.79837,1.79837 0 0 1 0.99,-1.95 l 15.84,-7.57 a 1.767,1.767 0 0 0 0.45,-0.3 l 11.06,-10.26 a 1.85376,1.85376 0 0 1 1.2,-0.48 l 19.88,-0.15 a 1.81,1.81 0 0 1 1.43,0.7 l 6.05,7.87 a 1.79412,1.79412 0 0 0 0.84,0.6 l 4.1,1.38995 11.84,4.02 0.55,0.19 a 1.784,1.784 0 0 1 1.2,1.62 0.85946,0.85946 0 0 1 0.01,0.16 l -2.96,61.25994 a 1.94039,1.94039 0 0 0 0.14,0.79 l 1.42,3.31 a 1.805,1.805 0 0 1 -0.41,2 c -0.42,0.4 -0.9,0.86 -1.2,1.2 -0.61,0.67 0.69,5.98 0.89,6.75 a 1.41426,1.41426 0 0 1 0.04,0.2 l 0.73,5.49006 a 1.784,1.784 0 0 1 -0.74,1.69 1.78919,1.78919 0 0 0 -0.32,2.62 l 1.6,1.89 a 1.90833,1.90833 0 0 1 0.41,0.93 z"
       fill="#e44336"
       id="path6523"
       style="fill:#1b3956;fill-opacity:1" />
    <path
       d="m 135.1762,202.27795 q -0.12178,-0.26813 -0.24289,-0.5381 c 0.0311,0.001 0.0619,0.005 0.093,0.006 z"
       fill="#2f2e41"
       id="path6525" />
    <path
       d="m 202.84114,309.88984 a 7.47845,7.47845 0 0 0 -8.13818,-8.07895 l -10.98,-24.20164 -7.35792,11.68692 11.55487,21.19054 a 7.519,7.519 0 0 0 14.92122,-0.59687 z"
       fill="#a0616a"
       id="path6527"
       style="fill:#ffb6b6;fill-opacity:1" />
    <path
       d="m 187.95814,284.48148 -0.61005,1.14 -6.43,12.01995 -0.9,1.68 -6.28,-8.65 -20.61,-28.38 2.93,-17.8 5.39,-22.3 7.99,-0.46 5.6,2.29 v 0 a 11.49887,11.49887 0 0 1 6.63994,12.7226 l -4.95989,25.39742 z"
       fill="#e44336"
       id="path6529"
       style="fill:#1b3956;fill-opacity:1" />
    <path
       d="m 157.95226,20.921107 v 0 c -0.10649,0.103503 -0.20469,0.212385 -0.31002,0.316758 C 141.19868,4.9205227 114.71643,4.7769697 98.09689,20.914934 v 0 C 81.418216,37.116544 80.854593,63.713348 96.831972,80.607013 l -0.01035,0.0101 0.397833,0.40967 v 0 l 58.836535,60.579577 60.98936,-59.234477 -0.16964,-0.17456 c 0.10243,-0.0976 0.20911,-0.18814 0.31078,-0.28711 v 0 c 16.84177,-16.357096 17.23459,-43.269985 0.8775,-60.111759 v 0 C 201.70689,4.9567627 174.7939,4.5639387 157.95233,20.921047 Z"
       fill="#e44336"
       id="path8918"
       style="stroke-width:0.862231" />
    <path
       d="m 216.71449,72.378882 v 0 c -0.0664,0.08812 -0.12607,0.179237 -0.19151,0.267862 -13.93075,-10.105749 -33.3886,-7.194109 -43.75103,6.546713 v 0 c -10.39858,13.794288 -7.78227,33.384093 5.87189,43.966053 l -0.007,0.009 0.33873,0.25544 v 0 l 50.09548,37.77046 38.02597,-50.43432 -0.14443,-0.10883 c 0.064,-0.0833 0.13208,-0.16193 0.19544,-0.24618 v 0 c 10.5006,-13.927011 7.7229,-33.729414 -6.20412,-44.23002 v 0 C 247.01703,55.674355 227.21456,58.45207 216.7141,72.37907 Z"
       fill="#e44336"
       id="path8918-4"
       style="fill:#2d80d3;fill-opacity:1;stroke-width:0.640569" />
    <path
       d="m 116.05958,255.08097 -12.66281,-0.914 -21.977,-26.90709 -16.31363,-23.38296 3.75714,-9.5056 17.75877,-25.44207 -0.18391,-2.19777 1.9652,-0.35426 0.0348,-2.64574 1.63106,0.25915 4.36894,-6.25915 10,8 -5.65545,16.61336 -0.34455,3.38664 -1.95653,3.373 0.95653,4.627 -3.73966,3.54868 -1.80059,5.2894 c 7.768,5.1087 15.13473,12.75186 22.3172,22.3172 z"
       fill="#e44336"
       id="path6533"
       style="fill:#1b3956;fill-opacity:1" />
    <polygon
       points="251.094,309.375 247.619,284.344 252.046,284.387 288.635,284.344 287.262,297.074 288.07,313.768 "
       fill="#ffb6b6"
       id="polygon6535"
       style="fill:#1b3956;fill-opacity:1" />
    <path
       d="m 256.43929,242.5043 8.78628,-5.27177 4.21257,-6.501 13,2 15.89164,10.65282 -0.15567,24.16089 -9.85315,25.05907 -41.29551,-5.27177 -1.569,-8.839 c 0,0 -11.42217,-15.34139 0.87863,-24.12767 z"
       fill="#e44336"
       id="path6537"
       style="fill:#1b3956;fill-opacity:1" />
    <path
       d="m 203.70463,170.76139 a 6.7071,6.7071 0 0 0 4.33508,9.32622 l 28.60677,53.97634 11.54672,-8.91187 -31.75033,-50.25468 a 6.74344,6.74344 0 0 0 -12.73824,-4.136 z"
       fill="#ffb6b6"
       id="path6539" />
    <path
       d="m 250.63025,252.30283 c 0,0 -2.65087,2.351 -6.4207,-4.14078 -3.018,-5.19718 -18.06934,-28.46927 -20.20054,-36.53663 a 5.269,5.269 0 0 1 -5.21337,-3.81418 l 16.16753,-6.27524 c 3.51451,1.75726 2.53909,4.19285 1.64791,5.45287 l 6.02121,9.03178 20.02845,22.47649 -10.08415,12.1403 z"
       fill="#e44336"
       id="path6541"
       style="fill:#1b3956;fill-opacity:1" />
    <polygon
       points="299.73,515.476 295.882,484.294 307.814,484.294 307.814,515.476 "
       fill="#ffb6b6"
       id="polygon6543" />
    <path
       d="m 312.08054,529.4825 h -5.79748 l -1.03482,-5.47351 -2.65034,5.47351 h -15.3763 a 3.45645,3.45645 0 0 1 -1.96407,-6.30079 l 12.279,-8.48036 v -5.53353 l 12.91543,0.77088 z"
       fill="#2f2e41"
       id="path6545" />
    <polygon
       points="254.32,515.476 250.472,484.294 262.404,484.294 262.404,515.476 "
       fill="#ffb6b6"
       id="polygon6547" />
    <path
       d="m 266.67062,529.4825 h -5.79748 l -1.03483,-5.47351 -2.65033,5.47351 h -15.37631 a 3.45646,3.45646 0 0 1 -1.96407,-6.30079 l 12.27906,-8.48036 v -5.53353 l 12.91543,0.77088 z"
       fill="#2f2e41"
       id="path6549" />
    <path
       d="m 311.30169,488.58595 h -0.0879 l -1.55474,-50.70041 a 13.25754,13.25754 0 0 0 -0.17395,-12.52816 l -0.22259,-0.40294 0.57714,-2.67532 a 17.04076,17.04076 0 0 0 -0.97381,-10.25583 l -1.45042,-47.29409 c 5.18177,-33.58223 -19.513,-55.48328 -19.513,-55.48328 h -36.99315 l -2.64371,9.08318 -2.82743,2.40238 1.07036,3.63448 -3.07036,4.36552 -0.47085,7.80126 c -5.25036,51.15245 -4.29769,100.99895 4.03388,149.29183 l -0.22713,0.11486 a 1.91928,1.91928 0 0 0 -0.7837,2.53064 c 0.38494,1.11536 1.36006,1.7907 2.17792,1.50838 l 19.53662,-0.67952 a 1.91912,1.91912 0 0 0 0.78369,-2.53064 c -0.38494,-1.11536 -1.36005,-1.79063 -2.17791,-1.50838 l -1.32837,0.67187 2.83294,-48.924 -0.31439,-8.93627 0.64769,-10.138 2.99461,-45.60077 11.335,56.07609 11.57816,60.74142 a 2.12985,2.12985 0 0 0 1.4362,3.7086 h 15.80917 a 2.13645,2.13645 0 0 0 0,-4.2729 z"
       fill="#2f2e41"
       id="path6551" />
    <path
       d="m 351.81541,330.10718 a 6.70709,6.70709 0 0 0 -4.60542,-9.19574 l -30.16985,-53.11847 -11.28171,9.245 33.20345,49.30667 a 6.74344,6.74344 0 0 0 12.85352,3.76249 z"
       fill="#ffb6b6"
       id="path6553" />
    <path
       d="m 295.81469,243.34674 c 0,0 2.58113,-2.42736 6.53881,3.95164 3.16842,5.10688 25.60786,34.553 27.97359,42.55474 a 5.269,5.269 0 0 1 5.32246,3.6604 l -15.9775,6.74441 c -3.5643,-1.65394 -5.2247,-4.74775 -4.37068,-6.03324 l -6.28223,-8.85221 -23.55352,-27.19248 8.45215,-13.11177 z"
       fill="#e44336"
       id="path6555"
       style="fill:#1b3956;fill-opacity:1" />
    <path
       d="m 415.22069,531.25094 a 1.54861,1.54861 0 0 1 -1.5533,1.55322 H 1.61722 a 1.55322,1.55322 0 0 1 0,-3.10644 h 412.05017 a 1.54866,1.54866 0 0 1 1.5533,1.55322 z"
       fill="#cccccc"
       id="path6557" />
    <path
       d="m 263.1197,195.66759 c -5.37911,10.60226 -1.86522,22.8831 8.11659,29.34115 10.79386,6.98343 24.80819,5.45434 29.34115,-8.11659 5.04791,-15.1126 0.90092,-21.59579 -8.11659,-29.34115 -10.56752,-9.0767 -23.52911,-3.33892 -29.34115,8.11659 z"
       fill="#2f2e41"
       id="path6559"
       style="fill:#7c2dd3;fill-opacity:1" />
    <path
       d="m 289.5988,219.28608 a 17.031,17.031 0 0 1 -27.09993,-20.63521 l 0.1478,-0.19411 a 17.031,17.031 0 0 1 26.94792,20.82613 z"
       fill="#ffb6b6"
       id="path6561" />
    <path
       d="m 257.90687,193.95097 a 23.27036,23.27036 0 0 0 9.8233,5.56614 10.17675,10.17675 0 0 1 2.58884,-2.14543 10.88717,10.88717 0 0 0 -0.95006,3.074 c 1.64205,3.40778 8.34857,5.857 14.75834,8.36247 l 8.48985,-14.98307 -11.23732,-6.36736 c -9.02953,-6.24264 -19.65934,-3.57827 -23.47295,6.49325 z"
       fill="#2f2e41"
       id="path6563"
       style="fill:#7c2dd3;fill-opacity:1" />
    <path
       d="m 279.58503,189.5335 12.05584,6.83116 a 14.12778,14.12778 0 0 1 5.32688,19.2565 v 0 a 21.929,21.929 0 0 1 -28.0394,9.20182 l 11.01643,-9.72506 -14.94451,7.61439 -3.19079,-1.808 c 16.02766,-2.91423 19.11945,-15.48663 17.77555,-31.37081 z"
       fill="#2f2e41"
       id="path6567"
       style="fill:#7c2dd3;fill-opacity:1" />
  </g>
</svg>
