<?xml version="1.0" encoding="UTF-8" standalone="no"?>
<svg
   width="64"
   height="70"
   viewBox="0 0 63.999998 70.000002"
   creator="Katerina Limpitsouni"
   version="1.1"
   id="svg138"
   sodipodi:docname="clock2.svg"
   inkscape:version="1.2.1 (9c6d41e4, 2022-07-14)"
   xmlns:inkscape="http://www.inkscape.org/namespaces/inkscape"
   xmlns:sodipodi="http://sodipodi.sourceforge.net/DTD/sodipodi-0.dtd"
   xmlns="http://www.w3.org/2000/svg"
   xmlns:svg="http://www.w3.org/2000/svg">
  <defs
     id="defs142" />
  <sodipodi:namedview
     id="namedview140"
     pagecolor="#ffffff"
     bordercolor="#666666"
     borderopacity="1.0"
     inkscape:showpageshadow="2"
     inkscape:pageopacity="0.0"
     inkscape:pagecheckerboard="0"
     inkscape:deskcolor="#d1d1d1"
     showgrid="false"
     inkscape:zoom="5.7658235"
     inkscape:cx="35.20746"
     inkscape:cy="33.212949"
     inkscape:window-width="1311"
     inkscape:window-height="817"
     inkscape:window-x="1826"
     inkscape:window-y="906"
     inkscape:window-maximized="0"
     inkscape:current-layer="svg138" />
  <path
     d="m 43.929075,31.013324 -10.322024,7.100569 c -0.494318,0.340044 -1.170639,0.214905 -1.510615,-0.279314 L 19.791637,19.947221 c -0.339975,-0.494219 -0.215004,-1.170571 0.279314,-1.510615 0.494319,-0.340044 1.17064,-0.214905 1.510615,0.279314 l 11.689149,16.992394 9.427059,-6.484919 c 0.49422,-0.339976 1.170639,-0.214906 1.510615,0.279314 0.339976,0.494219 0.214905,1.170639 -0.279314,1.510615"
     style="fill:#ff4751;fill-opacity:1;fill-rule:nonzero;stroke:none;stroke-width:0.0120697"
     id="path41683"
     inkscape:transform-center-x="1.0406147"
     inkscape:transform-center-y="-10.059275" />
  <g
     id="g42851"
     inkscape:transform-center-x="-0.23001677"
     inkscape:transform-center-y="-0.65798901"
     transform="rotate(25.621228,32.00112,35.005295)">
    <path
       d="m 16.084754,58.135861 c 6.17973,4.251066 13.644956,5.841203 21.021176,4.476795 7.375496,-1.363442 13.778975,-5.51828 18.029699,-11.697513 2.044643,-2.972276 3.479384,-6.248376 4.26493,-9.738128 0.132268,-0.585829 -0.235522,-1.166987 -0.820891,-1.298645 -0.585339,-0.131638 -1.16671,0.236078 -1.298175,0.820994 -0.725142,3.219267 -2.049167,6.241909 -3.935793,8.984479 C 49.423323,55.385761 43.515934,59.21823 36.711045,60.476105 29.905512,61.735001 23.017675,60.268104 17.316054,56.345932 11.614434,52.42376 7.7814912,46.515782 6.5237223,39.710101 5.265169,32.905346 6.7319233,26.018143 10.6543,20.316225 c 3.922377,-5.701919 9.829746,-9.534402 16.63531,-10.7932781 6.804779,-1.2579498 13.692716,0.2090162 19.394336,4.1311881 5.518451,3.796169 9.310149,9.497049 10.677575,16.051474 0.122778,0.586945 0.698243,0.963765 1.285832,0.840581 0.587055,-0.122086 0.96403,-0.697797 0.841212,-1.284768 C 58.006144,22.157635 53.896394,15.978666 47.915247,11.864206 41.735516,7.6131398 34.27019,6.0229349 26.89405,7.387397 19.518594,8.7508662 13.115779,12.904696 8.8643713,19.084924 4.6136473,25.264157 3.0232682,32.729949 4.3872396,40.105312 5.7505279,47.48167 9.9050235,53.884795 16.084754,58.135861"
       style="fill:#ff4751;fill-opacity:1;fill-rule:nonzero;stroke:none;stroke-width:0.0120697"
       id="path41681" />
    <path
       d="m 52.913929,41.82157 4.975029,-3.422346 c 0.494289,-0.340024 1.170639,-0.214905 1.510615,0.279314 l 3.422332,4.975009 c 0.34066,0.495214 0.214975,1.170591 -0.279314,1.510615 -0.494289,0.340024 -1.169955,0.2159 -1.510615,-0.279314 l -2.806682,-4.080044 -4.080064,2.806695 c -0.494219,0.339976 -1.169955,0.215899 -1.510615,-0.279314 -0.339975,-0.494219 -0.214905,-1.170639 0.279314,-1.510615"
       style="fill:#ff4751;fill-opacity:1;fill-rule:nonzero;stroke:none;stroke-width:0.0120697"
       id="path41685" />
  </g>
</svg>
