<?xml version="1.0" encoding="UTF-8" standalone="no"?>
<!-- Created with Inkscape (http://www.inkscape.org/) -->

<svg
   width="58"
   height="58"
   viewBox="0 0 58 58"
   version="1.1"
   id="svg317"
   inkscape:version="1.2.1 (9c6d41e4, 2022-07-14)"
   sodipodi:docname="heart2.svg"
   inkscape:export-filename="heart.svg"
   inkscape:export-xdpi="300"
   inkscape:export-ydpi="300"
   xmlns:inkscape="http://www.inkscape.org/namespaces/inkscape"
   xmlns:sodipodi="http://sodipodi.sourceforge.net/DTD/sodipodi-0.dtd"
   xmlns="http://www.w3.org/2000/svg"
   xmlns:svg="http://www.w3.org/2000/svg">
  <sodipodi:namedview
     id="namedview319"
     pagecolor="#ffffff"
     bordercolor="#666666"
     borderopacity="1.0"
     inkscape:showpageshadow="2"
     inkscape:pageopacity="0.0"
     inkscape:pagecheckerboard="0"
     inkscape:deskcolor="#d1d1d1"
     inkscape:document-units="mm"
     showgrid="false"
     inkscape:zoom="6.7277215"
     inkscape:cx="21.924213"
     inkscape:cy="29.727747"
     inkscape:window-width="2370"
     inkscape:window-height="1566"
     inkscape:window-x="993"
     inkscape:window-y="92"
     inkscape:window-maximized="0"
     inkscape:current-layer="layer1" />
  <defs
     id="defs314">
    <inkscape:path-effect
       effect="spiro"
       id="path-effect10410"
       is_visible="true"
       lpeversion="1" />
    <inkscape:path-effect
       effect="spiro"
       id="path-effect1425"
       is_visible="true"
       lpeversion="1" />
  </defs>
  <g
     inkscape:label="Layer 1"
     inkscape:groupmode="layer"
     id="layer1">
    <g
       id="g46807"
       transform="matrix(0.81424559,0,0,0.81424559,29.172421,1.7096155)"
       style="fill:#ff4751;fill-opacity:1">
      <path
         d="m -6.7772945,59.925995 c -14.6431515,0 -26.5568575,-11.913699 -26.5568575,-26.556858 0,-14.644633 11.913706,-26.5568568 26.5568575,-26.5568568 3.713539,0 7.30756205,0.750968 10.680289,2.235197 3.257642,1.4325938 6.1552895,3.4745278 8.6117975,6.0697208 0.420481,0.444089 0.401304,1.144891 -0.04277,1.565379 -0.44409,0.420481 -1.144898,0.39983 -1.563904,-0.04277 C 6.2606655,11.72826 -0.02003345,9.0253652 -6.7772805,9.0253652 c -13.4230175,0 -24.3437865,10.9192938 -24.3437865,24.3437868 0,13.423018 10.920769,24.343786 24.3437865,24.343786 3.121907,0 6.16119605,-0.582774 9.03376,-1.732097 0.568024,-0.227204 1.21129,0.05018 1.438501,0.616715 0.227204,0.568017 -0.05018,1.211283 -0.616715,1.438494 -3.13518295,1.254075 -6.450361,1.889959 -9.855546,1.889959"
         style="fill:#ff4751;fill-opacity:1;fill-rule:nonzero;stroke:none;stroke-width:0.0147538"
         id="path46097" />
      <path
         d="m -6.7772945,34.475676 c -0.267039,0 -0.534084,-0.0959 -0.745068,-0.289178 L -19.675073,23.099011 c -0.451465,-0.411631 -0.483923,-1.11244 -0.07229,-1.563904 0.413106,-0.451465 1.112433,-0.482449 1.563904,-0.07082 l 12.1512355,11.086012 c 0.452946,0.413106 0.48393,1.11244 0.07229,1.563904 -0.218353,0.239012 -0.517857,0.361471 -0.81736,0.361471"
         style="fill:#ff4751;fill-opacity:1;fill-rule:nonzero;stroke:none;stroke-width:0.0147538"
         id="path46099" />
      <path
         d="m -6.7389295,12.690199 c -0.0013,0 -0.0013,0 -0.0013,0 -0.407205,-0.0013 -0.737692,-0.331963 -0.736217,-0.739168 l 0.0074,-4.0336938 c 0,-0.407205 0.330487,-0.736218 0.737692,-0.736218 0,0 0,0 0.0013,0 0.407205,0 0.736217,0.330488 0.736217,0.737693 l -0.0074,4.0351688 c -0.0013,0.407205 -0.331962,0.736218 -0.737686,0.736218"
         style="fill:#ff4751;fill-opacity:1;fill-rule:nonzero;stroke:none;stroke-width:0.0147538"
         id="path46101" />
      <path
         d="m -6.8230295,59.557155 c 0,0 0,0 -0.0013,0 -0.407205,-0.0013 -0.736218,-0.331962 -0.736218,-0.739167 l 0.0074,-4.035169 c 0.0013,-0.407206 0.331955,-0.736218 0.737685,-0.736218 0.0013,0 0.0013,0 0.0013,0 0.407205,0.0013 0.737692,0.331962 0.736217,0.739168 l -0.0073,4.033694 c 0,0.407205 -0.330487,0.737692 -0.737692,0.737692"
         style="fill:#ff4751;fill-opacity:1;fill-rule:nonzero;stroke:none;stroke-width:0.0147538"
         id="path46103" />
      <path
         d="m -28.193926,34.068471 v 0 l -4.035169,-0.0074 c -0.407205,-0.0013 -0.736211,-0.331963 -0.736211,-0.739161 0,-0.407205 0.330488,-0.736218 0.737693,-0.736218 h 0.0013 l 4.033694,0.0074 c 0.40868,0 0.737686,0.330487 0.736211,0.739167 0,0.40573 -0.330481,0.736211 -0.737686,0.736211"
         style="fill:#ff4751;fill-opacity:1;fill-rule:nonzero;stroke:none;stroke-width:0.0147538"
         id="path46105" />
      <path
         d="m -24.804973,52.069592 c -0.188852,0 -0.379172,-0.07229 -0.522283,-0.216879 -0.287703,-0.287703 -0.287703,-0.755394 0.0013,-1.043096 l 2.857813,-2.847487 c 0.287703,-0.287697 0.755393,-0.286222 1.043096,0.0013 0.287697,0.289171 0.286222,0.756868 -0.0013,1.044571 l -2.857812,2.847481 c -0.144586,0.143117 -0.333438,0.213935 -0.520808,0.213935"
         style="fill:#ff4751;fill-opacity:1;fill-rule:nonzero;stroke:none;stroke-width:0.0147538"
         id="path46107" />
      <path
         d="m -21.894044,18.935482 c -0.188852,0 -0.377697,-0.07229 -0.522289,-0.216879 l -2.847487,-2.857812 c -0.287697,-0.287703 -0.286221,-0.755394 0.0013,-1.043097 0.289178,-0.287696 0.755393,-0.286221 1.043096,0.0013 l 2.847481,2.857813 c 0.287703,0.289171 0.287703,0.755393 -0.0013,1.04309 -0.14311,0.144592 -0.331962,0.21541 -0.520807,0.21541"
         style="fill:#ff4751;fill-opacity:1;fill-rule:nonzero;stroke:none;stroke-width:0.0147538"
         id="path46109" />
      <path
         d="m -15.653186,13.361492 c -0.286221,0 -0.559167,-0.168194 -0.678676,-0.448515 l -1.13604,-2.652735 c -0.159344,-0.3747458 0.01327,-0.8085098 0.388022,-0.9678528 0.374747,-0.160812 0.80851,0.01327 0.969329,0.388029 l 1.134565,2.6527348 c 0.160819,0.374747 -0.01327,0.80851 -0.388022,0.967854 -0.09443,0.04129 -0.193277,0.06048 -0.289178,0.06048"
         style="fill:#ff4751;fill-opacity:1;fill-rule:nonzero;stroke:none;stroke-width:0.0147538"
         id="path46111" />
      <path
         d="m -30.175361,44.118762 c -0.286221,0 -0.559173,-0.168194 -0.678675,-0.448514 -0.160819,-0.374747 0.01327,-0.808511 0.388022,-0.967847 l 2.65421,-1.136047 c 0.373279,-0.159344 0.807035,0.01327 0.967854,0.388029 0.160818,0.374746 -0.01327,0.808503 -0.388029,0.969322 l -2.652735,1.134572 c -0.0959,0.04129 -0.193271,0.06048 -0.290647,0.06048"
         style="fill:#ff4751;fill-opacity:1;fill-rule:nonzero;stroke:none;stroke-width:0.0147538"
         id="path46113" />
      <path
         d="m -16.243336,57.730632 c -0.09148,0 -0.184427,-0.01623 -0.274421,-0.05314 -0.377696,-0.151961 -0.562123,-0.581299 -0.410155,-0.958996 l 1.074073,-2.679293 c 0.150493,-0.377697 0.5813,-0.562117 0.958997,-0.410156 0.377703,0.151968 0.562123,0.5813 0.410162,0.958996 l -1.07408,2.679294 c -0.115077,0.287703 -0.392448,0.463272 -0.684576,0.463272"
         style="fill:#ff4751;fill-opacity:1;fill-rule:nonzero;stroke:none;stroke-width:0.0147538"
         id="path46115" />
      <path
         d="m 1.6146735,13.160839 c -0.09147,0 -0.18442,-0.01771 -0.27442,-0.05314 -0.37769695,-0.151968 -0.56211695,-0.5813 -0.41015595,-0.959003 L 2.0041775,9.4694092 c 0.150486,-0.377696 0.5813,-0.562123 0.958996,-0.410155 0.377697,0.151961 0.562124,0.581299 0.410156,0.9589958 l -1.074073,2.679293 c -0.115084,0.287697 -0.392455,0.463266 -0.684583,0.463266"
         style="fill:#ff4751;fill-opacity:1;fill-rule:nonzero;stroke:none;stroke-width:0.0147538"
         id="path46117" />
      <path
         d="m -27.723278,25.713386 c -0.09148,0 -0.18442,-0.01623 -0.274421,-0.05314 l -2.677818,-1.072598 c -0.379172,-0.151968 -0.562116,-0.581307 -0.41163,-0.959003 0.151967,-0.379172 0.581299,-0.562117 0.958996,-0.410156 l 2.679293,1.072605 c 0.379172,0.151961 0.562123,0.5813 0.410156,0.958996 -0.115077,0.289178 -0.392448,0.463273 -0.684576,0.463273"
         style="fill:#ff4751;fill-opacity:1;fill-rule:nonzero;stroke:none;stroke-width:0.0147538"
         id="path46119" />
      <path
         d="m 5.0390345,32.056046 11.1361795,3.2001 c 0.306879,0.08705 0.560642,0.303929 0.696377,0.591632 0.135735,0.289171 0.14016,0.621134 0.01179,0.913262 L 6.5468515,60.45566 29.646896,34.409284 18.382365,31.337536 C 18.07106,31.253446 17.812866,31.036557 17.674181,30.745911 17.535495,30.453783 17.53107,30.117395 17.660911,29.822324 L 27.973821,6.5334272 Z m -2.300121,35.468168 c -0.205078,0 -0.411631,-0.0575 -0.596051,-0.17409 -0.458846,-0.29361 -0.635891,-0.87638 -0.417531,-1.37506 L 14.350166,37.033985 2.7285875,33.693724 c -0.365896,-0.104758 -0.653592,-0.390979 -0.758344,-0.75835 -0.104751,-0.365896 -0.01475,-0.761294 0.240487,-1.044572 L 30.980659,-0.1249678 c 0.364421,-0.404255 0.967854,-0.485398 1.425219,-0.188845 0.455897,0.295072 0.629991,0.879328 0.410162,1.376527 L 20.205952,29.540521 31.947038,32.743579 c 0.370321,0.100326 0.660968,0.385072 0.770151,0.750968 0.109177,0.367364 0.02068,0.764244 -0.233111,1.050472 L 3.5666065,67.150944 c -0.216885,0.24491 -0.520814,0.37327 -0.827693,0.37327"
         style="fill:#ff4751;fill-opacity:1;fill-rule:nonzero;stroke:none;stroke-width:0.0147538"
         id="path46121" />
    </g>
  </g>
</svg>
