<?xml version="1.0" encoding="UTF-8" standalone="no"?>
<svg
   data-name="Layer 1"
   width="711.18793"
   height="675"
   viewBox="0 0 711.1879 675"
   version="1.1"
   id="svg37968"
   sodipodi:docname="support.svg"
   inkscape:version="1.2.1 (9c6d41e4, 2022-07-14)"
   xmlns:inkscape="http://www.inkscape.org/namespaces/inkscape"
   xmlns:sodipodi="http://sodipodi.sourceforge.net/DTD/sodipodi-0.dtd"
   xmlns="http://www.w3.org/2000/svg"
   xmlns:svg="http://www.w3.org/2000/svg"
   xmlns:rdf="http://www.w3.org/1999/02/22-rdf-syntax-ns#"
   xmlns:cc="http://creativecommons.org/ns#"
   xmlns:dc="http://purl.org/dc/elements/1.1/">
  <defs
     id="defs37972" />
  <sodipodi:namedview
     id="namedview37970"
     pagecolor="#ffffff"
     bordercolor="#666666"
     borderopacity="1.0"
     inkscape:showpageshadow="2"
     inkscape:pageopacity="0.0"
     inkscape:pagecheckerboard="0"
     inkscape:deskcolor="#d1d1d1"
     showgrid="false"
     inkscape:zoom="1.4096228"
     inkscape:cx="348.32012"
     inkscape:cy="295.82381"
     inkscape:window-width="1665"
     inkscape:window-height="1476"
     inkscape:window-x="0"
     inkscape:window-y="25"
     inkscape:window-maximized="0"
     inkscape:current-layer="svg37968" />
  <title
     id="title37869">feeling_proud</title>
  <polygon
     points="549.625,619.279 671.722,619.279 674.189,380.018 516.326,380.018 516.326,565.013 547.27,615.443 "
     fill="#e6e6e6"
     id="polygon37871"
     style="fill:#b5d6ff;fill-opacity:1"
     transform="translate(0,4)" />
  <polygon
     points="516.326,565.013 547.27,615.443 549.169,380.018 516.326,380.018 "
     opacity="0.1"
     id="polygon37873"
     transform="translate(0,4)" />
  <polygon
     points="188.267,614.345 66.17,614.345 63.703,375.084 221.566,375.084 221.566,560.08 190.622,610.51 "
     fill="#e6e6e6"
     id="polygon37875"
     style="fill:#b5d6ff;fill-opacity:1"
     transform="translate(0,4)" />
  <polygon
     points="221.566,560.08 190.622,610.51 188.723,375.084 221.566,375.084 "
     opacity="0.1"
     id="polygon37877"
     transform="translate(0,4)" />
  <polygon
     points="47.67,366.451 109.335,334.385 656.923,334.385 711.188,371.385 711.188,382.484 47.67,382.484 "
     fill="#e6e6e6"
     id="polygon37879"
     style="fill:#b5d6ff;fill-opacity:1"
     transform="translate(0,4)" />
  <polygon
     points="711.188,382.484 47.67,382.484 47.67,366.451 711.188,371.385 "
     opacity="0.1"
     id="polygon37881"
     transform="translate(0,4)" />
  <polygon
     points="113.035,426.883 100.702,418.25 156.201,418.25 142.635,426.883 "
     fill="#3f3d56"
     id="polygon37883"
     style="fill:#13448c;fill-opacity:1"
     transform="translate(0,4)" />
  <polygon
     points="113.035,462.649 100.702,454.016 156.201,454.016 142.635,462.649 "
     fill="#3f3d56"
     id="polygon37885"
     style="fill:#13448c;fill-opacity:1"
     transform="translate(0,4)" />
  <polygon
     points="113.035,513.215 100.702,504.581 156.201,504.581 142.635,513.215 "
     fill="#3f3d56"
     id="polygon37887"
     style="fill:#13448c;fill-opacity:1"
     transform="translate(0,4)" />
  <polygon
     points="113.035,563.78 100.702,555.147 156.201,555.147 142.635,563.78 "
     fill="#3f3d56"
     id="polygon37889"
     style="fill:#13448c;fill-opacity:1"
     transform="translate(0,4)" />
  <polygon
     points="624.857,431.816 637.19,423.183 581.691,423.183 595.257,431.816 "
     fill="#3f3d56"
     id="polygon37891"
     style="fill:#13448c;fill-opacity:1"
     transform="translate(0,4)" />
  <polygon
     points="624.857,467.582 637.19,458.949 581.691,458.949 595.257,467.582 "
     fill="#3f3d56"
     id="polygon37893"
     style="fill:#13448c;fill-opacity:1"
     transform="translate(0,4)" />
  <polygon
     points="624.857,518.148 637.19,509.515 581.691,509.515 595.257,518.148 "
     fill="#3f3d56"
     id="polygon37895"
     style="fill:#13448c;fill-opacity:1"
     transform="translate(0,4)" />
  <polygon
     points="624.857,568.713 637.19,560.08 581.691,560.08 595.257,568.713 "
     fill="#3f3d56"
     id="polygon37897"
     style="fill:#13448c;fill-opacity:1"
     transform="translate(0,4)" />
  <path
     d="M 615.41384,124.45627 H 366.22841 a 9.4227,9.4227 0 0 0 -9.42389,9.42389 v 167.85773 a 9.4227,9.4227 0 0 0 9.42389,9.42388 h 94.5929 l -3.54389,22.62623 c 0,0 -20.25281,10.75927 -6.01251,11.07574 14.2403,0.31647 81.32764,0 81.32764,0 0,0 12.97448,0 -7.59479,-11.39221 l -3.33362,-22.30976 h 93.7497 a 9.42266,9.42266 0 0 0 9.42388,-9.42388 V 133.88016 a 9.42266,9.42266 0 0 0 -9.42388,-9.42389 z"
     fill="#3f3d56"
     id="path37899"
     style="fill:#5c8dca;fill-opacity:1" />
  <rect
     x="365.82336"
     y="134.42445"
     width="249.99557"
     height="139.87094"
     fill="#f2f2f2"
     id="rect37901"
     style="fill:#cee8f4;fill-opacity:1" />
  <circle
     cx="490.82114"
     cy="298.34558"
     r="6.0125499"
     fill="#f2f2f2"
     id="circle37905" />
  <polygon
     points="477.971,346.56 481.452,357.952 481.452,361.117 311.202,361.117 311.202,358.585 311.436,357.952 315.632,346.56 "
     fill="#3f3d56"
     id="polygon37907"
     style="fill:#5c8dca;fill-opacity:1"
     transform="translate(0,4)" />
  <path
     d="m 546.96953,358.854 c -0.31011,1.3259 -1.481,2.72467 -4.1265,4.04741 -9.4935,4.74675 -28.797,-1.2658 -28.797,-1.2658 0,0 -14.87315,-2.53161 -14.87315,-9.17706 a 11.86592,11.86592 0 0 1 1.30377,-0.77528 c 3.99133,-2.11163 17.2253,-7.32222 40.69051,0.22062 a 9.78618,9.78618 0 0 1 4.46035,2.923 4.667,4.667 0 0 1 1.34202,4.02711 z"
     fill="#3f3d56"
     id="path37909"
     style="fill:#5c8dca;fill-opacity:1" />
  <path
     d="m 546.96953,358.854 c -11.62,4.45247 -21.97744,4.78472 -32.607,-2.59805 a 23.34328,23.34328 0 0 0 -13.88583,-4.57268 c 3.99133,-2.11163 17.2253,-7.32222 40.69051,0.22062 a 9.78618,9.78618 0 0 1 4.46035,2.923 4.667,4.667 0 0 1 1.34197,4.02711 z"
     opacity="0.1"
     id="path37911"
     style="fill:#3f3d56;fill-opacity:1" />
  <ellipse
     cx="532.40015"
     cy="354.99017"
     rx="4.1138501"
     ry="1.2658"
     fill="#f2f2f2"
     id="ellipse37913" />
  <polygon
     points="311.436,357.952 481.452,357.952 481.452,361.117 311.202,361.117 311.202,358.585 "
     opacity="0.1"
     id="polygon37915"
     style="fill:#3f3d56;fill-opacity:1"
     transform="translate(0,4)" />
  <path
     d="m 94.66146,2.00015 a 8.55394,8.55394 0 0 0 -4.96126,1.1083 c -1.476,1.0108 -2.40629,2.78162 -3.35588,4.42947 A 52.98576,52.98576 0 0 1 71.91004,23.84256 c -4.28894,3.142 -9.74169,7.05966 -9.00789,12.85269 a 17.37163,17.37163 0 0 0 2.09058,5.4255 c 3.9566,7.987 14.75357,14.15926 13.69156,23.27309 3.931,-6.58092 -1.327,-9.835 2.604,-16.41586 1.87205,-3.134 5.12412,-6.67168 7.95054,-4.70353 0.94637,0.659 1.56777,1.84095 2.55314,2.41917 2.35122,1.37972 4.85259,-1.258 6.93387,-3.12633 7.17685,-6.44263 17.383,-4.7548 26.31387,-2.74743 4.21624,0.94767 8.8473,2.191 11.33971,6.2207 3.277,5.29821 -3.11344,11.02034 -4.72807,17.01049 a 3.264,3.264 0 0 0 3.50293,4.06214 c 2.67975,-0.26434 5.8542,-0.481 6.01278,-1.65694 3.37154,0.12 7.50269,-0.26181 8.94728,-3.7725 a 14.76216,14.76216 0 0 0 0.69252,-4.29319 c 0.5302,-5.89718 3.0331,-11.27719 4.69119,-16.88993 1.65809,-5.61274 2.37906,-12.1905 -0.41909,-17.1668 a 19.86362,19.86362 0 0 0 -3.666,-4.45557 C 135.53395,4.51151 114.65654,1.97734 94.66146,2.00015 Z"
     fill="#2f2e41"
     id="path37917"
     style="fill:#13448c;fill-opacity:1" />
  <path
     d="m 72.92861,109.98588 c -12.66249,2.30228 11.51136,41.4409 11.51136,41.4409 l 57.55681,6.90682 -13.81364,-46.04545 c 1.46557,-11.26479 -60.68462,-14.63828 -55.25453,-2.30227 z"
     fill="#ffb8b8"
     id="path37919"
     sodipodi:nodetypes="ccccc"
     style="fill:#b5d6ff;fill-opacity:1" />
  <polygon
     points="51.633,632.631 75.806,632.631 68.9,569.318 47.028,569.318 "
     fill="#ffb8b8"
     id="polygon37921"
     style="fill:#ffb19e;fill-opacity:1"
     transform="translate(0,4)" />
  <polygon
     points="227.756,502.552 254.233,491.041 243.872,447.298 224.303,449.6 "
     fill="#ffb8b8"
     id="polygon37923"
     style="fill:#ffb19e;fill-opacity:1"
     transform="translate(0,4)" />
  <path
     d="m 29.761,331.5796 c 0,0 1.15113,66.7659 8.058,88.63749 6.90687,21.87159 5.75568,23.02272 4.60455,26.47613 -1.15113,3.45341 -2.30228,1.15114 -2.30228,6.90682 0,5.75568 -2.30227,96.69544 0,104.7534 2.30227,8.05796 -6.90681,21.87159 0,23.02272 6.90681,1.15113 39.13863,0 40.28977,-6.90682 1.15114,-6.90682 -9.20909,-9.20909 -4.60454,-13.81363 4.60455,-4.60454 11.51136,-98.99772 11.51136,-98.99772 l 16.11591,-65.61476 29.92954,-34.53409 h 63.31244 l 19.56932,75.975 c 0,0 -8.058,21.87159 -2.30228,21.87159 5.75572,0 40.28977,6.90682 40.28977,-18.41818 0,-25.325 -11.51136,-100.14886 -13.81361,-102.45113 -2.30225,-2.30227 1.15113,-10.36023 -2.30228,-13.81364 -3.45341,-3.45341 -43.74317,-27.62727 -58.70794,-32.23181 -14.96477,-4.60454 -35.95778,-10.08487 -35.95778,-10.08487 z"
     fill="#2f2e41"
     id="path37925"
     style="fill:#5787c2;fill-opacity:1" />
  <path
     d="m 254.23256,485.83185 c 0,0 -17.267,-5.75568 -25.325,11.51137 -8.058,17.26705 -4.60454,21.87159 -4.60454,21.87159 0,0 26.47613,9.20909 31.08068,4.60454 2.00333,-2.00334 8.36471,-2.69926 14.91273,-2.84621 9.97289,-0.22381 12.62625,-14.33323 3.20748,-17.61885 q -0.42145,-0.147 -0.85317,-0.25539 c -9.20909,-2.30227 -18.41818,-17.26705 -18.41818,-17.26705 z"
     fill="#2f2e41"
     id="path37927"
     style="fill:#13448c;fill-opacity:1" />
  <circle
     cx="108.03826"
     cy="61.364861"
     r="34.534088"
     fill="#ffb8b8"
     id="circle37929"
     style="fill:#ffb19e;fill-opacity:1" />
  <path
     d="m 63.14395,124.37508 c 0,0 56.40567,11.51136 70.21931,-6.90682 13.81364,-18.41818 19.56931,51.80113 19.56931,51.80113 l 6.90682,73.67272 -10.36023,40.28977 c 0,0 -54.1034,43.74318 -71.37044,47.19658 -17.26704,3.4534 -43.74318,5.75569 -43.74318,5.75569 0,0 8.058,-127.77613 8.058,-130.0784 0,-2.30227 20.72041,-81.73067 20.72041,-81.73067 z"
     fill="#b5d6ff"
     id="path37931" />
  <path
     d="m 80.29828,102.7859 c 0,0 -12.54979,-7.18923 -16.0032,-0.28241 -3.45341,6.90682 -35.68522,24.17385 -39.13863,24.17385 -3.45341,0 6.90682,95.54431 2.30227,107.05567 -4.60455,11.51136 -26.47613,95.54433 -13.81363,102.45114 12.6625,6.90681 3.45341,-6.90682 16.11591,10.36022 12.6625,17.26704 74.82385,17.267 78.27726,10.36023 3.45341,-6.90677 -27.62727,-58.708 -21.87159,-107.05567 5.75568,-48.34767 14.96477,-115.11362 6.90682,-124.32271 C 85.01554,116.31713 80.29828,102.7859 80.29828,102.7859 Z"
     fill="#2f2e41"
     id="path37933"
     style="fill:#cd4948;fill-opacity:1" />
  <path
     d="m 121.85195,110.56144 1.60341,-5.518 c 0,0 47.89544,15.87824 50.19772,26.23847 2.30228,10.36023 1.15113,82.88181 -6.90682,88.63749 -8.05795,5.75568 -10.89315,30.83184 -11.51136,28.7784 -0.80758,-2.68245 17.267,28.77841 24.17386,29.92954 6.90686,1.15113 19.56931,9.20909 16.1159,17.267 -3.45341,8.05791 -44.89431,-6.90682 -44.89431,-6.90682 0,0 -27.62727,-20.72045 -26.47613,-52.95227 1.15114,-32.23182 -2.30227,-125.47381 -2.30227,-125.47381 z"
     fill="#2f2e41"
     id="path37935"
     style="fill:#cd4948;fill-opacity:1"
     sodipodi:nodetypes="ccssssscsc" />
  <path
     d="m 162.14166,246.39552 -27.62727,51.80113 c 0,0 -40.28976,41.4409 -17.267,46.04545 23.02276,4.60455 35.68522,-37.9875 35.68522,-37.9875 l 29.92955,-42.592 z"
     fill="#ffb8b8"
     id="path37937"
     style="fill:#ffb19e;fill-opacity:1" />
  <path
     d="m 96.34376,11.03591 a 7.83806,7.83806 0 0 0 -4.03868,0.78334 9.41322,9.41322 0 0 0 -2.73182,3.13072 39.77267,39.77267 0 0 1 -11.7501,11.524 c -3.49138,2.22077 -7.93014,4.98972 -7.3328,9.0842 a 11.35949,11.35949 0 0 0 1.70182,3.8347 30.16344,30.16344 0 0 1 3.66519,18.80068 l 9.60011,-13.954 c 1.52393,-2.21507 4.17125,-4.7155 6.47207,-3.32442 0.77039,0.46577 1.27623,1.30117 2.07836,1.70985 1.914,0.97518 3.95021,-0.88912 5.64447,-2.20967 5.84225,-4.55361 14.15049,-3.36066 21.42059,-1.94187 3.43219,0.66981 7.20207,1.54859 9.231,4.39676 3.37169,4.73311 -0.149,11.5721 1.81882,17.04 a 5.02339,5.02339 0 0 0 2.07852,-3.31717 c 2.74457,0.0848 6.1075,-0.185 7.28345,-2.66638 a 9.18757,9.18757 0 0 0 0.56374,-3.03439 c 0.43161,-4.16809 2.46907,-7.97065 3.81883,-11.93769 1.34976,-3.96704 1.93666,-8.61616 -0.34116,-12.13338 a 14.68107,14.68107 0 0 0 -2.98426,-3.14917 C 129.61569,12.81092 112.62059,11.01979 96.34376,11.03591 Z"
     fill="#2f2e41"
     id="path37939"
     style="fill:#13448c;fill-opacity:1" />
  <path
     d="m 162.14166,126.67734 10.72528,2.84686 c 0,0 24.95995,63.919 19.20427,107.66222 -5.75568,43.74322 -9.20909,34.53409 -9.20909,34.53409 0,0 -9.20909,-20.72046 -29.92955,-16.11591 z"
     fill="#2f2e41"
     id="path37941"
     style="fill:#cd4948;fill-opacity:1" />
  <path
     d="m 48.62289,628.26334 c -2.77592,3.77228 -2.21935,9.16459 -4.67828,13.15075 -2.13144,3.45526 -6.14837,5.26695 -8.81439,8.32869 a 22.32616,22.32616 0 0 0 -2.26617,3.25987 c -2.47311,4.14255 -4.4833,9.45174 -2.04761,13.61641 1.95936,3.35022 6.07786,4.65961 9.855,5.552 4.77407,1.128 9.73436,2.03071 14.56354,1.16876 4.82918,-0.86195 9.54882,-3.819 11.27067,-8.41239 a 32.50011,32.50011 0 0 1 1.2051,-3.4007 c 2.61747,-5.15294 10.82749,-5.20864 13.50628,-10.33 1.87466,-3.584 0.15138,-7.91623 -1.57118,-11.57578 l -5.26109,-11.1771 c -1.74592,-3.70919 -8.82362,-1.57608 -12.51339,-2.46492 -4.81224,-1.15915 -9.78658,-2.43633 -13.24848,2.28441 z"
     fill="#2f2e41"
     id="path37943"
     style="fill:#13448c;fill-opacity:1" />
  <path
     d="M 10.19168,269.41824 58.5394,344.2421 c 0,0 29.92954,37.98749 39.13863,20.72045 C 106.88712,347.69551 65.44622,318.9171 65.44622,318.9171 L 34.36554,261.36034 Z"
     fill="#ffb8b8"
     id="path37945"
     style="fill:#ffb19e;fill-opacity:1" />
  <path
     d="m 34.36554,128.97962 -9.20909,-2.30228 c 0,0 -18.41818,5.75568 -23.02272,29.92954 -4.60454,24.17386 -1.15114,120.86931 4.60454,122.02044 5.75568,1.15113 28.42725,-16.83663 32.05624,-13.02286 3.62899,3.81377 -7.88238,-15.75554 -4.429,-26.11577 3.45338,-10.36023 3e-5,-110.50907 3e-5,-110.50907 z"
     fill="#2f2e41"
     id="path37947"
     style="fill:#cd4948;fill-opacity:1" />
  <g
     id="f3c2397c-d780-4cc6-97d8-1503d8277a2c"
     data-name="Group 13"
     style="fill:#5c8dca;fill-opacity:1"
     transform="translate(0,4)">
    <rect
       id="ad41612f-86f7-46b2-a964-3a5da7bcf3cf"
       data-name="Rectangle 55"
       x="437.40692"
       y="176.36275"
       width="29.75235"
       height="7.1626"
       fill="#b5d6ff"
       style="fill:#5c8dca;fill-opacity:1" />
    <rect
       id="b9a0b375-cc2a-4c59-8850-661af54e4f62"
       data-name="Rectangle 56"
       x="559.72217"
       y="176.36275"
       width="10.46842"
       height="7.1626"
       fill="#b5d6ff"
       style="fill:#5c8dca;fill-opacity:1" />
    <rect
       id="e174c2ab-9bc5-41ec-b37c-b06fbf8a9878"
       data-name="Rectangle 57"
       x="580.659"
       y="176.36275"
       width="10.46842"
       height="7.1626"
       fill="#b5d6ff"
       style="fill:#5c8dca;fill-opacity:1" />
    <rect
       id="ba2479ac-4c7d-43b4-a028-73b1e20e4002"
       data-name="Rectangle 58"
       x="477.62769"
       y="176.36275"
       width="71.075058"
       height="7.1626"
       fill="#b5d6ff"
       style="fill:#5c8dca;fill-opacity:1" />
    <rect
       id="ac60ef86-00f2-480b-8171-28b6fdfc1958"
       data-name="Rectangle 59"
       x="399.94098"
       y="222.6442"
       width="29.75235"
       height="7.1626"
       fill="#b5d6ff"
       style="fill:#5c8dca;fill-opacity:1" />
    <rect
       id="b3d8298d-cd65-487a-8b19-4cee946356e7"
       data-name="Rectangle 60"
       x="522.25623"
       y="222.6442"
       width="10.46842"
       height="7.1626"
       fill="#b5d6ff"
       style="fill:#5c8dca;fill-opacity:1" />
    <rect
       id="ed27f15f-f0c4-4569-8330-a6688f8e356c"
       data-name="Rectangle 61"
       x="543.19305"
       y="222.6442"
       width="10.46842"
       height="7.1626"
       fill="#b5d6ff"
       style="fill:#5c8dca;fill-opacity:1" />
    <rect
       id="f685c005-adaf-4d60-acda-005b037d82a6"
       data-name="Rectangle 62"
       x="440.16177"
       y="222.6442"
       width="71.075058"
       height="7.1626"
       fill="#b5d6ff"
       style="fill:#5c8dca;fill-opacity:1" />
    <rect
       id="eca7c7fc-83f8-48ca-a588-6606db47af3f"
       data-name="Rectangle 63"
       x="522.80719"
       y="192.34088"
       width="29.75235"
       height="7.1626"
       fill="#b5d6ff"
       style="fill:#5c8dca;fill-opacity:1" />
    <rect
       id="a71b5b2f-f8b9-481d-a301-5e3357e5fe42"
       data-name="Rectangle 64"
       x="563.02795"
       y="192.34088"
       width="29.75235"
       height="7.1626"
       fill="#b5d6ff"
       style="fill:#5c8dca;fill-opacity:1" />
    <rect
       id="abb3a25a-f854-41fc-8391-e6ad9fbe2417"
       data-name="Rectangle 66"
       x="399.94098"
       y="192.34088"
       width="10.46842"
       height="7.1626"
       fill="#b5d6ff"
       style="fill:#5c8dca;fill-opacity:1" />
    <rect
       id="add2b425-b775-4eb5-9c25-8c4c14f957c9"
       data-name="Rectangle 67"
       x="420.87784"
       y="192.34088"
       width="10.46842"
       height="7.1626"
       fill="#b5d6ff"
       style="fill:#5c8dca;fill-opacity:1" />
    <rect
       id="b7159612-3b84-4b0b-a885-612eaab04c06"
       data-name="Rectangle 68"
       x="441.81467"
       y="192.34088"
       width="71.075058"
       height="7.1626"
       fill="#b5d6ff"
       style="fill:#5c8dca;fill-opacity:1" />
    <rect
       id="edfc7301-4de5-47dc-80e2-1ae2da982d6d"
       data-name="Rectangle 69"
       x="461.0986"
       y="207.76802"
       width="29.75235"
       height="7.1626"
       fill="#b5d6ff"
       style="fill:#5c8dca;fill-opacity:1" />
    <rect
       id="e1009f91-6275-4375-80fa-0d778e331fdc"
       data-name="Rectangle 70"
       x="420.87784"
       y="207.76802"
       width="29.75235"
       height="7.1626"
       fill="#b5d6ff"
       style="fill:#5c8dca;fill-opacity:1" />
    <rect
       id="a060fb9f-1f1a-4862-9a69-16dd49199e18"
       data-name="Rectangle 71"
       x="399.94101"
       y="207.76802"
       width="10.46842"
       height="7.1626"
       fill="#b5d6ff"
       style="fill:#5c8dca;fill-opacity:1" />
    <rect
       id="b6754d5f-104f-449c-b9a9-cf9ac82bf5fe"
       data-name="Rectangle 73"
       x="582.31189"
       y="207.76802"
       width="10.46842"
       height="7.1626"
       fill="#b5d6ff"
       style="fill:#5c8dca;fill-opacity:1" />
    <rect
       id="e6ed1ccd-2cfd-450f-a339-07df3a1ee6bb"
       data-name="Rectangle 74"
       x="500.7684"
       y="207.76802"
       width="71.075058"
       height="7.1626"
       fill="#b5d6ff"
       style="fill:#5c8dca;fill-opacity:1" />
  </g>
  <metadata
     id="metadata45730">
    <rdf:RDF>
      <cc:Work
         rdf:about="">
        <dc:title>feeling_proud</dc:title>
      </cc:Work>
    </rdf:RDF>
  </metadata>
  <circle
     cx="490.82117"
     cy="129.7377"
     r="1.58225"
     fill="#f2f2f2"
     id="circle37903" />
  <path
     d="m 395.55153,55.232733 c 0,0 -1.06711,7.734927 7.87145,7.601537 0,0 -7.73807,0.13339 -7.60468,7.33633 0,0 -0.66694,-5.73568 -7.7365,-6.93617 0,-0.13339 6.00246,1.20049 7.46973,-8.001697 z"
     fill="#2b5d8f"
     id="path46924"
     style="stroke-width:1.56927" />
  <path
     d="m 214.0514,105.34578 12.30621,-70.408408 c 0.45509,-3.188755 3.19032,-5.696448 6.60819,-5.696448 l 113.25888,1.13929 c 4.10207,0 7.06485,3.646982 6.60976,7.519938 l -10.71183,61.749188 -5.4689,35.09042 c -0.22755,1.82192 -2.73524,2.27858 -3.64542,0.91018 L 318.65105,114.005 220.88714,112.86571 c -4.10207,0 -7.2924,-3.41786 -6.83574,-7.51993 z"
     fill="#b5d6ff"
     id="path47046"
     style="stroke-width:1.56927" />
  <path
     d="m 254.38633,51.116539 h 65.63155 c 1.13929,0 2.05104,0.910176 1.82349,2.049466 l -0.22754,1.823491 c -0.22911,0.911745 -0.91175,1.594374 -1.82349,1.594374 h -65.63155 c -1.13929,0 -2.05104,-0.910173 -1.82349,-2.049462 l 0.22911,-1.823491 c 0.22754,-0.911746 0.91017,-1.594378 1.82192,-1.594378 z"
     fill="#ffffff"
     id="path47048"
     style="stroke-width:1.56927" />
  <path
     d="m 252.10775,68.43343 h 65.63155 c 1.13929,0 2.05104,0.91174 1.82349,2.05104 l -0.22911,1.82192 c -0.22754,0.91174 -0.91017,1.59595 -1.82192,1.59595 h -65.63155 c -1.13929,0 -2.05104,-0.91175 -1.82349,-2.05105 l 0.22754,-1.82349 c 0.22911,-0.91174 1.14086,-1.59437 1.82349,-1.59437 z"
     fill="#ffffff"
     id="path47050"
     style="stroke-width:1.56927" />
  <path
     d="m 267.83183,87.3447 h 30.30887 c 1.13929,0 2.05103,0.91173 1.82349,2.05103 l -0.22754,1.82349 c -0.22755,0.91175 -0.91175,1.59438 -1.8235,1.59438 h -30.30886 c -1.13929,0 -2.05104,-0.91175 -1.82349,-2.05103 l 0.22754,-1.82193 c 0.22911,-0.91174 0.91174,-1.59594 1.82349,-1.59594 z"
     fill="#ffffff"
     id="path47052"
     style="stroke-width:1.56927" />
  <path
     d="m 363.54471,104.89069 c -1.36841,1.13929 -3.64698,0 -3.41944,-1.82349 l 14.58479,-83.623225 c 0.45666,-2.733667 2.73524,-4.784702 5.47047,-4.784702 l 96.16797,0.911746 c 3.41787,0 6.1531,2.961211 5.4689,6.37908 L 471.56223,81.64825 c -0.45509,2.73524 -2.73524,4.7847 -5.46891,4.7847 l -74.06324,-0.91018 c -3.41786,0 -6.8373,1.13929 -9.57097,3.41787 z"
     fill="#ecadad"
     id="path47054"
     style="stroke-width:1.56927" />
  <path
     d="m 393.39692,39.49453 h 65.63155 c 1.13929,0 2.05104,0.911746 1.82349,2.051035 l -0.22754,1.823491 c -0.22912,0.911746 -0.91175,1.594378 -1.82349,1.594378 h -65.63156 c -1.13929,0 -2.05103,-0.911746 -1.82349,-2.051035 l 0.22912,-1.821922 c 0.22754,-0.911745 0.91017,-1.595947 1.82192,-1.595947 z"
     fill="#ffffff"
     id="path47056"
     style="stroke-width:1.56927" />
  <path
     d="m 391.34588,57.04053 h 65.63156 c 1.13929,0 2.05103,0.91175 1.82349,2.05104 l -0.22755,1.82192 c -0.22911,0.91175 -0.91174,1.59595 -1.82349,1.59595 h -65.63155 c -1.13929,0 -2.05104,-0.91175 -1.82349,-2.05104 l 0.22911,-1.82349 c 0,-0.91175 0.91018,-1.59438 1.82192,-1.59438 z"
     fill="#ffffff"
     id="path47058"
     style="stroke-width:1.56927" />
  <path
     d="m 64.376595,55.28346 h 2.628036 c 0,-19.867962 19.66297,-32.887255 39.499389,-32.897768 a 43.300724,43.300724 0 0 1 8.59368,0.835716 c 3.18518,0.635985 6.49125,1.398115 9.7395,2.391513 12.80906,3.926287 24.68778,11.516057 24.68778,29.670539 a 41.308005,41.308005 0 0 1 -1.33504,10.44907 l 2.54394,0.66226 a 44.085692,44.085692 0 0 0 1.41914,-11.11133 c 0,-15.862834 -6.51228,-26.758674 -17.76027,-33.255181 -5.91309,-3.416447 -13.12968,-5.618742 -21.39748,-6.690981 A 51.052654,51.052654 0 0 0 102.61453,15.021934 C 79.80317,16.661808 64.376595,34.15403 64.376595,55.28346 Z"
     fill="#a5ceff"
     id="path56191"
     style="fill:#ff4751;fill-opacity:1;stroke-width:0.525607" />
  <path
     d="m 59.998286,56.73937 1.035446,-7.652847 a 8.2573593,8.2573593 0 0 1 2.628037,-5.024806 8.3128267,8.3128267 0 0 1 6.964297,-2.102429 l 1.645151,0.226011 a 3.4291988,3.4291988 0 0 1 2.286391,1.329787 3.4416767,3.4416767 0 0 1 0.678034,2.559707 L 72.844129,63.70366 a 3.4569824,3.4569824 0 0 1 -2.785719,2.92764 3.2348082,3.2348082 0 0 1 -0.641241,0.0631 3.4158326,3.4158326 0 0 1 -0.462535,-0.0315 l -1.839625,-0.24704 a 8.3000492,8.3000492 0 0 1 -5.645023,-3.37965 c -0.141914,-0.19973 -0.278572,-0.40472 -0.404717,-0.61499 a 8.8030816,8.8030816 0 0 1 -1.066983,-5.68186 z"
     fill="#a5ceff"
     id="path56193"
     style="fill:#ff4751;fill-opacity:1;stroke-width:0.525607" />
  <path
     d="m 73.332943,42.505941 a 3.3805486,3.3805486 0 0 1 1.224665,1.009166 3.4416767,3.4416767 0 0 1 0.678034,2.559707 L 72.844129,63.70368 a 3.4569824,3.4569824 0 0 1 -2.785719,2.92764 z"
     fill="#ffffff"
     id="path56195"
     style="fill:#cc3241;fill-opacity:1;stroke-width:0.525607" />
  <path
     d="m 59.998286,56.73937 1.035446,-7.652847 a 8.2573593,8.2573593 0 0 1 2.628037,-5.024806 L 61.280768,61.60123 a 3.2461088,3.2461088 0 0 1 -0.215499,0.81995 8.8030816,8.8030816 0 0 1 -1.066983,-5.68181 z"
     fill="#3f3d56"
     id="path56197"
     style="fill:#cc3241;fill-opacity:1;stroke-width:0.525607" />
  <ellipse
     cx="-75.931526"
     cy="48.843575"
     rx="1.3140182"
     ry="3.6792512"
     transform="matrix(-0.99092349,-0.13442705,-0.13442705,0.99092349,0,0)"
     fill="#3f3d56"
     id="ellipse56199"
     style="fill:#cc3241;fill-opacity:1;stroke-width:0.525607" />
  <ellipse
     cx="-76.222206"
     cy="39.256557"
     rx="1.3140182"
     ry="3.6792512"
     transform="matrix(-0.99092349,-0.13442705,-0.13442705,0.99092349,0,0)"
     fill="#3f3d56"
     id="ellipse56201"
     style="fill:#cc3241;fill-opacity:1;stroke-width:0.525607" />
  <ellipse
     cx="-66.820915"
     cy="44.244881"
     rx="1.3140182"
     ry="3.6792512"
     transform="matrix(-0.99092349,-0.13442705,-0.13442705,0.99092349,0,0)"
     fill="#3f3d56"
     id="ellipse56203"
     style="fill:#cc3241;fill-opacity:1;stroke-width:0.525607" />
  <path
     d="m 106.50402,22.385677 a 43.300724,43.300724 0 0 1 8.59368,0.835715 c 3.18518,0.635985 6.49125,1.398116 9.7395,2.391514 5.07212,-0.247036 8.80393,-1.561054 9.55555,-3.584642 -5.91309,-3.416448 -13.12968,-5.618743 -21.39748,-6.690982 a 51.052654,51.052654 0 0 0 -10.38074,-0.315364 3.0101531,3.0101531 0 0 0 -1.42965,2.00782 c -0.24704,1.829135 1.83962,3.773855 5.31914,5.355939 z"
     fill="#3f3d56"
     id="path56205"
     style="fill:#cc3241;fill-opacity:1;stroke-width:0.525607" />
  <path
     d="m 140.05879,73.52203 4.04718,-16.82469 a 3.166085,3.166085 0 0 1 2.56496,-2.39151 3.5390507,3.5390507 0 0 1 0.52561,-0.0421 3.1671836,3.1671836 0 0 1 0.73585,0.0893 l 1.56631,0.37844 a 7.8336515,7.8336515 0 0 1 5.77642,9.43991 l -1.81334,7.54772 a 8.3282953,8.3282953 0 0 1 -2.80674,4.53076 7.3821548,7.3821548 0 0 1 -0.71483,0.50984 7.7838292,7.7838292 0 0 1 -5.97615,0.96711 L 142.403,77.34838 a 3.0696203,3.0696203 0 0 1 -1.14057,-0.53086 3.1501066,3.1501066 0 0 1 -1.20364,-3.29559 z"
     fill="#a5ceff"
     id="path56207"
     style="fill:#ff4751;fill-opacity:1;stroke-width:0.525607" />
  <ellipse
     cx="-160.88959"
     cy="30.004993"
     rx="1.3140182"
     ry="3.6792512"
     transform="matrix(-0.97224547,-0.23396312,-0.23396312,0.97224547,0,0)"
     fill="#3f3d56"
     id="ellipse56209"
     style="fill:#cc3241;fill-opacity:1;stroke-width:0.525607" />
  <ellipse
     cx="-166.3687"
     cy="30.308329"
     rx="1.3140182"
     ry="3.6792512"
     transform="matrix(-0.97224547,-0.23396312,-0.23396312,0.97224547,0,0)"
     fill="#3f3d56"
     id="ellipse56211"
     style="fill:#cc3241;fill-opacity:1;stroke-width:0.525607" />
  <path
     d="m 139.80125,73.45893 4.04717,-16.82469 a 3.4331304,3.4331304 0 0 1 2.78046,-2.58599 l -5.52413,22.97955 a 3.4222818,3.4222818 0 0 1 -1.3035,-3.56887 z"
     fill="#ffffff"
     id="path56213"
     style="fill:#cc3241;fill-opacity:1;stroke-width:0.525607" />
  <path
     d="m 154.36057,60.83912 a 3.403833,3.403833 0 0 1 0.61496,-1.28773 7.7398043,7.7398043 0 0 1 0.29959,4.62008 l -1.81334,7.54772 a 8.3282953,8.3282953 0 0 1 -2.80674,4.53077 z"
     fill="#3f3d56"
     id="path56215"
     style="fill:#cc3241;fill-opacity:1;stroke-width:0.525607" />
  <path
     d="m 133.24125,90.99787 -0.30127,-1.80974 c 9.65544,-1.50847 16.59522,-14.48005 16.59522,-14.48005 l 1.50847,0.90383 c -0.60256,0.60464 -7.54234,13.57622 -17.80242,15.38596 z"
     fill="#ff4751"
     id="path47012"
     style="stroke-width:2.07778" />
  <path
     d="m 134.74972,90.09404 c -0.30127,-1.50847 -2.71565,-2.41438 -5.43132,-1.81183 -2.71358,0.60464 -4.82668,2.11311 -4.5254,3.62158 0.30128,1.50846 2.71566,2.4123 5.43131,1.80974 3.01694,-0.30128 4.82877,-2.11102 4.52541,-3.61949 z"
     fill="#ff4751"
     id="path47014"
     style="stroke-width:2.07778" />
</svg>
