<svg xmlns="http://www.w3.org/2000/svg" width="300" height="200" viewBox="0 0 79.375 52.917"><title>And so much more!</title><path fill="#e40303" fill-rule="evenodd" stroke="#1b1b3d" stroke-width=".865" d="M56.739 11.208c-10.288-7.053-24.344-4.43-31.397 5.858l16.765 11.492a2.258 2.258 0 1 1 3.725 2.554l16.765 11.492c7.052-10.287 4.43-24.344-5.858-31.396Z"/><path fill="#ff8c00" fill-rule="evenodd" stroke="#1b1b3d" stroke-width=".736" d="M54.823 14.002c-8.744-5.995-20.692-3.765-26.686 4.98l13.97 9.576a2.258 2.258 0 1 1 3.725 2.554l13.97 9.577c5.995-8.745 3.766-20.693-4.979-26.687Z"/><path fill="#fcd120" fill-rule="evenodd" stroke="#1b1b3d" stroke-width=".606" d="M52.908 16.796c-7.201-4.937-17.04-3.1-21.977 4.1l11.176 7.662a2.258 2.258 0 1 1 3.725 2.554l11.177 7.661c4.936-7.201 3.1-17.04-4.1-21.977z"/><path fill="#24408e" fill-rule="evenodd" stroke="#1b1b3d" stroke-width=".476" d="M50.993 19.59c-5.659-3.879-13.39-2.436-17.268 3.222l8.382 5.746a2.258 2.258 0 1 1 3.725 2.554l8.383 5.746c3.878-5.658 2.435-13.39-3.222-17.268z"/><path fill="#732982" fill-rule="evenodd" stroke="#1b1b3d" stroke-width=".346" d="M49.077 22.384a9.033 9.033 0 0 0-12.558 2.343l5.588 3.831a2.258 2.258 0 1 1 3.725 2.554l5.589 3.83a9.034 9.034 0 0 0-2.344-12.558z"/><path fill="#732982" fill-rule="evenodd" stroke="#1b1b3d" stroke-width=".216" d="M47.162 25.178a5.646 5.646 0 0 0-7.85 1.465l2.795 1.915a2.258 2.258 0 1 1 3.725 2.554l2.794 1.915a5.646 5.646 0 0 0-1.464-7.849z"/><path fill="#231f20" d="M48.462 30.613c.746 1.104 1.013 2.381.792 3.801-.418 2.695-2.403 4.133-5.897 4.278-.225 1.779-.951 3.403-2.057 4.59-1.335 1.432-3.179 2.19-5.335 2.19a8.06 7.469 0 0 1-.471-.013c-1.715-.084-3.395-.868-4.762-2.22-.98 1.533-2.668 2.507-4.373 2.507-.095 0-.19-.004-.285-.01-3.023-.18-4.273-2.51-4.452-4.558-.453.146-1.4.404-2.432.404s-1.879-.258-2.516-.765c-.814-.647-1.434-2.173-.494-3.702 0 0 .262-.295.571-.522.301-.219.446-.289.446-.289s-.292-.107-.804.012c-.42.097-.805.36-1.09.78-2.483-.276-5.57-2.401-5.624-6.163-.012-.825.399-2.794 2.04-4.336 1.369-1.285 3.222-1.937 5.507-1.937.27 0 .547.01.829.028-.002-.88.217-4.08 3.381-5.081a6.177 6.177 0 0 1 1.867-.282c1.577 0 2.892.525 3.646.905.033.561.274.948.274.948s.353-.755 1.102-1.528c1.35-1.206 3.995-3.077 7.402-3.077.23 0 .466.009.697.026 3.037.225 5.948 2.303 7.154 5.085a6.271 6.271 0 0 1 2.529-.546c2.657 0 5.066 1.844 5.603 4.289.48 2.19-.73 4.114-3.248 5.186zm4.143-5.53c-.451-2.057-2.1-3.73-4.157-4.417a6.522 6.522 0 0 0-2.43-.475c-.656 0-1.31.098-1.954.292-1.098-1.954-2.994-3.5-5.139-4.24a8.708 8.708 0 0 0-2.54-.589 9.343 8.657 0 0 0-.747-.027c-4.186 0-7.21 2.566-8.375 3.737a9.767 9.05 0 0 0-.904-.361c-.828-.323-1.927-.625-3.145-.625-.717 0-1.414.106-2.07.313-2.766.876-3.655 3.323-3.794 5.024a10.97 10.165 0 0 0-.213-.002c-2.46 0-4.463.71-5.955 2.112-1.553 1.458-2.24 3.486-2.222 4.754.05 3.44 2.442 5.628 4.826 6.428.45.178.905.308 1.348.385-.402 1.384.095 2.752 1.04 3.505.372.295.799.519 1.277.67.586.245 1.26.37 2.017.37a8.14 8.14 0 0 0 1.582-.164c.2.873.572 1.67 1.094 2.317.609.753 1.4 1.29 2.328 1.592a5.727 5.727 0 0 0 2.166.419c1.673 0 3.272-.779 4.39-2.086a8.21 8.21 0 0 0 2.373 1.284c.755.3 1.542.476 2.338.515a9.511 8.813 0 0 0 .504.012c2.345 0 4.355-.826 5.812-2.392 1.085-1.165 1.83-2.715 2.132-4.42 4.357-.353 5.658-2.744 5.969-4.746.206-1.329.022-2.547-.548-3.635 1.113-.573 1.945-1.316 2.478-2.216.598-1.009.777-2.161.52-3.334"/><path fill="#fefefe" d="M46.107 21.138c-.851 0-1.701.184-2.529.546-1.206-2.782-4.117-4.86-7.154-5.085a8.885 8.233 0 0 0-.697-.026c-4.46 0-7.617 3.21-8.27 3.93-.515-.305-2.163-1.178-4.154-1.178a6.18 6.18 0 0 0-1.867.282c-3.164 1.001-3.383 4.2-3.381 5.08a11.755 10.892 0 0 0-.83-.027c-2.284 0-4.137.652-5.506 1.937-1.641 1.542-2.052 3.51-2.04 4.336.057 4.043 3.62 6.196 6.168 6.196.114 0 .225-.005.333-.014-.94 1.529-.32 3.055.494 3.702.638.507 1.484.765 2.516.765s1.979-.258 2.432-.404c.179 2.048 1.43 4.377 4.452 4.559.095.004.19.009.285.009 1.705 0 3.393-.974 4.373-2.506 1.367 1.35 3.047 2.135 4.762 2.219.157.008.316.012.47.012h.001c2.156 0 4-.757 5.335-2.19 1.106-1.186 1.832-2.81 2.057-4.589 3.494-.145 5.479-1.583 5.897-4.278.221-1.42-.046-2.697-.792-3.8 2.517-1.073 3.73-2.998 3.248-5.187-.537-2.445-2.946-4.29-5.603-4.29"/><g fill="#1b1b3d" stroke="#1b1b3d"><path stroke-width="1.058" d="m34.332 18.056-1.943-.013q-.216 0-.28-.28-.063-.178-.063-.507 0-1.104-.025-1.967-.038-1.244-.038-2.628V9.868q0-.114.102-.215.114-.114.228-.114l1.473.013q.419.013 1.053.013.953 0 1.485-.013l.47-.013q.786-.026 1.244-.026.787 0 1.522.305.864.33 1.384 1.13.622.964.622 2.373 0 1.333-.305 2.222-.291.888-.938 1.459-.649.558-1.702.813-1.04.254-2.614.254zm1.776-1.688q.05.012.14.012.101 0 .28-.025.063-.012.088-.025.038-.026.063-.039.153-.178.292-.748.09-.356.216-1.22.064-.735.064-1.269v-.24q0-.33-.064-.99-.09-.66-.254-.927-.139-.178-.254-.178-.114 0-.203.026-.089.025-.114.037l-.115.064-.012 1.524q0 .202-.026.609l-.012.305q-.026.635-.026.913z"/><path stroke-width="1.176" d="M23.053 18.617q-.14 0-.24-.03h-.634l-.635-.154-.043-.113q-.014 0-.014-.155-.028-.424-.028-.974 0-.395-.028-.635 0-.395-.014-.593v-.493q-.07-.649-.085-1.425-.014-.776-.014-1.51l.028-1.439q.014-.24.014-.734t-.014-.734q-.042-.324.184-.48.14-.07.493-.07.522 0 1.34-.027l.312-.03q.845-.056 1.058-.056.197 0 .282.015.197.014.268.057.07.041.127.14.07.1.099.155.169.226.337.48.256.38.41.592l.931 1.426.452.677q0-.367.029-.578v-1.312l.041-1.003q.014-.112.03-.155.013-.042.04-.056l.044-.043q.168-.14.338-.211.141-.028.226-.028h.972q.113.014.396.014.31 0 .493.014h1.044q.368 0 .495.113.155.113.155.493l-.014.142-.015.225q-.014.085-.014.226v.283l.029.14v.452q-.015.24-.015.818v1.044q-.014.367-.014 1.03v3.528l-.057.536q-.056.324-.225.395l-.24.014-.24-.014h-2.54q-.282.028-.55-.07-.127-.057-.282-.184l-1.44-2.018q0-.014-.31-.522-.113-.169-.211-.296-.028-.056-.07-.084-.03-.043-.043-.043-.127 0-.127.113v.31q-.014.142-.014.466v1.086q-.03.169-.03.424v.493l.016.07q0 .114-.113.142-.07.056-.226.028-.48.028-.762.057-.169.014-.592.042-.424.029-.79.029z"/><path stroke-width=".913" d="M10.505 19.305c-.131.012-.231-.081-.3-.278a.534.534 0 0 1-.03-.15 2.557 2.557 0 0 1 .02-.461l.018-.308.029-.185c.174-1.453.358-2.734.554-3.841l.627-4.888c-.002-.02.01-.052.037-.095a.193.193 0 0 1 .099-.086l.076-.007c0 .01.016.015.047.012a2.14 2.14 0 0 0 .405-.083 2.104 2.104 0 0 1 .406-.082c.222-.02.43-.024.625-.01a3.15 3.15 0 0 1 .305-.013c.112 0 .228-.005.35-.016a.37.37 0 0 0 .133-.042l.273-.025.35-.032.362-.049c.07-.015.155-.03.256-.04.081-.005.121-.015.12-.025l.242-.022.516-.047.637-.057c.565-.052.94-.077 1.125-.072a.61.61 0 0 1 .122.005c.06-.006.097 0 .11.02.07-.005.14-.018.21-.035a1.41 1.41 0 0 1 .195-.032c.14-.044.274-.072.406-.084a.397.397 0 0 1 .186.03.437.437 0 0 0 .201.028l.075-.023.045-.004a.381.381 0 0 1 .1.083c.042.027.065.05.067.07L21 13.156a54.673 54.673 0 0 1 1.22 3.68.407.407 0 0 0 .078.192l.072.284c.031.12.05.22.057.301a.725.725 0 0 1 .031.165.618.618 0 0 1-.06.357.205.205 0 0 1-.173.107l-.197.018a3.017 3.017 0 0 1-.35.017l-.394.036-.38.034-.303.027c-.08.007-.121.006-.122-.005l-.955.087-.003-.03a.34.34 0 0 0-.155-.017l-.014.017-.015.017c.002.02-.006.032-.026.034l-.046.004-.121.01a.978.978 0 0 0-.307-.003c-.304.007-.543.018-.714.034-.07-.085-.152-.26-.248-.528l-.28-.892a2.035 2.035 0 0 0-.09-.328 4.61 4.61 0 0 1-.829.136l-.47.043-.44.04-.061.495c-.072.679-.14 1.103-.206 1.272a.492.492 0 0 0-.149.044l-.058.036h-.015l-.062.007a.24.24 0 0 1-.138-.018.102.102 0 0 0-.079-.024l-.679.092-.243.022-.227.021a.34.34 0 0 1-.15.045l-.06.006-1.394.126-.137.013a10 10 0 0 1-.681.077l-.394.036c-.08.017-.196.033-.347.046zm6.669-4.349L17 14.222a23.03 23.03 0 0 1-.224-.79c-.03-.099-.105-.367-.227-.804l-.187-.717a10.61 10.61 0 0 0-.14-.523l-.032-.196a.274.274 0 0 1-.058-.132c-.023-.115-.03-.074-.031.003.004.041-.004.067-.024.08l.006.06-.012.2a3.635 3.635 0 0 1-.024.246c-.003.082-.01.175-.02.278l-.038.43a83.73 83.73 0 0 1-.097 1.125c0 .112-.01.281-.03.507a2.605 2.605 0 0 0-.032.324l-.058.709.773-.07.104-.04.03-.004a.883.883 0 0 1 .275.006.183.183 0 0 1 .11.021c.041.006.077.014.109.021z"/><path stroke-width=".941" d="M55.946 17.842q-1.338-.116-2.095-.397-1.056-.375-1.553-1.188-.572-.967-.432-2.587.1-1.159.428-1.946.33-.788.914-1.258.585-.47 1.449-.633.876-.174 2.102-.068.957.083 1.774.449 1.003.46 1.51 1.274.63.973.501 2.458-.149 1.732-.751 2.655-.594.843-1.605 1.13-.824.234-2.242.111zm.005-1.098q.135.012.228-.151.2-.345.336-1.116.129-.703.182-1.332l.04-.45.024-.281q.042-.495.037-1.21 0-.77-.136-1.178-.074-.199-.197-.21-.248-.022-.401.44-.169.644-.215 1.172-.073.447-.155 1.404-.056.64-.058 1.06-.046.529.006 1.235.062.596.309.616z"/><path stroke-width="1.058" d="M48.626 18.354q-.901 0-1.815-.203-.902-.215-1.485-.584-.152-.456-.228-.914-.077-.456-.191-1.307v-.039q.026-.151.165-.228.482.292.927.445.444.139.977.139h.305l.203.013q.291 0 .596-.09.166-.062.228-.24l-.672-.33q-.774-.368-1.396-.787-.647-.47-.927-1.193-.139-.394-.139-.864 0-1.141.698-1.84.61-.621 1.65-.888.902-.216 1.98-.216.635 0 1.751.14.114.025.318.05l.381.076q.432.077.635.077.012 0 .038.037l.063.064q.05.09.102.09h.025l.025.265q0 .19.038.407.039.318.039.685 0 .318-.039.456-.064.255-.228.369l-1.181-.152h-.304q-.432 0-.99.09l-.42.088q-.151.025-.151.05 0 .305.393.572.19.101.38.178.191.063.242.089.939.266 1.625.926.317.305.495.647t.178.66q0 .19-.05.407-.09.95-.725 1.65-.622.62-1.56.913-.814.291-1.956.291z"/><path stroke-width="1.144" d="M43.435 30.956q-.86.081-1.287.094-.658.034-1.163-.057-.055.005-.126-.153-.052-.12-.06-.188l-.727-4.95-.025-.274q-.01-.095-.018-.343-.01-.247-.049-.657l-.04-.714q-.024-.273-.023-.41-.04-.41-.048-.796l-.016-.165q.008-.055.007-.069.026-.016.09-.077.075-.076.126-.123.125-.135.384-.16l.794-.074.218-.02q.139 0 .507-.034.397-.038.644-.048l.628-.06.507-.046.204-.02q.355-.033.49.064.175.109.208.464l.013.136q.005.056-.003.111t-.003.11l-.007.222.002.165q.005.055.038.107.018.053.026.136.035.369.037.534l.039.561.355-.033q.182.024.387.005.276.002.385-.008.125.015.372-.007l-.074-.93q.002-.125-.02-.358l-.04-.561-.01-.11q-.02-.218-.021-.384-.003-.178.03-.25.073-.118.182-.128.08-.035.38-.063l.368-.048q.397-.038.654-.09l.779-.073q.546-.051.79-.088.48-.045.656-.076l.37-.034q.327-.03.444.04.087.048.125.154.036.094.053.285.05.533.109 1.437.027.88.077 1.414.007.081.04.134.006.054.024.094.015.026.016.04l.147 5.225q.006.07-.077.2-.111.136-.208.145l-3.758.353q-.04.004-.089-.06-.046-.065-.084-.171-.02-.068-.058-.175-.025-.121-.055-.298l-.388-2.514-.096.01q-.37.034-.589.04-.522.022-.645.034l-.11.01q-.122.011-.1.244.158 1.695.188 2.16.01.11.009.523.002.318-.197.405l-.203.033q-1.062.155-1.484.209z"/><path stroke-width="1.194" d="M38.763 31.163q-.946 0-1.576-.085-.817-.115-1.476-.417l-.258-.128q-.157-.1-.272-.187-.472-.4-.774-.903-.243-.257-.444-.715-.387-1.003-.387-2.394 0-1.632.674-2.865.588-1.175 1.561-1.834.989-.673 2.236-.76l.171-.013h.187q1.118 0 2.407.458.115.058.502.228.387.173.716.388l-.258 1.863-.845-.215q-.459-.115-.86-.115-.803 0-1.204.601-.43.632-.43 2.05 0 .459.043.645.058.902.402 1.332.33.372.787.372.431 0 .961-.272.459-.215 1.003-.587l.144 2.35q-.56.516-1.434.874-.83.33-1.576.33z"/><path stroke-width="1.284" d="M25.939 31.385q-1.463 0-2.219-.677-.632-.54-.863-1.727-.154-.785-.154-2.357 0-1.14.124-2.495 0-.216.03-.616.016-.324.032-.91.015-.601.015-1.048 0-.23-.03-.323-.032-.216-.032-.339 0-.247.524-.247h.924q.987-.03 1.896.062.631.062.97.139.416.108.555.307.124.232.124.802 0 .693-.016 1.279-.016.57-.031 1.017-.016.107-.016.339 0 .307-.03 1.048-.032 1.355-.032 2.265 0 .57.047.831.046.246.246.246.417 0 .91-.199.307-.155.431-.231v-6.194q-.047-.355-.047-.694-.03-.092-.03-.261v-.14q0-.277.108-.385.107-.092.508-.092.447 0 1.155-.045.248 0 .678-.031.308 0 .447-.047.092 0 .216.03.185 0 .308.017l.463.015q.338.016.847.123l.43.123q.14.046.17.109.047.06.047.153 0 2.28-.093 4.575-.092 3.02-.092 4.562 0 .615-.586.615h-.785q-.308.032-1.126.063-.461.03-.724.03l-.708.031q-.417 0-.632-.138-.215-.14-.293-.478-.832.416-1.757.662-.923.231-1.91.231z"/><path stroke-width="1.364" d="M10.097 31.543q-.164 0-.262-.032h-.736l-.737-.18-.065-.13q-.017 0-.017-.18 0-.23-.016-.377l-.017-.752q-.016-.246-.016-.738l-.033-1.26q0-.41.033-1.129l.016-.556q.033-.524.033-1.719v-.327q-.033-.05-.033-.18l-.016-.115q0-.409.05-.85.031-.556.031-1.016l-.015-.458q-.017-.18-.017-.426 0-.016-.033-.048-.016-.033-.016-.065 0-.164.131-.278.131-.116.328-.165.26-.082.67-.082h4.043q.016 0 .049.033t.065.05q.131.114.328.44.05.1.098.23.066.115.164.377.114.261.31.802l.197.506q.131.246.295.705l.098.262q.066.13.114.26.033.116.066.182.05.05.05.065.113.262.244.262.164 0 .263-.262.015-.017.032-.065.016-.066.082-.197l.245-.54.655-1.391.278-.589q.05-.131.065-.213.033-.099.066-.131.065-.147.311-.507.082-.132.147-.197.05-.016.066-.05.017-.032.05-.032h5.023q.032 0 .081.246l.05 1.604q.032.687.032 2.16v.95q0 .555-.05 1.243-.049.688-.065.883l-.032.328v.573q.016.229.016.687 0 .492.016.737 0 .475.033.655v.655l-.05.13-.735.18h-.736q-.116.033-.278.033-.295 0-.82-.033l-.408-.016q-.115-.016-.262-.032-.147-.017-.36-.017l-.639-.05q-.032 0-.05.017h-.13q-.082 0-.099-.18-.097-.327-.097-1.113 0-.523-.017-.818l-.016-.883q-.016-.295-.016-.852 0-.13-.115-.13-.065 0-.13.163l-.18.442-.148.41-.066.195q-.032.1-.081.18l-.082.197q-.147.328-.378.737-.244.441-.605.703-.196.114-.343.114h-.246q-.196 0-.327-.032h-.687q-.655-1.047-1.228-2.291l-.245-.605q-.1-.214-.13-.214-.116 0-.116.131v.77q0 1.145-.033 1.686-.033.85-.114 1.178-.017.212-.098.212h-.114l-.083-.016q-.556.033-.883.066-.197.016-.688.05-.491.031-.916.031z"/><path stroke-width=".915" d="M62.552 41.019q-.054 0-.165-.011-.109-.022-.263-.033l-.23-.055q-.055-.01-.088-.022-.022-.022-.011-.033 0-.286-.033-.757 0-.165-.01-.286-.012-.132-.023-.22l-.021-.472q0-.186-.022-.472l-.011-.34q0-.418-.012-.648-.01-.231-.01-.967 0-.691.01-1.427.012-.735.066-1.394 0-.121.263-.199.165-.02.55-.02.889 0 1.306-.033 1.296-.022 1.955-.022h.483q.9.022 1.384.065.175 0 .252.417.033.077.077.396.033.165.088.406.01.066 0 .132v.066q-.011.109-.122.109-.043-.01-.13-.01-.462 0-1.132.076l-.582.044q-.362.045-.57.055-.033 0-.089.132-.043.142-.099.659l-.022.274q0 .143.034.187.033.033.142.033h.978q.427 0 .977.054h.131q.143.034.176.11.045.066.055.143l.044.978v.033q0 .186-.395.218-.231.056-.878.056-.56 0-.725-.01-.318 0-.385.01-.12.033-.154.132-.033.087-.033.308 0 .142-.021.406-.01.131-.01.417.712 0 1.053-.023.373-.032 1.054-.032.045 0 .088.077.055.11.176.493.065.22.132.55.022.077.022.164 0 .231-.22.231-.285 0-.769.022-.252.022-.79.022-1.153 0-1.735.01z"/><path stroke-width="1.012" d="M60.056 41.685q-.05 0-.085-.012-.183-.11-.304-.243-.037-.06-.049-.06-.012-.025-.036-.025l-.024-.012-.049-.05-1.032-1.529q-.073-.158-.207-.34-.085-.085-.145-.183-.05-.072-.098-.072-.035 0-.06.037-.012.035-.024.097-.037.327-.037.886 0 .534-.06.863-.037.158-.11.158h-.073q-.024-.012-.049-.012l-.012-.013q-.424.036-1.275.085-.826.049-1.262.049-.123 0-.195-.025h-.595l-.437-.145-.037-.097q0-.012-.012-.05v-.096q0-.073-.025-.268l-.047-.582-.086-1.094-.036-.448q0-.219-.012-.39-.012-.169-.024-.291l-.025-.267q-.037-.498-.037-.935v-.037q.013-.024.013-.097.024-.072.024-.23l.012-.219.013-.146q0-.255-.025-.74-.049-.304-.049-.778 0-.68.086-.996.109-.436.364-.436 1.373 0 2.793.035.316 0 .948.025l.473.012q.972.024 1.348.024 1.567.072 2.368.789.365.304.535.73.182.424.182.91 0 .558-.206 1.032-.17.377-.487.693-.303.303-.692.486.074.036.195.157.049.061.17.159l.17.12q.036.061.085.122.05.05.097.109l.57.705q.39.498.499.728.084.159.084.243 0 .121-.096.219-.097.097-.292.243-.146.11-.34.206-.182.098-.28.182l-.449.243q-.243.134-.522.231-.012 0-.036.012-.012.012-.05.024-.072.037-.4.134-.06.037-.207.06-.035.026-.084.037-.049.012-.072.012h-.062q-.012.06-.049.06h-.035zm-1.992-4.288q.377 0 .596-.375.205-.34.23-.778.024-.255.024-.607v-.134q0-.278-.097-.582-.097-.39-.4-.559-.135-.11-.353-.11-.06 0-.097.147-.11.267-.121.85-.05.243-.05.57l-.012.364q-.024.705-.024 1.167 0 .011.012.023.012.013.025.013l.084.012z"/><path stroke-width="1.074" d="M49.067 41.915q-1.527-.157-2.386-.49-1.198-.447-1.751-1.384-.637-1.114-.449-2.96.135-1.32.524-2.214.39-.893 1.064-1.42.676-.527 1.666-.699 1.002-.182 2.4-.04 1.09.112 2.017.543 1.137.543 1.703 1.482.701 1.122.529 2.814-.202 1.975-.905 3.017-.692.953-1.852 1.262-.945.253-2.56.09zm.024-1.254q.153.014.263-.17.234-.39.402-1.266.158-.8.232-1.518l.052-.512.033-.32q.058-.566.063-1.38.013-.88-.134-1.35-.08-.228-.222-.243-.282-.028-.465.497-.205.731-.265 1.334-.091.509-.203 1.599-.074.73-.084 1.209-.062.602-.015 1.41.06.68.343.71z"/><path stroke-width="1.114" d="M35.283 41.832q-.134 0-.214-.027h-.601l-.602-.147-.053-.107q-.014 0-.014-.147 0-.188-.013-.308l-.014-.615q-.013-.2-.013-.602l-.027-1.029q0-.333.027-.923l.013-.453q.027-.428.027-1.404v-.268q-.027-.04-.027-.147l-.013-.093q0-.335.04-.695.026-.454.026-.83l-.012-.374q-.014-.147-.014-.347 0-.013-.027-.04-.013-.027-.013-.053 0-.134.107-.229.107-.092.268-.133.213-.066.547-.066h3.302q.014 0 .04.027.028.025.054.04.107.093.267.36.04.08.08.187.054.093.135.308.093.213.253.655l.16.414q.108.201.242.575l.08.214q.053.107.094.214.025.094.053.147.04.04.04.054.093.213.2.213.134 0 .215-.213.013-.014.026-.054.013-.053.067-.16l.2-.441.535-1.137.228-.481q.04-.107.052-.174.027-.08.054-.107.054-.12.254-.414.068-.107.12-.16.04-.014.054-.04.014-.027.04-.027h4.105q.026 0 .066.2l.04 1.31q.027.561.027 1.765v.774q0 .456-.04 1.018-.04.56-.054.721l-.027.268v.467q.014.188.014.561 0 .401.013.602 0 .388.027.536v.534l-.04.107-.601.147h-.603q-.093.027-.227.027-.24 0-.668-.027l-.334-.014q-.094-.013-.214-.027-.12-.013-.294-.013l-.522-.04q-.026 0-.04.014h-.106q-.067 0-.08-.147-.08-.268-.08-.91 0-.427-.014-.667l-.013-.723q-.014-.24-.014-.695 0-.107-.093-.107-.054 0-.107.134l-.147.36-.12.335-.054.16q-.027.08-.068.147l-.066.161q-.12.267-.308.602-.2.36-.494.574-.16.094-.28.094h-.201q-.16 0-.268-.027h-.561q-.535-.856-1.003-1.871l-.2-.495q-.08-.174-.107-.174-.094 0-.094.107v.629q0 .935-.026 1.376-.027.695-.094.963-.014.174-.08.174h-.093l-.068-.013q-.454.026-.721.053-.161.013-.562.04-.401.027-.749.027z"/><path stroke-width="1.124" d="M68.542 38.434q-.264-.053-.456-.119-.352-.099-.437-.157-.04-.076.003-.425-.008-.098-.01-.153l.02-.106.023-.175q-.005-.042.04-.267-.003-.124.045-.911.016-.08.005-.164.005-.095.01-.122-.004-.111.028-.27.018-.092.023-.188.008-.108.03-.213.027-.27.046-.362l.026-.2q.032-.16.043-.419.02-.105.032-.295-.013-.484.046-.775.05-.25.017-.56.008-.04.023-.05.032-.022.075-.027.256-.044.612.027.12.025.334.054.213.03.348.042.067.014.194-.002l2.233.45q.054.066.142.111.198.11.278.262.052.08.026.212-.11.541-.343.947l-.718 1.863-.02.093q-.049.044-.073.163l-.061.167-.02.092q-.052.264-.277.77-.167.351-.406.92-.005.028-.064.043-.057.016-.139.013-.252.02-1.018-.136zm.905 3.701q-.462-.093-.716-.198l-.156-.046-.766-.154q-.476-.096-.767-.223-.132-.027-.12-.08l.19-1.157q.017-.148.056-.347.027-.13.051-.182.022-.105.056-.138l.019-.094.031-.159q.013-.065.093-.119.095-.062.188-.043.159.031.253.036l.33.067.318.063.277.057.515.103q.437.089.73.202.357.14.324.3-.095.475-.122.675-.021.107-.1.64l-.1.489q-.05.182-.12.25-.07.082-.182.088-.052-.01-.12-.01-.07 0-.162-.02z"/></g><path fill="#27b312" stroke="#1b1b3d" stroke-width="1.058" d="m33.282 17.53-1.943-.012q-.216 0-.28-.28-.063-.178-.063-.507 0-1.104-.025-1.967-.038-1.244-.038-2.628V9.343q0-.114.102-.215.114-.114.228-.114l1.473.013q.419.013 1.053.013.953 0 1.485-.013l.47-.013q.786-.026 1.244-.026.787 0 1.522.305.864.33 1.384 1.13.622.964.622 2.373 0 1.333-.305 2.222-.291.888-.938 1.459-.649.558-1.702.813-1.04.254-2.614.254zm1.776-1.687q.05.012.14.012.101 0 .28-.025.063-.012.088-.025.038-.026.063-.039.153-.178.292-.748.09-.356.216-1.22.064-.735.064-1.269v-.24q0-.33-.064-.99-.09-.66-.254-.927-.139-.178-.254-.178-.114 0-.203.026-.089.025-.114.037l-.115.064-.012 1.524q0 .202-.026.609l-.012.305q-.026.635-.026.913z"/><path fill="#27b312" stroke="#1b1b3d" stroke-width="1.176" d="M22.003 18.092q-.14 0-.24-.03h-.634l-.635-.154-.043-.113q-.014 0-.014-.155-.028-.424-.028-.974 0-.395-.028-.635 0-.395-.014-.593v-.493q-.07-.649-.085-1.425-.014-.776-.014-1.51l.028-1.439q.014-.24.014-.734t-.014-.734q-.042-.324.184-.48.14-.07.493-.07.522 0 1.34-.027l.312-.03q.845-.056 1.058-.056.197 0 .282.015.197.014.268.057.07.041.127.14.07.1.099.155.169.226.337.48.256.38.41.592l.931 1.426.452.677q0-.367.029-.578v-1.312l.041-1.003q.014-.112.03-.155.013-.042.04-.056l.044-.043q.168-.14.338-.211.141-.028.226-.028h.972q.113.014.396.014.31 0 .493.014h1.044q.368 0 .495.113.155.113.155.493l-.014.142-.015.225q-.014.085-.014.226v.283l.029.14v.452q-.015.24-.015.818v1.044q-.014.367-.014 1.03v3.528l-.057.536q-.056.324-.225.395l-.24.014-.24-.014h-2.54q-.282.028-.55-.07-.127-.057-.282-.184l-1.44-2.018q0-.014-.31-.522-.113-.169-.211-.296-.028-.056-.07-.084-.03-.043-.043-.043-.127 0-.127.113v.31q-.014.142-.014.466v1.086q-.03.169-.03.424v.493l.016.07q0 .114-.113.142-.07.056-.226.028-.48.028-.762.057-.169.014-.592.042-.424.029-.79.029z"/><path fill="#27b312" stroke="#1b1b3d" stroke-width=".913" d="M9.455 18.78c-.131.012-.231-.081-.3-.278a.534.534 0 0 1-.03-.15 2.557 2.557 0 0 1 .02-.461l.018-.308.029-.185c.174-1.453.358-2.734.554-3.841l.627-4.888c-.002-.02.01-.052.037-.095a.193.193 0 0 1 .099-.086l.076-.007c0 .01.016.015.047.012a2.14 2.14 0 0 0 .405-.083 2.104 2.104 0 0 1 .406-.082c.222-.02.43-.024.625-.01a3.15 3.15 0 0 1 .305-.013c.112 0 .228-.005.35-.016a.37.37 0 0 0 .133-.042l.273-.025.35-.032.362-.049c.07-.015.155-.03.256-.04.081-.005.121-.015.12-.025l.242-.022.516-.047.637-.057c.565-.052.94-.077 1.125-.072a.61.61 0 0 1 .122.005c.06-.006.097 0 .11.02.07-.005.14-.018.21-.035a1.41 1.41 0 0 1 .195-.032c.14-.044.274-.072.406-.084a.397.397 0 0 1 .186.03.437.437 0 0 0 .201.028l.075-.023.045-.004a.381.381 0 0 1 .1.083c.042.027.065.05.067.07l1.496 4.695a54.673 54.673 0 0 1 1.22 3.68.407.407 0 0 0 .078.192l.072.284c.031.12.05.22.057.301a.725.725 0 0 1 .031.165.618.618 0 0 1-.06.357.205.205 0 0 1-.173.107l-.197.018a3.017 3.017 0 0 1-.35.017l-.394.036-.38.034-.303.027c-.08.007-.121.006-.122-.005l-.955.087-.003-.03a.34.34 0 0 0-.155-.017l-.014.017-.015.017c.002.02-.006.032-.026.034l-.046.004-.121.01a.978.978 0 0 0-.307-.003c-.304.007-.543.018-.714.034-.07-.085-.152-.26-.248-.528l-.28-.892a2.035 2.035 0 0 0-.09-.328 4.61 4.61 0 0 1-.829.136l-.47.043-.44.04-.061.495c-.072.679-.14 1.103-.206 1.272a.492.492 0 0 0-.149.044l-.058.036h-.015l-.062.007a.24.24 0 0 1-.138-.018.102.102 0 0 0-.079-.024l-.679.092-.243.022-.227.021a.34.34 0 0 1-.15.045l-.06.006-1.394.126-.137.013a10 10 0 0 1-.681.077l-.394.036c-.08.017-.196.033-.347.046zm6.669-4.349-.174-.734a23.03 23.03 0 0 1-.224-.79c-.03-.099-.105-.367-.227-.804l-.187-.717a10.61 10.61 0 0 0-.14-.523l-.032-.196a.274.274 0 0 1-.058-.132c-.023-.115-.03-.074-.031.003.004.041-.004.067-.024.08l.006.06-.012.2a3.635 3.635 0 0 1-.024.246c-.003.082-.01.175-.02.278l-.038.43a83.73 83.73 0 0 1-.097 1.125c0 .112-.01.281-.03.507a2.605 2.605 0 0 0-.032.324l-.058.709.773-.07.104-.04.03-.004a.883.883 0 0 1 .275.006.183.183 0 0 1 .11.021c.041.006.077.014.109.021z"/><path fill="#27b312" stroke="#1b1b3d" stroke-width=".941" d="M54.896 17.317q-1.338-.116-2.095-.397-1.056-.375-1.553-1.188-.572-.967-.432-2.587.1-1.159.428-1.946.33-.788.914-1.258.585-.47 1.449-.633.876-.174 2.102-.068.957.083 1.774.449 1.003.46 1.51 1.274.63.973.501 2.458-.149 1.732-.751 2.655-.594.843-1.605 1.13-.824.234-2.242.111zm.005-1.098q.135.012.228-.151.2-.345.336-1.116.129-.703.182-1.332l.04-.45.024-.281q.042-.495.037-1.21 0-.77-.136-1.178-.074-.199-.197-.21-.248-.022-.401.44-.169.644-.215 1.172-.073.447-.155 1.404-.056.64-.058 1.06-.046.529.006 1.235.062.596.309.616z"/><path fill="#27b312" stroke="#1b1b3d" stroke-width="1.058" d="M47.576 17.83q-.901 0-1.815-.204-.902-.215-1.485-.584-.152-.456-.228-.914-.077-.456-.191-1.307v-.039q.026-.151.165-.228.482.292.927.445.444.139.977.139h.305l.203.013q.291 0 .596-.09.166-.062.228-.24l-.672-.33q-.774-.368-1.396-.787-.647-.47-.927-1.193-.139-.394-.139-.864 0-1.141.698-1.84.61-.621 1.65-.888.902-.216 1.98-.216.635 0 1.751.14.114.025.318.05l.381.076q.432.077.635.077.012 0 .038.037l.063.064q.05.09.102.09h.025l.025.265q0 .19.038.407.039.318.039.685 0 .318-.039.456-.064.255-.228.369l-1.181-.152h-.304q-.432 0-.99.09l-.42.088q-.151.025-.151.05 0 .305.393.572.19.101.38.178.191.063.242.089.939.266 1.625.926.317.305.495.647t.178.66q0 .19-.05.407-.09.95-.725 1.65-.622.62-1.56.913-.814.291-1.956.291z"/><path fill="#27b312" stroke="#1b1b3d" stroke-width="1.144" d="M42.385 30.43q-.86.082-1.287.095-.658.034-1.163-.057-.055.005-.126-.153-.052-.12-.06-.188l-.727-4.95-.025-.274q-.01-.095-.018-.343-.01-.247-.049-.657l-.04-.714q-.024-.273-.023-.41-.04-.41-.048-.796l-.016-.165q.008-.055.007-.069.026-.016.09-.077.075-.076.126-.123.125-.135.384-.16l.794-.074.218-.02q.139 0 .507-.034.397-.038.644-.048l.628-.06.507-.046.204-.02q.355-.033.49.064.175.109.208.464l.013.136q.005.056-.003.111t-.003.11l-.007.222.002.165q.005.055.038.107.018.053.026.136.035.369.037.534l.039.561.355-.033q.182.024.387.005.276.002.385-.008.125.015.372-.007l-.074-.93q.002-.125-.02-.358l-.04-.561-.01-.11q-.02-.218-.021-.384-.003-.178.03-.25.073-.118.182-.128.08-.035.38-.063l.368-.048q.397-.038.654-.09l.779-.073q.546-.051.79-.088.48-.045.656-.076l.37-.034q.327-.03.444.04.087.048.125.154.036.094.053.285.05.533.109 1.437.027.88.077 1.414.007.081.04.134.006.054.024.094.015.026.016.04l.147 5.225q.006.07-.077.2-.111.136-.208.145l-3.758.353q-.04.004-.089-.06-.046-.065-.084-.171-.02-.068-.058-.175-.025-.121-.055-.298l-.388-2.514-.096.01q-.37.034-.589.04-.522.022-.645.034l-.11.01q-.122.011-.1.244.158 1.695.188 2.16.01.11.009.523.002.318-.197.405l-.203.033q-1.062.155-1.484.209z"/><path fill="#27b312" stroke="#1b1b3d" stroke-width="1.194" d="M37.713 30.638q-.946 0-1.576-.085-.817-.115-1.476-.417l-.258-.128q-.157-.1-.272-.187-.472-.4-.774-.903-.243-.257-.444-.715-.387-1.003-.387-2.394 0-1.632.674-2.865.588-1.175 1.561-1.834.989-.673 2.236-.76l.171-.013h.187q1.118 0 2.407.458.115.058.502.228.387.173.716.388l-.258 1.863-.845-.215q-.459-.115-.86-.115-.803 0-1.204.601-.43.632-.43 2.05 0 .459.043.645.058.902.402 1.332.33.372.787.372.431 0 .961-.272.459-.215 1.003-.587l.144 2.35q-.56.516-1.434.874-.83.33-1.576.33z"/><path fill="#27b312" stroke="#1b1b3d" stroke-width="1.284" d="M24.889 30.86q-1.463 0-2.219-.677-.632-.54-.863-1.727-.154-.785-.154-2.357 0-1.14.124-2.495 0-.216.03-.616.016-.324.032-.91.015-.601.015-1.048 0-.23-.03-.323-.032-.216-.032-.339 0-.247.524-.247h.924q.987-.03 1.896.062.631.062.97.139.416.108.555.307.124.232.124.802 0 .693-.016 1.279-.016.57-.031 1.017-.016.107-.016.339 0 .307-.03 1.048-.032 1.355-.032 2.265 0 .57.047.831.046.246.246.246.417 0 .91-.199.307-.155.431-.231v-6.194q-.047-.355-.047-.694-.03-.092-.03-.261v-.14q0-.277.108-.385.107-.092.508-.092.447 0 1.155-.045.248 0 .678-.031.308 0 .447-.047.092 0 .216.03.185 0 .308.017l.463.015q.338.016.847.123l.43.123q.14.046.17.109.047.06.047.153 0 2.28-.093 4.575-.092 3.02-.092 4.562 0 .615-.586.615h-.785q-.308.032-1.126.063-.461.03-.724.03l-.708.031q-.417 0-.632-.138-.215-.14-.293-.478-.832.416-1.757.662-.923.231-1.91.231z"/><path fill="#27b312" stroke="#1b1b3d" stroke-width="1.364" d="M9.047 31.018q-.164 0-.262-.032h-.736l-.737-.18-.065-.13q-.017 0-.017-.18 0-.23-.016-.377l-.017-.752q-.016-.246-.016-.738l-.033-1.26q0-.41.033-1.129l.016-.556q.033-.524.033-1.719v-.327q-.033-.05-.033-.18l-.016-.115q0-.409.05-.85.031-.556.031-1.016l-.015-.458q-.017-.18-.017-.426 0-.016-.033-.048-.016-.033-.016-.065 0-.164.131-.278.131-.116.328-.165.26-.082.67-.082h4.043q.016 0 .049.033t.065.05q.131.114.328.44.05.1.098.23.066.115.164.377.114.261.31.802l.197.506q.131.246.295.705l.098.262q.066.13.114.26.033.116.066.182.05.05.05.065.113.262.244.262.164 0 .263-.262.015-.017.032-.065.016-.066.082-.197l.245-.54.655-1.391.278-.589q.05-.131.065-.213.033-.099.066-.131.065-.147.311-.507.082-.132.147-.197.05-.016.066-.05.017-.032.05-.032h5.023q.032 0 .081.246l.05 1.604q.032.687.032 2.16v.95q0 .555-.05 1.243-.049.688-.065.883l-.032.328v.573q.016.229.016.687 0 .492.016.737 0 .475.033.655v.655l-.05.13-.735.18h-.736q-.116.033-.278.033-.295 0-.82-.033l-.408-.016q-.115-.016-.262-.032-.147-.017-.36-.017l-.639-.05q-.032 0-.05.017h-.13q-.082 0-.099-.18-.097-.327-.097-1.113 0-.523-.017-.818l-.016-.883q-.016-.295-.016-.852 0-.13-.115-.13-.065 0-.13.163l-.18.442-.148.41-.066.195q-.032.1-.081.18l-.082.197q-.147.328-.378.737-.244.441-.605.703-.196.114-.343.114h-.246q-.196 0-.327-.032h-.687q-.655-1.047-1.228-2.291l-.245-.605q-.1-.214-.13-.214-.116 0-.116.131v.77q0 1.145-.033 1.686-.033.85-.114 1.178-.017.212-.098.212h-.114l-.083-.016q-.556.033-.883.066-.197.016-.688.05-.491.031-.916.031z"/><path fill="#27b312" stroke="#1b1b3d" stroke-width=".915" d="M61.502 40.494q-.054 0-.165-.011-.109-.022-.263-.033l-.23-.055q-.055-.01-.088-.022-.022-.022-.011-.033 0-.286-.033-.757 0-.165-.01-.286-.012-.132-.023-.22l-.021-.472q0-.186-.022-.472l-.011-.34q0-.418-.012-.648-.01-.231-.01-.967 0-.691.01-1.427.012-.735.066-1.394 0-.121.263-.199.165-.02.55-.02.889 0 1.306-.033 1.296-.022 1.955-.022h.483q.9.022 1.384.065.175 0 .252.417.033.077.077.396.033.165.088.406.01.066 0 .132v.066q-.011.109-.122.109-.043-.01-.13-.01-.462 0-1.132.076l-.582.044q-.362.045-.57.055-.033 0-.089.132-.043.142-.099.659l-.022.274q0 .143.034.187.033.033.142.033h.978q.427 0 .977.054h.131q.143.034.176.11.045.066.055.143l.044.978v.033q0 .186-.395.218-.231.056-.878.056-.56 0-.725-.01-.318 0-.385.01-.12.033-.154.132-.033.087-.033.308 0 .142-.021.406-.01.131-.01.417.712 0 1.053-.023.373-.032 1.054-.032.045 0 .088.077.055.11.176.493.065.22.132.55.022.077.022.164 0 .231-.22.231-.285 0-.769.022-.252.022-.79.022-1.153 0-1.735.01z"/><path fill="#27b312" stroke="#1b1b3d" stroke-width="1.012" d="M59.006 41.16q-.05 0-.085-.012-.183-.11-.304-.243-.037-.06-.049-.06-.012-.025-.036-.025l-.024-.012-.049-.05-1.032-1.529q-.073-.158-.207-.34-.085-.085-.145-.183-.05-.072-.098-.072-.035 0-.06.037-.012.035-.024.097-.037.327-.037.886 0 .534-.06.863-.037.158-.11.158h-.073q-.024-.012-.049-.012l-.012-.013q-.424.036-1.275.085-.826.049-1.262.049-.123 0-.195-.025h-.595l-.437-.145-.037-.097q0-.012-.012-.05v-.096q0-.073-.025-.268l-.047-.582-.086-1.094-.036-.448q0-.219-.012-.39-.012-.169-.024-.291l-.025-.267q-.037-.498-.037-.935v-.037q.013-.024.013-.097.024-.072.024-.23l.012-.219.013-.146q0-.255-.025-.74-.049-.304-.049-.778 0-.68.086-.996.109-.436.364-.436 1.373 0 2.793.035.316 0 .948.025l.473.012q.972.024 1.348.024 1.567.072 2.368.789.365.304.535.73.182.424.182.91 0 .558-.206 1.032-.17.377-.487.693-.303.303-.692.486.074.036.195.157.049.061.17.159l.17.12q.036.061.085.122.05.05.097.109l.57.705q.39.498.499.728.084.159.084.243 0 .121-.096.219-.097.097-.292.243-.146.11-.34.206-.182.098-.28.182l-.449.243q-.243.134-.522.231-.012 0-.036.012-.012.012-.05.024-.072.037-.4.134-.06.037-.207.06-.035.026-.084.037-.049.012-.072.012h-.062q-.012.06-.049.06h-.035zm-1.992-4.288q.377 0 .596-.375.205-.34.23-.778.024-.255.024-.607v-.134q0-.278-.097-.582-.097-.39-.4-.559-.135-.11-.353-.11-.06 0-.097.147-.11.267-.121.85-.05.243-.05.57l-.012.364q-.024.705-.024 1.167 0 .011.012.023.012.013.025.013l.084.012z"/><path fill="#27b312" stroke="#1b1b3d" stroke-width="1.074" d="M48.017 41.39q-1.527-.157-2.386-.49-1.198-.447-1.751-1.384-.637-1.114-.449-2.96.135-1.32.524-2.214.39-.893 1.064-1.42.676-.527 1.666-.699 1.002-.182 2.4-.04 1.09.112 2.017.543 1.137.543 1.703 1.482.701 1.122.529 2.814-.202 1.975-.905 3.017-.692.953-1.852 1.262-.945.253-2.56.09zm.024-1.254q.153.014.263-.17.234-.39.402-1.266.158-.8.232-1.518l.052-.512.033-.32q.058-.566.063-1.38.013-.88-.134-1.35-.08-.228-.222-.243-.282-.028-.465.497-.205.731-.265 1.334-.091.509-.203 1.599-.074.73-.084 1.209-.062.602-.015 1.41.06.68.343.71z"/><path fill="#27b312" stroke="#1b1b3d" stroke-width="1.114" d="M34.233 41.307q-.134 0-.214-.027h-.601l-.602-.147-.053-.107q-.014 0-.014-.147 0-.188-.013-.308l-.014-.615q-.013-.2-.013-.602l-.027-1.029q0-.333.027-.923l.013-.453q.027-.428.027-1.404v-.268q-.027-.04-.027-.147l-.013-.093q0-.335.04-.695.026-.454.026-.83l-.012-.374q-.014-.147-.014-.347 0-.013-.027-.04-.013-.027-.013-.053 0-.134.107-.229.107-.092.268-.133.213-.066.547-.066h3.302q.014 0 .04.027.028.025.054.04.107.093.267.36.04.08.08.187.054.093.135.308.093.213.253.655l.16.414q.108.201.242.575l.08.214q.053.107.094.214.025.094.053.147.04.04.04.054.093.213.2.213.134 0 .215-.213.013-.014.026-.054.013-.053.067-.16l.2-.441.535-1.137.228-.481q.04-.107.052-.174.027-.08.054-.107.054-.12.254-.414.068-.107.12-.16.04-.014.054-.04.014-.027.04-.027h4.105q.026 0 .066.2l.04 1.31q.027.561.027 1.765v.774q0 .456-.04 1.018-.04.56-.054.721l-.027.268v.467q.014.188.014.561 0 .401.013.602 0 .388.027.536v.534l-.04.107-.601.147h-.603q-.093.027-.227.027-.24 0-.668-.027l-.334-.014q-.094-.013-.214-.027-.12-.013-.294-.013l-.522-.04q-.026 0-.04.014h-.106q-.067 0-.08-.147-.08-.268-.08-.91 0-.427-.014-.667l-.013-.723q-.014-.24-.014-.695 0-.107-.093-.107-.054 0-.107.134l-.147.36-.12.335-.054.16q-.027.08-.068.147l-.066.161q-.12.267-.308.602-.2.36-.494.574-.16.094-.28.094h-.201q-.16 0-.268-.027h-.561q-.535-.856-1.003-1.871l-.2-.495q-.08-.174-.107-.174-.094 0-.094.107v.629q0 .935-.026 1.376-.027.695-.094.963-.014.174-.08.174h-.093l-.068-.013q-.454.026-.721.053-.161.013-.562.04-.401.027-.749.027z"/><path fill="#27b312" stroke="#1b1b3d" stroke-width="1.124" d="M67.492 37.91q-.264-.054-.456-.12-.352-.099-.437-.157-.04-.076.003-.425-.008-.098-.01-.153l.02-.106.023-.175q-.005-.042.04-.267-.003-.124.045-.911.016-.08.005-.164.005-.095.01-.122-.004-.111.028-.27.018-.092.023-.188.008-.108.03-.213.027-.27.046-.362l.026-.2q.032-.16.043-.419.02-.105.032-.295-.013-.484.046-.775.05-.25.017-.56.008-.04.023-.05.032-.022.075-.027.256-.044.612.027.12.025.334.054.213.03.348.042.067.014.194-.002l2.233.45q.054.066.142.111.198.11.278.262.052.08.026.212-.11.541-.343.947l-.718 1.863-.02.093q-.049.044-.073.163l-.061.167-.02.092q-.052.264-.277.77-.167.351-.406.92-.005.028-.064.043-.057.016-.139.013-.252.02-1.018-.136zm.905 3.7q-.462-.093-.716-.198l-.156-.046-.766-.154q-.476-.096-.767-.223-.132-.027-.12-.08l.19-1.157q.017-.148.056-.347.027-.13.051-.182.022-.105.056-.138l.019-.094.031-.159q.013-.065.093-.119.095-.062.188-.043.159.031.253.036l.33.067.318.063.277.057.515.103q.437.089.73.202.357.14.324.3-.095.475-.122.675-.021.107-.1.64l-.1.489q-.05.182-.12.25-.07.082-.182.088-.052-.01-.12-.01-.07 0-.162-.02z"/></svg>
