<svg xmlns="http://www.w3.org/2000/svg" data-name="Layer 1" width="1037" height="453.21069" viewBox="0 0 1037 453.21069" xmlns:xlink="http://www.w3.org/1999/xlink"><title>outdoors</title><circle cx="34.30495" cy="149.05944" r="21.92017" fill="#41c044" opacity="0.4"/><circle cx="724.13688" cy="146.13507" r="31.2479" fill="#41c044" opacity="0.4"/><circle cx="666.30495" cy="161.05944" r="21.92017" fill="#41c044" opacity="0.4"/><rect x="40.61522" y="301.42139" width="303" height="151" fill="#3f3d56"/><rect x="708.61522" y="302.42139" width="303" height="150" fill="#3f3d56"/><rect x="374.61522" y="302.42139" width="303" height="150" fill="#3f3d56"/><rect x="40.61522" y="149.42139" width="303" height="156" fill="#f2f2f2"/><rect x="374.61522" y="149.42139" width="303" height="156" fill="#f2f2f2"/><rect x="708.61522" y="149.42139" width="303" height="156" fill="#f2f2f2"/><rect x="942.01058" y="410.29338" width="1.57915" height="101.36107" transform="translate(-114.54009 -148.56177) rotate(-4.46716)" fill="#3f3d56"/><path d="M979.11613,472.81608c0,30.52116-24.47381,58.42135-24.47381,58.42135a171.64261,171.64261,0,0,1-9.47373-55.26344c0-30.52115,4.24154-55.26344,9.47373-55.26344S979.11613,442.29493,979.11613,472.81608Z" transform="translate(-81.5 -223.39465)" fill="#3f3d56"/><path d="M909.72968,486.67624c11.71148,28.18478,45.01761,44.55823,45.01761,44.55823a171.6425,171.6425,0,0,0-12.457-54.6683c-11.71149-28.18479-25.12237-49.40552-29.954-47.39784S898.0182,458.49145,909.72968,486.67624Z" transform="translate(-81.5 -223.39465)" fill="#3f3d56"/><circle cx="857.35277" cy="187.05269" r="10.26321" fill="#3f3d56"/><circle cx="861.30016" cy="180.73687" r="4.73687" fill="#41c044"/><rect x="353.01058" y="234.29338" width="1.57915" height="101.36107" transform="translate(-102.62116 -194.97227) rotate(-4.46716)" fill="#3f3d56"/><path d="M390.11613,296.81608c0,30.52116-24.47381,58.42135-24.47381,58.42135a171.64261,171.64261,0,0,1-9.47373-55.26344c0-30.52115,4.24154-55.26344,9.47373-55.26344S390.11613,266.29493,390.11613,296.81608Z" transform="translate(-81.5 -223.39465)" fill="#3f3d56"/><path d="M320.72968,310.67624c11.71148,28.18478,45.01761,44.55823,45.01761,44.55823a171.6425,171.6425,0,0,0-12.457-54.6683c-11.71149-28.18479-25.12237-49.40552-29.954-47.39784S309.0182,282.49145,320.72968,310.67624Z" transform="translate(-81.5 -223.39465)" fill="#3f3d56"/><circle cx="268.35277" cy="11.05269" r="10.26321" fill="#3f3d56"/><circle cx="272.30016" cy="4.73687" r="4.73687" fill="#41c044"/><rect x="582.28212" y="415.88902" width="1.57915" height="101.36107" transform="translate(-186.18911 -47.76294) rotate(-15.73711)" fill="#3f3d56"/><path d="M621.00174,471.08608c5.9648,29.93263-12.5845,62.07779-12.5845,62.07779A171.64276,171.64276,0,0,1,588.326,480.81753c-5.9648-29.93263-6.64048-55.02675-1.50918-56.04928S615.03694,441.15346,621.00174,471.08608Z" transform="translate(-81.5 -223.39465)" fill="#3f3d56"/><path d="M555.662,498.23929c16.99385,25.35252,52.85764,34.90116,52.85764,34.90116a171.64276,171.64276,0,0,0-22.9007-51.17966c-16.99386-25.35251-34.29334-43.54314-38.63949-40.6299S538.6681,472.88678,555.662,498.23929Z" transform="translate(-81.5 -223.39465)" fill="#3f3d56"/><circle cx="487.82593" cy="194.39407" r="10.26321" fill="#3f3d56"/><circle cx="490.46289" cy="187.42859" r="4.73687" fill="#41c044"/><rect x="585.89427" y="465.19653" width="101.36107" height="1.57915" transform="translate(-142.14073 611.72698) rotate(-64.10356)" fill="#3f3d56"/><path d="M661.92345,494.56115c-15.428,26.33472-50.648,38.03682-50.648,38.03682a171.64269,171.64269,0,0,1,19.76062-52.47206c15.428-26.33472,31.59463-45.53919,36.10915-42.89439S677.35146,468.22643,661.92345,494.56115Z" transform="translate(-81.5 -223.39465)" fill="#3f3d56"/><path d="M595.04828,471.44632c-4.14193,30.2388,16.31922,61.20216,16.31922,61.20216a171.6427,171.6427,0,0,0,16.88573-53.46655c4.14193-30.2388,3.29733-55.3278-1.88646-56.03785S599.19022,441.20751,595.04828,471.44632Z" transform="translate(-81.5 -223.39465)" fill="#3f3d56"/><circle cx="577.20933" cy="197.00002" r="10.26321" fill="#3f3d56"/><circle cx="583.80783" cy="193.54585" r="4.73687" fill="#41c044"/><path d="M373.68828,361.67s-8.12905-23.0323-14-15.80648,9.03228,19.41939,9.03228,19.41939Z" transform="translate(-81.5 -223.39465)" fill="#a0616a"/><path d="M412.07545,339.08927l-4.89019,1.81234s-2.33563,10.38123-1.4324,12.18769,1.35484.45161,0,4.06452-5.41937,13.0968-5.871,14.45164-26.1936-8.58066-26.1936-13.54841c0,0-5.41937,6.32259-8.12905,7.67743,0,0,29.80651,21.67747,33.871,24.38715s6.3226,1.35484,9.93551-1.80646,18.96778-29.35489,18.96778-29.35489Z" transform="translate(-81.5 -223.39465)" fill="#575a89"/><path d="M398.97865,499.41216s.45161,4.96775,1.35484,5.41936,7.67744,11.742,0,14-12.19357,1.35484-14,2.25807-33.41942,2.70968-33.871-2.25807,15.35487-5.871,15.35487-5.871,14.45164-9.48389,16.70971-14.45164S398.97865,499.41216,398.97865,499.41216Z" transform="translate(-81.5 -223.39465)" fill="#2f2e41"/><path d="M490.65624,508.44443s10.83874,18.51617,8.129,20.77424-29.09883,10.487-32.9678,10.83873c-4.96775.45161-8.58066-3.61291-4.51614-5.871s12.64519-11.742,12.64519-14.90326v-8.129Z" transform="translate(-81.5 -223.39465)" fill="#2f2e41"/><path d="M501.04336,387.412s9.48389,11.742-5.41936,30.70973l-24.83876,31.613s15.35487,24.38715,15.80648,37.03233,3.61291,9.93551,4.51614,15.35487,4.96775,2.70968,1.80645,6.77421-14.90325,7.67743-18.51616,4.51614a11.196,11.196,0,0,1-3.61291-9.03228c0-1.80645-6.32259-12.19357-6.77421-15.35487s-17.16132-28.90328-17.16132-28.90328-5.41937-15.35487.90323-23.93553,10.50058-20.75047,10.50058-20.75047-18.62963,22.55693-31.72643,27.97629c0,0-4.96775.90323-4.06452,3.1613s0,3.61291-1.35484,5.871-10.83874,28.45166-14,35.22587-1.80646,10.83873-5.41937,13.0968-19.871.45161-19.871-1.80646,2.25807-8.129,3.61291-11.29034,12.19357-39.742,11.29034-46.0646.45162-14.90326,7.22582-18.51617,41.09685-32.9678,42.90331-32.9678S501.04336,387.412,501.04336,387.412Z" transform="translate(-81.5 -223.39465)" fill="#2f2e41"/><circle cx="328.76899" cy="74.14615" r="18.96778" fill="#a0616a"/><path d="M425.62386,299.34726s5.871,10.38712,13.0968,11.742-18.96778,22.12907-18.96778,22.12907-6.32259-19.871-11.742-20.77423S425.62386,299.34726,425.62386,299.34726Z" transform="translate(-81.5 -223.39465)" fill="#a0616a"/><path d="M407.1077,341.799c0,5.871,17.61294,22.58069,17.61294,22.58069l16.7097,14s.45162,4.96775,2.25807,5.41937,4.06453.45161,2.25807,3.16129-6.32259,8.58066-2.25807,9.48389a33.19934,33.19934,0,0,0,3.69869.35224c1.08394.06324,2.35741.12195,3.7891.17614,3.3419.11742,7.52385.19419,12.05355.16258q1.93071-.0068,3.929-.04516c17.07554-.33871,36.85625-2.30324,35.23943-8.77485-2.70968-10.83873-.90322-14.45164-6.7742-20.32262s-15.35487-26.1936-15.35487-26.1936-18.96778-32.06457-34.77426-32.06457l-3.28324-.8626a7.51867,7.51867,0,0,0-8.20579,3.15228c-3.17034,4.82776-8.16973,12.08067-11.09166,14.42-4.51614,3.61291-5.22068,1.02065-5.22068,1.02065S407.1077,335.928,407.1077,341.799Z" transform="translate(-81.5 -223.39465)" fill="#575a89"/><path d="M447.30132,410.44425s-13.0968,20.32262-4.96775,23.93553,12.64519-21.22585,12.64519-21.22585Z" transform="translate(-81.5 -223.39465)" fill="#a0616a"/><path d="M422.66905,295.39838c-.728-.09187-.95819-1.01039-1.08072-1.73382-.65614-3.87407-3.54323-7.54772-7.42237-8.17311a10.50968,10.50968,0,0,0-4.42234.3564,16.77943,16.77943,0,0,0-5.67433,2.793,9.35972,9.35972,0,0,1-2.83563,1.78058c-.71174.209-3.73378,1.55256-4.43989,1.77989-1.55246.49981-2.83715,2.12472-4.436,1.803-1.52965-.30781-2.1106-2.15493-2.35645-3.69575-.56011-3.51031,1.44914-8.748,3.44681-11.6883,1.516-2.23127,4.0813-3.51539,6.64622-4.3508a47.75242,47.75242,0,0,1,9.21763-1.83157c4.219-.49826,8.5887-.76263,12.63192.54148s7.72477,4.49426,8.47957,8.675c.15723.87088.18669,1.7629.37938,2.62663.47005,2.10707,1.86419,3.87819,2.67743,5.878a11.31872,11.31872,0,0,1-.3453,9.17585c-1.12613,2.26466-3.08447,4.44092-2.66184,6.93456l-3.48505-2.748a2.5311,2.5311,0,0,1-1.16327-2.96249l.50663-4.36376a3.83958,3.83958,0,0,0-.226-2.35932C424.55642,291.13,423.88279,295.55153,422.66905,295.39838Z" transform="translate(-81.5 -223.39465)" fill="#2f2e41"/><path d="M455.43037,379.2829l-4.25417,17.6897c4.29034.15356,9.967.23485,15.98257.11742,1.51747-4.55227,2.96713-9.29873,4.07808-13.7426,4.06453-16.25809-2.70968-41.09685-6.32259-52.83881s-12.64519-14.90325-12.64519-14.90325a41.18506,41.18506,0,0,0-10.38711,5.41936C436.011,325.08925,455.43037,379.2829,455.43037,379.2829Z" transform="translate(-81.5 -223.39465)" opacity="0.1"/><path d="M451.81746,378.37967l-4.43036,18.41679c1.08394.06324,2.35741.12195,3.7891.17614,3.3419.11742,7.52385.19419,12.05355.16258,1.63026-4.83677,3.2065-9.94,4.39419-14.691,4.06453-16.25809-2.70968-41.09685-6.32259-52.83881s-11.51615,1.129-11.51615,1.129,3.1613-7.67744-2.70968-3.61291S451.81746,378.37967,451.81746,378.37967Z" transform="translate(-81.5 -223.39465)" opacity="0.1"/><path d="M450.46262,314.70213s9.03228,3.1613,12.64519,14.90325,10.38711,36.58072,6.32259,52.83881-12.64519,36.58072-12.64519,36.58072-8.58066-6.32259-11.742-4.96775l8.58067-35.67749s-19.4194-54.19365-13.54842-58.25818A41.185,41.185,0,0,1,450.46262,314.70213Z" transform="translate(-81.5 -223.39465)" fill="#575a89"/><path d="M412.16008,531.4776q-19.505-3.30447-37.51608-5.67577l4.7468-9.2034c-1.60063-.55593-8.633,4.71459-8.633,4.71459l6.22941-26.71524c-8.05017.97082-12.14317,28.24871-12.14317,28.24871L355.85,513.624l4.35434,10.36848a830.43731,830.43731,0,0,0-95.18365-5.99038l4.06279-7.87714c-1.60063-.55593-8.633,4.71458-8.633,4.71458l6.22941-26.71524c-8.05016.97083-12.14317,28.24871-12.14317,28.24871l-8.99412-9.22247,4.61194,10.98191a534.67093,534.67093,0,0,0-54.71708,3.71673c4.10934-12.27117,18.069-23.942,18.069-23.942-10.66092,3.17072-16.25316,8.48395-19.17526,13.43741a215.16639,215.16639,0,0,1,12.43659-74.34273s-22.03575,47.95176-19.224,80.139l.33631,5.71552c-18.68135,2.67492-26.0308,8.95967-26.0308,8.95967Z" transform="translate(-81.5 -223.39465)" fill="#3f3d56"/><path d="M1080.16008,539.4776q-19.505-3.30447-37.51608-5.67577l4.7468-9.2034c-1.60063-.55593-8.633,4.71459-8.633,4.71459l6.22941-26.71524c-8.05017.97082-12.14317,28.24871-12.14317,28.24871L1023.85,521.624l4.35434,10.36848a830.43731,830.43731,0,0,0-95.18365-5.99038l4.06279-7.87714c-1.60063-.55593-8.633,4.71458-8.633,4.71458l6.22941-26.71524c-8.05016.97083-12.14317,28.24871-12.14317,28.24871l-8.99412-9.22247,4.61194,10.98191a534.67093,534.67093,0,0,0-54.71708,3.71673c4.10934-12.27117,18.069-23.942,18.069-23.942-10.66092,3.17072-16.25316,8.48395-19.17526,13.43741a215.16639,215.16639,0,0,1,12.43659-74.34273s-22.03575,47.95176-19.224,80.139l.33631,5.71552c-18.68135,2.67492-26.0308,8.95967-26.0308,8.95967Z" transform="translate(-81.5 -223.39465)" fill="#3f3d56"/><rect y="451.21069" width="1037" height="2" fill="#2f2e41"/></svg>