<svg xmlns="http://www.w3.org/2000/svg" width="300" height="200" viewBox="0 0 79.375 52.917"><title>Ludicrous speed!</title><path fill="#1b1b3d" fill-rule="evenodd" stroke="#1b1b3d" stroke-width=".339" d="M76.96 29.264c-8.072 6.749-8.135 6.965-8.135 6.965l-3.604-1.813-6.96 7.907 3.664-9.922 1.443-3.983c.047.008 2.455 1.82 2.455 1.82l4.016-6.53z"/><path fill="#fcd120" fill-rule="evenodd" stroke="#1b1b3d" stroke-width=".674" d="M76.043 24.2c-7.572 9.132-7.616 9.387-7.616 9.387l-3.796-1.346-6.35 10.22 2.848-11.852 1.115-4.753c.047 0 2.635 1.574 2.635 1.574l3.494-8.107z"/><path fill="#1b1b3d" fill-rule="evenodd" stroke="#1b1b3d" stroke-width=".377" d="M2.857 37.415c10.607 4.888 10.737 5.102 10.737 5.102l3.336-2.989 9.753 6.451-6.807-9.567-2.701-3.849c-.049.022-2.103 2.663-2.103 2.663l-6.198-5.83Z"/><path fill="#fcd120" fill-rule="evenodd" stroke="#1b1b3d" stroke-width=".748" d="M2.709 31.462c10.606 7.803 10.723 8.066 10.723 8.066l3.728-2.47 9.583 9.303-6.25-12.002-2.476-4.82c-.053.014-2.417 2.405-2.417 2.405l-5.94-7.795Z"/><path fill="#231f20" d="M60.132 23.605c.798 1.275 1.084 2.75.847 4.391-.447 3.114-2.572 4.776-6.313 4.944-.24 2.054-1.019 3.932-2.202 5.303-1.43 1.654-3.404 2.53-5.712 2.53a8.63 8.63 0 0 1-.505-.015c-1.836-.096-3.635-1.003-5.098-2.564-1.05 1.77-2.857 2.895-4.682 2.895-.101 0-.204-.004-.305-.01-3.236-.21-4.575-2.9-4.766-5.267-.486.168-1.5.467-2.604.467-1.106 0-2.012-.299-2.694-.884-.872-.748-1.535-2.512-.53-4.278 0 0 .282-.341.612-.603.323-.253.478-.334.478-.334s-.313-.124-.861.014c-.45.112-.862.416-1.167.902-2.659-.32-5.964-2.775-6.022-7.122-.012-.954.427-3.229 2.185-5.01 1.465-1.485 3.45-2.238 5.896-2.238.288 0 .585.01.887.032-.001-1.017.233-4.714 3.62-5.871a6.168 6.168 0 0 1 2-.326c1.687 0 3.096.607 3.903 1.046.035.649.293 1.096.293 1.096s.378-.873 1.18-1.766c1.446-1.393 4.277-3.556 7.925-3.556.247 0 .498.01.747.03 3.251.26 6.367 2.662 7.659 5.876a6.3 6.3 0 0 1 2.707-.63c2.845 0 5.424 2.13 6 4.955.514 2.53-.783 4.754-3.478 5.993zm4.436-6.39c-.484-2.377-2.248-4.31-4.45-5.104a6.538 6.538 0 0 0-2.603-.549c-.703 0-1.402.114-2.092.338-1.176-2.258-3.206-4.045-5.502-4.9a8.755 8.755 0 0 0-2.72-.68 10.003 10.003 0 0 0-.8-.033c-4.481 0-7.72 2.965-8.966 4.319a10.457 10.457 0 0 0-.968-.418c-.886-.373-2.063-.722-3.367-.722-.768 0-1.513.123-2.217.362-2.961 1.012-3.913 3.84-4.062 5.805a11.745 11.745 0 0 0-.227-.002c-2.634 0-4.779.82-6.376 2.44-1.662 1.684-2.398 4.027-2.38 5.492.053 3.976 2.616 6.504 5.168 7.428.482.206.969.356 1.443.446-.43 1.599.101 3.179 1.114 4.049.398.341.855.6 1.367.774.627.283 1.35.428 2.16.428.614 0 1.197-.083 1.693-.19.215 1.008.613 1.93 1.171 2.677a5.256 5.256 0 0 0 2.493 1.84 5.754 5.754 0 0 0 2.318.484c1.792 0 3.504-.9 4.701-2.41a8.608 8.608 0 0 0 2.54 1.483c.809.346 1.652.55 2.504.595a10.183 10.183 0 0 0 .54.014c2.51 0 4.662-.954 6.222-2.764 1.161-1.345 1.959-3.137 2.283-5.106 4.664-.408 6.058-3.172 6.39-5.484.221-1.536.024-2.944-.586-4.2 1.192-.663 2.082-1.522 2.653-2.561.64-1.165.831-2.498.556-3.853"/><path fill="#fefefe" d="M57.61 12.656a6.3 6.3 0 0 0-2.707.631c-1.292-3.214-4.408-5.616-7.66-5.876a9.513 9.513 0 0 0-.746-.03c-4.776 0-8.156 3.71-8.855 4.542-.551-.352-2.315-1.362-4.446-1.362a6.17 6.17 0 0 0-2 .326c-3.387 1.157-3.621 4.854-3.62 5.871a12.586 12.586 0 0 0-.887-.032c-2.447 0-4.43.753-5.896 2.238-1.758 1.781-2.197 4.056-2.185 5.01.062 4.671 3.876 7.16 6.605 7.16.121 0 .24-.006.355-.017-1.005 1.766-.342 3.53.53 4.278.682.585 1.588.884 2.694.884 1.105 0 2.118-.299 2.603-.467.192 2.367 1.53 5.057 4.767 5.267.101.005.204.01.305.01 1.825 0 3.632-1.125 4.682-2.895 1.463 1.56 3.262 2.468 5.098 2.564.169.01.339.015.504.015 2.309 0 4.284-.876 5.713-2.53 1.183-1.371 1.961-3.249 2.202-5.303 3.741-.168 5.866-1.83 6.313-4.944.237-1.64-.049-3.116-.847-4.391 2.695-1.239 3.992-3.463 3.477-5.993-.575-2.825-3.154-4.956-6-4.956"/><g fill="#1b1b3d" stroke="#1b1b3d"><path stroke-width=".72" d="M70.516 21.252q-.681 0-1.372-.153-.682-.163-1.123-.441-.114-.345-.172-.69-.058-.346-.145-.988v-.03q.02-.114.125-.172.365.22.7.336.336.105.74.105h.229l.154.012q.22 0 .45-.068.125-.048.173-.182l-.508-.25q-.585-.278-1.055-.594-.49-.355-.7-.902-.105-.297-.105-.652 0-.863.527-1.39.46-.472 1.246-.673.682-.163 1.497-.163.48 0 1.324.106.087.02.24.038l.287.058q.326.057.48.057.01 0 .029.03l.048.047q.038.067.076.067h.02l.019.201q0 .145.029.307.028.24.028.52 0 .238-.028.343-.049.194-.173.278l-.892-.115h-.23q-.326 0-.748.068l-.318.068q-.115.019-.115.038 0 .23.297.431.145.076.289.134.144.049.181.068.711.202 1.23.7.238.23.373.49.133.259.133.498 0 .145-.037.307-.068.72-.547 1.247-.471.47-1.18.69-.614.221-1.478.221z"/><path stroke-width=".768" d="M62.013 21.375q-.973 0-1.474-.45-.42-.359-.573-1.147-.103-.523-.103-1.567 0-.758.082-1.658 0-.145.02-.41.01-.216.021-.604.01-.399.01-.697 0-.153-.02-.215-.021-.142-.021-.225 0-.164.349-.164h.613q.656-.02 1.26.041.42.041.645.092.277.073.369.205.082.154.082.532 0 .46-.011.85-.01.379-.02.677-.01.071-.01.224 0 .206-.02.697-.021.9-.021 1.505 0 .379.031.552.03.165.163.165.278 0 .604-.133.205-.103.287-.155v-4.116q-.03-.235-.03-.46-.02-.061-.02-.173v-.093q0-.184.07-.256.073-.06.339-.06.297 0 .767-.032.163 0 .45-.02.206 0 .298-.032.06 0 .144.02.121 0 .205.013l.306.012q.225.012.563.082l.286.082q.093.03.114.072.03.04.03.102 0 1.515-.06 3.041-.063 2.007-.063 3.03 0 .411-.389.411h-.522q-.205.02-.748.04-.307.02-.48.02l-.472.02q-.277 0-.42-.09-.143-.094-.193-.318-.554.276-1.169.44-.613.154-1.269.154z"/><path stroke-width=".8" d="M56.56 21.642q-1.268 0-2.005-.203-1.025-.267-1.557-.992-.62-.865-.62-2.4 0-1.1.246-1.868t.758-1.26q.512-.49 1.312-.715.81-.234 1.974-.234.906 0 1.708.278.981.351 1.525 1.077.672.864.672 2.272 0 1.643-.49 2.561-.492.843-1.42 1.195-.757.289-2.1.289zm-.084-1.036q.128 0 .202-.16.16-.341.225-1.078.064-.67.064-1.269v-.693q0-.47-.064-1.142-.064-.725-.225-1.098-.084-.182-.202-.182-.235 0-.341.447-.108.62-.108 1.12-.031.428-.031 1.335 0 .608.031 1.002 0 .502.108 1.164.106.555.341.555z"/><path stroke-width=".833" d="M51.212 21.703q-.044.003-.078-.007-.172-.09-.29-.205-.036-.054-.048-.053-.012-.022-.034-.02l-.023-.013-.047-.04-1.023-1.342q-.075-.14-.205-.3-.083-.072-.144-.158-.048-.064-.093-.061-.032.002-.053.036-.008.034-.017.09-.015.301.014.81.029.488-.01.79-.024.146-.09.15l-.067.003q-.024-.01-.046-.01l-.012-.01q-.386.056-1.159.145-.751.088-1.15.112-.11.006-.178-.012l-.244.013-.2.012-.1.006-.406-.108-.038-.087q-.001-.012-.014-.045l-.005-.088q-.004-.066-.036-.241l-.075-.532-.137-.992-.056-.408q-.012-.2-.032-.354-.02-.155-.037-.266l-.036-.241q-.06-.453-.084-.851v-.034q.009-.023.005-.09.018-.067.01-.21v-.201l.002-.133q-.013-.233-.06-.676-.06-.274-.086-.706-.036-.621.024-.913.078-.405.31-.418 1.253-.072 2.55-.115.29-.017.866-.029l.434-.012q.887-.03 1.231-.05 1.433-.016 2.202.596.35.257.527.636.188.378.214.821.03.511-.133.954-.136.353-.407.657-.261.293-.606.48.069.03.186.133.048.053.163.136l.161.102q.037.053.085.106.046.041.094.095l.558.612q.381.434.493.64.086.139.09.217.007.109-.077.204-.083.093-.254.237-.126.107-.298.205-.162.099-.245.181l-.398.246q-.214.136-.464.238-.012 0-.033.015-.01.012-.042.024-.065.037-.36.144-.053.036-.184.066-.032.024-.077.037-.043.015-.065.016l-.055.004q-.008.056-.041.058l-.034.002zm-2.044-3.806q.343-.02.523-.375.17-.322.169-.722.01-.234-.01-.555l-.007-.122q-.014-.255-.12-.528-.108-.35-.394-.487-.128-.093-.327-.081-.056.003-.081.137-.086.25-.067.783-.031.223-.013.522l.007.334q.016.644.04 1.065 0 .012.012.021.012.012.024.012l.078.006z"/><path stroke-width=".854" d="M43.407 21.899q-.753 0-1.252-.069-.65-.09-1.174-.33l-.205-.102q-.125-.08-.215-.149-.377-.318-.616-.717-.193-.205-.352-.568-.308-.797-.308-1.902 0-1.298.536-2.277.466-.933 1.24-1.457.786-.535 1.776-.604l.137-.012h.148q.888 0 1.912.364.092.046.399.183.307.136.57.308l-.206 1.48-.671-.172q-.365-.09-.683-.09-.638 0-.957.478-.341.501-.341 1.628 0 .364.033.511.046.718.32 1.06.261.296.626.296.341 0 .763-.217.363-.17.797-.466l.113 1.867q-.444.41-1.138.694-.66.262-1.252.262z"/><path stroke-width=".886" d="M35.956 21.905q-.082.007-.157-.045-.077-.065-.122-.169-.065-.206-.111-.463-.02-.081-.031-.222l-.013-.154-.114-1.46q-.064-.74-.09-1.462l-.32-3.718q-.01-.117.143-.13.811-.07 1.211-.118l1.177-.1q.035-.004.057-.018.024-.013.058-.017.15-.036.422-.048.2-.017.428 0 .075.04.109.013.022-.002.09-.031.178-.016.273 0 .109.014.174.091.067.102.117.251.022.116.054.493l.197 2.294.016.178q-.005.095.024.425.03.352.024.555l.034.53q.003.177.026.447l.004.19.065.753q.06.706.045 1.206.014.164-.054.335-.212.02-.61.078-.189.015-.245.044l-.117.01-.037.004q-.082.007-.084-.017-.097-.016-.108-.015l-.09.056-1.082.093q-.012.012-.187.028l-.447.038-.436.038z"/><path stroke-width=".918" d="m28.378 21.748-1.866-.138q-.208-.014-.251-.287-.049-.175-.028-.492.072-1.063.104-1.894.045-1.199.134-2.53l.181-2.685q.008-.11.112-.2.117-.104.227-.096l1.415.108q.402.039 1.013.08.915.063 1.43.085l.453.018q.758.026 1.197.056.757.052 1.445.393.81.374 1.257 1.176.536.968.445 2.324-.087 1.281-.439 2.117-.338.835-.998 1.342-.658.495-1.688.67-1.018.178-2.532.075zm1.82-1.508q.048.016.133.022.098.006.27-.006.062-.009.087-.02.039-.021.064-.03.157-.163.33-.702.108-.337.286-1.16.109-.702.145-1.215l.014-.232q.022-.318.004-.956-.042-.64-.184-.908-.123-.181-.233-.187-.11-.008-.196.01-.087.019-.113.03l-.114.053-.111 1.464q-.013.196-.064.584l-.032.293q-.066.608-.084.877z"/><path stroke-width=".971" d="M19.382 22.32q-1.229 0-1.864-.57-.531-.452-.724-1.448-.13-.66-.13-1.982 0-.958.103-2.097 0-.18.027-.518.012-.271.025-.764.013-.505.013-.88 0-.193-.025-.272-.027-.181-.027-.285 0-.206.441-.206h.777q.828-.027 1.592.052.531.052.815.116.35.09.466.26.104.192.104.672 0 .583-.012 1.074-.013.48-.027.855-.012.09-.012.285 0 .258-.026.88-.027 1.139-.027 1.903 0 .48.04.699.039.206.206.206.35 0 .765-.167.258-.13.362-.194v-5.204q-.039-.299-.039-.584-.026-.077-.026-.22v-.115q0-.233.09-.324.09-.078.428-.078.375 0 .97-.039.208 0 .57-.025.26 0 .376-.04.077 0 .18.026.157 0 .26.012l.388.014q.285.012.712.104l.363.103q.117.039.142.09.039.053.039.13 0 1.916-.078 3.844-.077 2.538-.077 3.833 0 .518-.493.518h-.66q-.258.025-.944.051-.389.026-.609.026l-.596.026q-.349 0-.531-.117-.181-.116-.245-.4-.7.35-1.476.556-.776.193-1.606.193z"/><path stroke-width="1.035" d="M14.088 22.447q-1.421 0-2.07-.012-.592 0-.91-.014l-1.131-.014q-.124 0-.234-.11-.111-.11-.111-.235v-4.36l-.014-1.131q0-.566.028-1.421 0-.18.041-.925v-.316q0-.387.152-.622.07-.124.22-.124.676 0 1.477.027.11.015.317.015.455 0 .676.013h1.063q.275 0 .427.069.249.139.249.635l-.015.11q0 .042-.027.207-.041.207-.041.304 0 .152.04.386.028.165.028.22l.015.083v3.85q0 .11.124.138.041.013.179.013h1.007q.373-.013 1.131-.013.152 0 .249.096.097.084.097.18v2.663q0 .11-.11.18-.125.054-.29.068-.18.041-.566.041z"/><path stroke-width="1.038" d="m55.39 33.483-2.115-.013q-.236 0-.306-.304-.069-.194-.069-.554 0-1.202-.026-2.142-.042-1.356-.042-2.862v-3.043q0-.123.11-.234.125-.124.25-.124l1.603.013q.456.015 1.148.015 1.036 0 1.617-.015l.512-.014q.857-.028 1.355-.028.858 0 1.66.333.94.36 1.507 1.23.677 1.05.677 2.586 0 1.452-.332 2.42-.319.967-1.023 1.588-.705.609-1.853.886-1.134.278-2.848.278zm1.935-1.839q.055.016.154.016.108 0 .302-.03.07-.013.097-.027.042-.028.07-.042.166-.193.317-.815.097-.386.236-1.326.07-.802.07-1.385v-.262q0-.359-.07-1.079-.097-.718-.278-1.008-.15-.194-.276-.194-.123 0-.22.027-.097.028-.125.042l-.123.07-.016 1.658q0 .222-.027.663l-.014.333q-.028.692-.028.996z"/><path stroke-width="1.138" d="M45.59 33.958q-.077 0-.229-.015-.15-.031-.363-.046l-.318-.077q-.077-.016-.122-.031-.03-.03-.015-.045 0-.393-.046-1.047 0-.226-.016-.393-.014-.182-.03-.304l-.03-.652q0-.257-.03-.652l-.015-.47q0-.577-.015-.894-.016-.32-.016-1.335 0-.956.016-1.974.015-1.014.092-1.925 0-.167.363-.273.228-.03.758-.03 1.229 0 1.805-.047 1.789-.03 2.7-.03h.667q1.244.032 1.912.092.242 0 .348.576.047.107.107.546.046.228.122.561.015.091 0 .182v.093q-.016.15-.168.15-.06-.016-.182-.016-.637 0-1.562.108l-.803.06q-.501.06-.79.075-.046 0-.121.182-.062.198-.136.91l-.03.379q0 .197.045.257.047.047.196.047h1.35q.593 0 1.351.077h.182q.197.044.242.15.062.092.077.197l.06 1.35v.046q0 .258-.547.303-.318.077-1.213.077-.773 0-1-.016-.44 0-.531.016-.167.046-.213.182-.046.12-.046.423 0 .198-.03.562-.015.182-.015.576.987 0 1.456-.03.516-.047 1.456-.047.062 0 .122.108.076.151.242.681.093.304.182.759.03.106.03.228 0 .318-.303.318-.394 0-1.062.03-.348.031-1.091.031-1.593 0-2.396.016z"/><path stroke-width="1.209" d="M38.071 34.54q-.08.006-.242.004-.163-.02-.389-.015l-.343-.054q-.082-.01-.131-.022-.036-.03-.02-.046-.036-.416-.142-1.104-.02-.24-.05-.416-.032-.191-.06-.318l-.09-.687q-.022-.273-.088-.688l-.058-.496q-.05-.61-.095-.947-.043-.336-.134-1.41-.083-1.012-.157-2.09-.074-1.077-.074-2.047-.014-.175.362-.32.237-.053.8-.099 1.3-.108 1.905-.208 1.892-.19 2.855-.27l.707-.058q1.32-.078 2.031-.073.256-.022.42.58.057.108.16.569.068.235.179.582.023.094.015.193l.008.096q-.003.161-.163.175-.065-.01-.195 0-.673.056-1.643.25l-.846.136q-.525.108-.828.15-.046.004-.113.203-.046.214-.063.974v.404q.019.21.072.27.051.045.213.03l1.428-.118q.626-.052 1.435-.039l.193-.015q.213.03.271.139.073.09.097.2l.184 1.425.003.047q.023.273-.55.37-.33.108-1.279.185-.817.07-1.06.074-.466.039-.561.062-.172.063-.209.213-.037.132-.01.453.017.208.017.597 0 .194.035.61 1.044-.086 1.539-.16.54-.093 1.537-.176.064-.005.138.102.093.154.316.7.124.313.26.786.041.111.052.239.028.338-.293.364-.416.035-1.12.126-.368.062-1.154.128-1.687.14-2.536.227z"/><path stroke-width="1.25" d="M25.504 34.44q-.284 0-.367-.366-.085-.184-.085-.668 0-1.449-.033-2.583-.05-1.635-.05-3.452V23.7q0-.149.134-.281.15-.151.3-.151l1.917.017q.535.015 1.401.015 1.25 0 1.935-.015l.616-.016q1-.034 1.65-.034 1.051 0 2.001.3 1.118.334 1.82 1.15.782.884.782 2.384 0 2.535-1.284 3.67-1.135 1.066-3.385 1.066h-2.284q.016.384.016.817 0 .15-.016.367v.55q0 .55-.234.7-.183.15-.683.15-.734 0-1.017.017-1.15 0-1.835.034zm5.969-4.635q.35 0 .516-.667.133-.45.2-1.334.033-.482.033-1.084v-.183q0-.267-.083-.8-.067-.3-.15-.467-.083-.184-.216-.301-.134-.15-.3-.15-.083 0-.151.067-.05.068-.1.168-.184.299-.333 1.333-.05.3-.084.9-.083.918-.083 2.452l.015.015q.019.019.068.034l.2.017z"/><path stroke-width="1.321" d="M19.613 35.172q-1.25 0-2.52-.283-1.25-.299-2.06-.81-.211-.634-.318-1.268-.105-.635-.263-1.814v-.054q.035-.211.228-.316.67.404 1.287.616.617.193 1.357.193h.422l.282.019q.404 0 .828-.124.228-.088.316-.334l-.933-.46q-1.074-.51-1.937-1.091-.9-.652-1.286-1.656-.194-.546-.194-1.198 0-1.586.968-2.554.846-.863 2.29-1.233 1.25-.3 2.75-.3.878 0 2.429.193.159.036.44.071l.53.106q.598.105.88.105.018 0 .054.054l.088.088q.07.123.14.123h.035l.036.37q0 .264.052.563.053.441.053.951 0 .441-.053.635-.088.352-.317.51l-1.637-.21h-.424q-.599 0-1.372.123l-.583.123q-.211.036-.211.071 0 .423.545.793.266.14.53.246.263.088.334.124 1.304.37 2.255 1.285.44.423.686.899.247.475.247.916 0 .263-.07.564-.123 1.321-1.005 2.29-.863.863-2.166 1.268-1.128.406-2.713.406z"/><path stroke-width="1.193" d="M64.669 30.194q-.315-.047-.546-.111-.42-.093-.524-.155-.05-.087-.025-.502-.015-.114-.021-.179l.017-.126.015-.207q-.01-.05.028-.318-.01-.146-.006-1.077.015-.094-.005-.193 0-.112.005-.145-.013-.13.015-.319.016-.11.016-.222.001-.128.02-.254.013-.32.029-.43l.018-.238q.027-.19.022-.495.018-.126.018-.351-.046-.569.004-.914.043-.3-.019-.663.008-.046.025-.06.037-.027.086-.036.3-.07.725-.01.14.021.394.041.255.022.415.028.077.01.227-.016l2.66.381q.07.074.175.122.24.114.345.29.066.09.045.246-.093.646-.34 1.141l-.724 2.242-.015.11q-.057.056-.077.198l-.062.2-.016.11q-.044.314-.277.925-.171.424-.416 1.113-.003.03-.071.054-.068.022-.164.025-.296.037-1.208-.093zm1.312 4.3q-.55-.078-.857-.187l-.185-.042-.914-.131q-.566-.082-.918-.213-.157-.021-.148-.084l.148-1.377q.01-.174.043-.412.024-.157.047-.217.02-.127.057-.17l.015-.108.028-.19q.01-.078.102-.146.108-.081.217-.066.19.028.302.028l.393.057.378.054.331.046.614.088q.52.075.873.19.428.141.4.33-.08.567-.098.806-.017.126-.077.76l-.084.582q-.046.218-.123.304-.077.1-.21.114-.061-.009-.143-.004-.08.004-.191-.011z"/></g><path fill="#009eff" stroke="#1b1b3d" stroke-width=".72" d="M69.823 20.559q-.681 0-1.372-.153-.682-.163-1.123-.441-.114-.345-.172-.69-.058-.346-.145-.988v-.03q.02-.114.125-.172.365.22.7.336.336.105.74.105h.229l.154.012q.22 0 .45-.068.125-.048.173-.182l-.508-.25q-.585-.278-1.055-.594-.49-.355-.7-.902-.105-.297-.105-.652 0-.863.527-1.39.46-.472 1.246-.673.682-.163 1.497-.163.48 0 1.324.106.087.02.24.038l.287.058q.326.057.48.057.01 0 .029.03l.048.047q.038.067.076.067h.02l.019.201q0 .145.029.307.028.24.028.52 0 .238-.028.343-.049.194-.173.278l-.892-.115h-.23q-.326 0-.748.068l-.318.068q-.115.019-.115.038 0 .23.297.431.145.076.289.134.144.049.181.068.711.202 1.23.7.238.23.373.49.133.259.133.498 0 .145-.037.307-.068.72-.547 1.247-.471.47-1.18.69-.614.221-1.478.221z"/><path fill="#009eff" stroke="#1b1b3d" stroke-width=".768" d="M61.32 20.682q-.973 0-1.474-.45-.42-.359-.573-1.147-.103-.523-.103-1.567 0-.758.082-1.658 0-.145.02-.41.01-.216.021-.604.01-.399.01-.697 0-.153-.02-.215-.021-.142-.021-.225 0-.164.349-.164h.613q.656-.02 1.26.041.42.041.645.092.277.073.369.205.082.154.082.532 0 .46-.011.85-.01.379-.02.677-.01.071-.01.224 0 .206-.02.697-.021.9-.021 1.505 0 .379.031.552.03.165.163.165.278 0 .604-.133.205-.103.287-.155v-4.116q-.03-.235-.03-.46-.02-.061-.02-.173v-.093q0-.184.07-.256.073-.06.339-.06.297 0 .767-.032.163 0 .45-.02.206 0 .298-.032.06 0 .144.02.121 0 .205.013l.306.012q.225.012.563.082l.286.082q.093.03.114.072.03.04.03.102 0 1.515-.06 3.041-.063 2.007-.063 3.03 0 .411-.389.411h-.522q-.205.02-.748.04-.307.02-.48.02l-.472.02q-.277 0-.42-.09-.143-.094-.193-.318-.554.276-1.169.44-.613.154-1.269.154z"/><path fill="#009eff" stroke="#1b1b3d" stroke-width=".8" d="M55.868 20.949q-1.269 0-2.006-.203-1.025-.267-1.557-.992-.62-.865-.62-2.4 0-1.1.246-1.868t.758-1.26q.512-.49 1.312-.715.81-.234 1.974-.234.906 0 1.708.278.981.351 1.525 1.077.672.864.672 2.272 0 1.643-.49 2.561-.492.843-1.42 1.195-.757.289-2.1.289zm-.085-1.036q.128 0 .202-.16.16-.341.225-1.078.064-.67.064-1.269v-.693q0-.47-.064-1.142-.064-.725-.225-1.098-.084-.182-.202-.182-.235 0-.341.447-.108.62-.108 1.12-.031.428-.031 1.335 0 .608.031 1.002 0 .502.108 1.164.106.555.341.555z"/><path fill="#009eff" stroke="#1b1b3d" stroke-width=".833" d="M50.52 21.01q-.045.003-.08-.007-.17-.09-.289-.205-.036-.054-.048-.053-.012-.022-.034-.02l-.023-.013-.047-.04-1.023-1.342q-.075-.14-.205-.3-.083-.072-.144-.158-.048-.064-.093-.061-.032.002-.053.036-.008.034-.017.09-.015.301.014.81.029.488-.01.79-.024.146-.09.15l-.067.003q-.024-.01-.046-.01l-.012-.01q-.386.056-1.159.145-.751.088-1.15.112-.11.006-.178-.012l-.244.013-.2.012-.1.006-.406-.108-.038-.087q-.001-.012-.014-.045l-.005-.088q-.004-.066-.036-.241l-.075-.532-.137-.992-.056-.408q-.012-.2-.032-.354-.02-.155-.037-.266l-.036-.241q-.06-.453-.084-.851v-.034q.009-.023.005-.09.018-.067.01-.21v-.201l.002-.133q-.013-.233-.06-.676-.06-.274-.086-.706-.036-.621.024-.913.078-.405.31-.418 1.253-.072 2.55-.115.29-.017.866-.029l.434-.012q.887-.03 1.231-.05 1.433-.016 2.202.596.35.257.527.636.188.378.214.821.03.511-.133.954-.136.353-.407.657-.261.293-.606.48.069.03.186.133.048.053.163.136l.161.102q.037.053.085.106.046.041.094.095l.558.612q.381.434.493.64.086.139.09.217.007.109-.077.204-.083.093-.254.237-.126.107-.298.205-.162.099-.245.181l-.398.246q-.214.136-.464.238-.012 0-.033.015-.01.012-.042.024-.065.037-.36.144-.053.036-.184.066-.032.024-.077.037-.043.015-.065.016l-.055.004q-.008.056-.041.058l-.034.002zm-2.045-3.806q.343-.02.523-.375.17-.322.169-.722.01-.234-.01-.555l-.007-.122q-.014-.255-.12-.528-.108-.35-.394-.487-.128-.093-.327-.081-.056.003-.081.137-.086.25-.067.783-.031.223-.013.522l.007.334q.016.644.04 1.065 0 .012.012.021.012.012.024.012l.078.006z"/><path fill="#009eff" stroke="#1b1b3d" stroke-width=".854" d="M42.714 21.206q-.753 0-1.252-.069-.65-.09-1.174-.33l-.205-.102q-.125-.08-.215-.149-.377-.318-.616-.717-.193-.205-.352-.568-.308-.797-.308-1.902 0-1.298.536-2.277.466-.933 1.24-1.457.786-.535 1.776-.604l.137-.012h.148q.888 0 1.912.364.092.046.399.183.307.136.57.308l-.206 1.48-.671-.172q-.365-.09-.683-.09-.638 0-.957.478-.341.501-.341 1.628 0 .364.033.511.046.718.32 1.06.261.296.626.296.341 0 .763-.217.363-.17.797-.466l.113 1.867q-.444.41-1.138.694-.66.262-1.252.262z"/><path fill="#009eff" stroke="#1b1b3d" stroke-width=".886" d="M35.263 21.212q-.082.007-.157-.045-.077-.065-.122-.169-.065-.206-.111-.463-.02-.081-.031-.222l-.013-.154-.114-1.46q-.064-.74-.09-1.462l-.32-3.718q-.01-.117.143-.13.811-.07 1.211-.118l1.177-.1q.035-.004.057-.018.024-.013.058-.017.15-.036.422-.048.2-.017.428 0 .075.04.109.013.022-.002.09-.031.178-.016.273 0 .109.014.174.091.067.102.117.251.022.116.054.493l.197 2.294.016.178q-.005.095.024.425.03.352.024.555l.034.53q.003.177.026.447l.004.19.065.753q.06.706.045 1.206.014.164-.054.335-.212.02-.61.078-.189.015-.245.044l-.117.01-.037.004q-.082.007-.084-.017-.097-.016-.108-.015l-.09.056-1.082.093q-.012.012-.187.028l-.447.038-.436.038z"/><path fill="#009eff" stroke="#1b1b3d" stroke-width=".918" d="m27.685 21.055-1.866-.138q-.208-.014-.251-.287-.049-.175-.028-.492.072-1.063.104-1.894.045-1.199.134-2.53l.181-2.685q.008-.11.112-.2.117-.104.227-.096l1.415.108q.402.039 1.013.08.915.063 1.43.085l.453.018q.758.026 1.197.056.757.052 1.445.393.81.374 1.257 1.176.536.968.445 2.324-.087 1.281-.439 2.117-.338.835-.998 1.342-.658.495-1.688.67-1.018.178-2.532.075zm1.82-1.508q.048.016.133.022.098.006.27-.006.062-.009.087-.02.039-.021.064-.03.157-.163.33-.702.108-.337.286-1.16.109-.702.145-1.215l.014-.232q.022-.318.004-.956-.042-.64-.184-.908-.123-.181-.233-.187-.11-.008-.196.01-.087.019-.113.03l-.114.053-.111 1.464q-.013.196-.064.584l-.032.293q-.066.608-.084.877z"/><path fill="#009eff" stroke="#1b1b3d" stroke-width=".971" d="M18.69 21.627q-1.23 0-1.865-.57-.531-.452-.724-1.448-.13-.66-.13-1.982 0-.958.103-2.097 0-.18.027-.518.012-.271.025-.764.013-.505.013-.88 0-.193-.025-.272-.027-.181-.027-.285 0-.206.441-.206h.777q.828-.027 1.592.052.531.052.815.116.35.09.466.26.104.192.104.672 0 .583-.012 1.074-.013.48-.027.855-.012.09-.012.285 0 .258-.026.88-.027 1.139-.027 1.903 0 .48.04.699.039.206.206.206.35 0 .765-.167.258-.13.362-.194v-5.204q-.039-.299-.039-.584-.026-.077-.026-.22v-.115q0-.233.09-.324.09-.078.428-.078.375 0 .97-.039.208 0 .57-.025.26 0 .376-.04.077 0 .18.026.157 0 .26.012l.388.014q.285.012.712.104l.363.103q.117.039.142.09.039.053.039.13 0 1.916-.078 3.844-.077 2.538-.077 3.833 0 .518-.493.518h-.66q-.258.025-.944.051-.389.026-.609.026l-.596.026q-.349 0-.531-.117-.181-.116-.245-.4-.7.35-1.476.556-.776.193-1.606.193z"/><path fill="#009eff" stroke="#1b1b3d" stroke-width="1.035" d="M13.395 21.754q-1.421 0-2.07-.012-.592 0-.91-.014l-1.131-.014q-.124 0-.234-.11-.111-.11-.111-.235v-4.36l-.014-1.131q0-.566.028-1.421 0-.18.041-.925v-.316q0-.387.152-.622.07-.124.22-.124.676 0 1.477.027.11.015.317.015.455 0 .676.013H12.9q.275 0 .427.069.249.139.249.635l-.015.11q0 .042-.027.207-.041.207-.041.304 0 .152.04.386.028.165.028.22l.015.083v3.85q0 .11.124.138.041.013.179.013h1.007q.373-.013 1.131-.013.152 0 .249.096.097.084.097.18v2.663q0 .11-.11.18-.125.054-.29.068-.18.041-.566.041z"/><path fill="#009eff" stroke="#1b1b3d" stroke-width="1.038" d="m54.697 32.79-2.115-.013q-.236 0-.306-.304-.069-.194-.069-.554 0-1.202-.026-2.142-.042-1.356-.042-2.862v-3.043q0-.123.11-.234.125-.124.25-.124l1.603.013q.456.015 1.148.015 1.036 0 1.617-.015l.512-.014q.857-.028 1.355-.028.858 0 1.66.333.94.36 1.507 1.23.677 1.05.677 2.586 0 1.452-.332 2.42-.319.967-1.023 1.588-.705.609-1.853.886-1.134.278-2.848.278zm1.935-1.839q.055.016.154.016.108 0 .302-.03.07-.013.097-.027.042-.028.07-.042.166-.193.317-.815.097-.386.236-1.326.07-.802.07-1.385v-.262q0-.359-.07-1.079-.097-.718-.278-1.008-.15-.194-.276-.194-.123 0-.22.027-.097.028-.125.042l-.123.07-.016 1.658q0 .222-.027.663l-.014.333q-.028.692-.028.996z"/><path fill="#009eff" stroke="#1b1b3d" stroke-width="1.138" d="M44.897 33.265q-.077 0-.229-.015-.15-.031-.363-.046l-.318-.077q-.077-.016-.122-.031-.03-.03-.015-.045 0-.393-.046-1.047 0-.226-.016-.393-.014-.182-.03-.304l-.03-.652q0-.257-.03-.652l-.015-.47q0-.577-.015-.894-.016-.32-.016-1.335 0-.956.016-1.974.015-1.014.092-1.925 0-.167.363-.273.228-.03.758-.03 1.229 0 1.805-.047 1.789-.03 2.7-.03h.667q1.244.032 1.912.092.242 0 .348.576.047.107.107.546.046.228.122.561.015.091 0 .182v.093q-.016.15-.168.15-.06-.016-.182-.016-.637 0-1.562.108l-.803.06q-.501.06-.79.075-.046 0-.121.182-.062.198-.136.91l-.03.379q0 .197.045.257.047.047.196.047h1.35q.593 0 1.351.077h.182q.197.044.242.15.062.092.077.197l.06 1.35v.046q0 .258-.547.303-.318.077-1.213.077-.773 0-1-.016-.44 0-.531.016-.167.046-.213.182-.046.12-.046.423 0 .198-.03.562-.015.182-.015.576.987 0 1.456-.03.516-.047 1.456-.047.062 0 .122.108.076.151.242.681.093.304.182.759.03.106.03.228 0 .318-.303.318-.394 0-1.062.03-.348.031-1.091.031-1.593 0-2.396.016z"/><path fill="#009eff" stroke="#1b1b3d" stroke-width="1.209" d="M37.378 33.846q-.08.007-.242.005-.163-.02-.389-.015l-.343-.054q-.082-.01-.131-.022-.036-.03-.02-.046-.036-.416-.142-1.104-.02-.24-.05-.416-.032-.191-.06-.318l-.09-.687q-.022-.273-.088-.688l-.058-.496q-.05-.61-.095-.947-.043-.336-.134-1.41-.083-1.012-.157-2.09-.074-1.077-.074-2.047-.014-.175.362-.32.237-.053.8-.099 1.3-.108 1.905-.208 1.892-.19 2.855-.27l.707-.058q1.32-.078 2.031-.073.256-.022.42.58.057.108.16.569.068.235.179.582.023.094.015.193l.008.096q-.003.161-.163.175-.065-.01-.195 0-.673.056-1.643.25l-.846.136q-.525.108-.828.15-.046.004-.113.203-.046.214-.063.974v.404q.019.21.072.27.051.045.213.03l1.428-.118q.626-.052 1.435-.039l.193-.015q.213.03.271.139.073.09.097.2l.184 1.425.003.047q.023.273-.55.37-.33.108-1.279.185-.817.07-1.06.074-.466.039-.561.062-.172.063-.209.213-.037.132-.01.453.017.208.017.597 0 .194.035.61 1.044-.086 1.539-.16.54-.093 1.537-.176.064-.005.138.102.093.154.316.7.124.313.26.786.041.111.052.239.028.338-.293.364-.416.035-1.12.126-.368.062-1.154.128-1.687.14-2.536.227z"/><path fill="#009eff" stroke="#1b1b3d" stroke-width="1.25" d="M24.81 33.748q-.283 0-.366-.367-.085-.184-.085-.668 0-1.449-.033-2.583-.05-1.635-.05-3.452v-3.67q0-.149.134-.281.15-.151.3-.151l1.917.017q.535.015 1.401.015 1.25 0 1.935-.015l.616-.016q1-.034 1.65-.034 1.051 0 2.001.3 1.118.334 1.82 1.15.782.884.782 2.384 0 2.535-1.284 3.67-1.135 1.066-3.385 1.066h-2.284q.016.384.016.817 0 .15-.016.367v.55q0 .55-.234.7-.183.15-.683.15-.734 0-1.017.017-1.15 0-1.835.034zm5.97-4.636q.35 0 .516-.667.133-.45.2-1.334.033-.482.033-1.084v-.183q0-.267-.083-.8-.067-.3-.15-.467-.083-.184-.216-.301-.134-.15-.3-.15-.083 0-.151.067-.05.068-.1.168-.184.299-.333 1.333-.05.3-.084.9-.083.918-.083 2.452l.015.015q.019.019.068.034l.2.017z"/><path fill="#009eff" stroke="#1b1b3d" stroke-width="1.321" d="M18.92 34.479q-1.25 0-2.52-.283-1.25-.299-2.06-.81-.211-.634-.318-1.268-.105-.635-.263-1.814v-.054q.035-.211.228-.316.67.404 1.287.616.617.193 1.357.193h.422l.282.019q.404 0 .828-.124.228-.088.316-.334l-.933-.46q-1.074-.51-1.937-1.091-.9-.652-1.286-1.656-.194-.546-.194-1.198 0-1.586.968-2.554.846-.863 2.29-1.233 1.25-.3 2.75-.3.878 0 2.429.193.159.036.44.071l.53.106q.598.105.88.105.018 0 .054.054l.088.088q.07.123.14.123h.035l.036.37q0 .264.052.563.053.441.053.951 0 .441-.053.635-.088.352-.317.51l-1.637-.21h-.424q-.599 0-1.372.123l-.583.123q-.211.036-.211.071 0 .423.545.793.266.14.53.246.263.088.334.124 1.304.37 2.255 1.285.44.423.686.899.247.475.247.916 0 .263-.07.564-.123 1.321-1.005 2.29-.863.863-2.166 1.268-1.128.406-2.713.406z"/><path fill="#009eff" stroke="#1b1b3d" stroke-width="1.193" d="M63.976 29.5q-.315-.046-.546-.11-.42-.093-.524-.155-.05-.087-.025-.502-.015-.114-.021-.179l.017-.126.015-.207q-.01-.05.028-.318-.01-.146-.006-1.077.015-.094-.005-.193 0-.112.005-.145-.013-.13.015-.319.016-.11.016-.222.001-.128.02-.254.013-.32.029-.43l.018-.238q.027-.19.022-.495.018-.126.018-.351-.046-.569.004-.914.043-.3-.019-.663.008-.046.025-.06.037-.027.086-.036.3-.07.725-.01.14.021.394.041.255.022.415.028.077.01.227-.016l2.66.381q.07.074.175.122.24.114.345.29.066.09.045.246-.093.646-.34 1.141l-.724 2.242-.015.11q-.057.056-.077.198l-.062.2-.016.11q-.044.314-.277.925-.171.424-.416 1.113-.003.03-.071.054-.068.022-.164.025-.296.037-1.208-.093zm1.312 4.302q-.55-.079-.857-.188l-.185-.042-.914-.131q-.566-.082-.918-.213-.157-.021-.148-.084l.148-1.377q.01-.174.043-.412.024-.157.047-.217.02-.127.057-.17l.015-.108.028-.19q.01-.078.102-.146.108-.081.217-.066.19.028.302.028l.393.057.378.054.331.046.614.088q.52.075.873.19.428.141.4.33-.08.567-.098.806-.017.126-.077.76l-.084.582q-.046.218-.123.304-.077.1-.21.114-.061-.009-.143-.004-.08.004-.191-.011z"/></svg>
